<?xml version="1.0" encoding="utf-8"?>
<!-- Generator: Adobe Illustrator 17.0.0, SVG Export Plug-In . SVG Version: 6.00 Build 0)  -->
<!DOCTYPE svg PUBLIC "-//W3C//DTD SVG 1.1//EN" "http://www.w3.org/Graphics/SVG/1.1/DTD/svg11.dtd">
<svg version="1.1" id="Layer_1" xmlns="http://www.w3.org/2000/svg" xmlns:xlink="http://www.w3.org/1999/xlink" x="0px" y="0px"
	 width="614px" height="203px" viewBox="0 0 614 203" enable-background="new 0 0 614 203" xml:space="preserve">
<g>
	<path fill="#3498DB" d="M55.5,162h92v14h-92V162z"/>
	<path fill="#231F20" d="M55.5,38v56.343L106.734,38H55.5z M108.18,81.183L147.38,38h-19.399L55.5,117.437V145h24v-30.796
		l13.848-17.203L124.286,144H147.5v-2.083L108.18,81.183z"/>
	<g>
		<path fill="#231F20" d="M203.5,203h-204V0h204V203z M9.5,194h184V9H9.5V194z"/>
	</g>
	<g>
		<path d="M247.5,150V45h7v105H247.5L247.5,150z"/>
		<path d="M282.5,149.769V45h44.092c4.619,0,8.314,0.884,12.471,2.732c3.695,1.848,6.928,4.137,9.7,7.37
			c2.772,3.233,4.619,6.456,6.466,10.613c1.386,3.695,2.309,7.847,2.309,11.542s-0.462,7.388-1.848,11.083s-2.771,6.927-5.081,9.698
			s-4.619,5.08-7.852,6.928s-6.466,3.079-10.161,3.542L358.924,149h-8.776l-25.404-39H290.5v39.306L282.5,149.769L282.5,149.769z
			 M290.5,104h37.016c3.233,0,6.466-1.133,9.238-2.519c2.771-1.386,5.081-3.338,6.928-6.109c1.848-2.309,3.695-5.133,4.619-8.366
			c0.924-3.233,1.386-6.493,1.386-9.726c0-3.233-0.462-6.479-1.848-9.713c-1.386-3.233-2.771-6.011-5.081-8.32
			c-2.309-2.309-4.619-4.354-7.39-5.74C332.597,52.12,329.363,51,326.13,51H290.5V104z"/>
		<path d="M378.5,150V45h8v105H378.5L378.5,150z"/>
		<path d="M455.92,150.693c-7.39,0-13.857-1.386-19.861-4.619c-6.005-3.233-11.085-6.928-15.704-12.009
			c-4.157-5.081-7.852-10.623-10.161-17.09c-2.309-6.466-3.695-12.933-3.695-19.861s1.386-13.857,3.695-20.323
			s6.005-12.009,10.161-17.09c4.157-5.081,9.7-8.776,15.704-11.547c6.005-2.771,12.471-4.157,19.399-4.157
			c7.39,0,13.857,1.386,19.861,4.619c6.005,3.233,11.085,7.39,15.704,12.009c4.157,5.081,7.39,10.623,10.161,17.09
			c2.309,6.466,3.695,12.933,3.695,19.399c0,6.928-1.386,13.857-3.695,20.323c-2.309,6.466-6.005,12.009-10.161,17.09
			c-4.157,5.081-9.7,8.776-15.704,11.547C469.315,149.307,462.849,150.693,455.92,150.693z M414.351,97.576
			c0,6.004,0.924,12.009,3.233,17.552c1.848,5.543,5.081,10.623,8.776,14.78c3.695,4.157,8.314,7.852,13.395,10.162
			c5.081,2.309,10.623,3.695,16.628,3.695c6.466,0,12.009-1.386,17.09-4.157s9.238-6.005,12.933-10.623
			c3.695-4.157,6.466-9.238,8.314-14.78c1.848-5.543,2.771-11.085,2.771-16.628c0-6.004-0.924-12.009-3.233-17.552
			c-1.848-5.543-5.081-10.623-8.776-14.78s-7.852-7.852-12.933-10.162c-5.081-2.771-10.623-3.695-16.628-3.695
			c-6.466,0-12.009,1.386-17.09,4.157s-9.7,6.004-12.933,10.623c-3.695,4.619-6.466,9.238-8.314,14.78
			C415.274,86.029,414.351,91.572,414.351,97.576z"/>
		<path d="M532.5,59.24V150h-7V45h5.708l73.292,92.298V45h7v105h-6.39L532.5,59.24z"/>
	</g>
</g>
</svg>
