<?xml version="1.0" encoding="utf-8"?>
<!-- Generator: Adobe Illustrator 17.0.0, SVG Export Plug-In . SVG Version: 6.00 Build 0)  -->
<!DOCTYPE svg PUBLIC "-//W3C//DTD SVG 1.1//EN" "http://www.w3.org/Graphics/SVG/1.1/DTD/svg11.dtd">
<svg version="1.1" id="Capa_1" xmlns="http://www.w3.org/2000/svg" xmlns:xlink="http://www.w3.org/1999/xlink" x="0px" y="0px"
	 width="612px" height="792px" viewBox="0 0 612 792" enable-background="new 0 0 612 792" xml:space="preserve">
<path id="XMLID_541_" fill="#A752EF" d="M381.789,281.391c113.152,45.01,120.303,102.554,131.13,189.658
	c1.031,8.293,2.098,16.867,3.296,25.777c0.918,6.835-3.877,13.121-10.712,14.042c-0.565,0.076-1.127,0.112-1.68,0.112
	c-6.158,0-11.518-4.554-12.362-10.824c-1.214-9.033-2.289-17.671-3.326-26.025c-10.417-83.814-16.156-129.984-115.577-169.533
	c-6.409-2.549-9.537-9.81-6.987-16.218C368.12,281.97,375.387,278.844,381.789,281.391z M364.643,445.457
	c5.811,3.712,13.533,2.011,17.247-3.802c3.712-5.813,2.011-13.533-3.802-17.247l-50.978-32.563
	c-3.844-2.454-8.72-2.621-12.722-0.428c-4,2.192-6.488,6.389-6.488,10.951v104.6c0,32.757,12.633,56.264,35.575,66.189
	c1.616,0.699,3.297,1.03,4.952,1.03c4.827,0,9.427-2.818,11.466-7.532c2.739-6.33-0.171-13.68-6.503-16.42
	c-16.956-7.335-20.516-27.578-20.516-43.267V425.16L364.643,445.457z M309.783,216.469c2.376,2.105,5.333,3.141,8.278,3.141
	c3.448,0,6.883-1.421,9.351-4.206c14.597-16.476,23.08-18.705,25.334-18.996c6.841-0.884,11.667-7.145,10.784-13.986
	c-0.885-6.841-7.145-11.667-13.985-10.783c-12.53,1.619-26.266,10.772-40.826,27.202
	C304.147,204.003,304.624,211.895,309.783,216.469z M252.687,391.419c-3.997-2.19-8.874-2.028-12.722,0.428L188.98,424.41
	c-5.811,3.711-7.514,11.433-3.802,17.246c3.711,5.813,11.431,7.516,17.247,3.803l31.775-20.293v81.808
	c0,15.688-3.56,35.929-20.524,43.267c-44.845,19.405-76.302,34.553-103.857,67.019c-8.996,10.6-20.864,14.877-30.238,10.906
	c-11.81-5.008-17.486-21.939-15.184-45.29c1.808-18.298,4.597-37.207,7.293-55.495c1.69-11.463,3.438-23.318,4.933-34.937
	c0.814-6.272,1.573-12.375,2.31-18.314c10.422-83.816,16.16-129.984,115.579-169.531c6.409-2.549,9.537-9.81,6.987-16.218
	c-2.548-6.408-9.807-9.537-16.217-6.987C72.134,326.401,64.98,383.946,54.15,471.049c-0.732,5.897-1.487,11.955-2.296,18.196
	c-1.468,11.402-3.198,23.14-4.872,34.492c-2.74,18.578-5.573,37.79-7.437,56.685c-3.433,34.796,7.891,61.238,30.287,70.734
	c5.508,2.336,11.294,3.468,17.126,3.468c14.964,0,30.233-7.459,41.899-21.205c24.105-28.401,51.871-41.712,94.733-60.26
	c22.945-9.925,35.582-33.431,35.582-66.189V402.371C259.174,397.809,256.688,393.61,252.687,391.419z M357.578,228.323
	c-27.86,9.79-49.682,41.66-49.682,72.557l0.003,34.206c0,4.261,2.173,8.229,5.766,10.522l51.481,32.884
	c2.083,1.331,4.409,1.967,6.71,1.967c4.121,0,8.154-2.037,10.536-5.767c3.712-5.811,2.011-13.532-3.802-17.246l-45.715-29.203
	l-0.003-27.366c0-20.273,15.106-42.711,32.984-48.993c6.507-2.287,9.927-9.415,7.643-15.922
	C371.212,229.458,364.08,226.038,357.578,228.323z M536.727,543.383c-4.047,2.582-8.377,5.186-12.95,7.795
	c0.452,3.526,0.924,6.964,1.385,10.324c0.91,6.648,1.77,12.927,2.363,18.921c3.432,34.8-7.892,61.242-30.29,70.738
	c-5.507,2.335-11.293,3.468-17.125,3.468c-14.964,0-30.231-7.459-41.897-21.206c-10.756-12.672-22.271-22.565-37.075-31.808
	c-17.858,5.136-34.608,8.955-49.234,11.171c-21.573,3.27-51.05,5.475-57.997-13.026c-1.661-4.437-2.43-11.577,3.326-20.46
	c3.749-5.786,11.478-7.441,17.269-3.688c4.768,3.091,6.73,8.88,5.174,14.06c14.175,1.95,56.452-3.362,118.92-26.817
	c61.324-23.03,96.492-46.416,106.634-57.473c-5.968-1.739-9.841-7.693-8.817-13.987c1.104-6.808,7.517-11.428,14.326-10.325
	c13.818,2.242,19.089,9.038,21.077,14.343C578.764,513.904,555.118,531.646,536.727,543.383z M502.671,582.873
	c-0.546-5.521-1.373-11.573-2.253-17.982c-0.059-0.435-0.119-0.873-0.179-1.312c-16.109,7.886-34.038,15.588-52.86,22.655
	c-5.454,2.048-10.889,4.007-16.274,5.869c9.619,7.51,18.171,15.754,26.15,25.155c8.995,10.598,20.862,14.879,30.233,10.907
	C499.296,623.157,504.974,606.225,502.671,582.873z M296.021,149.864c0-6.898-5.59-12.487-12.487-12.487s-12.487,5.59-12.487,12.487
	v30.655c0,6.898,5.59,12.487,12.487,12.487s12.487-5.59,12.487-12.487V149.864z M217.526,171.639
	c-6.839-0.883-13.101,3.943-13.985,10.783c-0.884,6.841,3.945,13.101,10.783,13.985c2.251,0.292,10.735,2.521,25.334,18.996
	c2.467,2.786,5.901,4.207,9.351,4.207c2.945,0,5.901-1.035,8.278-3.141c5.162-4.574,5.637-12.465,1.066-17.628
	C243.794,182.41,230.057,173.257,217.526,171.639z M209.494,228.323c-6.501-2.284-13.633,1.135-15.922,7.641
	c-2.285,6.507,1.135,13.635,7.643,15.922c17.879,6.283,32.984,28.719,32.984,48.993v27.366l-45.722,29.203
	c-5.811,3.712-7.514,11.433-3.802,17.246c2.382,3.729,6.416,5.768,10.536,5.768c2.299,0,4.628-0.635,6.709-1.965l51.487-32.884
	c3.592-2.294,5.766-6.262,5.766-10.524v-34.208C259.174,269.984,237.353,238.113,209.494,228.323z"/>
</svg>
