<?xml version="1.0" encoding="utf-8"?>
<!-- Generator: Adobe Illustrator 17.0.0, SVG Export Plug-In . SVG Version: 6.00 Build 0)  -->
<!DOCTYPE svg PUBLIC "-//W3C//DTD SVG 1.1//EN" "http://www.w3.org/Graphics/SVG/1.1/DTD/svg11.dtd">
<svg version="1.1" id="Capa_1" xmlns="http://www.w3.org/2000/svg" xmlns:xlink="http://www.w3.org/1999/xlink" x="0px" y="0px"
	 width="612px" height="792px" viewBox="0 0 612 792" enable-background="new 0 0 612 792" xml:space="preserve">
<g>
	<path fill="#00A651" d="M174.04,433.996c5.007,0.656,10.059,0.903,15.105,0.935c50.141-0.312,96.796-29.443,118.459-74.807
		c21.026-44.033,14.999-96.222-13.32-134.723c46.959,1.378,93.113,15.274,131.203,43.614c18.927,14.082,34.799,32.39,45.891,53.193
		c2.793,5.238,4.798,10.867,8.369,15.65c4.326,5.795,9.919,10.432,16.595,13.275c14.298,6.087,30.536,3.973,42.682-5.818
		c10.274-8.283,15.866-21.463,15.024-34.596c-0.868-13.532-9.183-26.704-15.956-38.1c-14.386-24.204-33.537-45.551-55.315-63.312
		c-48.546-39.59-109.339-61.148-171.476-65.752c-70.723-5.239-142.626,12.778-200.255,54.599c-0.59,0.429-1.153,0.931-1.679,1.481
		c-21.423,16.928-37.236,39.051-45.62,65.191c-8.203,25.582-7.668,54.045,0.593,79.522
		C80.149,393.109,123.697,427.41,174.04,433.996z M120.973,215.113c0.334-0.256,0.659-0.539,0.978-0.834
		c48.206-34.635,105.14-51.519,164.329-52.003c61.845-0.504,123.323,17.682,173.632,53.917
		c22.318,16.075,41.872,36.359,56.97,59.341c6.802,10.354,15.046,22.609,17.591,34.887c2.147,10.358-5.561,20.532-14.974,23.728
		c-12.088,4.103-22.685-3.457-27.492-14.142c-4.892-10.871-11.253-21.04-18.495-30.489c-15.573-20.317-35.207-36.973-57.184-50.03
		c-42.871-25.47-93.787-35.881-143.294-33.405c-8.227,0.411-13.3,10.481-6.907,16.674c34.302,33.231,44.704,85.431,23.988,128.808
		c-18.506,38.752-58.149,63.567-100.969,63.832c-44.785-0.278-86.525-27.671-103.481-69.423
		C66.99,299.997,81.452,245.384,120.973,215.113z"/>
	<path fill="#00A651" d="M189.144,371.986c25.797-0.328,49.659-14.822,61.207-38.029c11.846-23.802,8.353-52.727-8.249-73.33
		c-16.494-20.468-43.315-28.99-68.762-23.436c-24.872,5.428-44.695,26.252-50.668,50.668
		C112.255,330.449,146.07,371.44,189.144,371.986z M168.711,259.324c19.788-9.847,45.61-3.078,58.908,14.255
		c13.869,18.078,13.683,43.976-1.121,61.476c-9.357,11.062-22.936,17.213-37.354,17.396c-22.971-0.292-42.2-15.958-47.635-38.177
		C136.01,291.793,148.624,269.32,168.711,259.324z"/>
	<path fill="#00A651" d="M125.277,605.384c47.581,40.442,107.92,62.897,169.725,68.585c72.5,6.674,146.812-11.199,205.987-54.14
		c0.591-0.429,1.153-0.931,1.679-1.481c21.423-16.928,37.236-39.051,45.62-65.189c8.204-25.582,7.668-54.045-0.593-79.522
		c-15.81-48.765-59.359-83.066-109.701-89.652c-5.007-0.656-10.059-0.903-15.105-0.935c-50.141,0.312-96.795,29.444-118.457,74.807
		c-21.026,44.033-14.999,96.221,13.319,134.722c-46.959-1.377-93.113-15.272-131.203-43.613
		c-18.927-14.082-34.799-32.39-45.889-53.193c-2.738-5.135-4.708-10.663-8.162-15.381c-4.12-5.634-9.485-10.19-15.831-13.137
		c-12.705-5.901-27.247-4.952-39.25,2.193c-11.893,7.081-18.503,19.995-19.505,33.486c-1.005,13.557,7.155,26.836,13.561,38.192
		C85.253,565.562,103.946,587.256,125.277,605.384z M91.769,484.08c10.137-3.659,20.924,0.83,26.316,9.888
		c2.923,4.909,4.959,10.41,7.753,15.419c3.021,5.419,6.446,10.605,10.088,15.625c14.97,20.641,34.251,37.631,55.835,51.099
		c43.608,27.209,96.257,38.339,147.243,35.789c8.227-0.411,13.299-10.481,6.907-16.674c-34.304-33.231-44.702-85.431-23.988-128.808
		c18.506-38.752,58.149-63.567,100.969-63.832c44.786,0.278,86.526,27.67,103.483,69.423c18.673,45.976,4.211,100.588-35.31,130.86
		c-0.334,0.256-0.659,0.539-0.978,0.834c-48.206,34.635-105.141,51.52-164.33,52.003c-61.845,0.504-123.323-17.682-173.632-53.917
		c-22.318-16.075-41.872-36.359-56.97-59.341c-6.802-10.354-15.046-22.609-17.59-34.887
		C75.511,497.649,82.697,487.354,91.769,484.08z"/>
	<path fill="#00A651" d="M438.693,580.792c24.872-5.428,44.695-26.252,50.668-50.668c10.419-42.592-23.398-83.581-66.472-84.128
		c-25.797,0.328-49.658,14.823-61.207,38.031c-11.846,23.802-8.352,52.726,8.249,73.33
		C386.425,577.827,413.248,586.347,438.693,580.792z M385.536,482.927c9.356-11.062,22.936-17.213,37.354-17.396
		c22.972,0.292,42.201,15.958,47.637,38.179c5.499,22.481-7.115,44.955-27.202,54.95c-19.79,9.847-45.609,3.08-58.908-14.256
		C370.547,526.326,370.733,500.428,385.536,482.927z"/>
</g>
</svg>
