<?xml version="1.0" encoding="utf-8"?>
<!-- Generator: Adobe Illustrator 17.0.0, SVG Export Plug-In . SVG Version: 6.00 Build 0)  -->
<!DOCTYPE svg PUBLIC "-//W3C//DTD SVG 1.1//EN" "http://www.w3.org/Graphics/SVG/1.1/DTD/svg11.dtd">
<svg version="1.1" id="Capa_1" xmlns="http://www.w3.org/2000/svg" xmlns:xlink="http://www.w3.org/1999/xlink" x="0px" y="0px"
	 width="413px" height="532px" viewBox="0 0 413 532" enable-background="new 0 0 413 532" xml:space="preserve">
<g>
	<path fill="#007AC2" d="M350.475,140.452c0-40.383-33.018-74.269-77.782-84.151v-2.92c0-3.305-2.679-6.016-5.985-6.016
		c-3.354,0-6.049,2.712-6.049,6.016v13.926c0,3.305,2.695,6.001,6.049,6.001c2.985,0,5.343-2.262,5.776-5.086
		c37.127,9.498,64.145,38.185,64.145,72.215c0,41.764-40.656,117.122-90.81,117.122s-90.778-75.359-90.778-117.122
		c0-34.735,28.109-64,66.375-72.873l0.064-0.722v0.465c0,3.305,2.679,6.001,5.968,6.001c3.337,0,6.016-2.695,6.016-6.001V53.379
		c0-3.305-2.679-6.016-6.016-6.016c-3.289,0-5.968,2.712-5.968,6.016v2.326c-46.03,9.162-80.301,43.576-80.301,84.745
		c0,44.539,40.158,116.705,91.965,127.23h-1.508v129.668c0,34.319-26.168,62.251-58.273,62.251
		c-32.169,0-58.305-27.933-58.305-62.251v-81.504c12.948-5.856,21.435-18.724,21.435-33.067c0-20.12-16.365-36.501-36.452-36.501
		c-20.135-0.016-36.517,16.365-36.517,36.501c0,14.938,9.001,28.045,22.687,33.612v82.435c0,48.405,39.1,87.81,87.168,87.81
		c48.005,0,87.072-39.405,87.072-87.809l-0.048-131.145h-1.508v-0.048C310.54,256.852,350.475,184.878,350.475,140.452z
		 M173.379,477.091c-42.806,0-77.606-35.104-77.606-78.263v-89.351l-3.417-1.011c-11.536-3.45-19.269-13.781-19.269-25.671
		c0-14.873,12.113-26.97,26.97-26.97c14.841,0,26.939,12.097,26.939,26.97c0,11.408-7.332,21.596-18.226,25.35l-3.241,1.107v88.115
		c0,39.581,30.452,71.781,67.851,71.781c37.383,0,67.802-32.201,67.802-71.781V267.81l9.707-0.048l0.064,131.081
		C250.969,441.986,216.137,477.091,173.379,477.091z M102.993,301.711h-5.648c-9.434-1.38-16.766-9.466-16.766-19.301
		c0-10.814,8.776-19.574,19.59-19.574c10.798,0,19.606,8.76,19.606,19.574C119.775,292.245,112.46,300.332,102.993,301.711z"/>
</g>
</svg>
