<?xml version="1.0" encoding="utf-8"?>
<!-- Generator: Adobe Illustrator 17.0.0, SVG Export Plug-In . SVG Version: 6.00 Build 0)  -->
<!DOCTYPE svg PUBLIC "-//W3C//DTD SVG 1.1//EN" "http://www.w3.org/Graphics/SVG/1.1/DTD/svg11.dtd">
<svg version="1.1" id="Layer_1" xmlns="http://www.w3.org/2000/svg" xmlns:xlink="http://www.w3.org/1999/xlink" x="0px" y="0px"
	 width="506.667px" height="542.667px" viewBox="0 0 506.667 542.667" enable-background="new 0 0 506.667 542.667"
	 xml:space="preserve">
<g>
	<path fill="#31A64A" d="M164.188,463.276c-47.14,0-59.731-103.682-59.731-164.942c0-12.458-5.913-28.736-12.209-45.978
		c-13.654-37.523-30.679-84.199-1.046-127.402c18.836-27.44,39.201-40.23,64.133-40.23c16.129,0,31.692,5.199,48.187,10.731
		c16.361,5.465,33.287,11.112,50.612,11.112c17.607,0,34.433-5.531,50.712-10.897c16.245-5.349,31.576-10.398,47.639-10.398
		c24.899,0,45.828,12.541,65.86,39.5c31.062,41.776,14.069,89.647,0.399,128.15c-6.096,17.159-11.843,33.387-11.843,45.413
		c0,27.424-2.89,164.228-59.748,164.228c-39.284,0-48.502-40.646-56.608-76.491c-8.255-36.443-14.75-58.569-35.131-58.569
		c-23.437,0-31.71,31.144-40.48,64.133C205.598,426.833,195.915,463.276,164.188,463.276z M155.319,98.028
		c-20.414,0-36.826,10.63-53.17,34.45c-25.763,37.539-10.713,78.867,2.575,115.31c6.694,18.371,13.023,35.729,13.023,50.529
		c0,74.531,17.358,151.637,46.426,151.637c21.51,0,29.467-29.999,37.905-61.774c9.219-34.683,19.667-74.016,53.32-74.016
		c32.473,0,40.414,35.048,48.104,68.933c9.053,39.949,16.959,66.126,43.653,66.126c31.909,0,46.443-78.236,46.443-150.923
		c0-14.318,6.129-31.593,12.624-49.864c13.255-37.357,28.271-79.697,1.445-115.792c-17.54-23.604-34.55-34.135-55.18-34.135
		c-13.92,0-28.288,4.717-43.486,9.733c-17.275,5.697-35.115,11.577-54.864,11.577c-19.484,0-37.44-5.996-54.831-11.81
		C183.872,102.896,169.288,98.028,155.319,98.028z"/>
</g>
</svg>
