<?xml version="1.0" encoding="utf-8"?>
<!-- Generator: Adobe Illustrator 17.0.0, SVG Export Plug-In . SVG Version: 6.00 Build 0)  -->
<!DOCTYPE svg PUBLIC "-//W3C//DTD SVG 1.1//EN" "http://www.w3.org/Graphics/SVG/1.1/DTD/svg11.dtd">
<svg version="1.1" id="Capa_1" xmlns="http://www.w3.org/2000/svg" xmlns:xlink="http://www.w3.org/1999/xlink" x="0px" y="0px"
	 width="612px" height="792px" viewBox="0 0 612 792" enable-background="new 0 0 612 792" xml:space="preserve">
<path fill="#DA1F43" d="M600.702,293.102c-3.157-88.542-76.171-159.601-165.471-159.601c-50.422,0-97.894,23.032-129.231,62.154
	c-31.336-39.123-78.809-62.154-129.231-62.154c-89.3,0-162.314,71.058-165.471,159.601c-0.069,0.443-0.106,0.898-0.106,1.36
	c0,0.796,0.005,1.594,0.015,2.393c-0.011,0.738-0.015,1.481-0.015,2.222c0,0.42,0.03,0.831,0.088,1.236
	c0.792,26.508,6.957,53.783,18.389,81.558c-0.004,0.095-0.015,0.188-0.015,0.284c0,2.555,1.114,4.844,2.876,6.428
	c6.686,15.167,14.928,30.475,24.727,45.884c24.145,37.972,57.736,76.679,99.839,115.046
	c71.396,65.063,143.837,107.399,144.561,107.819c1.344,0.78,2.844,1.17,4.345,1.17s3.002-0.39,4.345-1.17
	c0.724-0.42,73.164-42.756,144.561-107.819c42.103-38.366,75.693-77.075,99.839-115.046c29.239-45.98,44.689-91.079,45.976-134.153
	c0.058-0.404,0.088-0.817,0.088-1.236v-4.616C600.807,293.999,600.771,293.545,600.702,293.102z M540.225,425.044
	c-23.286,36.652-55.836,74.154-96.748,111.466c-60.108,54.819-120.971,93.201-137.478,103.246
	C289.494,629.71,228.63,591.33,168.522,536.51c-40.912-37.311-73.462-74.815-96.748-111.466
	c-7.308-11.501-13.689-22.92-19.156-34.237h91.109l16.07,32.139c1.595,3.193,4.988,5.079,8.541,4.747
	c3.554-0.33,6.54-2.808,7.52-6.239l27.117-94.909l29.923,149.613c0.809,4.045,4.36,6.957,8.486,6.957
	c4.125,0,7.677-2.911,8.486-6.957l17.071-85.353h61.403l16.07,32.139c1.609,3.217,5.037,5.102,8.617,4.739
	c3.578-0.364,6.558-2.904,7.484-6.38l29.22-109.573l37.235,119.155c1.093,3.493,4.266,5.924,7.924,6.066
	c3.664,0.154,7.011-2.033,8.37-5.433l16.288-40.714h99.83C553.914,402.125,547.532,413.543,540.225,425.044z M566.909,373.857
	c-0.777-0.228-1.597-0.356-2.447-0.356h-110.77c-3.539,0-6.721,2.154-8.034,5.439l-9.424,23.561l-38.896-124.467
	c-1.149-3.677-4.552-6.119-8.442-6.071c-3.852,0.082-7.186,2.7-8.178,6.422l-31.038,116.389l-8.245-16.491
	c-1.465-2.932-4.462-4.783-7.74-4.783h-73.846c-4.125,0-7.677,2.911-8.486,6.957l-9.976,49.878L212.948,288.15
	c-0.783-3.917-4.146-6.788-8.136-6.949c-3.987-0.163-7.573,2.429-8.671,6.269l-30.812,107.84l-8.512-17.024
	c-1.465-2.932-4.462-4.783-7.74-4.783H44.947c-10.584-26.248-16.096-51.88-16.43-76.638
	c1.186-80.741,67.235-146.056,148.252-146.056c48.718,0,94.366,24.018,122.107,64.251c1.615,2.342,4.279,3.742,7.124,3.742
	c2.845,0,5.51-1.399,7.124-3.742c27.741-40.233,73.388-64.251,122.107-64.251c81.017,0,147.066,65.315,148.252,146.056
	C583.148,321.734,577.586,347.486,566.909,373.857z"/>
</svg>
