<?xml version="1.0" encoding="utf-8"?>
<!-- Generator: Adobe Illustrator 17.0.0, SVG Export Plug-In . SVG Version: 6.00 Build 0)  -->
<!DOCTYPE svg PUBLIC "-//W3C//DTD SVG 1.1//EN" "http://www.w3.org/Graphics/SVG/1.1/DTD/svg11.dtd">
<svg version="1.1" id="Capa_1" xmlns="http://www.w3.org/2000/svg" xmlns:xlink="http://www.w3.org/1999/xlink" x="0px" y="0px"
	 width="612px" height="792px" viewBox="0 0 612 792" enable-background="new 0 0 612 792" xml:space="preserve">
<g>
	<g>
		<path fill="#EB9B22" d="M233.085,277.764c3.633,28.418-35.573,62.104-50.999,72.672l8.766,12.808
			c2.59-1.766,63.239-43.815,57.612-87.466L233.085,277.764z"/>
		<path fill="#EB9B22" d="M528.311,435.37c20.669-68.308-44.135-168.884-46.898-173.148l-1.547-2.352l-2.7-0.824
			c-33.505-10.292-46.724-16.99-51.847-20.411c3.385-0.962,8.344-1.802,12.892-2.097l6.468-0.401l0.777-6.432
			c3.495-29.589-2.122-52.918-16.724-69.341c-15.841-17.823-41.338-26.863-75.739-26.863c-21.354,0-39.799,3.558-47,5.151
			c-7.191-1.593-25.654-5.151-46.98-5.151c-34.42,0-59.9,9.04-75.747,26.863c-14.602,16.422-20.219,39.745-16.724,69.341
			l0.769,6.432l6.45,0.401c4.548,0.294,9.533,1.135,12.928,2.097c-5.123,3.43-18.353,10.118-51.886,20.411l-2.671,0.824
			l-1.547,2.352c-2.781,4.254-67.585,104.84-46.89,173.148c5.481,18.079,16.369,32.242,32.461,42.325
			c-12.013,8.344-28.215,23.624-29.351,45.819c-1.536,30.557,26.367,62.653,82.964,95.417c5.673,4.704,49.013,39.571,88.829,39.571
			c14.794,0,33.697-4.967,47.391-25.948c13.715,20.978,32.618,25.948,47.412,25.948c39.817,0,83.156-34.878,88.801-39.571
			c56.598-32.763,84.501-64.857,82.954-95.417c-1.097-22.195-17.327-37.475-29.341-45.819
			C511.914,467.609,522.82,453.439,528.311,435.37z M258.593,642.971c-25.232-0.01-53.734-17.604-68.745-28.308
			c19.424-10.047,58.829-33.303,60.997-57.804l-15.454-1.362c-1.401,15.911-36.396,37.858-59.708,48.885
			c-49.13-28.773-74.528-56.405-73.375-80.027c1.217-25.252,32.707-39.853,33.037-39.991l16.093-7.245l-1.071-0.475
			c20.439-9.561,51.847-20.733,69.844-13.303c6.616,2.746,10.906,7.961,13.055,15.976l14.986-4.045
			c-3.441-12.79-10.906-21.628-22.124-26.268c-30.422-12.57-80.321,12.105-94.236,19.58c-17.192-8.263-28.162-20.585-33.366-37.695
			c-17.001-56.066,34.136-142.581,43.595-157.85c53.862-16.753,64.034-26.551,62.817-36.833
			c-1.107-9.231-12.314-13.045-23.585-14.539c-1.565-21.986,2.945-39.114,13.503-50.97c15.891-17.913,43.669-21.655,64.144-21.655
			c15.436,0,29.425,2.058,37.94,3.641v461.261l0.468,1.317c0.054,0.11,0.081,0.202,0.138,0.302
			C289.125,633.913,276.399,642.971,258.593,642.971z M480.086,468.552c-13.915-7.447-63.789-32.114-94.236-19.562
			c-11.243,4.637-18.673,13.478-22.124,26.268l14.968,4.045c2.168-8.015,6.442-13.219,13.055-15.976
			c17.969-7.429,49.406,3.743,69.88,13.303l-0.989,0.448l16.011,7.273c0.302,0.138,31.82,14.74,33.029,39.991
			c1.135,23.451-23.916,50.878-72.353,79.414c-23.284-11.208-56.998-32.654-58.39-48.26l-15.454,1.362
			c2.122,23.952,39.788,46.707,59.634,57.101c-14.713,10.604-43.925,29.013-69.706,29.013c-17.796,0-30.557-9.075-38.966-27.438
			c0.028-0.1,0.082-0.192,0.12-0.302l0.493-1.317V152.66c8.49-1.583,22.517-3.641,37.94-3.641c20.467,0,48.235,3.75,64.144,21.655
			c10.548,11.857,15.06,28.985,13.503,50.97c-11.271,1.49-22.489,5.307-23.585,14.539c-1.217,10.292,8.958,20.084,62.817,36.833
			c9.423,15.262,60.557,101.785,43.567,157.85C508.246,447.985,497.248,460.3,480.086,468.552z"/>
		<path fill="#EB9B22" d="M378.915,277.764l-15.397-1.987c-5.591,43.651,55.051,85.7,57.64,87.466l8.766-12.808
			C414.486,339.871,375.244,306.182,378.915,277.764z"/>
	</g>
</g>
</svg>
