<?xml version="1.0" encoding="utf-8"?>
<!-- Generator: Adobe Illustrator 17.0.0, SVG Export Plug-In . SVG Version: 6.00 Build 0)  -->
<!DOCTYPE svg PUBLIC "-//W3C//DTD SVG 1.1//EN" "http://www.w3.org/Graphics/SVG/1.1/DTD/svg11.dtd">
<svg version="1.1" id="Capa_1" xmlns="http://www.w3.org/2000/svg" xmlns:xlink="http://www.w3.org/1999/xlink" x="0px" y="0px"
	 width="612px" height="792px" viewBox="0 0 612 792" enable-background="new 0 0 612 792" xml:space="preserve">
<path id="XMLID_2005_" fill="#A344D7" d="M294.195,123.875v-11.863c0-6.91,5.601-12.512,12.512-12.512s12.512,5.601,12.512,12.512
	v11.863c0,6.91-5.601,12.512-12.512,12.512S294.195,130.786,294.195,123.875z M444.99,193.664c3.203,0,6.403-1.222,8.848-3.664
	l8.388-8.388c4.886-4.886,4.886-12.81,0-17.696c-4.887-4.885-12.808-4.885-17.696,0l-8.388,8.388c-4.886,4.886-4.886,12.81,0,17.696
	C438.587,192.442,441.788,193.664,444.99,193.664z M502.272,331.948h11.861c6.91,0,12.512-5.601,12.512-12.512
	c0-6.91-5.601-12.512-12.512-12.512h-11.861c-6.91,0-12.512,5.601-12.512,12.512C489.76,326.347,495.361,331.948,502.272,331.948z
	 M99.28,331.948h11.865c6.91,0,12.512-5.601,12.512-12.512c0-6.91-5.601-12.512-12.512-12.512H99.28
	c-6.91,0-12.512,5.601-12.512,12.512C86.77,326.347,92.37,331.948,99.28,331.948z M466.547,448.234
	c-43.065-28.592-100.083-44.341-160.548-44.341s-117.485,15.747-160.546,44.341c-44.64,29.64-69.226,69.567-69.226,112.427
	c0,6.91,5.601,12.512,12.512,12.512h90.862c4.157,0,8.042-2.065,10.368-5.51c2.328-3.445,2.791-7.82,1.238-11.675l-14.567-36.183
	c-2.58-6.411-9.872-9.514-16.28-6.933c-6.41,2.58-9.514,9.871-6.933,16.28l7.65,19h-58.904c4.39-29.562,24.285-57.267,57.118-79.068
	c39.007-25.9,91.106-40.164,146.705-40.164s107.698,14.263,146.705,40.164c32.835,21.801,52.73,49.506,57.12,79.068h-58.901
	l7.651-18.999c2.58-6.41-0.522-13.699-6.932-16.28c-6.415-2.581-13.699,0.522-16.28,6.932l-14.57,36.183
	c-1.553,3.856-1.088,8.232,1.237,11.676c2.328,3.445,6.212,5.51,10.37,5.51h90.865c6.91,0,12.512-5.601,12.512-12.512
	C535.773,517.801,511.188,477.876,466.547,448.234z M376.809,563.784c17.806,17.045,15.67,51.792,6.156,76.866
	c-11.938,31.452-34.37,50.811-60.008,51.786c-4.551,0.176-10.745,0.098-16.954-1.835c-4.918,1.532-9.83,1.896-13.92,1.896
	c-1.072,0-2.089-0.025-3.034-0.061c-25.641-0.976-48.076-20.337-60.013-51.79c-9.517-25.072-11.65-59.82,6.155-76.861
	c13.056-12.497,32.797-16.276,50.936-10.259c-0.16-1.451-0.272-2.913-0.339-4.386c-5.538-11.403-13.622-21.615-23.488-29.65
	c-5.357-4.366-6.165-12.245-1.8-17.602c4.366-5.36,12.247-6.162,17.603-1.8c5.222,4.254,10.054,8.982,14.433,14.098
	c1.898-4.381,4.192-8.688,6.873-12.852c16.788-26.043,44.991-40.472,70.195-35.879c3.262,0.595,6.157,2.46,8.046,5.186
	c14.579,21.052,13.097,52.698-3.69,78.747c-1.8,2.792-3.732,5.452-5.776,7.967C371.329,559.165,374.233,561.32,376.809,563.784z
	 M310.725,545.655c0.014,0.335-0.294,9.476,2.925,15.436c13.898-0.171,29.388-9.923,39.276-25.261
	c9.884-15.337,12.369-33.471,6.788-46.2c-13.898,0.171-29.388,9.924-39.274,25.263C314.102,524.717,310.807,535.691,310.725,545.655
	z M359.504,581.861c-3.193-3.056-7.638-5.1-12.535-5.824c-13.194,8.052-27.963,11.618-41.895,9.451
	c-7.65-0.007-14.793-2.68-23.034-6.67c-4.455-2.157-8.868-3.06-12.952-3.06c-6.945,0-12.942,2.609-16.594,6.105
	c-6.703,6.417-8.634,27.322-0.063,49.906c3.093,8.148,14.941,34.802,37.568,35.664c4.784,0.182,8.049-0.246,9.978-1.305
	c3.752-2.06,8.295-2.06,12.048,0c1.928,1.061,5.192,1.482,9.982,1.305c22.622-0.862,34.471-27.514,37.565-35.661
	C368.14,609.186,366.21,588.279,359.504,581.861z M159.575,190.001c2.443,2.443,5.645,3.664,8.848,3.664s6.403-1.222,8.848-3.664
	c4.886-4.886,4.886-12.81,0-17.696l-8.388-8.388c-4.887-4.885-12.808-4.885-17.696,0c-4.886,4.886-4.886,12.81,0,17.696
	L159.575,190.001z M247.535,288.257c0-34.784,22.254-65.244,55.377-75.797c2.47-0.787,5.127-0.787,7.597,0
	c33.122,10.554,55.377,41.015,55.377,75.797c0,34.781-22.256,65.244-55.377,75.797c-1.236,0.393-2.518,0.591-3.799,0.591
	c-1.28,0-2.564-0.198-3.799-0.591C269.789,353.502,247.535,323.042,247.535,288.257z M272.557,288.257
	c0,22.488,13.567,42.338,34.151,50.591c20.586-8.253,34.152-28.104,34.152-50.591c0-22.488-13.568-42.338-34.152-50.591
	C286.124,245.92,272.557,265.772,272.557,288.257z"/>
</svg>
