<?xml version="1.0" encoding="utf-8"?>
<!-- Generator: Adobe Illustrator 17.0.0, SVG Export Plug-In . SVG Version: 6.00 Build 0)  -->
<!DOCTYPE svg PUBLIC "-//W3C//DTD SVG 1.1//EN" "http://www.w3.org/Graphics/SVG/1.1/DTD/svg11.dtd">
<svg version="1.1" id="Capa_1" xmlns="http://www.w3.org/2000/svg" xmlns:xlink="http://www.w3.org/1999/xlink" x="0px" y="0px"
	 width="666px" height="589px" viewBox="0 0 666 589" enable-background="new 0 0 666 589" xml:space="preserve">
<path fill="#D1009D" d="M575.745,286.341c-25.879-45.26-64.213-82.254-111.086-107.284l61.669-61.669
	c2.959-2.959,2.959-7.757,0-10.714c-2.959-2.959-7.757-2.959-10.714,0L287.408,334.879c-6.104-8.338-9.405-18.368-9.405-28.876
	c0-27.017,21.98-48.998,48.998-48.998c4.768,0,9.477,0.682,13.997,2.026c4.012,1.193,8.23-1.091,9.422-5.102
	c1.193-4.011-1.091-8.23-5.102-9.422c-5.923-1.762-12.086-2.656-18.318-2.656c-35.373,0-64.152,28.779-64.152,64.152
	c0,14.559,4.847,28.411,13.754,39.683l-23.678,23.678c-15.129-17.654-23.414-39.936-23.414-63.36c0-53.756,43.734-97.49,97.49-97.49
	c15.87,0,30.998,3.69,44.967,10.966c3.712,1.933,8.288,0.492,10.221-3.221c1.933-3.711,0.492-8.287-3.221-10.22
	c-15.924-8.296-33.894-12.681-51.966-12.681c-62.111,0-112.644,50.532-112.644,112.644c0,27.461,9.84,53.577,27.816,74.113
	l-41.601,41.601c-46.214-23.693-83.953-59.495-109.161-103.576c-4.281-7.485-4.285-16.78-0.01-24.257
	c47.204-82.57,137.478-133.864,235.601-133.864c29.634,0,58.742,4.594,86.524,13.654c3.979,1.297,8.254-0.875,9.553-4.854
	c1.297-3.979-0.875-8.256-4.854-9.553c-29.299-9.555-59.99-14.4-91.221-14.4c-103.544,0-198.862,54.218-248.757,141.497
	c-6.925,12.116-6.922,27.173,0.011,39.301c25.879,45.26,64.214,82.254,111.086,107.284l-61.669,61.667
	c-2.959,2.959-2.959,7.757,0,10.714c1.479,1.479,3.418,2.219,5.358,2.219c1.939,0,3.878-0.739,5.358-2.219l228.205-228.205
	c6.104,8.338,9.405,18.368,9.405,28.876c0,27.017-21.98,48.998-48.998,48.998c-4.778,0-9.495-0.685-14.024-2.035
	c-4.01-1.197-8.23,1.087-9.426,5.097c-1.195,4.011,1.087,8.23,5.097,9.426c5.934,1.768,12.109,2.667,18.353,2.667
	c35.373,0,64.152-28.779,64.152-64.152c0-14.56-4.847-28.411-13.753-39.683l23.678-23.678
	c15.129,17.655,23.414,39.938,23.414,63.362c0,53.756-43.734,97.49-97.49,97.49c-15.868,0-30.998-3.69-44.967-10.966
	c-3.71-1.933-8.287-0.492-10.22,3.221c-1.933,3.712-0.492,8.287,3.221,10.22c15.926,8.294,33.896,12.68,51.968,12.68
	c62.112,0,112.644-50.533,112.644-112.644c0-27.461-9.841-53.577-27.815-74.113l41.601-41.601
	c46.215,23.693,83.954,59.495,109.159,103.577c4.281,7.486,4.285,16.781,0.01,24.257
	c-47.203,82.569-137.479,133.864-235.601,133.864c-31.864,0-63.042-5.294-92.662-15.737c-3.948-1.39-8.274,0.681-9.664,4.627
	c-1.391,3.948,0.679,8.274,4.627,9.665c31.246,11.013,64.115,16.599,97.701,16.599c103.544,0,198.863-54.219,248.757-141.497
	C582.683,313.526,582.678,298.466,575.745,286.341z"/>
</svg>
