<?xml version="1.0" encoding="utf-8"?>
<!-- Generator: Adobe Illustrator 17.0.0, SVG Export Plug-In . SVG Version: 6.00 Build 0)  -->
<!DOCTYPE svg PUBLIC "-//W3C//DTD SVG 1.1//EN" "http://www.w3.org/Graphics/SVG/1.1/DTD/svg11.dtd">
<svg version="1.1" id="Capa_1" xmlns="http://www.w3.org/2000/svg" xmlns:xlink="http://www.w3.org/1999/xlink" x="0px" y="0px"
	 width="612px" height="792px" viewBox="0 0 612 792" enable-background="new 0 0 612 792" xml:space="preserve">
<g>
	<path fill="#45BD9B" d="M438.368,264.183h-17.647c-4.57,0-8.273,3.704-8.273,8.273c0,4.568,3.704,8.273,8.273,8.273h17.647
		c4.57,0,8.273-3.704,8.273-8.273C446.64,267.887,442.937,264.183,438.368,264.183z"/>
	<path fill="#45BD9B" d="M517.239,254.807c0-14.294-11.629-25.923-25.923-25.923H191.28c-14.294,0-25.923,11.629-25.923,25.923
		c0,7.774,3.444,14.755,8.883,19.512c0.058,0.251,0.127,0.502,0.208,0.753c21.198,63.667,76.081,108.856,140.927,118.465v29.094
		c-3.37-0.956-6.763-1.915-10.182-2.886c-38.789-10.988-78.899-22.352-104.464-30.467c-25.823-8.2-48.064-24.504-64.319-47.15
		c-16.424-22.882-25.104-50.025-25.104-78.496c0-73.293,59.628-132.921,132.921-132.921c23.813,0,46.842,6.274,67.158,18.201
		c-3.066,5.177-4.834,11.21-4.834,17.649c0,19.16,15.587,34.747,34.747,34.747c19.16,0,34.747-15.587,34.747-34.747
		s-15.587-34.747-34.747-34.747c-6.56,0-12.701,1.83-17.941,5.001c-23.713-14.833-50.939-22.651-79.13-22.651
		c-82.417,0-149.467,67.05-149.467,149.467c0,31.952,9.754,62.432,28.207,88.142c18.349,25.566,43.507,43.987,72.755,53.273
		c25.812,8.196,66.05,19.595,104.961,30.618c4.952,1.402,9.851,2.79,14.692,4.163v159.69h-47.984
		c-7.604,0-13.789,6.184-13.789,13.789v56.257c0,4.57,3.704,8.273,8.273,8.273h158.843c4.57,0,8.273-3.704,8.273-8.273v-56.257
		c0-7.603-6.184-13.789-13.789-13.789h-47.983v-18.779c0.184,0.012,0.365,0.028,0.552,0.028c38.624,0,70.046-31.422,70.046-70.046
		c0-30.497-19.808-57.866-48.168-66.558c-6.646-2.037-14.198-4.281-22.429-6.686v-43.943
		c64.845-9.61,119.728-54.798,140.926-118.466c0.083-0.249,0.15-0.501,0.208-0.753C513.795,269.562,517.239,262.581,517.239,254.807
		z M359.5,166.559c0,10.036-8.165,18.201-18.201,18.201s-18.201-8.165-18.201-18.201c0-4.883,1.943-9.313,5.084-12.585
		c0.764-0.479,1.456-1.092,2.046-1.828c3.072-2.364,6.904-3.787,11.071-3.787C351.334,148.359,359.5,156.524,359.5,166.559z
		 M412.446,661.291H270.149v-45.226h142.297V661.291z M331.923,599.518V444.532c6.473,1.846,12.747,3.641,18.753,5.374v149.612
		h-18.753V599.518z M384.802,459.983c21.473,6.579,36.47,27.443,36.47,50.737c0,29.5-24,53.5-53.5,53.5
		c-0.186,0-0.368,0.016-0.552,0.028V454.719C373.591,456.593,379.493,458.357,384.802,459.983z M350.675,432.688
		c-6.034-1.734-12.31-3.526-18.753-5.359v-32.135c3.109,0.164,6.235,0.256,9.376,0.256c3.142,0,6.267-0.091,9.376-0.256V432.688z
		 M341.299,378.902c-64.791,0-122.507-39-147.076-98.174h191.2c4.57,0,8.273-3.704,8.273-8.273s-3.704-8.273-8.273-8.273H191.28
		c-5.17,0-9.376-4.207-9.376-9.376c0-5.17,4.207-9.376,9.376-9.376h300.037c5.17,0,9.376,4.207,9.376,9.376
		c0,5.17-4.207,9.376-9.376,9.376h-17.649c-4.57,0-8.273,3.704-8.273,8.273s3.704,8.273,8.273,8.273h14.706
		C463.806,339.902,406.09,378.902,341.299,378.902z"/>
</g>
</svg>
