<?xml version="1.0" encoding="utf-8"?>
<!-- Generator: Adobe Illustrator 17.0.0, SVG Export Plug-In . SVG Version: 6.00 Build 0)  -->
<!DOCTYPE svg PUBLIC "-//W3C//DTD SVG 1.1//EN" "http://www.w3.org/Graphics/SVG/1.1/DTD/svg11.dtd">
<svg version="1.1" id="Capa_1" xmlns="http://www.w3.org/2000/svg" xmlns:xlink="http://www.w3.org/1999/xlink" x="0px" y="0px"
	 width="612px" height="792px" viewBox="0 0 612 792" enable-background="new 0 0 612 792" xml:space="preserve">
<g>
	<g>
		<path fill="#01ABC9" d="M253.32,497.505c-16.843,0-30.538,13.706-30.538,30.547c0,16.802,13.706,30.508,30.538,30.508
			c16.794,0,30.478-13.706,30.478-30.508C283.797,511.211,270.114,497.505,253.32,497.505z M253.32,545.28
			c-9.508,0-17.236-7.728-17.236-17.217c0-9.498,7.739-17.225,17.236-17.225c9.478,0,17.176,7.728,17.176,17.225
			C270.495,537.541,262.797,545.28,253.32,545.28z"/>
		<path fill="#01ABC9" d="M355.425,558.563c16.843,0,30.538-13.706,30.538-30.508c0-16.851-13.706-30.547-30.538-30.547
			c-16.813,0-30.52,13.706-30.52,30.547C324.916,544.868,338.612,558.563,355.425,558.563z M355.425,510.837
			c9.489,0,17.225,7.728,17.225,17.225c0,9.489-7.739,17.217-17.225,17.217c-9.498,0-17.225-7.728-17.225-17.217
			C338.199,518.565,345.938,510.837,355.425,510.837z"/>
		<path fill="#01ABC9" d="M455.87,267.465H332.686v-35.376h52.091c14.698,0,26.674-11.975,26.674-26.714
			c0-14.709-11.975-26.714-26.674-26.714h-52.16c-0.973-13.855-12.525-24.827-26.615-24.827c-14.089,0-25.642,10.973-26.626,24.816
			h-52.14c-14.72,0-26.696,12.013-26.696,26.714c0,14.739,11.975,26.714,26.696,26.714h52.061v35.376H156.118
			c-14.739,0-26.696,11.975-26.696,26.684c0,14.739,11.965,26.714,26.696,26.714h123.166v35.385h-96.913
			c-14.739,0-26.714,11.975-26.714,26.714c0,14.709,11.975,26.684,26.714,26.684h96.915v49.19
			c-3.747-1.179-7.335-2.665-10.767-4.454l-0.935-0.453c-3.884-1.899-7.179-2.939-9.211-3.077
			c-5.319-1.347-10.305-1.997-15.308-1.997c-33.821,0-61.371,27.512-61.371,61.363c0,11.876,3.45,23.44,9.627,32.861
			c14.709,28.583,55.1,95.098,112.193,95.098l0,0c38.748,0,77.063-30.52,113.443-89.916c3.519-4.424,6.421-9.28,8.327-13.874
			l6.97-13.883h-2.86c0.59-3.382,0.895-6.825,0.895-10.283c0-33.851-27.55-61.363-61.371-61.363
			c-10.393,0-20.637,2.653-29.781,7.728c-0.786,0.305-3.077,1.102-6.451,1.997v-48.946h96.954c14.698,0,26.674-11.975,26.674-26.684
			c0-14.739-11.975-26.714-26.674-26.714h-96.955v-35.385h123.185c14.739,0,26.714-11.975,26.714-26.714
			C482.584,279.44,470.607,267.465,455.87,267.465z M455.87,307.531H319.391v61.992H429.64c7.384,0,13.39,6.009,13.39,13.421
			c0,7.384-6.009,13.39-13.39,13.39H319.391v78.657l7.904-1.545c9.803-1.899,15.083-3.481,17.943-5.044l0,0
			c7.247-4.11,15.425-6.284,23.676-6.284c26.508,0,48.05,21.561,48.05,48.08c0,5.044-0.786,10.039-2.378,14.847l-1.278,3.549
			c-1.72,4.071-4.002,7.904-7.206,12.014c-34.237,55.885-68.755,84.213-102.569,84.213l0,0c-49.762,0-86.777-61.432-100.721-88.459
			c-5.113-7.797-7.797-16.882-7.797-26.163c0-26.508,21.572-48.08,48.058-48.08c3.863,0,7.797,0.521,13.027,1.8
			c0.826,0.069,2.723,0.442,6.507,2.341c6.695,3.481,14.119,6.035,22.044,7.62l7.953,1.594v-79.149H182.372
			c-7.404,0-13.412-6.009-13.412-13.39c0-7.412,6.009-13.421,13.412-13.421h110.229V307.52H156.118
			c-7.384,0-13.412-6.009-13.412-13.39c0-7.384,6.028-13.39,13.412-13.39h136.479v-61.992h-65.371c-7.384,0-13.39-6.009-13.39-13.39
			c0-7.382,6.009-13.39,13.39-13.39h65.374v-11.426c0-7.384,6.009-13.39,13.39-13.39c7.381,0,13.401,6.009,13.401,13.39v11.426
			h65.374c7.384,0,13.382,6.009,13.382,13.39c0,7.382-5.997,13.39-13.382,13.39h-65.374v61.992h136.479
			c7.384,0,13.39,6.009,13.39,13.39C469.26,301.533,463.253,307.531,455.87,307.531z"/>
		<path fill="#01ABC9" d="M524.46,125.499H87.51c-28.671,0-51.981,23.371-51.981,52.05v436.899c0,28.689,23.322,52.05,51.981,52.05
			h436.949c28.682,0,52.011-23.36,52.011-52.05V177.549C576.471,148.87,553.138,125.499,524.46,125.499z M563.177,614.448
			c0,21.374-17.363,38.728-38.72,38.728H87.51c-21.335,0-38.699-17.362-38.699-38.728V177.549c0-21.365,17.362-38.728,38.699-38.728
			h436.949c21.365,0,38.72,17.362,38.72,38.728v436.899L563.177,614.448L563.177,614.448z"/>
	</g>
</g>
</svg>
