<?xml version="1.0" encoding="utf-8"?>
<!-- Generator: Adobe Illustrator 19.0.0, SVG Export Plug-In . SVG Version: 6.00 Build 0)  -->
<svg version="1.1" id="Layer_1" xmlns="http://www.w3.org/2000/svg" xmlns:xlink="http://www.w3.org/1999/xlink" x="0px" y="0px"
	 viewBox="1 295 515 147" style="enable-background:new 1 295 515 147;" xml:space="preserve">
<style type="text/css">
	.st0{fill:#231F20;}
	.st1{fill:#FF2B42;}
</style>
<path class="st0" d="M48.5,332v41.5L86.3,332H48.5z M87.3,363.8l28.9-31.8h-14.3l-53.4,58.6v20.3h17.7v-22.7l10.2-12.7l22.8,34.6
	h17.1v-1.5L87.3,363.8z"/>
<g>
	<path class="st0" d="M516,442H1V295h515V442z M9,434h499V303H9V434z"/>
</g>
<path d="M182,410l0-78h32c3.4,0,6.6,1.4,9.6,2.8c2.7,1.4,5.1,3,7.2,5.4c2,2.4,3.4,4.8,4.8,7.8c1,2.7,1.7,5.8,1.7,8.5
	c0,2.7-0.3,5.4-1.4,8.2s-2,5.1-3.7,7.1c-1.7,2-3.4,3.7-5.8,5.1c-2.4,1.4-4.8,2.3-7.5,2.6l19.8,29.9h-6.5L213,381h-25v29
	 M187.8,376.2h27.3c2.4,0,4.8-0.8,6.8-1.9c2-1,3.7-2.5,5.1-4.5c1.4-1.7,2.7-3.8,3.4-6.2c0.7-2.4,1-4.8,1-7.2s-0.3-4.8-1.4-7.2
	c-1-2.4-2-4.4-3.7-6.1c-1.7-1.7-3.4-3.2-5.4-4.2c-2-1-4.4-1.8-6.8-1.8h-26.3V376.2z"/>
<path d="M345.3,410.7c-5.4,0-10.2-1-14.6-3.4c-4.4-2.4-8.5-5.1-11.9-8.9c-3.1-3.7-5.8-7.8-7.5-12.6c-1.7-4.8-2.7-9.5-2.7-14.6
	c0-5.1,1-10.2,2.7-15s4.4-8.9,7.5-12.6c3.1-3.7,7.2-6.5,11.6-8.5c4.4-2,9.2-3.1,14.3-3.1c5.4,0,10.2,1,14.6,3.4
	c4.4,2.4,8.2,5.4,11.6,8.9c3.1,3.7,5.4,7.8,7.5,12.6c1.7,4.8,2.7,9.5,2.7,14.3c0,5.1-1,10.2-2.7,15c-1.7,4.8-4.4,8.9-7.5,12.6
	c-3.1,3.7-6.8,6.5-11.2,8.5C355.1,409.6,350.4,410.7,345.3,410.7z M314.2,371.5c0,4.4,0.7,8.9,2.4,12.9c1.4,4.1,3.7,7.8,6.5,10.9
	c2.7,3.1,6.1,5.8,9.9,7.5c3.7,1.7,8.2,2.7,12.6,2.7c4.8,0,8.5-1,12.2-3.1s6.8-4.4,9.5-7.8c2.7-3.1,4.8-6.8,6.1-10.9
	c1.4-4.1,2-8.2,2-12.3c0-4.4-0.7-8.9-2.4-12.9c-1.4-4.1-3.7-7.8-6.5-10.9c-2.7-3.1-5.8-5.8-9.5-7.5c-3.7-2-7.8-2.7-12.3-2.7
	c-4.8,0-8.9,1-12.6,3.1c-3.7,2-7.2,4.4-9.5,7.8c-2.7,3.4-4.8,6.8-6.1,10.9C314.9,363,314.2,367.1,314.2,371.5z"/>
<path d="M414.1,343.2L414,410h-5l0-78h4l54.5,68.8v-68h5.2v77.4H468L414.1,343.2z"/>
<rect x="139" y="332" width="6" height="79"/>
<rect x="271" y="332" width="6" height="79"/>
<path class="st1" d="M42.5,434h67.8v8H42.5V434z"/>
</svg>
