<?xml version="1.0" encoding="utf-8"?>
<!-- Generator: Adobe Illustrator 17.0.0, SVG Export Plug-In . SVG Version: 6.00 Build 0)  -->
<!DOCTYPE svg PUBLIC "-//W3C//DTD SVG 1.1//EN" "http://www.w3.org/Graphics/SVG/1.1/DTD/svg11.dtd">
<svg version="1.1" id="Layer_1" xmlns="http://www.w3.org/2000/svg" xmlns:xlink="http://www.w3.org/1999/xlink" x="0px" y="0px"
	 width="612px" height="792px" viewBox="0 0 612 792" enable-background="new 0 0 612 792" xml:space="preserve">
<g enable-background="new    ">
	<path fill="#DFDFE0" d="M302.695,214.234c0,33.799-3.622,63.172-10.864,88.118c-7.243,24.947-17.26,45.561-30.043,61.831
		c-12.788,16.274-27.897,28.392-45.333,36.348c-17.436,7.955-36.259,11.937-56.466,11.937c-20.21,0-38.941-3.981-56.197-11.937
		c-17.26-7.956-32.236-20.073-44.931-36.348c-12.7-16.271-22.625-36.884-29.775-61.831c-7.155-24.946-10.73-54.319-10.73-88.118
		c0-33.976,3.575-63.395,10.73-88.253c7.15-24.854,17.076-45.422,29.775-61.696c12.695-16.271,27.671-28.389,44.931-36.348
		C121.046,19.982,139.777,16,159.988,16c20.207,0,39.03,3.982,56.466,11.938C233.89,35.896,249,48.014,261.787,64.285
		c12.784,16.274,22.801,36.842,30.043,61.696C299.073,150.84,302.695,180.259,302.695,214.234z M234.292,214.234
		c0-28.074-2.058-51.323-6.169-69.744c-4.116-18.417-9.615-33.082-16.497-43.992c-6.887-10.906-14.8-18.551-23.74-22.936
		c-8.944-4.38-18.24-6.571-27.897-6.571c-9.48,0-18.643,2.191-27.495,6.571c-8.852,4.385-16.677,12.029-23.471,22.936
		c-6.799,10.91-12.206,25.575-16.229,43.992c-4.024,18.421-6.036,41.67-6.036,69.744c0,28.077,2.012,51.327,6.036,69.743
		c4.023,18.422,9.43,33.087,16.229,43.993c6.794,10.909,14.619,18.555,23.471,22.935c8.852,4.384,18.015,6.572,27.495,6.572
		c9.657,0,18.954-2.188,27.897-6.572c8.94-4.38,16.854-12.025,23.74-22.935c6.882-10.906,12.381-25.571,16.497-43.993
		C232.234,265.562,234.292,242.312,234.292,214.234z"/>
	<path fill="#DFDFE0" d="M579.25,346.479c7.15,0,12.829,2.012,17.033,6.035c4.2,4.023,6.304,9.347,6.304,15.961v39.7h-266.1V386.18
		c0-4.468,0.938-9.162,2.816-14.083c1.878-4.916,4.87-9.343,8.986-13.278L466.05,240.79c9.833-10.013,18.644-19.581,26.422-28.702
		c7.779-9.12,14.26-18.148,19.448-27.093c5.185-8.939,9.162-18.015,11.937-27.227c2.771-9.209,4.158-18.911,4.158-29.104
		c0-9.297-1.341-17.479-4.023-24.545c-2.683-7.063-6.484-13.01-11.4-17.838c-4.921-4.829-10.822-8.45-17.704-10.864
		c-6.887-2.414-14.62-3.621-23.203-3.621c-7.872,0-15.156,1.119-21.862,3.353c-6.706,2.238-12.654,5.365-17.839,9.389
		c-5.188,4.023-9.568,8.718-13.144,14.083c-3.579,5.365-6.262,11.267-8.048,17.704c-3.043,8.228-6.974,13.681-11.803,16.363
		c-4.828,2.683-11.803,3.311-20.923,1.878l-34.872-6.17c2.683-18.597,7.867-34.914,15.559-48.955
		c7.687-14.036,17.302-25.751,28.836-35.14c11.535-9.389,24.767-16.451,39.7-21.191c14.93-4.736,30.982-7.109,48.15-7.109
		c17.88,0,34.243,2.641,49.089,7.914c14.842,5.276,27.537,12.741,38.091,22.398c10.55,9.656,18.777,21.283,24.679,34.872
		c5.901,13.592,8.853,28.702,8.853,45.333c0,14.31-2.104,27.541-6.304,39.7c-4.204,12.164-9.837,23.786-16.899,34.872
		c-7.067,11.091-15.337,21.82-24.813,32.189c-9.48,10.374-19.405,20.924-29.775,31.653l-87.447,89.326
		c8.403-2.503,16.765-4.427,25.081-5.768c8.315-1.342,16.229-2.012,23.739-2.012H579.25z"/>
</g>
</svg>
