<?xml version="1.0" encoding="utf-8"?>
<!-- Generator: Adobe Illustrator 17.0.0, SVG Export Plug-In . SVG Version: 6.00 Build 0)  -->
<!DOCTYPE svg PUBLIC "-//W3C//DTD SVG 1.1//EN" "http://www.w3.org/Graphics/SVG/1.1/DTD/svg11.dtd">
<svg version="1.1" id="Layer_1" xmlns="http://www.w3.org/2000/svg" xmlns:xlink="http://www.w3.org/1999/xlink" x="0px" y="0px"
	 width="612px" height="792px" viewBox="0 0 612 792" enable-background="new 0 0 612 792" xml:space="preserve">
<g enable-background="new    ">
	<path fill="#DFDFE0" d="M296.753,213.234c0,33.799-3.622,63.172-10.864,88.118c-7.243,24.947-17.26,45.561-30.043,61.831
		c-12.788,16.274-27.897,28.392-45.333,36.348c-17.436,7.955-36.259,11.937-56.466,11.937c-20.21,0-38.941-3.981-56.197-11.937
		c-17.26-7.956-32.236-20.073-44.931-36.348c-12.7-16.271-22.625-36.884-29.775-61.831c-7.155-24.946-10.73-54.319-10.73-88.118
		c0-33.976,3.575-63.395,10.73-88.253c7.15-24.854,17.076-45.422,29.775-61.696c12.695-16.271,27.671-28.389,44.931-36.348
		C115.104,18.982,133.835,15,154.046,15c20.207,0,39.03,3.982,56.466,11.938c17.436,7.959,32.546,20.076,45.333,36.348
		c12.784,16.274,22.801,36.842,30.043,61.696C293.131,149.84,296.753,179.259,296.753,213.234z M228.35,213.234
		c0-28.074-2.058-51.323-6.169-69.744c-4.116-18.417-9.615-33.082-16.497-43.992c-6.887-10.906-14.8-18.551-23.74-22.936
		c-8.944-4.38-18.24-6.571-27.897-6.571c-9.48,0-18.643,2.191-27.495,6.571c-8.852,4.385-16.677,12.029-23.471,22.936
		c-6.799,10.91-12.206,25.575-16.229,43.992c-4.024,18.421-6.036,41.67-6.036,69.744c0,28.077,2.012,51.327,6.036,69.743
		c4.023,18.422,9.43,33.087,16.229,43.993c6.794,10.909,14.619,18.555,23.471,22.935c8.852,4.384,18.015,6.572,27.495,6.572
		c9.657,0,18.954-2.188,27.897-6.572c8.94-4.38,16.854-12.025,23.74-22.935c6.882-10.906,12.381-25.571,16.497-43.993
		C226.292,264.562,228.35,241.312,228.35,213.234z"/>
	<path fill="#DFDFE0" d="M339.129,127.396c2.683-18.597,7.867-34.914,15.558-48.955c7.688-14.036,17.303-25.751,28.837-35.14
		s24.767-16.451,39.7-21.191c14.93-4.736,30.982-7.109,48.15-7.109c17.88,0,34.021,2.549,48.418,7.646
		c14.394,5.097,26.69,12.163,36.884,21.191c10.193,9.032,18.015,19.628,23.472,31.787c5.453,12.163,8.182,25.308,8.182,39.433
		c0,12.339-1.388,23.203-4.158,32.592c-2.774,9.388-6.752,17.569-11.937,24.544c-5.188,6.975-11.627,12.876-19.313,17.704
		c-7.691,4.829-16.363,8.853-26.021,12.071c23.245,7.335,40.594,18.509,52.04,33.53c11.442,15.022,17.168,33.892,17.168,56.601
		c0,19.313-3.58,36.394-10.73,51.234c-7.154,14.846-16.812,27.319-28.97,37.421c-12.164,10.105-26.246,17.75-42.249,22.935
		c-16.007,5.185-32.952,7.779-50.833,7.779c-19.493,0-36.481-2.238-50.967-6.706c-14.484-4.468-27.093-11.086-37.822-19.851
		c-10.729-8.76-19.851-19.489-27.361-32.189c-7.511-12.695-13.948-27.361-19.313-43.992l29.239-12.071
		c7.687-3.219,14.888-4.065,21.594-2.548c6.706,1.521,11.576,5.143,14.619,10.864c3.219,6.262,6.748,12.431,10.596,18.509
		c3.844,6.081,8.449,11.492,13.814,16.229c5.365,4.74,11.669,8.584,18.911,11.534c7.243,2.951,15.869,4.427,25.886,4.427
		c11.267,0,21.1-1.832,29.508-5.499c8.403-3.663,15.424-8.45,21.057-14.352c5.634-5.901,9.833-12.474,12.607-19.716
		c2.771-7.243,4.158-14.527,4.158-21.862c0-9.296-0.985-17.746-2.951-25.349c-1.97-7.6-6.081-14.083-12.339-19.448
		c-6.262-5.365-15.248-9.564-26.959-12.607c-11.715-3.039-27.407-4.561-47.077-4.561v-47.211
		c16.271-0.176,29.775-1.697,40.505-4.561c10.73-2.858,19.269-6.84,25.618-11.937c6.346-5.097,10.771-11.221,13.278-18.375
		c2.502-7.15,3.755-15.021,3.755-23.605c0-18.241-5.097-32.098-15.29-41.578c-10.193-9.477-23.786-14.217-40.773-14.217
		c-7.871,0-15.113,1.119-21.728,3.353c-6.618,2.238-12.565,5.365-17.839,9.389c-5.276,4.023-9.702,8.718-13.277,14.083
		c-3.58,5.365-6.263,11.267-8.048,17.704c-3.043,8.228-7.021,13.681-11.937,16.363c-4.921,2.683-11.85,3.311-20.789,1.878
		L339.129,127.396z"/>
</g>
</svg>
