<?xml version="1.0" encoding="utf-8"?>
<!-- Generator: Adobe Illustrator 17.0.0, SVG Export Plug-In . SVG Version: 6.00 Build 0)  -->
<!DOCTYPE svg PUBLIC "-//W3C//DTD SVG 1.1//EN" "http://www.w3.org/Graphics/SVG/1.1/DTD/svg11.dtd">
<svg version="1.1" id="Layer_1" xmlns="http://www.w3.org/2000/svg" xmlns:xlink="http://www.w3.org/1999/xlink" x="0px" y="0px"
	 width="612px" height="792px" viewBox="0 0 612 792" enable-background="new 0 0 612 792" xml:space="preserve">
<g enable-background="new    ">
	<path fill="#DFDFE0" d="M296.753,214.234c0,33.799-3.622,63.172-10.864,88.118c-7.243,24.947-17.26,45.561-30.043,61.831
		c-12.788,16.274-27.897,28.392-45.333,36.348c-17.436,7.955-36.259,11.937-56.466,11.937c-20.21,0-38.941-3.981-56.197-11.937
		c-17.26-7.956-32.236-20.073-44.931-36.348c-12.7-16.271-22.625-36.884-29.775-61.831c-7.155-24.946-10.73-54.319-10.73-88.118
		c0-33.976,3.575-63.395,10.73-88.253c7.15-24.854,17.076-45.422,29.775-61.696c12.695-16.271,27.671-28.389,44.931-36.348
		C115.104,19.982,133.835,16,154.046,16c20.207,0,39.03,3.982,56.466,11.938c17.436,7.959,32.546,20.076,45.333,36.348
		c12.784,16.274,22.801,36.842,30.043,61.696C293.131,150.84,296.753,180.259,296.753,214.234z M228.35,214.234
		c0-28.074-2.058-51.323-6.169-69.744c-4.116-18.417-9.615-33.082-16.497-43.992c-6.887-10.906-14.8-18.551-23.74-22.936
		c-8.944-4.38-18.24-6.571-27.897-6.571c-9.48,0-18.643,2.191-27.495,6.571c-8.852,4.385-16.677,12.029-23.471,22.936
		c-6.799,10.91-12.206,25.575-16.229,43.992c-4.024,18.421-6.036,41.67-6.036,69.744c0,28.077,2.012,51.327,6.036,69.743
		c4.023,18.422,9.43,33.087,16.229,43.993c6.794,10.909,14.619,18.555,23.471,22.935c8.852,4.384,18.015,6.572,27.495,6.572
		c9.657,0,18.954-2.188,27.897-6.572c8.94-4.38,16.854-12.025,23.74-22.935c6.882-10.906,12.381-25.571,16.497-43.993
		C226.292,265.562,228.35,242.312,228.35,214.234z"/>
	<path fill="#DFDFE0" d="M607.643,261.981v38.359c0,3.579-1.165,6.664-3.487,9.255c-2.326,2.594-5.633,3.89-9.925,3.89h-35.408
		v94.69h-57.673v-94.69H337.52c-4.473,0-8.408-1.384-11.803-4.158c-3.399-2.771-5.546-6.212-6.438-10.327l-6.975-33.531
		L496.053,20.024h62.77v241.957H607.643z M501.149,261.981v-126.88c0-11.979,0.805-25.215,2.414-39.7l-120.442,166.58H501.149z"/>
</g>
</svg>
