<?xml version="1.0" encoding="utf-8"?>
<!-- Generator: Adobe Illustrator 17.0.0, SVG Export Plug-In . SVG Version: 6.00 Build 0)  -->
<!DOCTYPE svg PUBLIC "-//W3C//DTD SVG 1.1//EN" "http://www.w3.org/Graphics/SVG/1.1/DTD/svg11.dtd">
<svg version="1.1" id="Layer_1" xmlns="http://www.w3.org/2000/svg" xmlns:xlink="http://www.w3.org/1999/xlink" x="0px" y="0px"
	 width="612px" height="792px" viewBox="0 0 612 792" enable-background="new 0 0 612 792" xml:space="preserve">
<g enable-background="new    ">
	<path fill="#DFDFE0" d="M296.753,213.234c0,33.799-3.622,63.172-10.864,88.118c-7.243,24.947-17.26,45.561-30.043,61.831
		c-12.788,16.274-27.897,28.392-45.333,36.348c-17.436,7.955-36.259,11.937-56.466,11.937c-20.21,0-38.941-3.981-56.197-11.937
		c-17.26-7.956-32.236-20.073-44.931-36.348c-12.7-16.271-22.625-36.884-29.775-61.831c-7.155-24.946-10.73-54.319-10.73-88.118
		c0-33.976,3.575-63.395,10.73-88.253c7.15-24.854,17.076-45.422,29.775-61.696C65.614,47.014,80.59,34.896,97.85,26.937
		C115.104,18.982,133.835,15,154.046,15c20.207,0,39.03,3.982,56.466,11.938c17.436,7.959,32.546,20.076,45.333,36.348
		c12.784,16.274,22.801,36.842,30.043,61.696C293.131,149.84,296.753,179.259,296.753,213.234z M228.35,213.234
		c0-28.074-2.058-51.323-6.169-69.744c-4.116-18.417-9.615-33.082-16.497-43.992c-6.887-10.906-14.8-18.551-23.74-22.936
		c-8.944-4.38-18.24-6.571-27.897-6.571c-9.48,0-18.643,2.191-27.495,6.571c-8.852,4.385-16.677,12.029-23.471,22.936
		c-6.799,10.91-12.206,25.575-16.229,43.992c-4.024,18.421-6.036,41.67-6.036,69.744c0,28.077,2.012,51.327,6.036,69.743
		c4.023,18.422,9.43,33.087,16.229,43.993c6.794,10.909,14.619,18.555,23.471,22.935c8.852,4.384,18.015,6.572,27.495,6.572
		c9.657,0,18.954-2.188,27.897-6.572c8.94-4.38,16.854-12.025,23.74-22.935c6.882-10.906,12.381-25.571,16.497-43.993
		C226.292,264.562,228.35,241.312,228.35,213.234z"/>
	<path fill="#DFDFE0" d="M450.183,160.121l-13.412,16.632c7.511-3.756,15.6-6.66,24.276-8.718
		c8.672-2.055,18.014-3.085,28.031-3.085c14.661,0,28.925,2.414,42.785,7.242c13.856,4.828,26.062,12.117,36.615,21.862
		c10.55,9.749,19.046,21.862,25.483,36.347c6.438,14.485,9.657,31.385,9.657,50.699c0,18.064-3.312,35.006-9.925,50.832
		c-6.618,15.827-15.919,29.642-27.897,41.444c-11.983,11.803-26.423,21.104-43.322,27.897s-35.542,10.193-55.929,10.193
		c-20.747,0-39.345-3.312-55.796-9.925c-16.455-6.614-30.491-15.869-42.114-27.764c-11.627-11.891-20.521-26.196-26.69-42.92
		c-6.17-16.719-9.255-35.273-9.255-55.66c0-18.241,3.71-36.972,11.133-56.198c7.419-19.221,18.911-39.205,34.47-59.952
		l92.545-124.198c3.219-4.292,7.913-7.955,14.082-10.998c6.17-3.039,13.278-4.561,21.326-4.561h59.014L450.183,160.121z
		 M465.204,357.282c10.55,0,20.253-1.786,29.104-5.365c8.853-3.575,16.451-8.584,22.801-15.021
		c6.346-6.438,11.309-13.991,14.888-22.667c3.575-8.672,5.365-18.106,5.365-28.3c0-11.086-1.701-21.058-5.097-29.909
		c-3.399-8.853-8.228-16.363-14.485-22.533c-6.262-6.169-13.772-10.863-22.532-14.083c-8.765-3.219-18.421-4.828-28.971-4.828
		c-10.554,0-20.118,1.79-28.702,5.365c-8.584,3.579-15.919,8.542-21.996,14.888c-6.082,6.35-10.822,13.86-14.218,22.532
		c-3.398,8.676-5.097,18.019-5.097,28.032c0,10.729,1.476,20.521,4.427,29.372c2.95,8.853,7.33,16.409,13.144,22.667
		c5.81,6.262,13.01,11.133,21.594,14.62C444.013,355.538,453.938,357.282,465.204,357.282z"/>
</g>
</svg>
