<?xml version="1.0" encoding="utf-8"?>
<!-- Generator: Adobe Illustrator 19.0.0, SVG Export Plug-In . SVG Version: 6.00 Build 0)  -->
<svg version="1.1" id="Layer_1" xmlns="http://www.w3.org/2000/svg" xmlns:xlink="http://www.w3.org/1999/xlink" x="0px" y="0px"
	 viewBox="0 0 190.3 56.5" style="enable-background:new 0 0 190.3 56.5;" xml:space="preserve">
<style type="text/css">
	.st0{fill-rule:evenodd;clip-rule:evenodd;}
</style>
<path class="st0" d="M68.1,37.3c-1.4,1.4-2.2,3-2,4.8c0.2,3.1,3.7,4.4,6,5.1c8,1,15.3-2.8,21-9.4c0.4-0.1,0.6,0.2,0.9,0.5
	c-1.4,2.7-4.5,4.9-7,6.8c-3,1.9-6.6,3.4-10.3,3.7c-1.1,0.1-2.2,0.1-3.4,0c-1.2-0.1-2.3-0.4-3.5-0.8c-2.5-0.9-5.5-3.2-5.5-6.2
	c0.2-1.6,0.5-3.1,1.6-4.2l1.4-1.6c4.7-4.1,10.6-6.1,16.1-7.5c-1.3-0.8-3.2-1.4-3.6-3.1c0-5.3,5.5-7,9.2-9.2c8.2-3.8,18-5,27-4.5
	c1.8,0.5,3.5,0.6,4.7,2.3c0.4,2.6-2.8,4.1-4.4,5.7c-6.8,4.7-15.2,7.7-24,6.8c-1.1-0.5-2.2-0.9-2.5-2.2c-0.2-1.6,1.4-2.9,2.7-3.4
	c1.9-1.1,4.4-0.2,6.2-0.7c0.2,0.2,0.6,0.5,0.4,0.8l-0.5,0.6c-2.6,0.2-5.5-0.1-7.2,1.8c-0.4,1.3,1.1,1.5,1.8,1.8
	c8.5,0.4,19.4-2.8,26-10.1c0.1-1-1-1.4-1.7-1.6c-12.8-0.9-25.6,0.9-35.2,8.9c-0.8,0.9-1.2,2.3-0.6,3.4c3.5,3.1,6.7,1,10.7,1.4
	l0.3,0.3l-1,0.8c-7.6,1.4-15.2,2.7-21.4,7.4L68.1,37.3L68.1,37.3z M183,36.7v0.8c-0.1,0.3-0.2,0.6-0.4,0.8
	c-18.3,11-40.6,1.2-60.8,5.7c-0.9,0.1-0.5,2.4-1.7,1.2c-0.6-0.5-0.2-1-0.2-1.5c4-2.7,8.1-2.3,12.9-2.7c15.4-0.2,33.5,5.4,48.1-3.1
	c0.5-0.4,0.7-1,0.4-1.5c-5.8-2.4-11.2-4.7-16.7-7.8c-4.1,3-8,7.2-13.3,7.5c-0.9-0.1-1.5-1.1-1.8-1.8c-2.1,1.5-4.4,2.4-7.1,2.4
	c-1.9-2.9-5.6,2.2-7-1.7c-0.1-1.7,1.7-3.1,2.8-3.9c-0.6,0-1.5-0.8-1.8,0.1c-2.5,2.7-5.3,6.2-9,5.2l-0.7-1.1c-1.3,1-2.6,2.2-4.4,1.5
	c-1.1-0.5-1.4-1.9-0.8-2.8c1.7-2.9,4.9-4.9,8.3-4.9c0.7,0.8,1.7-0.5,2.3,0.3c-0.6,2.1-4,3.1-3.7,5.8c1.2,0.4,2.4-0.7,3.5-1.1
	l5.2-5.5c0.8-0.2,0.2,0.8,0.7,0.9c1.6,0.3,2.9-0.6,4.5,0.3c-1.5,1.7-4.6,2.5-5.4,5.1c1.5,0.4,2.9-0.8,4.1-1.2
	c1.8-3.4,5.5-4.1,8.7-4.5c2.1-4.4,6.6-8.4,11.1-10.1c3.6-4.7,8.6-8.5,14.4-7.6l0.3,2.1c-0.8,5.9-5.6,10-9.6,14
	c5.4,3.2,10.4,5.4,16.1,7.7C182.6,35.5,182.9,36.1,183,36.7L183,36.7z M174.1,13.7c-1.2,5.2-5.5,9.4-9.5,12.8
	c-1-0.2-1.9-1.1-2.5-1.8c1.5-1.7,3.3-3.8,3.4-6.4c-0.3-0.5-0.9-0.7-1.4-0.7c2.8-2.4,6-5.1,9.8-4.9L174.1,13.7L174.1,13.7z
	 M134.8,13.8c-6.8,2.1-13,6.7-17.2,12.6c-2.8,2.9-3.7,7.8-8,8.8c0.5-1.8,2.3-3.1,2.8-4.8c-1.2-2.7-3.7,1.1-4.8-1
	c-2.6,1.8-4,5.7-7.5,6.1c0.5-2.1,2.2-3.7,3.7-5.4c-1.9-0.3-4.2-0.5-6.1-0.4c-1.2,1.9-2.7,4.2-4.8,5.2c-1,0.2-2,1.5-2.9,0.6
	c0.9-1.8,2.6-2.8,3.4-4.5c-0.4-0.6-1,0-1.5,0c-3.2-1.5-6.8,0-9.4,2.5c-0.6,0.9-1.5,2.3-0.5,3.4c2.1,1.1,4.8-0.1,6.7-0.7
	c0.2,0.5,0.9,1.1,1.5,1.1c2-0.2,3.3-1.1,4.9-2.1c2.4-1,2.8-5.4,5.8-3.9c-1.2,1.3-2.1,2.7-2.2,4.5c0.6,2.2,3.1,0.6,4.2,0.5l-0.3,0.8
	c0.1,0.4,0.5,0.5,0.9,0.6c2.2-2,3.2-6.9,7.1-6.5c-1.1,1.7-3.4,3.5-2,5.5c0.9,0.8,1.9-0.3,2.7-0.2c-0.2,0.1-0.2,0.3-0.2,0.5
	c0.2,0.4,0.7,0.4,1.1,0.4c1.9-2.4,2.8-6.4,6.4-6.9c0.5,0.2,1,0.6,1,1.3c-1.4,2.9-3.8,4.9-6.1,7.5c-1.5,1.9-4,4.4-2.5,7
	c1.7,0.9,3.1,0.5,5.1,0.4c0.8-0.2,1.8-0.5,1.8-1.4c-1.6-0.4-4.1,0.6-5.7,0.3c-0.8-0.5-0.2-1.2-0.2-1.9c2.2-3.8,7.2-7,8.9-11.1
	c0.6-1.4-0.5-2.6-1.3-3.2c6.8-3.8,16.5-5.5,18.7-14.3C137.9,13,135.9,14.1,134.8,13.8L134.8,13.8z M136.5,15.4
	c-1.1,4.9-6.9,7.2-11,9.2l-7.2,3.4C123.2,21.7,128.9,16.4,136.5,15.4L136.5,15.4z M161.5,22.7c-0.2-1.4,0.7-2.8,2-3.3
	C163.1,20.7,162.7,21.9,161.5,22.7L161.5,22.7z M159.8,24.3c-2.8,2.5-6,5-8.9,6.8c0.9-4.6,5.3-7.9,9.1-10
	C159.5,21.9,159.6,23.3,159.8,24.3L159.8,24.3z M162.9,27.7c-3,2.5-6.6,5.7-10.6,6.9c-0.8-0.2-1.1-0.8-1.1-1.5
	c3.3-2.1,6.3-4.9,9.5-7.4C161.6,26.3,161.8,27.5,162.9,27.7L162.9,27.7z M129.1,30.3c-1.4,1.9-3.6,4.8-6.1,4.9
	c-0.4-1.9,2.2-3.2,3.5-4.1C127.3,30.7,128.2,30.5,129.1,30.3L129.1,30.3z M146.7,34.2c-1.3,0.2-3.2,1.5-4.1,0.4
	c1.4-2.7,4-3.7,6.7-3.9C150.1,32.7,148,33.3,146.7,34.2L146.7,34.2z M90.4,32c-1.7,2.2-4.8,4.3-7.1,3.7c0.4-2.1,2.9-3.4,4.9-3.8
	L90.4,32L90.4,32z"/>
<path class="st0" d="M69.3,35.8c5.4,0.4,9.2,0.6,13.6,4.1c0.2,0.9-0.9,0.9-1.4,0.7c-3.9-2.9-9-3.8-14.3-3.1l-2.1,0.3
	c-2.4-0.3-5.7,1.2-7.5-0.7c-1.8,0.3-3.8,0.2-5.2-1l-1.3-1.6c-2.7,1.4-5.5,4.1-8.8,2.4c-1.4,0.6-3.2,1.2-4.8,0.6
	c-1.2-1.2-0.8-2.5-0.3-3.9c0.2-0.5,0.8-0.9,0.5-1.3c-3.5,3.8-8,6.2-13,5.5c-2.1-0.3-4.1-1.5-5.2-3.3c-0.2-0.8-0.7-1.6-0.7-2.5
	L8.1,41c-0.4-0.1-0.7-0.4-0.8-0.7v-0.4l14.4-12.5c-1.9-0.2-3.6-1.1-4.8-2.5c-1.8-2.5-1.4-6.3-0.1-8.9c2.8-4.9,8.5-7.4,14-7.7
	c4.2,0.5,8.3,1.4,10.9,5c2,2.3,2.1,6.3,1.6,9.1c3.6-0.4,8.4-1.2,12,0.1c1.9-2.6,4.6-6,7.9-6.2c0.9,0.1,2.1,0.6,2.2,1.7
	c-0.4,5-5.1,8.5-8.7,12l-4.1,3.4c-0.1,0.9,0.8,1.8,1.5,2.1c1.2,0.3,2.1,0.1,3.3,0.3c-0.1-2.1,1.5-4.1,3.2-5.4
	c1.4-1.1,3.5-1.1,5.1-0.6c0.7,1.6-0.4,3.1-1.2,4.2l-3.7,2.3l5.8-0.2L69.3,35.8L69.3,35.8z M36.2,11.2c-5.2-2.1-12-1-16,2.7
	c-2.8,2.4-3.6,6.1-2.5,9.5c1.1,2.1,3.7,2.3,5.7,2.5l13-10.9l1.4-0.1l0.3,1l-11.7,9.7c5.4-0.5,9.9-1.6,15-2.8c0.5-1.9,1-4.5,0.2-6.5
	C40.4,13.8,38.2,12.6,36.2,11.2L36.2,11.2z M63.4,18c-3.1,0.2-5.2,3.1-7,5.5l0.6,0.6c0.2,0.8,1.6,1.9,0.3,2.7
	c-1.4,0.6-1.2-1.3-2-1.7c-1.1,1.9-2.4,4.1-2.8,6.4c4.2-3.9,9.8-7.5,11.3-13L63.4,18L63.4,18z M42.7,24.4c-1.4,2.7-2.7,5.4-4.7,7.8
	c1.3-1.8,3-2.9,4.8-3.7c1.7-0.5,4.2,0,5.5,1.6c-1.1,1.6-2.5-0.2-3.9,0c-1.8,0.4-3.6,1.2-4.8,2.8c-0.2,1.1-1.9,2.1-1,3.4
	c4.1,0.5,4.9-4.4,8.2-5.2c0.2,0.3,0.6,0.5,0.7,0.9c-0.9,1.2-3.1,2.3-3.7,4.1c2.7,0,4.7-1.8,6.8-3.1c-0.2-3.4,1.7-6.2,3.4-9
	C50.4,22.8,46.2,23.5,42.7,24.4L42.7,24.4z M40.6,24.6l-7.9,1.9c-3.9,1.6-9.5-0.8-12.1,4.1c-0.4,1.8,0.5,3,1.2,4.2
	c1.5,1.1,3.2,1.9,5.2,1.6C33.3,35.9,38.4,30.1,40.6,24.6L40.6,24.6z M59.1,35.2c1.8-0.7,4.7-1.6,5.1-4.2
	C61.9,30.6,59.6,33,59.1,35.2L59.1,35.2z"/>
</svg>
