<?xml version="1.0" encoding="utf-8"?>
<!-- Generator: Adobe Illustrator 19.0.0, SVG Export Plug-In . SVG Version: 6.00 Build 0)  -->
<svg version="1.1" id="Layer_1" xmlns="http://www.w3.org/2000/svg" xmlns:xlink="http://www.w3.org/1999/xlink" x="0px" y="0px"
	 viewBox="-145 302 320 190" style="enable-background:new -145 302 320 190;" xml:space="preserve">
<style type="text/css">
	.st0{fill:#333333;}
</style>
<g>
	<g>
		<path class="st0" d="M-84.5,418.8c1.3,0,2.4-0.1,3.4-0.4s1.9-0.7,2.7-1.2c0.8-0.5,1.5-1,2.1-1.6c0.6-0.6,1.1-1.2,1.5-1.8
			c0.3,0.2,0.5,0.5,0.7,0.9c0.2,0.4,0.2,0.9,0.2,1.3c0,0.7-0.2,1.5-0.6,2.3c-0.4,0.8-1.1,1.6-2,2.2c-0.9,0.7-2.1,1.2-3.7,1.7
			c-1.5,0.4-3.4,0.7-5.6,0.7c-3,0-5.7-0.5-8-1.4s-4.2-2.2-5.7-3.9c-1.5-1.7-2.6-3.7-3.4-6.1c-0.8-2.4-1.1-5-1.1-7.9
			c0-2.8,0.4-5.4,1.2-7.8c0.8-2.4,1.9-4.4,3.4-6.1c1.5-1.7,3.4-3,5.7-3.9c2.3-0.9,4.9-1.4,7.9-1.4c2,0,3.8,0.2,5.3,0.5
			c1.5,0.3,2.7,0.7,3.7,1.3c1,0.5,1.7,1.2,2.2,1.9c0.5,0.7,0.7,1.5,0.7,2.4c0,0.6-0.1,1.3-0.4,1.8c-0.3,0.6-0.7,1-1.3,1.4
			c-0.6,0.4-1.2,0.7-2.1,1c-0.8,0.2-1.8,0.3-2.8,0.3c0-0.9-0.1-1.7-0.3-2.6s-0.5-1.6-1-2.3c-0.5-0.7-1-1.3-1.8-1.7
			c-0.7-0.4-1.6-0.7-2.7-0.7c-1.7,0-3.1,0.4-4.2,1.1c-1.1,0.7-2.1,1.7-2.8,3.1c-0.7,1.3-1.2,3-1.5,5c-0.3,2-0.5,4.2-0.5,6.8
			s0.2,4.7,0.6,6.6c0.4,1.9,1,3.5,1.8,4.7c0.8,1.3,1.9,2.2,3.3,2.8C-88.1,418.5-86.4,418.8-84.5,418.8z"/>
		<path class="st0" d="M-67,422.5v-2.8h2.2c0.4,0,0.8,0,1.1-0.1c0.3-0.1,0.6-0.2,0.8-0.5s0.4-0.6,0.6-1c0.1-0.4,0.2-1,0.2-1.8v-25.1
			c0-0.8-0.1-1.3-0.2-1.8c-0.1-0.4-0.3-0.8-0.6-1c-0.2-0.2-0.5-0.4-0.8-0.5c-0.3-0.1-0.7-0.1-1.1-0.1H-67v-2.8h18.1v2.8h-2.2
			c-0.4,0-0.7,0-1,0.1c-0.3,0.1-0.6,0.2-0.9,0.4c-0.2,0.2-0.4,0.5-0.6,1c-0.1,0.4-0.2,1-0.2,1.7v28.3h9.8c1.2,0,2.2-0.4,2.9-1.2
			c0.7-0.8,1.2-1.9,1.5-3.4l0.8-3.9h2.9l-0.4,11.7H-67z"/>
		<path class="st0" d="M-19.5,410.2l-1.5,4.5c-0.1,0.4-0.3,0.9-0.4,1.5c-0.1,0.6-0.2,1.1-0.2,1.5c0,0.3,0.1,0.6,0.2,0.9
			s0.3,0.5,0.5,0.6c0.2,0.2,0.5,0.3,0.8,0.4c0.3,0.1,0.6,0.1,0.9,0.1h2.2v2.8h-13.7v-2.8h0.6c0.5,0,0.9-0.1,1.3-0.2
			c0.4-0.1,0.7-0.3,1.1-0.6c0.3-0.3,0.6-0.7,0.9-1.2s0.6-1.1,0.9-1.9l11.4-30.8h7.2l11,30.9c0.3,0.7,0.5,1.3,0.8,1.8
			c0.3,0.5,0.6,0.9,0.9,1.2c0.3,0.3,0.7,0.5,1.1,0.6c0.4,0.1,0.8,0.2,1.2,0.2h0.9v2.8H-8.7v-2.8h2c0.3,0,0.5,0,0.8-0.1
			c0.3-0.1,0.5-0.2,0.7-0.4c0.2-0.2,0.4-0.4,0.5-0.6c0.1-0.3,0.2-0.6,0.2-0.9c0-0.4-0.1-0.8-0.2-1.2c-0.1-0.4-0.2-0.7-0.3-1
			l-1.8-5.3H-19.5z M-10.5,398.4c-0.2-0.6-0.4-1.2-0.6-1.9c-0.2-0.7-0.4-1.3-0.6-2c-0.2-0.7-0.4-1.4-0.6-2c-0.2-0.7-0.3-1.3-0.5-1.9
			c-0.2,0.5-0.3,1.1-0.5,1.7c-0.2,0.6-0.4,1.3-0.7,1.9c-0.2,0.7-0.5,1.3-0.7,2s-0.4,1.3-0.7,1.9l-3.1,8.9h10.6L-10.5,398.4z"/>
		<path class="st0" d="M25.7,423c-2.4,0-4.3-0.2-5.9-0.7c-1.6-0.4-2.8-1-3.8-1.7c-0.9-0.7-1.6-1.5-2-2.4c-0.4-0.9-0.6-1.7-0.6-2.6
			c0-0.9,0.2-1.7,0.5-2.3c0.3-0.6,0.8-1.1,1.3-1.5c0.6-0.4,1.2-0.7,1.9-0.8c0.7-0.2,1.4-0.3,2.2-0.3c0,1.5,0.2,2.8,0.5,4
			c0.4,1.1,0.9,2.1,1.5,2.8s1.4,1.3,2.3,1.7c0.9,0.4,1.8,0.6,2.9,0.6c1,0,1.9-0.1,2.7-0.4s1.5-0.7,2-1.2c0.6-0.5,1-1.1,1.3-1.8
			c0.3-0.7,0.4-1.4,0.4-2.2c0-0.9-0.2-1.7-0.5-2.4c-0.4-0.7-0.9-1.3-1.6-1.9c-0.7-0.6-1.6-1.2-2.7-1.7s-2.4-1.1-3.9-1.7
			c-1.8-0.8-3.4-1.5-4.6-2.3c-1.3-0.8-2.3-1.7-3-2.6c-0.8-0.9-1.3-1.9-1.7-3s-0.5-2.3-0.5-3.5c0-1.6,0.3-3.1,1-4.4
			c0.6-1.3,1.5-2.4,2.7-3.3c1.1-0.9,2.5-1.6,4.1-2.1c1.6-0.5,3.3-0.7,5.1-0.7c1.9,0,3.6,0.2,5,0.5c1.4,0.3,2.6,0.7,3.5,1.3
			c0.9,0.5,1.6,1.2,2,1.9s0.7,1.5,0.7,2.4c0,0.6-0.1,1.2-0.4,1.7s-0.7,1-1.2,1.4c-0.5,0.4-1.2,0.7-2,0.9c-0.8,0.2-1.8,0.3-2.8,0.3
			c0-0.7-0.1-1.5-0.3-2.4c-0.2-0.8-0.5-1.6-1-2.4c-0.4-0.7-1-1.3-1.7-1.8s-1.6-0.7-2.6-0.7c-0.7,0-1.4,0.1-2,0.3
			c-0.6,0.2-1.2,0.5-1.7,0.9s-0.8,0.9-1.1,1.5c-0.3,0.6-0.4,1.3-0.4,2.1c0,0.7,0.1,1.4,0.4,2.1c0.2,0.6,0.7,1.3,1.3,1.9
			c0.6,0.6,1.5,1.2,2.6,1.9c1.1,0.6,2.6,1.3,4.3,2c1.8,0.7,3.3,1.5,4.6,2.3c1.3,0.8,2.3,1.6,3.1,2.5c0.8,0.9,1.4,1.8,1.8,2.9
			c0.4,1.1,0.6,2.2,0.6,3.5c0,1.7-0.3,3.2-1,4.6c-0.7,1.4-1.6,2.6-2.9,3.6c-1.2,1-2.7,1.8-4.5,2.4C29.9,422.7,27.9,423,25.7,423z"/>
		<path class="st0" d="M59.7,423c-2.4,0-4.3-0.2-5.9-0.7c-1.6-0.4-2.8-1-3.8-1.7c-0.9-0.7-1.6-1.5-2-2.4s-0.6-1.7-0.6-2.6
			c0-0.9,0.2-1.7,0.5-2.3c0.3-0.6,0.8-1.1,1.3-1.5s1.2-0.7,1.9-0.8c0.7-0.2,1.4-0.3,2.2-0.3c0,1.5,0.2,2.8,0.5,4
			c0.4,1.1,0.9,2.1,1.5,2.8s1.4,1.3,2.3,1.7c0.9,0.4,1.8,0.6,2.9,0.6c1,0,1.9-0.1,2.7-0.4s1.5-0.7,2-1.2c0.6-0.5,1-1.1,1.3-1.8
			c0.3-0.7,0.4-1.4,0.4-2.2c0-0.9-0.2-1.7-0.5-2.4c-0.4-0.7-0.9-1.3-1.6-1.9c-0.7-0.6-1.6-1.2-2.7-1.7s-2.4-1.1-3.9-1.7
			c-1.8-0.8-3.4-1.5-4.6-2.3c-1.3-0.8-2.3-1.7-3-2.6c-0.8-0.9-1.3-1.9-1.7-3s-0.5-2.3-0.5-3.5c0-1.6,0.3-3.1,1-4.4s1.5-2.4,2.7-3.3
			c1.1-0.9,2.5-1.6,4.1-2.1c1.6-0.5,3.3-0.7,5.1-0.7c1.9,0,3.6,0.2,5,0.5c1.4,0.3,2.6,0.7,3.5,1.3c0.9,0.5,1.6,1.2,2,1.9
			s0.7,1.5,0.7,2.4c0,0.6-0.1,1.2-0.4,1.7s-0.7,1-1.2,1.4c-0.5,0.4-1.2,0.7-2,0.9c-0.8,0.2-1.8,0.3-2.8,0.3c0-0.7-0.1-1.5-0.3-2.4
			c-0.2-0.8-0.5-1.6-1-2.4c-0.4-0.7-1-1.3-1.7-1.8s-1.6-0.7-2.6-0.7c-0.7,0-1.4,0.1-2,0.3c-0.6,0.2-1.2,0.5-1.7,0.9
			s-0.8,0.9-1.1,1.5c-0.3,0.6-0.4,1.3-0.4,2.1c0,0.7,0.1,1.4,0.4,2.1c0.2,0.6,0.7,1.3,1.3,1.9c0.6,0.6,1.5,1.2,2.6,1.9
			c1.1,0.6,2.6,1.3,4.3,2c1.8,0.7,3.3,1.5,4.6,2.3c1.3,0.8,2.3,1.6,3.1,2.5c0.8,0.9,1.4,1.8,1.8,2.9c0.4,1.1,0.6,2.2,0.6,3.5
			c0,1.7-0.3,3.2-1,4.6c-0.7,1.4-1.6,2.6-2.9,3.6c-1.2,1-2.7,1.8-4.5,2.4C63.9,422.7,61.9,423,59.7,423z"/>
		<path class="st0" d="M81.3,422.5v-2.8h2.2c0.4,0,0.8,0,1.1-0.1c0.3-0.1,0.6-0.2,0.8-0.5s0.4-0.6,0.6-1c0.1-0.4,0.2-1,0.2-1.8
			v-25.1c0-0.8-0.1-1.3-0.2-1.8c-0.1-0.4-0.3-0.8-0.6-1s-0.5-0.4-0.8-0.5c-0.3-0.1-0.7-0.1-1.1-0.1h-2.2v-2.8h18.1v2.8h-2.2
			c-0.4,0-0.7,0-1.1,0.1c-0.3,0.1-0.6,0.2-0.9,0.5c-0.2,0.2-0.4,0.6-0.6,1c-0.1,0.4-0.2,1-0.2,1.8v25.1c0,0.8,0.1,1.3,0.2,1.8
			c0.1,0.4,0.3,0.8,0.6,1c0.2,0.2,0.5,0.4,0.9,0.5s0.7,0.1,1.1,0.1h2.2v2.8H81.3z"/>
		<path class="st0" d="M126.4,418.8c1.3,0,2.4-0.1,3.4-0.4s1.9-0.7,2.7-1.2c0.8-0.5,1.5-1,2.1-1.6s1.1-1.2,1.5-1.8
			c0.3,0.2,0.5,0.5,0.7,0.9c0.2,0.4,0.2,0.9,0.2,1.3c0,0.7-0.2,1.5-0.6,2.3c-0.4,0.8-1.1,1.6-2,2.2c-0.9,0.7-2.1,1.2-3.7,1.7
			c-1.5,0.4-3.4,0.7-5.6,0.7c-3,0-5.7-0.5-8-1.4s-4.2-2.2-5.7-3.9s-2.6-3.7-3.4-6.1c-0.8-2.4-1.1-5-1.1-7.9c0-2.8,0.4-5.4,1.2-7.8
			c0.8-2.4,1.9-4.4,3.4-6.1c1.5-1.7,3.4-3,5.7-3.9c2.3-0.9,4.9-1.4,7.9-1.4c2,0,3.8,0.2,5.3,0.5c1.5,0.3,2.7,0.7,3.7,1.3
			c1,0.5,1.7,1.2,2.2,1.9c0.5,0.7,0.7,1.5,0.7,2.4c0,0.6-0.1,1.3-0.4,1.8c-0.3,0.6-0.7,1-1.3,1.4c-0.6,0.4-1.2,0.7-2.1,1
			c-0.8,0.2-1.8,0.3-2.8,0.3c0-0.9-0.1-1.7-0.3-2.6s-0.5-1.6-1-2.3c-0.5-0.7-1-1.3-1.8-1.7c-0.7-0.4-1.6-0.7-2.7-0.7
			c-1.7,0-3.1,0.4-4.2,1.1c-1.1,0.7-2.1,1.7-2.8,3.1c-0.7,1.3-1.2,3-1.5,5s-0.5,4.2-0.5,6.8s0.2,4.7,0.6,6.6c0.4,1.9,1,3.5,1.8,4.7
			c0.8,1.3,1.9,2.2,3.3,2.8C122.8,418.5,124.5,418.8,126.4,418.8z"/>
	</g>
</g>
<g>
	<g>
		<path class="st0" d="M-37.3,330.7c2.4-1,4.4-1.2,6-0.5c1.9,0.8,3.3,2.7,4.4,5.7c1.1,3,1.3,5.4,0.6,7.2c-0.6,1.6-1.9,2.8-4,3.7
			c-2.1,0.9-3.9,1.1-5.5,0.5c-1.8-0.7-3.4-2.4-4.9-5.3c-1.4-2.8-1.8-5.2-1.2-7.1C-41.2,333.1-39.7,331.7-37.3,330.7z M-29.9,337
			c-1-2.5-2-4.1-3.1-4.9c-1.1-0.8-2.3-0.9-3.8-0.3c-1.4,0.6-2.2,1.6-2.4,3c-0.1,1.3,0.4,3.2,1.5,5.6c1.1,2.4,2.3,4,3.3,4.8
			c1.1,0.8,2.2,0.9,3.5,0.3c1.3-0.6,2-1.5,2.1-2.8C-28.5,341.4-29,339.5-29.9,337z"/>
		<path class="st0" d="M-18.8,333.6c0.7,2.2,1.3,4.3,2,6.5c0.9-0.3,1.7-0.5,2.6-0.7c0.1,0.4,0.2,0.8,0.3,1.2
			c-2.3,0.6-4.6,1.4-6.9,2.1c-0.1-0.4-0.3-0.8-0.4-1.2c0.5-0.2,1.1-0.4,1.6-0.5c-1.5-4.6-3-9.2-4.5-13.7c-0.6,0.2-1.2,0.4-1.8,0.6
			c-0.1-0.4-0.3-0.8-0.4-1.2c2.3-0.8,4.5-1.5,6.8-2.1c2.2-0.6,3.9-0.7,5-0.3c1.1,0.4,1.8,1.4,2.2,2.9c0.2,1,0.1,2-0.5,3
			c-0.5,0.9-1.2,1.5-2,1.9c1.3,0.1,2.5,1,3.6,2.6c0.8,1.1,1.5,2.3,2.3,3.4c0.5-0.1,1.1-0.2,1.6-0.4c0.1,0.4,0.2,0.8,0.3,1.3
			c-1.5,0.3-2.9,0.7-4.4,1c-0.9-1.5-1.9-3.1-2.9-4.6c-0.3-0.5-0.7-1-1.2-1.3c-0.9-0.7-1.8-0.9-2.7-0.6
			C-18.4,333.5-18.6,333.6-18.8,333.6z M-19.2,332.4c0.2-0.1,0.4-0.1,0.6-0.2c1.4-0.4,2.3-1,2.8-1.7c0.4-0.6,0.4-1.5,0.2-2.5
			c-0.5-2-1.7-2.7-3.6-2.2c-0.6,0.2-1.2,0.3-1.8,0.5C-20.4,328.3-19.8,330.4-19.2,332.4z"/>
		<path class="st0" d="M-0.1,336.4c0.5-0.1,1.1-0.2,1.6-0.2c0.1,0.4,0.1,0.9,0.2,1.3c-2.1,0.3-4.1,0.6-6.1,1
			c-0.1-0.4-0.2-0.8-0.2-1.3c0.6-0.1,1.1-0.2,1.7-0.3c-0.8-4.7-1.7-9.5-2.5-14.2c-0.6,0.1-1.2,0.2-1.8,0.3c-0.1-0.4-0.2-0.8-0.2-1.3
			c2.3-0.4,4.7-0.8,7-1.2c0.1,0.4,0.1,0.9,0.2,1.3c-0.6,0.1-1.2,0.2-1.8,0.3C-1.6,326.8-0.8,331.6-0.1,336.4z"/>
		<path class="st0" d="M10.9,319.2c2.4-0.1,4.3,0.3,5.8,1.2c0,0.8,0,1.7,0,2.5c-0.6,0-1.2,0-1.8,0c0-0.5,0-0.9,0-1.4
			c-1.1-0.8-2.5-1.2-3.9-1.1c-1.5,0.1-2.6,0.7-3.2,2c-0.6,1.2-0.7,3.1-0.5,5.8c0.2,2.7,0.7,4.5,1.4,5.6c0.7,1.1,1.7,1.6,3.1,1.5
			c1.2-0.1,2.1-0.4,2.7-1.1c-0.1-1.6-0.1-3.3-0.2-4.9c-0.6,0-1.2,0-1.8,0.1c0-0.4,0-0.8-0.1-1.3c1.6-0.1,3.3-0.1,4.9-0.1
			c0,2.3,0,4.7,0.1,7c-1.7,1-3.6,1.5-5.6,1.6c-2.2,0.1-3.9-0.4-5.2-1.5c-1.4-1.3-2.3-3.5-2.7-6.6c-0.4-3.1,0.1-5.5,1.3-7
			C6.5,320.1,8.4,319.3,10.9,319.2z"/>
		<path class="st0" d="M25.9,335.2c0.5,0,1.1,0.1,1.6,0.1c0,0.4-0.1,0.9-0.1,1.3c-2.1-0.2-4.1-0.2-6.2-0.3c0-0.4,0-0.9,0-1.3
			c0.6,0,1.1,0,1.7,0c0.2-4.8,0.3-9.6,0.5-14.5c-0.6,0-1.2,0-1.9-0.1c0-0.4,0-0.9,0-1.3c2.4,0.1,4.7,0.2,7.1,0.3
			c0,0.4-0.1,0.9-0.1,1.3c-0.6,0-1.2-0.1-1.8-0.1C26.5,325.5,26.2,330.3,25.9,335.2z"/>
		<path class="st0" d="M40.9,338.3c-1.5-5.1-3.2-10.1-5.2-15.1c-0.5,4.2-1.1,8.5-1.6,12.7c0.5,0.1,1.1,0.1,1.6,0.2
			c-0.1,0.4-0.1,0.9-0.2,1.3c-1.5-0.2-3-0.4-4.5-0.6c0-0.4,0.1-0.9,0.1-1.3c0.5,0.1,1.1,0.1,1.6,0.2c0.6-4.8,1.1-9.6,1.7-14.4
			c-0.6-0.1-1.2-0.1-1.8-0.2c0-0.4,0.1-0.9,0.1-1.3c1.8,0.2,3.5,0.4,5.3,0.6c1.9,4.9,3.6,9.8,5.1,14.7c0.8-4,1.6-8.1,2.4-12.1
			c-0.6-0.1-1.2-0.2-1.8-0.4c0.1-0.4,0.2-0.8,0.2-1.3c1.7,0.3,3.4,0.7,5.2,1.1c-0.1,0.4-0.2,0.8-0.3,1.3c-0.6-0.1-1.2-0.3-1.8-0.4
			c-1.1,5.1-2.2,10.3-3.3,15.4C42.7,338.7,41.8,338.5,40.9,338.3z"/>
		<path class="st0" d="M52.8,335.8c-0.7,1.1-1.4,2.2-2.1,3.4c0.5,0.1,1.1,0.3,1.6,0.4c-0.1,0.4-0.2,0.8-0.4,1.2
			c-1.6-0.4-3.1-0.9-4.7-1.2c0.1-0.4,0.2-0.8,0.3-1.3c0.5,0.1,1.1,0.3,1.6,0.4c2.6-4.3,5.4-8.5,8.3-12.7c-0.6-0.2-1.2-0.3-1.8-0.5
			c0.1-0.4,0.2-0.8,0.4-1.2c1.6,0.5,3.3,1,4.9,1.5c0.1,5.6,0,11.1-0.3,16.6c0.5,0.2,1.1,0.4,1.6,0.6c-0.2,0.4-0.3,0.8-0.5,1.2
			c-2-0.8-4-1.5-6.1-2.1c0.1-0.4,0.3-0.8,0.4-1.2c0.5,0.2,1.1,0.3,1.6,0.5c0-1.3,0.1-2.7,0.1-4C56.1,336.8,54.5,336.3,52.8,335.8z
			 M57.8,336c0-2.5,0-5.1-0.1-7.6c-1.5,2.1-2.9,4.2-4.3,6.3C55,335.1,56.4,335.5,57.8,336z"/>
		<path class="st0" d="M77.5,333.8c-0.9-0.4-1.7-0.8-2.6-1.2c-2,4.4-4,8.8-5.9,13.2c1.3,0.6,2.6,1.2,3.9,1.8
			c0.3-0.6,0.6-1.1,0.8-1.7c0.5,0.3,1,0.5,1.5,0.8c-0.5,0.9-1,1.9-1.4,2.8c-3.1-1.6-6.3-3.1-9.6-4.4c0.2-0.4,0.3-0.8,0.5-1.2
			c0.5,0.2,1,0.4,1.6,0.6c1.9-4.4,3.7-8.9,5.6-13.3c-0.6-0.2-1.2-0.5-1.7-0.7c0.2-0.4,0.3-0.8,0.5-1.2c2.5,1,5,2.1,7.5,3.3
			C77.9,333,77.7,333.4,77.5,333.8z"/>
	</g>
</g>
<g>
	<g>
		<path class="st0" d="M-29.1,466.3c2.4-3.6,4.7-7.2,7-10.9c-0.5-0.1-1.1-0.3-1.6-0.4c0.1-0.4,0.2-0.8,0.4-1.2
			c1.5,0.4,3.1,0.8,4.6,1.2c-0.1,0.4-0.2,0.8-0.3,1.3c-0.5-0.1-1.1-0.3-1.6-0.4c-2.9,4.7-5.9,9.3-9,13.9c-0.9-0.3-1.7-0.5-2.6-0.8
			c-0.1-5.5,0-11,0.2-16.5c-0.5-0.2-1.1-0.4-1.6-0.6c0.1-0.4,0.3-0.8,0.4-1.2c2,0.7,4,1.4,6,2c-0.1,0.4-0.3,0.8-0.4,1.2
			c-0.5-0.2-1-0.3-1.6-0.5C-29.2,457.7-29.2,462-29.1,466.3z"/>
		<path class="st0" d="M-15.1,472c0.6,0.1,1.2,0.2,1.7,0.3c-0.1,0.4-0.2,0.8-0.2,1.3c-2.2-0.4-4.5-0.9-6.7-1.4
			c0.1-0.4,0.2-0.8,0.3-1.3c0.6,0.1,1.2,0.3,1.8,0.4c1-4.7,2.1-9.4,3.1-14.1c-0.5-0.1-1.1-0.2-1.6-0.4c0.1-0.4,0.2-0.8,0.3-1.3
			c2,0.5,4,0.9,6,1.3c-0.1,0.4-0.2,0.8-0.2,1.3c-0.5-0.1-1.1-0.2-1.6-0.3C-13.2,462.5-14.1,467.2-15.1,472z"/>
		<path class="st0" d="M1.2,475.7c-2.1-4.9-4-9.9-5.7-14.9c-0.6,4.2-1.2,8.5-1.8,12.7c0.6,0.1,1.2,0.2,1.8,0.2
			c-0.1,0.4-0.1,0.9-0.2,1.3c-1.7-0.2-3.3-0.5-5-0.7c0.1-0.4,0.1-0.9,0.2-1.3c0.6,0.1,1.2,0.2,1.7,0.3c0.7-4.8,1.5-9.5,2.2-14.3
			c-0.5-0.1-1.1-0.2-1.6-0.3c0.1-0.4,0.1-0.9,0.2-1.3c1.5,0.3,3.1,0.5,4.6,0.7c1.6,4.8,3.5,9.6,5.6,14.4c0.4-4.1,0.7-8.2,1.1-12.3
			c-0.5,0-1.1-0.1-1.6-0.2c0-0.4,0.1-0.9,0.1-1.3c1.5,0.1,3,0.3,4.5,0.4c0,0.4-0.1,0.9-0.1,1.3c-0.5,0-1.1-0.1-1.6-0.1
			c-0.4,5.2-0.8,10.5-1.2,15.7C3.3,475.9,2.2,475.8,1.2,475.7z"/>
		<path class="st0" d="M20.5,476.4c-2.9,0.1-5.7,0-8.6,0c0-0.4,0-0.9,0-1.3c0.9,0,1.8,0,2.7,0.1c0.1-4.8,0.1-9.7,0.2-14.5
			c-1.3,0-2.7,0-4-0.1c0,0.6-0.1,1.2-0.1,1.9c-0.6,0-1.1,0-1.7-0.1c0.1-1.1,0.1-2.1,0.2-3.2c4.7,0.2,9.4,0.3,14,0.1
			c0,1.1,0.1,2.1,0.1,3.2c-0.6,0-1.1,0-1.7,0.1c0-0.6,0-1.3-0.1-1.9c-1.3,0-2.6,0.1-4,0.1c0,4.8,0,9.7,0.1,14.5c0.9,0,1.8,0,2.7,0
			C20.5,475.5,20.5,476,20.5,476.4z"/>
		<path class="st0" d="M29.7,470.8c-0.3,1.3-0.6,2.6-0.9,3.9c0.6,0,1.2-0.1,1.8-0.1c0,0.4,0.1,0.9,0.1,1.3c-1.8,0.1-3.5,0.3-5.3,0.4
			c0-0.4,0-0.9-0.1-1.3c0.6,0,1.2-0.1,1.8-0.1c1.3-4.9,2.4-9.8,3.4-14.8c-0.5,0-1.1,0.1-1.6,0.1c0-0.4-0.1-0.9-0.1-1.3
			c1.5-0.1,2.9-0.3,4.4-0.4c2.1,5.1,4.4,10.1,6.8,15c0.6-0.1,1.2-0.2,1.8-0.3c0.1,0.4,0.1,0.9,0.2,1.3c-2.3,0.4-4.6,0.7-6.9,0.9
			c0-0.4-0.1-0.9-0.1-1.3c0.6-0.1,1.2-0.1,1.8-0.2c-0.6-1.2-1.1-2.4-1.7-3.6C33.2,470.5,31.5,470.7,29.7,470.8z M34.5,469.1
			c-1-2.3-2-4.7-2.9-7c-0.5,2.5-1,5-1.5,7.4C31.5,469.4,33,469.2,34.5,469.1z"/>
		<path class="st0" d="M48.3,455.8c2-0.4,3.7-0.4,5.3,0.2c0.2,0.8,0.4,1.6,0.6,2.4c-0.5,0.1-1.1,0.3-1.6,0.4
			c-0.1-0.5-0.2-0.9-0.3-1.4c-1.2-0.6-2.4-0.7-3.6-0.5c-1.3,0.3-2.2,1-2.6,2.3c-0.4,1.3-0.3,3.2,0.2,5.8c0.5,2.6,1.2,4.4,2,5.5
			c0.9,1,2,1.4,3.5,1c1.3-0.3,2.2-0.8,2.7-1.6c-0.4-1.6-0.8-3.2-1.1-4.8c-0.6,0.1-1.1,0.3-1.7,0.4c-0.1-0.4-0.2-0.8-0.3-1.2
			c1.6-0.4,3.1-0.7,4.7-1.1c0.6,2.3,1.2,4.5,1.7,6.8c-1.6,1.4-3.5,2.3-5.7,2.8c-2.4,0.5-4.3,0.2-5.8-0.8c-1.6-1.2-2.6-3.3-3.2-6.4
			c-0.5-3.1-0.3-5.5,0.7-7.1C44.7,457.2,46.2,456.3,48.3,455.8z"/>
		<path class="st0" d="M66.4,467.5c1.4-0.5,2.9-0.9,4.3-1.4c-0.2-0.6-0.4-1.2-0.6-1.8c0.6-0.2,1.1-0.4,1.7-0.6c0.4,1,0.7,2,1.1,3
			c-3.6,1.3-7.3,2.5-10.9,3.5c-0.1-0.4-0.2-0.8-0.4-1.2c0.6-0.2,1.2-0.3,1.7-0.5c-1.4-4.6-2.7-9.2-4.1-13.9c-0.5,0.2-1,0.3-1.6,0.5
			c-0.1-0.4-0.2-0.8-0.4-1.2c3.3-0.9,6.5-2,9.7-3.1c0.4,1,0.7,2,1.1,3c-0.5,0.2-1.1,0.4-1.6,0.6c-0.2-0.6-0.4-1.2-0.6-1.8
			c-1.3,0.4-2.6,0.9-3.8,1.3c0.6,2,1.3,4,1.9,6.1c1-0.3,2.1-0.7,3.1-1c-0.1-0.4-0.3-0.8-0.4-1.2c0.5-0.2,1.1-0.4,1.6-0.6
			c0.4,1.2,0.8,2.4,1.3,3.6c-0.5,0.2-1.1,0.4-1.6,0.6c-0.1-0.4-0.3-0.8-0.4-1.2c-1,0.4-2.1,0.7-3.1,1
			C65,463.2,65.7,465.3,66.4,467.5z"/>
	</g>
</g>
<path class="st0" d="M43,357c1.5,3.5,0,13.3-7.5,3.5c-7.1-9.4-16.1-1.5-16.9-0.8c-0.8-0.7-9.8-8.6-16.9,0.8c-7.5,9.8-8.9,0-7.5-3.5
	c0,0-9.2,8.3-0.3,16.7c7.5,7,21.4,2.6,24.7-5.2c3.3,7.8,17.1,12.2,24.7,5.2C52.2,365.4,43,357,43,357z"/>
<g>
	<g>
		<path class="st0" d="M-9.4,432.3v1.9h-1.2v-0.6h-1.2v1.2h1.2v1.2h-1.2v1.2h1.2v-0.6h1.2v1.9h-4.4v-1.2h0.6v-3.7h-0.6v-1.2H-9.4z"
			/>
		<path class="st0" d="M-4.2,434.8c0.5,0.1,0.9,0.2,1.2,0.4c0.3,0.2,0.5,0.4,0.7,0.6s0.3,0.4,0.3,0.6s0.1,0.4,0.1,0.5
			c0,0.2-0.1,0.5-0.2,0.7s-0.2,0.4-0.4,0.6c-0.2,0.2-0.4,0.3-0.6,0.4s-0.5,0.1-0.8,0.1c-0.3,0-0.6,0-0.8-0.1
			c-0.2-0.1-0.5-0.1-0.6-0.2v0.3h-1.2v-1.9h1.2c0.1,0.1,0.2,0.2,0.3,0.3c0.1,0.1,0.2,0.2,0.3,0.2c0.1,0.1,0.2,0.1,0.4,0.1
			c0.1,0,0.3,0,0.5,0c0.2,0,0.4,0,0.6-0.1s0.2-0.2,0.2-0.4c0-0.1,0-0.2-0.1-0.3c-0.1-0.1-0.2-0.2-0.3-0.2c-0.1-0.1-0.3-0.1-0.4-0.2
			c-0.1,0-0.3-0.1-0.4-0.1c-0.5-0.1-0.9-0.2-1.2-0.4c-0.3-0.2-0.5-0.3-0.7-0.5c-0.2-0.2-0.3-0.4-0.3-0.6s-0.1-0.4-0.1-0.5
			c0-0.3,0.1-0.5,0.2-0.7c0.1-0.2,0.2-0.4,0.4-0.6c0.2-0.2,0.4-0.3,0.6-0.4s0.5-0.1,0.8-0.1c0.3,0,0.6,0,0.8,0.1
			c0.2,0.1,0.4,0.1,0.6,0.2v-0.3H-2v1.9h-1.3c-0.1-0.1-0.2-0.2-0.3-0.3c-0.1-0.1-0.2-0.2-0.3-0.2c-0.1-0.1-0.2-0.1-0.4-0.1
			c-0.1,0-0.3,0-0.4,0c-0.2,0-0.4,0.1-0.6,0.2c-0.1,0.1-0.2,0.2-0.2,0.4C-5.4,434.4-5,434.7-4.2,434.8z"/>
		<path class="st0" d="M5.8,432.3v1.9H4.6v-0.6H4v3.7h0.6v1.2H2.1v-1.2h0.6v-3.7H2.1v0.6H0.8v-1.9H5.8z"/>
		<path class="st0" d="M11.1,432.3c0.3,0,0.7,0.1,1,0.2c0.3,0.1,0.6,0.3,0.8,0.5c0.2,0.2,0.4,0.5,0.5,0.8c0.1,0.3,0.2,0.6,0.2,1v1.2
			c0,0.3-0.1,0.7-0.2,1c-0.1,0.3-0.3,0.6-0.5,0.8c-0.2,0.2-0.5,0.4-0.8,0.5c-0.3,0.1-0.6,0.2-1,0.2H8.6v-1.2h0.6v-3.7H8.6v-1.2H11.1
			z M11.1,437.2c0.2,0,0.3,0,0.5-0.1c0.2-0.1,0.3-0.2,0.4-0.3c0.1-0.1,0.2-0.2,0.3-0.4c0.1-0.2,0.1-0.3,0.1-0.5v-1.2
			c0-0.2,0-0.3-0.1-0.5s-0.2-0.3-0.3-0.4c-0.1-0.1-0.2-0.2-0.4-0.3c-0.2-0.1-0.3-0.1-0.5-0.1h-0.6v3.7H11.1z"/>
		<path class="st0" d="M17,437c0.2,0,0.4,0.1,0.5,0.2c0.1,0.1,0.2,0.3,0.2,0.5c0,0.2-0.1,0.4-0.2,0.5c-0.1,0.1-0.3,0.2-0.5,0.2
			c-0.2,0-0.4-0.1-0.5-0.2c-0.1-0.1-0.2-0.3-0.2-0.5c0-0.2,0.1-0.4,0.2-0.5C16.6,437.1,16.8,437,17,437z"/>
		<path class="st0" d="M28.2,437.2v1.2h-2.5v-1.2h0.6v-3.7h-0.6v-1.2h1.9v5H28.2z"/>
		<path class="st0" d="M33.5,432.3c0.3,0,0.5,0,0.7,0.1c0.2,0.1,0.4,0.2,0.6,0.4s0.3,0.4,0.4,0.6s0.1,0.5,0.1,0.7v2.5
			c0,0.3,0,0.5-0.1,0.7c-0.1,0.2-0.2,0.4-0.4,0.6s-0.4,0.3-0.6,0.4c-0.2,0.1-0.5,0.1-0.7,0.1h-0.6c-0.3,0-0.5,0-0.7-0.1
			c-0.2-0.1-0.4-0.2-0.6-0.4s-0.3-0.4-0.4-0.6c-0.1-0.2-0.1-0.5-0.1-0.7h1.2c0,0.2,0.1,0.3,0.2,0.4s0.3,0.2,0.4,0.2h0.6
			c0.2,0,0.3-0.1,0.4-0.2c0.1-0.1,0.2-0.3,0.2-0.4v-0.7c-0.2,0.1-0.4,0.1-0.6,0.1h-0.6c-0.3,0-0.5,0-0.7-0.1
			c-0.2-0.1-0.4-0.2-0.6-0.4s-0.3-0.4-0.4-0.6c-0.1-0.2-0.1-0.5-0.1-0.7c0-0.3,0-0.5,0.1-0.7s0.2-0.4,0.4-0.6s0.4-0.3,0.6-0.4
			c0.2-0.1,0.5-0.1,0.7-0.1H33.5z M33.5,434.8c0.2,0,0.3-0.1,0.4-0.2c0.1-0.1,0.2-0.3,0.2-0.4s-0.1-0.3-0.2-0.4
			c-0.1-0.1-0.3-0.2-0.4-0.2h-0.6c-0.2,0-0.3,0.1-0.4,0.2s-0.2,0.3-0.2,0.4s0.1,0.3,0.2,0.4s0.3,0.2,0.4,0.2H33.5z"/>
		<path class="st0" d="M41,434.7c0.2,0.1,0.5,0.2,0.6,0.4c0.2,0.2,0.3,0.4,0.4,0.6c0.1,0.2,0.2,0.5,0.2,0.8c0,0.3-0.1,0.5-0.2,0.8
			c-0.1,0.2-0.2,0.5-0.4,0.6c-0.2,0.2-0.4,0.3-0.6,0.4c-0.2,0.1-0.5,0.2-0.8,0.2h-0.3c-0.3,0-0.5,0-0.7-0.1
			c-0.2-0.1-0.4-0.2-0.6-0.4s-0.3-0.4-0.4-0.6c-0.1-0.2-0.1-0.5-0.1-0.7h1.2c0,0.2,0.1,0.3,0.2,0.4s0.3,0.2,0.4,0.2h0.3
			c0.2,0,0.4-0.1,0.5-0.2c0.1-0.1,0.2-0.3,0.2-0.5c0-0.2-0.1-0.4-0.2-0.5c-0.1-0.1-0.3-0.2-0.5-0.2h-2.2v-3.5h4v1.9h-1.2v-0.6h-1.6
			v1h0.9C40.5,434.5,40.8,434.6,41,434.7z"/>
		<path class="st0" d="M47.5,432.3c0.3,0,0.5,0,0.7,0.1c0.2,0.1,0.4,0.2,0.6,0.4s0.3,0.4,0.4,0.6s0.1,0.5,0.1,0.7v2.5
			c0,0.3,0,0.5-0.1,0.7c-0.1,0.2-0.2,0.4-0.4,0.6s-0.4,0.3-0.6,0.4c-0.2,0.1-0.5,0.1-0.7,0.1h-0.6c-0.3,0-0.5,0-0.7-0.1
			c-0.2-0.1-0.4-0.2-0.6-0.4s-0.3-0.4-0.4-0.6c-0.1-0.2-0.1-0.5-0.1-0.7h1.2c0,0.2,0.1,0.3,0.2,0.4s0.3,0.2,0.4,0.2h0.6
			c0.2,0,0.3-0.1,0.4-0.2c0.1-0.1,0.2-0.3,0.2-0.4v-0.7c-0.2,0.1-0.4,0.1-0.6,0.1h-0.6c-0.3,0-0.5,0-0.7-0.1
			c-0.2-0.1-0.4-0.2-0.6-0.4s-0.3-0.4-0.4-0.6c-0.1-0.2-0.1-0.5-0.1-0.7c0-0.3,0-0.5,0.1-0.7s0.2-0.4,0.4-0.6s0.4-0.3,0.6-0.4
			c0.2-0.1,0.5-0.1,0.7-0.1H47.5z M47.5,434.8c0.2,0,0.3-0.1,0.4-0.2c0.1-0.1,0.2-0.3,0.2-0.4s-0.1-0.3-0.2-0.4
			c-0.1-0.1-0.3-0.2-0.4-0.2h-0.6c-0.2,0-0.3,0.1-0.4,0.2s-0.2,0.3-0.2,0.4s0.1,0.3,0.2,0.4s0.3,0.2,0.4,0.2H47.5z"/>
	</g>
</g>
<g>
	<rect x="-103.1" y="372.2" class="st0" width="80.8" height="3.4"/>
</g>
<g>
	<rect x="58.4" y="372.2" class="st0" width="78.5" height="3.4"/>
</g>
<g>
	<rect x="-103.1" y="432.8" class="st0" width="80.8" height="3.4"/>
</g>
<g>
	<rect x="58.4" y="432.8" class="st0" width="78.5" height="3.4"/>
</g>
</svg>
