<?xml version="1.0" encoding="utf-8"?>
<!-- Generator: Adobe Illustrator 19.0.0, SVG Export Plug-In . SVG Version: 6.00 Build 0)  -->
<svg version="1.1" id="Layer_1" xmlns="http://www.w3.org/2000/svg" xmlns:xlink="http://www.w3.org/1999/xlink" x="0px" y="0px"
	 viewBox="-145 302 320 190" style="enable-background:new -145 302 320 190;" xml:space="preserve">
<style type="text/css">
	.st0{fill:#333333;}
	.st1{fill:#666666;}
</style>
<g id="XMLID_85_">
	<g id="XMLID_86_">
		<g id="XMLID_195_">
			
				<text id="XMLID_194_" transform="matrix(1 0 0 1 -342.2578 1026.5078)" class="st0" style="font-family:'BebasNeueBold'; font-size:9.377px;">S</text>
		</g>
		<g id="XMLID_190_">
			
				<text id="XMLID_189_" transform="matrix(1 0 0 1 -336.7451 1026.5078)" class="st0" style="font-family:'BebasNeueBold'; font-size:9.377px;">A</text>
		</g>
		<g id="XMLID_134_">
			
				<text id="XMLID_133_" transform="matrix(1 0 0 1 -330.9092 1026.5078)" class="st0" style="font-family:'BebasNeueBold'; font-size:9.377px;">L</text>
		</g>
		<g id="XMLID_129_">
			<text transform="matrix(1 0 0 1 -326.0698 1026.5078)" class="st0" style="font-family:'BebasNeueBold'; font-size:9.377px;">T</text>
			<text transform="matrix(1 0 0 1 -320.8698 1026.5078)" class="st0" style="font-family:'BebasNeueBold'; font-size:9.377px;"> </text>
		</g>
		<g id="XMLID_124_">
			
				<text id="XMLID_123_" transform="matrix(1 0 0 1 -317.5274 1026.5078)" class="st0" style="font-family:'BebasNeueBold'; font-size:9.377px;">L</text>
		</g>
		<g id="XMLID_119_">
			
				<text transform="matrix(1 0 0 1 -312.1856 1026.5078)" class="st0" style="font-family:'BebasNeueBold'; font-size:9.377px; letter-spacing:1;">A</text>
			<text transform="matrix(1 0 0 1 -306.3856 1026.5078)" class="st0" style="font-family:'BebasNeueBold'; font-size:9.377px;">K</text>
		</g>
		<g id="XMLID_114_">
			
				<text id="XMLID_113_" transform="matrix(1 0 0 1 -300.4473 1026.5078)" class="st0" style="font-family:'BebasNeueBold'; font-size:9.377px;">E</text>
		</g>
		<g id="XMLID_109_">
			<text transform="matrix(1 0 0 1 -295.0537 1026.5078)" class="st0" style="font-family:'BebasNeueBold'; font-size:9.377px;">,</text>
			<text transform="matrix(1 0 0 1 -291.4537 1026.5078)" class="st0" style="font-family:'BebasNeueBold'; font-size:9.377px;"> </text>
		</g>
		<g id="XMLID_104_">
			
				<text id="XMLID_103_" transform="matrix(1 0 0 1 -288.1055 1026.5078)" class="st0" style="font-family:'BebasNeueBold'; font-size:9.377px;">U</text>
		</g>
		<g id="XMLID_99_">
			
				<text id="XMLID_98_" transform="matrix(1 0 0 1 -282.3184 1026.5078)" class="st0" style="font-family:'BebasNeueBold'; font-size:9.377px;">T</text>
		</g>
		<g id="XMLID_94_">
			
				<text id="XMLID_93_" transform="matrix(1 0 0 1 -277.2378 1026.5078)" class="st0" style="font-family:'BebasNeueBold'; font-size:9.377px;">A</text>
		</g>
		<g id="XMLID_89_">
			
				<text id="XMLID_88_" transform="matrix(1 0 0 1 -271.4014 1026.5078)" class="st0" style="font-family:'BebasNeueBold'; font-size:9.377px;">H</text>
		</g>
	</g>
</g>
<g id="XMLID_19_">
	<g id="XMLID_32_">
		
			<text id="XMLID_31_" transform="matrix(1 0 0 1 -360.7305 957.2949)" class="st0" style="font-family:'GearedSlab-Bold'; font-size:10.9398px;">E</text>
	</g>
	<g id="XMLID_27_">
		
			<text id="XMLID_26_" transform="matrix(1 0 0 1 -355.4683 957.2949)" class="st0" style="font-family:'GearedSlab-Bold'; font-size:10.9398px;">S</text>
	</g>
	<g id="XMLID_22_">
		<text transform="matrix(1 0 0 1 -350.1079 957.2949)" class="st0" style="font-family:'GearedSlab-Bold'; font-size:10.9398px;">TD</text>
		<text transform="matrix(1 0 0 1 -338.9079 957.2949)" class="st0" style="font-family:'GearedSlab-Bold'; font-size:10.9398px;">.</text>
	</g>
</g>
<g id="XMLID_3_">
	<g id="XMLID_16_">
		
			<text id="XMLID_15_" transform="matrix(1 0 0 1 -268.002 957.2949)" class="st0" style="font-family:'GearedSlab-Bold'; font-size:10.9398px;">1</text>
	</g>
	<g id="XMLID_11_">
		
			<text id="XMLID_10_" transform="matrix(1 0 0 1 -263.6919 957.2949)" class="st0" style="font-family:'GearedSlab-Bold'; font-size:10.9398px;">9</text>
	</g>
	<g id="XMLID_6_">
		<text transform="matrix(1 0 0 1 -258.3096 957.2949)" class="st0" style="font-family:'GearedSlab-Bold'; font-size:10.9398px;">5</text>
		<text transform="matrix(1 0 0 1 -252.8096 957.2949)" class="st0" style="font-family:'GearedSlab-Bold'; font-size:10.9398px;">9</text>
	</g>
</g>
<g>
	<g>
		<path class="st0" d="M-86.3,397.2v1.2h-9l-5.4-9.3h-4.2v9.3c-2.7,0-5.5,0-8.1,0c0-10.5,0-21,0-31.6c4.6,0,9.2,0,13.8,0
			c12.4,0,14.7,15,6.7,20.4L-86.3,397.2z M-99.2,374c-1.9,0-3.9,0-5.8,0c0,2.6,0,5.4,0,7.9h5.8C-94.8,381.9-94.6,374.1-99.2,374z"/>
		<path class="st0" d="M-63.6,374c-4.7,0-7,0-11.7,0v4.5h10.7c0,2.4,0,4.8,0,7.2h-10.7c0,1.8,0,3.7,0,5.5c4.6,0,7.3,0,12.1,0
			c0,2.3,0,4.8,0,7.2c-7.4,0-12.8,0-20.1,0c0-10.6,0-21.1,0-31.6c7.3,0,12.3,0,19.7,0C-63.6,369.2-63.6,371.6-63.6,374z"/>
		<path class="st0" d="M-61.1,374c0-2.4,0-4.8,0-7.2h23.4c0,2.4,0,4.8,0,7.2h-7.7v24.3c-2.7,0-5.3,0-8,0V374H-61.1z"/>
		<path class="st0" d="M-7.8,397.2v1.2h-9l-5.4-9.3h-4.2v9.3c-2.7,0-5.5,0-8.1,0c0-10.5,0-21,0-31.6c4.6,0,9.2,0,13.8,0
			c12.4,0,14.7,15,6.7,20.4L-7.8,397.2z M-20.7,374c-1.9,0-3.9,0-5.8,0c0,2.6,0,5.4,0,7.9h5.8C-16.3,381.9-16.1,374.1-20.7,374z"/>
		<path class="st0" d="M-6.7,382.6c0-21.8,32.4-21.8,32.4,0C25.7,404.5-6.7,404.5-6.7,382.6z M17.4,382.6c0-11.4-15.8-11.4-15.8,0
			C1.6,394.1,17.4,394.1,17.4,382.6z"/>
		<path class="st0" d="M45.4,389.1c0-2.2-2.6-2.7-5.8-2.9c-6.9-0.5-11.4-2.8-11.5-9.7c-0.3-13.6,24.3-13.6,24.1,0
			c-2.8,0-4.9,0-7.7,0c0-4.2-8.5-3.8-8.7-0.1c-0.2,2.4,2.2,2.9,5,3.2c6.3,0.7,12.4,1.6,12.4,9.5c0,13.3-25.7,13.5-25.5-0.4
			c2.7,0,5,0,7.8,0C35.5,392.7,45.4,392.8,45.4,389.1z"/>
		<path class="st0" d="M83.7,398.4c-2.8,0-5.5,0-8.3,0v-12.7h-9.7v12.7c-2.8,0-5.5,0-8.3,0v-31.6c2.7,0,5.5,0,8.3,0v11.5h9.7v-11.5
			c2.8,0,5.5,0,8.3,0V398.4z"/>
		<path class="st0" d="M88,382.6c0-21.8,32.4-21.8,32.4,0C120.4,404.5,88,404.5,88,382.6z M112.1,382.6c0-11.4-15.8-11.4-15.8,0
			C96.3,394.1,112.1,394.1,112.1,382.6z"/>
		<path class="st0" d="M124.7,398.4c0-10.5,0-21,0-31.6c4.6,0,9.2,0,13.9,0c15.1,0,15.1,23.5,0,23.5h-5.8v8.1
			C130,398.4,127.3,398.4,124.7,398.4z M138.5,374c-1.9,0-3.9,0-5.8,0c0,2.6,0,6.4,0,9h5.8C142.9,383,143.2,374.1,138.5,374z"/>
	</g>
</g>
<g>
	<path class="st0" d="M-24.9,324c1.9-3.4,4.8-5,7.1-5c3.2,0,5.7,2.5,5.7,6.4c0,1.7-0.5,3.7-1.7,5.8c-3.4,5.9-8.6,8.3-13.2,8.3
		c-0.9,0-1.7-0.1-2.4-0.2l-1.2,2.1c-2.6,4.4-0.8,7.3,2.1,7.3c4.3,0,8.1-2.9,11.2-6.4l0.3-0.3c0.6,0.2,1.4,0.8,1.6,1.5
		c-3.6,4.1-7.7,7.9-14.1,7.9c-6.1,0-7.9-5.8-4.8-11l1.3-2.2c-3.5-1.8-5.4-5.1-5.4-8.6c0-2.9,1.4-5.8,4.4-8l1.4,2.5
		c-1.9,1.4-2.8,3.4-2.8,5.4c0,2.4,1.3,4.8,3.8,6.1L-24.9,324z M-27,336.6c6.7,0,11.6-7.2,11.6-11.2c0-1.6-0.7-2.6-2.4-2.6
		c-1.2,0-2.6,1-3.9,3.1l-6.2,10.7H-27z"/>
	<path class="st0" d="M-6.4,341.9c0.6,0.2,1.3,0.9,1.6,1.5c-3.6,4.1-7.6,7.9-11.2,7.9c-3.5,0-4.8-2.9-2.9-6.1L-5,321.1h4.3
		l-14.5,25.2c-1,1.7-0.5,2.4,0.5,2.4c1.9,0,4.9-2.9,8-6.4L-6.4,341.9z"/>
	<path class="st0" d="M13.9,341.9c0.6,0.2,1.3,0.9,1.6,1.5c-3.6,4.1-7.6,7.9-11.2,7.9c-2.2,0-3.5-1.2-3.7-2.8
		c-2.1,1.7-4.2,2.8-6,2.8c-3.5,0-4.8-2.9-2.9-6.1l6-10.4c1.8-3.1,5-5,7.4-5c2.8,0,4.7,2.5,4.5,4.3h2.4l-6.9,12.2
		c-1,1.7-0.5,2.4,0.5,2.4c1.9,0,4.9-2.9,8-6.4L13.9,341.9z M-4.6,346.3c-1,1.7-0.5,2.4,0.5,2.4c1.8,0,4.3-1.9,6.9-6l3.3-5.9
		c2.1-3.9-2.5-4.9-4.8-0.9L-4.6,346.3z"/>
	<path class="st0" d="M12.1,347.8l2.7-1.4c0,0,0.6,1.6,2,1.6c4.1,0,3.2-8,4.9-12.5c-1.5,2-3.7,5-6.1,7.9c-0.6-0.4-1.2-1-1.6-1.5
		c3.9-4.5,7.8-10.2,9.5-12.6l3.2,1.7c-2.6,5.5-2.4,11.8-3.7,15.9c1.7-1.2,3.6-2.8,5.2-4.7l0.3-0.3c0.6,0.2,1.4,0.8,1.6,1.5
		c-3.2,3.8-7.6,7.2-11.9,7.8c0,0-0.1,0-0.1,0c-0.4,0-0.8,0.1-1.2,0.1C12.8,351.3,12.1,347.8,12.1,347.8z"/>
	<path class="st0" d="M26.6,347.8l2.7-1.4c0,0,0.6,1.6,2,1.6c4.1,0,3.2-8,4.9-12.5c-1.5,2-3.7,5-6.1,7.9c-0.6-0.4-1.2-1-1.6-1.5
		c3.9-4.5,7.8-10.2,9.5-12.6l3.2,1.7c-2.6,5.5-2.4,11.8-3.7,15.9c1.7-1.2,3.6-2.8,5.2-4.7l0.3-0.3c0.6,0.2,1.4,0.8,1.6,1.5
		c-3.2,3.8-7.6,7.2-11.9,7.8c0,0-0.1,0-0.1,0c-0.4,0-0.8,0.1-1.2,0.1C27.4,351.3,26.6,347.8,26.6,347.8z"/>
	<path class="st0" d="M53.6,341.9c0.6,0.2,1.3,0.9,1.6,1.5c-3.6,4.1-7.6,7.9-11.2,7.9c-3.5,0-4.8-2.9-2.9-6.1l8.6-15H54l-9.2,16.1
		c-1,1.7-0.5,2.4,0.5,2.4c1.9,0,4.9-2.9,8-6.4L53.6,341.9z M54.5,323c1.4,0,2.5,1.1,2.5,2.5c0,1.4-1.1,2.5-2.5,2.5
		c-1.4,0-2.5-1.1-2.5-2.5C52,324.1,53.1,323,54.5,323z"/>
	<path class="st0" d="M57,343.5c-2,3.5-0.4,5.1,2.2,5.1c3,0,7-2.9,10.1-6.4l0.3-0.3c0.6,0.2,1.3,0.9,1.6,1.5
		c-3.6,4.1-8.4,7.9-13.3,7.9c-5.1,0-7.4-4.2-4.7-8.8l4.5-7.7c1.8-3.1,4.6-5,8.1-5c3.5,0,5.7,3,3.4,6.9l-0.6,1.1h-3.5l0.6-1.1
		c2.6-4.5-1.8-5.2-4.3-0.9L57,343.5z"/>
</g>
<g>
	<g>
		<path class="st0" d="M-54.8,452.3c4.1-7.6,16.1-2.1,13.1,5.9C-45,466.7-59,460.3-54.8,452.3z M-45.1,456.9c1.8-4.2-4.4-7-6.4-2.9
			C-53.6,458.2-46.9,461.2-45.1,456.9z"/>
		<path class="st0" d="M-35.9,460.6c-0.7,2-1.4,3.9-2.1,5.9c-1.2-0.4-2.4-0.9-3.6-1.3c1.5-4,3-8,4.6-12c0.4,0.1,0.8,0.3,1.2,0.4
			c1.4,2.8,2.8,5.5,4.4,8.2c0.6-2,1.3-4,1.9-5.9c1.1,0.4,2.2,0.7,3.3,1c-1.2,4.1-2.4,8.1-3.7,12.2c-0.4-0.1-0.8-0.3-1.3-0.4
			C-32.8,466.1-34.4,463.4-35.9,460.6z"/>
		<path class="st0" d="M-22.1,468.3c1.6,0.4,3.3,0.8,5,1.2c-0.2,1.1-0.4,1.8-0.6,2.9c-2.9-0.6-5.8-1.4-8.6-2.1
			c1.1-4.1,2.3-8.2,3.4-12.3c1.1,0.3,2.2,0.6,3.3,0.9C-21.3,465.1-20.7,463-22.1,468.3z"/>
		<path class="st0" d="M-9.7,473.8c-1.2-0.2-2.4-0.4-3.6-0.6c0.3-1.8,0.7-3.5,1-5.3c-1.1-2.5-2.1-5.1-3.1-7.7c0-0.2,0.1-0.3,0.1-0.5
			c1.2,0.3,2.4,0.5,3.6,0.7c0.5,1.5,1,3.1,1.6,4.6c0,0,0.1,0,0.1,0c1.1-1.2,2.1-2.5,3.1-3.8c1.2,0.2,2.4,0.4,3.6,0.5
			c0,0.2,0,0.3-0.1,0.5c-1.8,2.1-3.6,4.1-5.5,6.1C-9.1,470.3-9.4,472.1-9.7,473.8z"/>
		<path class="st0" d="M2.1,465.5c0.1-1,0.2-1.9,0.3-2.9c3.2,0.3,6.5,0.5,9.7,0.7c0,1-0.1,1.9-0.1,2.9c-1.1,0-2.2-0.1-3.3-0.2
			c-0.2,3.3-0.4,6.5-0.6,9.8c-1.2-0.1-2.4-0.2-3.6-0.2c0.3-3.3,0.5-6.5,0.8-9.8C4.3,465.7,3.2,465.6,2.1,465.5z"/>
		<path class="st0" d="M25.8,475.9c-1.2,0.1-2.5,0.1-3.7,0.1c0-1.7-0.1-3.4-0.1-5.1c-1.4,0-2.8,0.1-4.2,0.1c0,1.7,0,3.4,0,5.1
			c-1.2,0-2.5,0-3.7,0c0.1-4.2,0.2-8.5,0.3-12.7c1.1,0,2.3,0,3.4,0c0,1.5,0,3.1,0,4.6c1.4,0,2.8,0,4.2-0.1c0-1.5-0.1-3.1-0.1-4.6
			c1.1,0,2.3-0.1,3.4-0.1C25.4,467.5,25.6,471.7,25.8,475.9z"/>
		<path class="st0" d="M37,465.1c-2,0.2-3,0.3-4.9,0.5c0.1,0.6,0.1,1.2,0.2,1.8c1.5-0.1,3.1-0.3,4.6-0.5c0.1,1,0.2,1.9,0.3,2.9
			c-1.6,0.2-3.1,0.4-4.7,0.5c0.1,0.7,0.1,1.5,0.2,2.2c2-0.2,3.2-0.3,5.3-0.6c0.1,0.9,0.2,1.9,0.4,2.9c-3.3,0.4-5.7,0.6-9,0.9
			c-0.3-4.2-0.6-8.5-0.9-12.7c3-0.2,5.1-0.4,8.2-0.8C36.8,463.2,36.9,464.2,37,465.1z"/>
		<path class="st0" d="M54.7,465.2c1.2,0.3,2,1,2.2,2.1c0.5,2.2-0.5,4.3-3.4,4.9c-2.2,0.5-4.4,0.9-6.6,1.3
			c-0.7-4.2-1.5-8.4-2.2-12.5c1.8-0.3,3.7-0.7,5.5-1.1c2.2-0.5,4.4,0.7,4.9,2.9C55.4,463.5,55.3,464.5,54.7,465.2z M48.6,463.3
			c0.1,0.7,0.3,1.3,0.4,2c0.7-0.1,1.4-0.3,2.2-0.4c1.4-0.3,0.9-2.3-0.5-2C50,463,49.3,463.1,48.6,463.3z M49.5,467.9
			c0.1,0.7,0.3,1.4,0.4,2.1c0.9-0.2,1.9-0.4,2.8-0.6c1.4-0.3,0.9-2.4-0.5-2.1C51.3,467.6,50.4,467.8,49.5,467.9z"/>
		<path class="st0" d="M66.2,458.6c-1.9,0.6-2.9,0.9-4.8,1.5c0.2,0.6,0.3,1.2,0.5,1.7c1.5-0.4,3-0.9,4.4-1.4
			c0.3,0.9,0.6,1.8,0.9,2.8c-1.5,0.5-3,0.9-4.5,1.4c0.2,0.7,0.4,1.4,0.6,2.1c2-0.6,3.1-0.9,5.2-1.6c0.3,0.9,0.6,1.8,0.9,2.8
			c-3.2,1-5.6,1.7-8.8,2.6c-1.1-4.1-2.2-8.2-3.3-12.3c3-0.8,5-1.4,7.9-2.3C65.6,456.8,65.9,457.7,66.2,458.6z"/>
		<path class="st0" d="M77.7,461c-0.3-0.8-1.5-0.6-2.8-0.2c-2.9,0.9-5.1,0.6-6-2c-1.8-5.1,7.7-8.7,9.8-3.7c-1.1,0.5-2,0.8-3.1,1.3
			c-0.6-1.6-4-0.1-3.6,1.3c0.3,0.9,1.3,0.8,2.5,0.4c2.7-0.7,5.3-1.4,6.5,1.5c2.2,5-9,9.4-10.7,3.9c1.1-0.4,2.1-0.7,3.3-1.2
			C74.1,463.9,78.3,462.4,77.7,461z"/>
		<path class="st0" d="M79.7,453.6c-0.4-0.9-0.8-1.8-1.2-2.7c3-1.3,6.1-2.7,9-4.2c0.4,0.9,0.9,1.7,1.3,2.6c-1,0.5-2,1-3,1.5
			c1.4,2.9,2.8,5.9,4.3,8.8c-1.1,0.5-2.2,1.1-3.3,1.6c-1.4-3-2.7-6-4.1-8.9C81.8,452.7,80.7,453.1,79.7,453.6z"/>
	</g>
</g>
<g>
	<path class="st0" d="M41.7,417.8l-10.8,4.8c0,0,0.4,6.4-4.4,6.5c0,0-5.3,0.6-5.4-4.9l4.6-6.1l-6.4-6.1v-0.1l0,0l0,0v0.1l-6.4,6.1
		l4.6,6.1c-0.1,5.5-5.4,4.9-5.4,4.9c-4.8-0.1-4.4-6.5-4.4-6.5l-10.8-4.8l7.8,19l14.6-0.1l14.6,0.1L41.7,417.8z"/>
	<rect x="4.6" y="438.6" class="st0" width="29.4" height="2.4"/>
</g>
<g>
	<path class="st0" d="M-76.5,341.7c0,0,1.4-0.2,3.9-0.5c1.2-0.1,2.5-0.3,4-0.5c1.5-0.2,3.1-0.3,4.7-0.4c1.6-0.1,3.2-0.5,4.7-0.5
		c1.5,0,2.9,0.2,4.1,0.5c1.2,0.3,2,0.6,2.7,0.9c0.7,0.3,0.9,0.5,0.9,0.5v0.4c0,0-0.2,0.2-0.9,0.5c-0.7,0.3-1.6,0.6-2.8,0.9
		c-1.2,0.3-2.6,0.5-4.1,0.5c-1.5,0-3.1-0.4-4.7-0.5c-1.6-0.1-3.2-0.3-4.7-0.4c-1.5-0.1-2.7-0.3-3.9-0.5c-2.4-0.3-3.8-0.5-3.8-0.5
		V341.7z"/>
</g>
<g>
	<path class="st0" d="M108.4,341.4c0,0-1.5,0.2-3.8,0.5c-1.1,0.1-2.5,0.3-3.9,0.5c-1.4,0.2-2.9,0.3-4.5,0.4c-1.5,0.1-3,0.5-4.5,0.5
		c-1.4,0-2.8-0.2-3.9-0.5c-1.1-0.3-1.9-0.6-2.5-0.9c-0.7-0.3-0.8-0.5-0.8-0.5V341c0,0,0.2-0.2,0.8-0.5c0.7-0.3,1.5-0.6,2.7-0.9
		c1.1-0.3,2.4-0.5,3.8-0.5c1.4,0,2.9,0.4,4.4,0.5c1.5,0.1,3,0.3,4.5,0.4c1.4,0.1,2.7,0.3,3.9,0.5c2.3,0.3,3.8,0.5,3.8,0.5V341.4z"/>
</g>
<g>
	<g>
		<path class="st1" d="M-33.7,431.3h-4.1v-7.1h4.1v1.2h-2.6v1.6h2.4v1.2h-2.4v1.8h2.6V431.3z"/>
		<path class="st1" d="M-28.4,429.4c0,0.3-0.1,0.6-0.2,0.9c-0.1,0.3-0.3,0.5-0.5,0.6c-0.2,0.2-0.5,0.3-0.8,0.4
			c-0.3,0.1-0.6,0.1-1,0.1c-0.3,0-0.7,0-1-0.1c-0.3-0.1-0.6-0.2-0.9-0.3v-1.4c0.2,0.1,0.3,0.1,0.5,0.2c0.2,0.1,0.3,0.1,0.5,0.2
			c0.2,0.1,0.3,0.1,0.5,0.1c0.2,0,0.3,0,0.5,0c0.2,0,0.3,0,0.4-0.1c0.1,0,0.2-0.1,0.3-0.2c0.1-0.1,0.1-0.1,0.2-0.2
			c0-0.1,0.1-0.2,0.1-0.3c0-0.1,0-0.2-0.1-0.4c-0.1-0.1-0.1-0.2-0.2-0.3c-0.1-0.1-0.2-0.2-0.4-0.3c-0.1-0.1-0.3-0.2-0.5-0.3
			c-0.1-0.1-0.3-0.2-0.5-0.3c-0.2-0.1-0.4-0.2-0.5-0.4s-0.3-0.4-0.4-0.6c-0.1-0.2-0.2-0.5-0.2-0.8c0-0.3,0.1-0.6,0.2-0.8
			c0.1-0.3,0.3-0.5,0.4-0.6s0.4-0.3,0.7-0.4c0.3-0.1,0.6-0.1,0.9-0.1c0.2,0,0.3,0,0.5,0s0.3,0.1,0.5,0.1c0.2,0,0.3,0.1,0.5,0.2
			s0.3,0.1,0.5,0.2l-0.5,1.2c-0.1-0.1-0.3-0.1-0.4-0.2c-0.1-0.1-0.2-0.1-0.4-0.1c-0.1,0-0.2-0.1-0.4-0.1s-0.2,0-0.3,0
			c-0.3,0-0.4,0.1-0.6,0.2c-0.1,0.1-0.2,0.3-0.2,0.5c0,0.1,0,0.2,0.1,0.3c0,0.1,0.1,0.2,0.2,0.3s0.2,0.2,0.3,0.2
			c0.1,0.1,0.3,0.2,0.5,0.3c0.2,0.1,0.5,0.3,0.7,0.4c0.2,0.1,0.4,0.3,0.5,0.4s0.3,0.3,0.3,0.6C-28.4,428.9-28.4,429.1-28.4,429.4z"
			/>
		<path class="st1" d="M-24.5,431.3H-26v-5.8h-1.8v-1.3h5v1.3h-1.8V431.3z"/>
	</g>
	<g>
		<path class="st1" d="M-16.1,427.7c0,0.6-0.1,1.1-0.2,1.6c-0.2,0.5-0.4,0.8-0.7,1.1c-0.3,0.3-0.7,0.5-1.1,0.7
			c-0.4,0.2-1,0.2-1.5,0.2h-1.9v-7.1h2.1c0.5,0,1,0.1,1.4,0.2s0.8,0.4,1.1,0.7s0.5,0.7,0.7,1.1C-16.2,426.7-16.1,427.2-16.1,427.7z
			 M-17.6,427.8c0-0.4,0-0.7-0.1-1s-0.2-0.5-0.3-0.7c-0.2-0.2-0.3-0.3-0.6-0.4c-0.2-0.1-0.5-0.1-0.7-0.1h-0.7v4.6h0.6
			c0.6,0,1.1-0.2,1.4-0.6C-17.8,429.1-17.6,428.6-17.6,427.8z"/>
	</g>
	<g>
		<path class="st1" d="M-15.3,430.7c0-0.2,0-0.3,0.1-0.4c0-0.1,0.1-0.2,0.2-0.3s0.2-0.1,0.3-0.1c0.1,0,0.2,0,0.3,0
			c0.1,0,0.2,0,0.3,0c0.1,0,0.2,0.1,0.3,0.1s0.1,0.1,0.2,0.3c0,0.1,0.1,0.2,0.1,0.4c0,0.1,0,0.3-0.1,0.4c0,0.1-0.1,0.2-0.2,0.3
			c-0.1,0.1-0.2,0.1-0.3,0.1c-0.1,0-0.2,0-0.3,0c-0.1,0-0.2,0-0.3,0c-0.1,0-0.2-0.1-0.3-0.1c-0.1-0.1-0.1-0.2-0.2-0.3
			C-15.2,430.9-15.3,430.8-15.3,430.7z"/>
	</g>
</g>
<g>
	<g>
		<g>
			<path class="st1" d="M55.7,431.3h-1.5v-4.1c0-0.1,0-0.2,0-0.3c0-0.1,0-0.2,0-0.4c0-0.1,0-0.3,0-0.4s0-0.2,0-0.4c0,0,0,0-0.1,0.1
				c0,0-0.1,0.1-0.1,0.1c0,0-0.1,0.1-0.2,0.1s-0.1,0.1-0.2,0.1l-0.8,0.7l-0.7-0.9l2.3-1.8h1.2V431.3z"/>
			<path class="st1" d="M62.3,427.3c0,0.3,0,0.7-0.1,1c0,0.3-0.1,0.7-0.2,1c-0.1,0.3-0.2,0.6-0.4,0.9s-0.4,0.5-0.6,0.7
				c-0.3,0.2-0.6,0.3-0.9,0.5s-0.8,0.2-1.2,0.2c-0.1,0-0.1,0-0.2,0c-0.1,0-0.2,0-0.2,0c-0.1,0-0.2,0-0.2,0s-0.1,0-0.2,0v-1.2
				c0.1,0,0.2,0.1,0.4,0.1s0.3,0,0.4,0c0.4,0,0.8-0.1,1.1-0.2c0.3-0.1,0.5-0.3,0.7-0.5c0.2-0.2,0.3-0.4,0.4-0.7s0.1-0.6,0.1-0.9H61
				c-0.1,0.1-0.1,0.2-0.2,0.3c-0.1,0.1-0.2,0.2-0.3,0.3c-0.1,0.1-0.3,0.1-0.4,0.2c-0.2,0-0.3,0.1-0.5,0.1c-0.3,0-0.6-0.1-0.8-0.2
				c-0.2-0.1-0.5-0.2-0.6-0.4c-0.2-0.2-0.3-0.4-0.4-0.7c-0.1-0.3-0.1-0.6-0.1-1c0-0.4,0.1-0.7,0.2-1s0.3-0.6,0.5-0.8
				c0.2-0.2,0.4-0.4,0.7-0.5c0.3-0.1,0.6-0.2,1-0.2c0.3,0,0.7,0.1,1,0.2c0.3,0.1,0.6,0.3,0.8,0.6s0.4,0.6,0.5,1
				C62.2,426.3,62.3,426.8,62.3,427.3z M59.8,425.4c-0.1,0-0.3,0-0.4,0.1c-0.1,0-0.2,0.1-0.3,0.2c-0.1,0.1-0.1,0.2-0.2,0.4
				c0,0.2-0.1,0.3-0.1,0.6c0,0.3,0.1,0.6,0.2,0.8s0.4,0.3,0.7,0.3c0.1,0,0.3,0,0.4-0.1c0.1-0.1,0.2-0.1,0.3-0.2
				c0.1-0.1,0.2-0.2,0.2-0.3s0.1-0.2,0.1-0.4c0-0.2,0-0.3-0.1-0.5s-0.1-0.3-0.2-0.4c-0.1-0.1-0.2-0.2-0.3-0.3
				C60.1,425.4,60,425.4,59.8,425.4z"/>
			<path class="st1" d="M65.5,426.8c0.3,0,0.6,0,0.8,0.1s0.5,0.2,0.7,0.4c0.2,0.2,0.3,0.4,0.5,0.7s0.2,0.6,0.2,0.9
				c0,0.4-0.1,0.7-0.2,1c-0.1,0.3-0.3,0.6-0.5,0.8s-0.5,0.4-0.9,0.5c-0.3,0.1-0.7,0.2-1.2,0.2c-0.2,0-0.4,0-0.5,0
				c-0.2,0-0.3,0-0.5-0.1c-0.2,0-0.3-0.1-0.5-0.1s-0.3-0.1-0.4-0.2v-1.3c0.1,0.1,0.2,0.1,0.4,0.2c0.1,0.1,0.3,0.1,0.5,0.1
				c0.2,0,0.3,0.1,0.5,0.1s0.3,0,0.5,0c0.4,0,0.8-0.1,1-0.3c0.2-0.2,0.3-0.5,0.3-0.9c0-0.3-0.1-0.6-0.3-0.8c-0.2-0.2-0.6-0.3-1-0.3
				c-0.1,0-0.2,0-0.3,0c-0.1,0-0.2,0-0.3,0c-0.1,0-0.2,0-0.3,0.1s-0.2,0-0.2,0.1l-0.6-0.3l0.3-3.6h3.7v1.3h-2.4l-0.1,1.4
				c0.1,0,0.2,0,0.4-0.1C65.2,426.8,65.3,426.8,65.5,426.8z"/>
			<path class="st1" d="M73.2,427.3c0,0.3,0,0.7-0.1,1c0,0.3-0.1,0.7-0.2,1c-0.1,0.3-0.2,0.6-0.4,0.9s-0.4,0.5-0.6,0.7
				c-0.3,0.2-0.6,0.3-0.9,0.5s-0.8,0.2-1.2,0.2c-0.1,0-0.1,0-0.2,0c-0.1,0-0.2,0-0.2,0c-0.1,0-0.2,0-0.2,0s-0.1,0-0.2,0v-1.2
				c0.1,0,0.2,0.1,0.4,0.1s0.3,0,0.4,0c0.4,0,0.8-0.1,1.1-0.2c0.3-0.1,0.5-0.3,0.7-0.5c0.2-0.2,0.3-0.4,0.4-0.7s0.1-0.6,0.1-0.9
				h-0.1c-0.1,0.1-0.1,0.2-0.2,0.3c-0.1,0.1-0.2,0.2-0.3,0.3c-0.1,0.1-0.3,0.1-0.4,0.2c-0.2,0-0.3,0.1-0.5,0.1
				c-0.3,0-0.6-0.1-0.8-0.2c-0.2-0.1-0.5-0.2-0.6-0.4c-0.2-0.2-0.3-0.4-0.4-0.7c-0.1-0.3-0.1-0.6-0.1-1c0-0.4,0.1-0.7,0.2-1
				s0.3-0.6,0.5-0.8c0.2-0.2,0.4-0.4,0.7-0.5c0.3-0.1,0.6-0.2,1-0.2c0.3,0,0.7,0.1,1,0.2c0.3,0.1,0.6,0.3,0.8,0.6s0.4,0.6,0.5,1
				C73.2,426.3,73.2,426.8,73.2,427.3z M70.8,425.4c-0.1,0-0.3,0-0.4,0.1c-0.1,0-0.2,0.1-0.3,0.2c-0.1,0.1-0.1,0.2-0.2,0.4
				c0,0.2-0.1,0.3-0.1,0.6c0,0.3,0.1,0.6,0.2,0.8s0.4,0.3,0.7,0.3c0.1,0,0.3,0,0.4-0.1c0.1-0.1,0.2-0.1,0.3-0.2
				c0.1-0.1,0.2-0.2,0.2-0.3s0.1-0.2,0.1-0.4c0-0.2,0-0.3-0.1-0.5s-0.1-0.3-0.2-0.4c-0.1-0.1-0.2-0.2-0.3-0.3
				C71.1,425.4,70.9,425.4,70.8,425.4z"/>
		</g>
	</g>
</g>
</svg>
