<?xml version="1.0" encoding="utf-8"?>
<!-- Generator: Adobe Illustrator 19.0.0, SVG Export Plug-In . SVG Version: 6.00 Build 0)  -->
<svg version="1.1" id="Layer_1" xmlns="http://www.w3.org/2000/svg" xmlns:xlink="http://www.w3.org/1999/xlink" x="0px" y="0px"
	 viewBox="0 0 320 190" style="enable-background:new 0 0 320 190;" xml:space="preserve">
<style type="text/css">
	.st0{fill:#333333;}
	.st1{fill:#FFFFFF;}
</style>
<g id="XMLID_223_">
	<path id="XMLID_235_" class="st0" d="M188.1,119.1h-45.9c-0.8,0-1.5-0.7-1.5-1.5v-1.4h48.9v1.4
		C189.5,118.5,188.9,119.1,188.1,119.1z"/>
	<path id="XMLID_232_" class="st0" d="M176.5,82.2c-0.2-0.5-0.7-0.9-1.3-0.9h-8.3c-0.6,0-1.1,0.3-1.3,0.9l-1.9,4.5h14.7L176.5,82.2z
		 M172.8,84.8c0,0.3-0.2,0.5-0.5,0.5h-2.4c-0.3,0-0.5-0.2-0.5-0.5v-1.4c0-0.3,0.2-0.5,0.5-0.5h2.4c0.3,0,0.5,0.2,0.5,0.5V84.8z"/>
	<path id="XMLID_229_" class="st0" d="M189.5,95.5v-6.8c0-0.6-0.5-1.1-1.1-1.1h-27c-0.7,0-1.2,0.5-1.2,1.2c0,0.4-0.3,0.8-0.8,0.8
		h-18.1c-0.4,0-0.7,0.3-0.7,0.7v3.4h16.9c2.1-2.4,5.1-3.9,8.5-3.9c6.2,0,11.3,5.1,11.3,11.3s-5.1,11.3-11.3,11.3
		c-6.2,0-11.3-5.1-11.3-11.3c0-2.1,0.6-4,1.5-5.7h-15.6v18.8h48.8L189.5,95.5L189.5,95.5z M187.5,92.3c0,0.3-0.3,0.6-0.6,0.6h-6.3
		c-0.3,0-0.6-0.3-0.6-0.6v-2c0-0.3,0.3-0.6,0.6-0.6h6.3c0.3,0,0.6,0.3,0.6,0.6V92.3z"/>
	<path id="XMLID_228_" class="st0" d="M143.3,88.6v-1.4c0-0.3,0.2-0.5,0.5-0.5h4.9c0.3,0,0.5,0.2,0.5,0.5v1.4H143.3z"/>
	<path id="XMLID_227_" class="st0" d="M157.9,88.6h-7.4v-2.2c0-0.4,0.3-0.7,0.7-0.7h6.1c0.4,0,0.7,0.3,0.7,0.7V88.6z"/>
	<path id="XMLID_224_" class="st0" d="M166.1,92.2c-5,0-9.1,4.1-9.1,9.1c0,5,4.1,9.1,9.1,9.1c5,0,9.1-4.1,9.1-9.1
		C175.3,96.3,171.2,92.2,166.1,92.2z M166.1,105.8c-2.5,0-4.4-2-4.4-4.4c0-2.5,2-4.4,4.4-4.4c2.5,0,4.4,2,4.4,4.4
		C170.6,103.8,168.6,105.8,166.1,105.8z"/>
</g>
<g id="XMLID_198_">
	<g id="XMLID_199_">
		<path id="XMLID_221_" class="st0" d="M69.2,38.3c-6.2,7.6-13.6,15.6-17,22.9c-3.1,6.5-3.8,11.7-1.9,16.5c2,4.9,6.5,6.4,10.5,5
			c4-1.5,5.4-5.3,4.5-7.9c-0.6-1.8-2.2-3-4.8-2.8c0.3-1.6,0.6-3.1,0.9-4.7c4.4-0.4,7.4,2.2,8.5,5.6c1.5,4.6-0.6,10.7-7.6,13.3
			c-7.6,2.7-16.8,1.9-20.6-6.6C39.5,74.6,40.4,68,43,63c6.7-12.8,19.5-24.6,27.1-33.4c0.7-4.2,1.5-8.1,3.3-10.1
			c1.8,0.3,3.5,0.6,5.2,1c0,3.3-1.4,6.6-3.7,10.2c1.4,17.1,8.3,51.6,2.2,69.2c-1.6,4.6-4.7,7.7-9.6,9.5c-4.8,1.8-8.6,0-10.3-4.1
			c-1.7-4.1,0.1-9.8,6.8-12.4c0.7,1.6,1.3,3.3,2,4.9c-4,2-4.7,4.9-4,6.8c0.7,1.8,2.5,2.3,4.3,1.7c2.8-1.1,4.4-3.3,5.5-6.4
			C76.2,87.7,68.1,60.8,69.2,38.3z"/>
		<path id="XMLID_217_" class="st0" d="M110.1,57.5c-1.1,4.3-4.1,7.7-7.5,9.5c-1.6,5.3-4.8,8.9-9.4,10c-5,1.2-8.5-2.8-10.1-8.7
			c-1-3.6-1.2-7.9-0.7-12.2c1-0.1,2-0.1,3-0.1c-0.4-5.2,1.9-10.5,7.8-11.7c5.5-1.2,9.3,3.4,10.4,9.4c0.6,3.2,0.3,6.8-0.1,9.9
			c1.8-1.2,3.4-3.2,4.3-6.5C108.2,56.9,110.1,57.1,110.1,57.5z M95.8,68.6c-3.4-0.3-6.1-2.4-7.9-5.3c0.1,1,0.3,2,0.5,2.9
			c1,3.8,2.8,6.2,4.7,5.8c0.2-0.1,0.4-0.1,0.6-0.2C94.5,71.2,95.1,70.1,95.8,68.6z M90.3,58.7c0.8,3.5,2.9,6.6,6.5,6.7
			c0.9-3.8,1.1-8.7,0.4-12.2c-0.6-3-2-5-4.2-4.5c-0.2,0-0.4,0.2-0.6,0.2C90.1,49.9,89.3,54.5,90.3,58.7z"/>
		<path id="XMLID_215_" class="st0" d="M106.8,73.5c0,0-0.5-6.1,0.8-11.5c0.2-7.8,0.5-14.7,0.6-19.9c2.4-0.4,4.7-0.7,7.1-1.1
			c-0.1,1.5-0.2,3.1-0.3,4.6c2.1-3.6,5.2-6,8.7-6.4c2.9-0.3,5,1,5.3,4.2c0.5,6.2-3.7,14.7-3.1,20.2c0.2,1.9,1.1,2.2,1.8,2.1
			c2-0.2,4-4.2,6.9-12.2c0.5,0,2.3,0.4,2.3,0.8c-2.9,7.9-5.5,15.9-11.6,16.7c-2.6,0.3-5.3-1.2-5.9-5.3c-1.1-7.2,3.1-15.3,2.6-20.1
			c-0.1-0.7-0.6-1.3-1.5-1.2c-2,0.3-5.3,3.9-6.4,13.6c-0.3,4.7-0.6,9.5-0.9,14.2C111.1,72.7,109,73.1,106.8,73.5z"/>
		<path id="XMLID_212_" class="st0" d="M152.7,38.1c2,0,3.9-0.1,5.9-0.1c-2.5,8.9-3.9,16.2-4.8,22.9c-0.1,0.7-0.1,1.3-0.1,1.7
			c0,1,0.3,1.5,0.6,1.5c0.9,0,3.9-3.3,7.8-11.6c0.5,0,2.2,0.6,2.2,1c-5,10.7-8.5,15.4-12,15.5c-2.4,0.1-3.8-1.8-4-6.5
			c0-0.2,0-0.5,0-0.7c-1.6,4.2-4.1,7.8-8.4,8.1c-3.6,0.3-5.5-3.2-5.9-8.1c-0.9-9.4,4.2-23.9,12.3-24.3c3.1-0.1,4.9,1.3,5.5,4.3
			C152.2,40.6,152.4,39.4,152.7,38.1z M140.5,60.7c0.1,2.1,0.7,3.5,1.8,3.4c3.4-0.2,7.5-11.3,7.3-17.5c-0.1-2.5-0.9-4.2-2.7-4.1
			C143.5,42.5,140,54.6,140.5,60.7z"/>
		<path id="XMLID_210_" class="st0" d="M176,22.6c-0.7,5.5-1.8,10.5-3.5,15.8c1.3,0.1,2.5,0,3.2,0c-0.3,1-0.6,2.1-0.9,3.1
			c-0.3,0-1.9,0-3.4-0.1c-0.8,2.5-1.8,5.1-2.8,7.8c-0.9,4.6-1.4,8.1-1.5,10.6c-0.1,2.8,0.4,4.3,1.4,4.3c2,0.1,5.3-6.1,8-11.1
			c0.5,0,2.2,0.7,2.2,1.1c-5.3,10.4-7.7,15-12.6,14.9c-3.3-0.1-4.6-3.7-4.6-9.4c0-4.9,0.9-11.6,3-18.4c-1.9,0-3.3,0-3.6-0.1
			c0.2-1.1,0.4-2.1,0.6-3.2c0.6,0,2,0.1,3.7,0.1c1.2-4.6,2.4-9.1,4.6-15.8C171.8,22.4,173.9,22.4,176,22.6z"/>
		<path id="XMLID_207_" class="st0" d="M172.7,68.9c0-0.6,0-1.2,0-1.8c0.2-5.3,2.9-10.7,2.9-10.7c3.5-14.1,8.4-30.1,12.6-36
			c1.9-2.7,5.2-3.7,7.8-3.4c4.4,0.5,5.9,2.4,5.6,4.9c-0.8,5.4-9.2,13.6-14.8,18.3c-0.4,1.2-0.8,2.4-1.2,3.6c3-3.1,6.6-4.8,10.2-4.4
			c2.9,0.3,4.6,2.1,4.2,5.3c-0.9,6.2-7,13.5-7.6,19c-0.2,1.9,0.6,2.4,1.3,2.5c2,0.2,4.9-3.2,9.5-10.3c0.5,0.1,2.1,0.9,2.1,1.3
			c-4.7,7-9.1,14.2-15.1,13.6c-2.6-0.3-4.9-2.4-4.5-6.5c0.6-7.2,6.5-14.1,7.1-18.9c0.1-0.7-0.3-1.4-1.2-1.5
			c-3.5-0.4-8.7,5.7-12.8,25.5C176.7,69.2,174.7,69,172.7,68.9z M196.1,21.4c-1.4-0.2-2.9,2.5-7,13.3c2.7-3.4,7.3-8.9,7.7-12.3
			C196.8,21.9,196.5,21.5,196.1,21.4z"/>
		<path id="XMLID_204_" class="st0" d="M224.4,45c1.9,0.4,3.9,0.8,5.8,1.3c-4.5,8.1-7.5,14.9-10,21.2c-0.3,0.7-0.4,1.2-0.5,1.7
			c-0.2,1-0.1,1.5,0.3,1.6c0.8,0.2,4.6-2.3,10.3-9.5c0.5,0.1,2,1.1,1.9,1.5c-7.3,9.2-11.9,13-15.3,12.3c-2.4-0.5-3.3-2.7-2.4-7.2
			c0-0.2,0.1-0.5,0.1-0.7c-2.5,3.7-5.8,6.7-10.1,6c-3.6-0.6-4.6-4.4-3.9-9.2c1.2-9.4,9.6-22.3,17.6-20.8c3,0.6,4.5,2.4,4.4,5.5
			C223.3,47.3,223.9,46.1,224.4,45z M207.3,64.1c-0.3,2.1-0.1,3.5,1,3.7c3.4,0.6,9.9-9.3,11.2-15.4c0.5-2.4,0.1-4.3-1.7-4.6
			C214.4,47.1,208.3,58.1,207.3,64.1z"/>
		<path id="XMLID_202_" class="st0" d="M222.8,75.9c0,0,2-5.8,5.3-10.2c3.3-7,6.3-13.2,8.6-17.9c2.3,0.6,4.6,1.2,7,1.9
			c-0.7,1.4-1.4,2.7-2.1,4.1c3.4-2.4,7.2-3.4,10.6-2.3c2.8,0.9,4.2,3,3.2,6c-2,5.9-9.4,11.9-11,17.2c-0.6,1.9,0.1,2.4,0.8,2.6
			c1.9,0.6,5.4-2.2,11.3-8.4c0.5,0.2,1.9,1.2,1.8,1.6c-5.9,6-11.6,12.3-17.5,10.5c-2.5-0.8-4.4-3.3-3.3-7.2c1.9-7,9-12.7,10.5-17.3
			c0.2-0.7,0-1.4-0.9-1.7c-2-0.6-6.4,1.4-11.4,9.9c-2.2,4.2-4.4,8.4-6.5,12.7C227.1,76.9,225,76.4,222.8,75.9z"/>
		<path id="XMLID_200_" class="st0" d="M255.8,78.4c0.5,1.7,1.1,2.6,2.5,3.1c1.8,0.7,3.3-0.1,4.1-2.3c1.5-3.9,0.8-8.5,0.7-13.6
			c-1.6,1.8-3.3,3.4-4.8,5c0,0-2-1.1-1.8-1.6c0,0,0,0,0-0.1c1.7-1.8,4.2-4.2,6.8-6.7c0.1-2.1,0.5-4.3,1.2-6.4
			c0.9-2.5,2.5-5.1,4.9-7.7c1.8,0.9,3.5,1.9,5.2,2.9c-2,3.1-3.9,5.8-5.9,8.3c-1.7,5.4,3.2,14.8,0.3,21.8c0,0.1-0.1,0.2-0.1,0.2
			c2.2-1.4,4.3-3.2,6.4-5.1c0.4,0.2,1.9,1.4,1.7,1.8c-6.6,5.9-13.5,11.4-21.1,8.6c-3.3-1.2-5.5-3.9-5.6-6.8
			C252.2,79.2,254,78.8,255.8,78.4z"/>
	</g>
</g>
<g id="XMLID_85_">
	<g id="XMLID_86_">
		<g id="XMLID_195_">
			
				<text id="XMLID_194_" transform="matrix(1 0 0 1 -197.2578 724.5078)" class="st0" style="font-family:'BebasNeueBold'; font-size:9.377px;">S</text>
		</g>
		<g id="XMLID_190_">
			
				<text id="XMLID_189_" transform="matrix(1 0 0 1 -191.7451 724.5078)" class="st0" style="font-family:'BebasNeueBold'; font-size:9.377px;">A</text>
		</g>
		<g id="XMLID_134_">
			
				<text id="XMLID_133_" transform="matrix(1 0 0 1 -185.9092 724.5078)" class="st0" style="font-family:'BebasNeueBold'; font-size:9.377px;">L</text>
		</g>
		<g id="XMLID_129_">
			<text id="XMLID_128_" transform="matrix(1 0 0 1 -181.0698 724.5078)"><tspan x="0" y="0" class="st0" style="font-family:'BebasNeueBold'; font-size:9.377px; letter-spacing:1;">T</tspan><tspan x="5.2" y="0" class="st0" style="font-family:'BebasNeueBold'; font-size:9.377px;"> </tspan></text>
		</g>
		<g id="XMLID_124_">
			
				<text id="XMLID_123_" transform="matrix(1 0 0 1 -172.5274 724.5078)" class="st0" style="font-family:'BebasNeueBold'; font-size:9.377px;">L</text>
		</g>
		<g id="XMLID_119_">
			<text id="XMLID_118_" transform="matrix(1 0 0 1 -167.1856 724.5078)"><tspan x="0" y="0" class="st0" style="font-family:'BebasNeueBold'; font-size:9.377px; letter-spacing:2;">A</tspan><tspan x="5.8" y="0" class="st0" style="font-family:'BebasNeueBold'; font-size:9.377px;">K</tspan></text>
		</g>
		<g id="XMLID_114_">
			
				<text id="XMLID_113_" transform="matrix(1 0 0 1 -155.4473 724.5078)" class="st0" style="font-family:'BebasNeueBold'; font-size:9.377px;">E</text>
		</g>
		<g id="XMLID_109_">
			<text id="XMLID_108_" transform="matrix(1 0 0 1 -150.0537 724.5078)"><tspan x="0" y="0" class="st0" style="font-family:'BebasNeueBold'; font-size:9.377px; letter-spacing:1;">,</tspan><tspan x="3.6" y="0" class="st0" style="font-family:'BebasNeueBold'; font-size:9.377px;"> </tspan></text>
		</g>
		<g id="XMLID_104_">
			
				<text id="XMLID_103_" transform="matrix(1 0 0 1 -143.1055 724.5078)" class="st0" style="font-family:'BebasNeueBold'; font-size:9.377px;">U</text>
		</g>
		<g id="XMLID_99_">
			
				<text id="XMLID_98_" transform="matrix(1 0 0 1 -137.3184 724.5078)" class="st0" style="font-family:'BebasNeueBold'; font-size:9.377px;">T</text>
		</g>
		<g id="XMLID_94_">
			
				<text id="XMLID_93_" transform="matrix(1 0 0 1 -132.2378 724.5078)" class="st0" style="font-family:'BebasNeueBold'; font-size:9.377px;">A</text>
		</g>
		<g id="XMLID_89_">
			
				<text id="XMLID_88_" transform="matrix(1 0 0 1 -126.4014 724.5078)" class="st0" style="font-family:'BebasNeueBold'; font-size:9.377px;">H</text>
		</g>
	</g>
</g>
<g id="XMLID_35_">
	<g id="XMLID_36_">
		<g id="XMLID_80_">
			<path id="XMLID_84_" class="st0" d="M73.5,127.9c2.6,5.3,5.3,10.5,8.1,15.8c-4.6,3.8-9.3,7.5-14.1,11.1
				c10.6,2.4,21.2,4.3,31.9,5.9c-4.6-2.7-9.1-5.5-13.5-8.3c1.3-7.1,2.6-14.1,3.9-21.2C84.3,130.2,78.9,129.1,73.5,127.9z"/>
			<path id="XMLID_83_" class="st0" d="M256.7,127.9c-5.4,1.2-10.8,2.3-16.2,3.3c1.3,7.1,2.6,14.1,3.9,21.2
				c-4.4,2.8-8.9,5.6-13.5,8.3c10.7-1.6,21.3-3.6,31.9-5.9c-4.8-3.6-9.5-7.3-14.1-11.1C251.4,138.4,254.1,133.2,256.7,127.9z"/>
			<g id="XMLID_81_">
				<path id="XMLID_82_" class="st0" d="M237.8,125.6c-48.1,8.6-97.3,8.6-145.3,0c-0.8,4.6-2.9,16.5-4.6,25.6
					c9.5,1.8,43.3,7.2,77.2,6.8c33.9,0.4,67.8-5,77.2-6.8C241.5,146.7,239.4,134.9,237.8,125.6z"/>
			</g>
		</g>
		<g id="XMLID_37_">
			<path id="XMLID_77_" class="st1" d="M104.4,135.6c0.4,0.1,0.7,0.2,0.9,0.4c0.2,0.2,0.4,0.4,0.5,0.7c0.1,0.3,0.2,0.5,0.2,0.8
				c0,0.3,0,0.5,0,0.8c-0.1,0.6-0.2,1.2-0.3,1.8c-0.1,0.7-0.4,1.2-0.8,1.6c-0.5,0.3-1.1,0.5-2,0.3c-0.2,0-0.5-0.1-0.7-0.1
				c-0.1,0-0.2,0-0.2,0.2c-0.1,0.8-0.2,1.7-0.4,2.5c0,0.1,0,0.2,0,0.2c0,0,0.1,0.1,0.1,0.1c0.1,0.1,0.1,0.2,0.2,0.3
				c0.1,0.1,0.1,0.3,0.1,0.4c0,0.2-0.1,0.4-0.1,0.6c-0.9-0.1-1.9-0.3-2.8-0.4c0-0.2,0.1-0.4,0.1-0.6c0-0.2,0.1-0.3,0.2-0.4
				c0.1-0.1,0.2-0.2,0.3-0.2c0,0,0.1,0,0.1-0.1c0,0,0.1-0.1,0.1-0.1c0.4-2.6,0.8-5.2,1.2-7.7c0-0.1,0-0.1,0-0.2c0,0,0-0.1-0.1-0.1
				c-0.1-0.1-0.2-0.2-0.2-0.3c0-0.1,0-0.3,0-0.5c0-0.2,0.1-0.4,0.1-0.5C102,135.2,103.2,135.4,104.4,135.6z M104.2,138.1
				c0-0.3,0-0.6-0.1-0.8c-0.1-0.2-0.3-0.4-0.6-0.4c-0.2,0-0.4-0.1-0.6-0.1c-0.1,0-0.2,0-0.2,0.1c0,0-0.1,0.1-0.1,0.2
				c-0.2,1.1-0.3,2.2-0.5,3.2c0,0.1,0,0.2,0.2,0.2c0.2,0,0.4,0.1,0.6,0.1c0.3,0,0.5,0,0.7-0.2c0.2-0.2,0.3-0.4,0.3-0.8
				C104.1,139.1,104.1,138.6,104.2,138.1z"/>
			<path id="XMLID_75_" class="st1" d="M114.2,137.5C114.2,137.5,114.2,137.5,114.2,137.5c0,0.3-0.2,0.5-0.4,0.6c0,0-0.1,0-0.1,0.1
				c0,0-0.1,0.1-0.1,0.1c0,0,0,0,0,0c-0.3,2.5-0.6,5.1-0.9,7.6c0,0.1,0,0.2,0,0.2c0,0,0.1,0.1,0.1,0.1c0.1,0.1,0.1,0.2,0.2,0.3
				c0.1,0.1,0.1,0.3,0.1,0.4c0,0.2,0,0.4-0.1,0.6c-0.9-0.1-1.9-0.2-2.8-0.4c0-0.2,0.1-0.4,0.1-0.6c0-0.2,0.1-0.3,0.2-0.4
				c0.1-0.1,0.2-0.2,0.3-0.2c0.1,0,0.1-0.1,0.1-0.1c0,0,0-0.1,0.1-0.2c0.1-1.1,0.3-2.1,0.4-3.2c0-0.1,0-0.2-0.2-0.2
				c-0.5-0.1-1-0.1-1.5-0.2c-0.1,0-0.1,0-0.2,0c0,0-0.1,0.1-0.1,0.1c-0.1,1-0.3,2.1-0.4,3.1c0,0.1,0,0.2,0,0.2c0,0,0.1,0.1,0.1,0.1
				c0.1,0.1,0.1,0.2,0.2,0.3c0.1,0.1,0.1,0.3,0.1,0.4c0,0.2-0.1,0.4-0.1,0.6c-0.9-0.1-1.9-0.2-2.8-0.4c0-0.2,0.1-0.4,0.1-0.6
				c0-0.2,0.1-0.3,0.2-0.4c0.1-0.1,0.2-0.2,0.3-0.2c0.1,0,0.1-0.1,0.1-0.1c0,0,0.1-0.1,0.1-0.2c0.3-2.5,0.7-5.1,1-7.6
				c0-0.1,0-0.2,0-0.2c0,0-0.1-0.1-0.1-0.1c-0.2-0.2-0.3-0.4-0.3-0.7c0-0.2,0.1-0.4,0.1-0.6c0.9,0.1,1.8,0.2,2.7,0.4c0,0,0,0,0,0
				c0,0.2-0.1,0.4-0.1,0.6c0,0,0,0,0,0c0,0.1-0.1,0.2-0.1,0.3c-0.1,0.1-0.2,0.2-0.3,0.2c0,0-0.1,0.1-0.1,0.1c0,0-0.1,0.1-0.1,0.2
				c-0.1,0.9-0.2,1.8-0.4,2.7c0,0.1,0,0.1,0.1,0.2c0,0,0.1,0.1,0.1,0.1c0.5,0.1,1,0.1,1.5,0.2c0.1,0,0.1,0,0.2,0
				c0,0,0.1-0.1,0.1-0.1c0.1-0.9,0.2-1.8,0.3-2.7c0-0.1,0-0.2,0-0.2c0,0-0.1-0.1-0.1-0.1c-0.2-0.2-0.3-0.4-0.3-0.7
				c0-0.2,0.1-0.4,0.1-0.6c0.9,0.1,1.8,0.2,2.7,0.3C114.2,137.1,114.2,137.3,114.2,137.5z"/>
			<path id="XMLID_72_" class="st1" d="M117.5,148.3c-0.4,0-0.7-0.1-1-0.2c-0.3-0.1-0.6-0.3-0.8-0.5c-0.2-0.2-0.4-0.5-0.5-0.8
				c-0.1-0.3-0.1-0.6-0.1-1c0.3-2.2,0.5-4.4,0.8-6.7c0-0.4,0.2-0.7,0.3-0.9c0.2-0.3,0.4-0.5,0.7-0.6c0.3-0.1,0.6-0.3,0.9-0.3
				c0.3-0.1,0.7-0.1,1,0s0.7,0.1,1,0.2c0.3,0.1,0.6,0.3,0.8,0.5c0.2,0.2,0.4,0.4,0.5,0.7c0.1,0.3,0.2,0.6,0.1,1
				c-0.2,2.2-0.5,4.4-0.7,6.7c0,0.4-0.1,0.7-0.3,0.9c-0.2,0.3-0.4,0.5-0.7,0.6c-0.3,0.2-0.6,0.3-0.9,0.3
				C118.3,148.3,117.9,148.3,117.5,148.3z M119.4,139.7c0-0.4,0-0.6-0.2-0.8c-0.2-0.1-0.4-0.2-0.7-0.3c-0.3,0-0.5,0-0.7,0.1
				c-0.2,0.1-0.3,0.4-0.4,0.7c-0.2,2.1-0.5,4.2-0.7,6.3c0,0.4,0,0.6,0.2,0.8c0.2,0.2,0.4,0.2,0.7,0.3c0.3,0,0.5,0,0.7-0.1
				s0.3-0.4,0.4-0.8C119,143.9,119.2,141.8,119.4,139.7z"/>
			<path id="XMLID_70_" class="st1" d="M129,138.6c0.1,0.1,0.1,0.3,0.1,0.5c0,0.2,0,0.4-0.1,0.6c0,0.2,0,0.5-0.1,0.7
				c-0.2,0-0.4,0-0.7-0.1c-0.3,0-0.5-0.2-0.6-0.5c0-0.1-0.1-0.2-0.2-0.2c-0.1,0-0.1,0-0.2,0c-0.1,0-0.2,0-0.3,0
				c-0.1,0-0.1,0-0.2,0.1c0,0-0.1,0.1-0.1,0.2c-0.2,2.5-0.5,5-0.7,7.6c0,0.1,0,0.2,0,0.2c0,0,0.1,0.1,0.1,0.1
				c0.1,0.1,0.1,0.2,0.2,0.3c0.1,0.1,0.1,0.3,0.1,0.4c0,0.2,0,0.4-0.1,0.6c-0.9-0.1-1.9-0.2-2.8-0.3c0-0.2,0-0.4,0.1-0.6
				c0-0.2,0.1-0.3,0.2-0.4c0.1-0.1,0.2-0.2,0.3-0.2c0.1,0,0.1-0.1,0.1-0.1c0,0,0-0.1,0.1-0.2c0.2-2.5,0.5-5.1,0.7-7.6
				c0-0.1,0-0.1-0.1-0.2c0,0-0.1-0.1-0.1-0.1c-0.1,0-0.2,0-0.3,0c0,0-0.1,0-0.2,0c-0.1,0-0.2,0.1-0.2,0.1c-0.1,0.1-0.1,0.2-0.2,0.3
				c-0.1,0.1-0.2,0.1-0.5,0.1c-0.2,0-0.4,0-0.7-0.1c0-0.3,0.1-0.5,0.1-0.8c0-0.2,0-0.4,0.1-0.6c0-0.2,0.1-0.4,0.2-0.5
				c0.1-0.1,0.3-0.1,0.5-0.1c1.6,0.2,3.1,0.3,4.7,0.4C128.8,138.4,128.9,138.5,129,138.6z"/>
			<path id="XMLID_67_" class="st1" d="M133,149.7c-0.4,0-0.7-0.1-1-0.2c-0.3-0.1-0.6-0.3-0.8-0.5c-0.2-0.2-0.4-0.4-0.5-0.7
				c-0.1-0.3-0.2-0.6-0.1-1c0.2-2.2,0.4-4.5,0.5-6.7c0-0.4,0.1-0.7,0.3-0.9c0.2-0.3,0.4-0.5,0.6-0.6c0.3-0.2,0.5-0.3,0.9-0.3
				c0.3-0.1,0.7-0.1,1-0.1c0.4,0,0.7,0.1,1,0.2c0.3,0.1,0.6,0.3,0.8,0.5c0.2,0.2,0.4,0.4,0.5,0.7c0.1,0.3,0.2,0.6,0.1,1
				c-0.2,2.2-0.3,4.5-0.5,6.7c0,0.4-0.1,0.7-0.3,0.9c-0.2,0.3-0.4,0.5-0.6,0.6c-0.3,0.2-0.6,0.3-0.9,0.3
				C133.7,149.7,133.4,149.7,133,149.7z M134.6,141.1c0-0.4,0-0.6-0.2-0.8c-0.2-0.1-0.4-0.2-0.7-0.2c-0.3,0-0.5,0-0.7,0.1
				c-0.2,0.1-0.3,0.4-0.3,0.7c-0.2,2.1-0.3,4.2-0.5,6.3c0,0.4,0,0.6,0.2,0.8c0.2,0.1,0.4,0.2,0.7,0.3c0.3,0,0.5,0,0.7-0.2
				c0.2-0.1,0.3-0.4,0.3-0.8C134.3,145.3,134.5,143.2,134.6,141.1z"/>
			<path id="XMLID_65_" class="st1" d="M143.5,150.1c0,0.1-0.1,0.2-0.2,0.2c-0.1,0-0.3,0-0.4,0c0,0-0.1,0-0.1,0c0,0,0,0-0.1-0.1
				c-0.1-0.2-0.2-0.3-0.2-0.3c-0.1,0-0.2,0-0.2,0.1c-0.2,0.1-0.4,0.2-0.7,0.2c-0.2,0.1-0.5,0.1-0.8,0.1c-0.4,0-0.7-0.1-1-0.2
				c-0.3-0.1-0.6-0.3-0.9-0.5c-0.2-0.2-0.4-0.5-0.6-0.8c-0.1-0.3-0.2-0.6-0.2-1c0.1-2.1,0.3-4.3,0.4-6.4c0-0.4,0.1-0.7,0.3-1
				c0.2-0.3,0.4-0.5,0.6-0.7c0.3-0.2,0.5-0.3,0.9-0.4c0.3-0.1,0.7-0.1,1-0.1c0.4,0,0.7,0.1,1,0.2c0.3,0.1,0.6,0.3,0.8,0.5
				c0.2,0.2,0.4,0.5,0.5,0.8c0.1,0.3,0.2,0.6,0.2,1c0,0.4,0,0.8-0.1,1.1c-0.3,0-0.7,0-1-0.1c-0.2,0-0.3-0.1-0.5-0.2
				c-0.2-0.1-0.3-0.3-0.2-0.6c0-0.1,0-0.1,0-0.2c0-0.4,0-0.7-0.2-0.8c-0.2-0.2-0.4-0.3-0.6-0.3c-0.3,0-0.5,0.1-0.7,0.2
				c-0.2,0.2-0.3,0.4-0.3,0.8c-0.1,2-0.2,4-0.4,6.1c0,0.4,0,0.7,0.2,0.8c0.2,0.2,0.4,0.3,0.7,0.3c0.3,0,0.5-0.1,0.7-0.2
				c0.2-0.2,0.3-0.4,0.3-0.8c0-0.5,0.1-1.1,0.1-1.6c0-0.2-0.1-0.3-0.2-0.4c-0.1,0-0.2-0.1-0.3-0.2c0-0.1-0.1-0.3-0.1-0.6
				c0-0.2,0-0.4,0-0.5c0.6,0,1.3,0.1,1.9,0.1c0.1,0,0.3,0.1,0.3,0.2c0.1,0.1,0.1,0.2,0.1,0.4C143.6,146.8,143.6,148.4,143.5,150.1z"
				/>
			<path id="XMLID_62_" class="st1" d="M151.4,149.2c0.1,0.1,0.1,0.1,0.2,0.2c0.1,0.1,0.1,0.2,0.1,0.4c0,0.3,0,0.5,0,0.8
				c-0.5,0-1,0-1.5,0c-0.3,0-0.5-0.1-0.6-0.3c-0.1-0.2-0.2-0.3-0.2-0.6c0-1.1,0.1-2.1,0.1-3.2c0-0.3,0-0.5-0.2-0.6
				c-0.1-0.1-0.3-0.2-0.6-0.2c-0.2,0-0.4,0-0.6,0c-0.1,0-0.2,0.1-0.2,0.2c0,1-0.1,2-0.1,3c0,0.1,0,0.2,0,0.2c0,0,0.1,0.1,0.1,0.1
				c0.1,0.1,0.2,0.1,0.2,0.3c0.1,0.1,0.1,0.2,0.1,0.4c0,0.2,0,0.4,0,0.6c-0.9,0-1.9-0.1-2.8-0.1c0-0.2,0-0.4,0-0.6
				c0-0.2,0.1-0.3,0.1-0.4c0.1-0.1,0.2-0.2,0.3-0.2c0,0,0.1-0.1,0.1-0.1c0,0,0.1-0.1,0.1-0.2c0.1-2.6,0.2-5.1,0.3-7.7
				c0-0.1,0-0.1,0-0.2c0,0,0-0.1-0.1-0.1c-0.1-0.1-0.2-0.1-0.2-0.2c-0.1-0.1-0.1-0.3-0.1-0.5c0-0.2,0-0.4,0-0.6c1,0,2.1,0.1,3.1,0.1
				c0.4,0,0.7,0.1,1,0.2c0.3,0.1,0.5,0.3,0.8,0.5c0.2,0.2,0.4,0.5,0.5,0.8c0.1,0.3,0.2,0.6,0.1,1c0,0.4,0,0.9,0,1.3
				c0,0.3-0.1,0.6-0.2,0.8c-0.1,0.3-0.2,0.5-0.5,0.6c-0.1,0.1-0.1,0.2,0,0.3c0.2,0.2,0.4,0.4,0.4,0.7c0.1,0.3,0.1,0.6,0.1,1
				c0,0.7,0,1.3-0.1,2c0,0.1,0,0.2,0,0.2C151.4,149.1,151.4,149.2,151.4,149.2z M149.8,142c0-0.3-0.1-0.5-0.2-0.7
				c-0.2-0.2-0.4-0.2-0.6-0.3c-0.2,0-0.4,0-0.6,0c-0.1,0-0.2,0.1-0.2,0.2c0,0.9-0.1,1.9-0.1,2.8c0,0.1,0,0.1,0,0.2c0,0,0.1,0,0.1,0
				c0.3,0,0.5,0,0.8,0c0.3,0,0.5-0.1,0.6-0.2c0.1-0.2,0.2-0.4,0.2-0.7C149.8,143,149.8,142.5,149.8,142z"/>
			<path id="XMLID_59_" class="st1" d="M160.3,149.5c0.1,0,0.2,0.1,0.2,0.2c0.1,0.1,0.1,0.2,0.1,0.4c0,0.2,0,0.4,0,0.6
				c-0.9,0-1.9,0-2.8,0c0-0.2,0-0.3,0-0.5c0-0.2,0-0.3,0.1-0.4c0-0.1,0.1-0.2,0.1-0.2c0-0.1,0.1-0.1,0.1-0.2c0-0.1,0.1-0.1,0.1-0.2
				c0-0.3-0.1-0.5-0.1-0.7c0-0.2,0-0.3-0.1-0.4c0-0.1,0-0.2-0.1-0.2c0,0-0.1-0.1-0.2-0.1c0,0-0.1,0-0.1,0c-0.4,0-0.8,0-1.3,0
				c-0.1,0-0.2,0-0.2,0c0,0-0.1,0.1-0.1,0.2c0,0,0,0.1,0,0.3c0,0.1,0,0.3,0,0.4c0,0.2,0,0.3-0.1,0.5c0,0.1,0,0.2,0,0.2
				c0,0.1,0.1,0.1,0.1,0.2c0,0.1,0.1,0.1,0.1,0.2c0,0.1,0,0.2,0,0.3c0,0.2,0,0.3,0,0.5c-0.9,0-1.8,0-2.8-0.1c0-0.2,0-0.4,0-0.6
				c0-0.1,0-0.3,0.1-0.3c0.1-0.1,0.1-0.1,0.2-0.2c0.1-0.1,0.1-0.1,0.2-0.2c0.1-0.1,0.1-0.1,0.1-0.2c0.3-1.3,0.6-2.5,0.9-3.8
				c0.1-0.5,0.2-0.9,0.3-1.4c0.1-0.5,0.2-0.9,0.3-1.2c0.1-0.4,0.2-0.7,0.2-0.9c0.1-0.2,0.1-0.3,0.1-0.4c0,0,0,0,0-0.1
				c0-0.1,0-0.1-0.1-0.2c0,0-0.1-0.1-0.1-0.2c-0.1-0.1-0.1-0.1-0.1-0.2c0-0.1-0.1-0.2-0.1-0.4c0-0.2,0-0.3,0-0.5c0.5,0,1,0,1.3,0
				c0.3,0,0.6,0,0.8,0.1c0.2,0,0.3,0.1,0.4,0.2c0.1,0.1,0.2,0.2,0.2,0.4c0,0,0,0.2,0.1,0.5c0.1,0.3,0.1,0.6,0.2,1
				c0.1,0.4,0.2,0.9,0.3,1.4c0.1,0.5,0.2,1,0.3,1.6c0.2,1.2,0.5,2.7,0.9,4.2c0,0.1,0,0.1,0.1,0.2
				C160.2,149.5,160.3,149.5,160.3,149.5z M157.7,146.5c0.1,0,0.2,0,0.2-0.2c-0.1-0.7-0.2-1.3-0.3-2c0-0.3-0.1-0.5-0.1-0.7
				c0-0.2-0.1-0.5-0.1-0.7c0-0.2-0.1-0.3-0.1-0.5c0-0.1,0-0.2,0-0.2c0,0,0,0,0,0c0,0,0,0.1-0.1,0.3c0,0.2-0.1,0.4-0.1,0.7
				c-0.1,0.3-0.1,0.6-0.2,0.9c-0.1,0.3-0.1,0.7-0.2,1c-0.1,0.3-0.1,0.6-0.2,0.8c0,0.2-0.1,0.3-0.1,0.4c0,0.1,0,0.1,0,0.1
				c0,0,0.1,0,0.2,0c0.2,0,0.3,0,0.5,0C157.4,146.5,157.5,146.5,157.7,146.5z"/>
			<path id="XMLID_56_" class="st1" d="M166.2,140c0.4,0,0.7,0.1,0.9,0.2c0.3,0.2,0.5,0.4,0.6,0.6c0.2,0.2,0.3,0.5,0.3,0.8
				c0.1,0.3,0.1,0.5,0.1,0.8c0,0.6,0,1.2,0,1.9c0,0.7-0.2,1.3-0.6,1.7c-0.4,0.4-1,0.6-1.9,0.6c-0.2,0-0.5,0-0.7,0
				c-0.1,0-0.2,0.1-0.2,0.2c0,0.8,0,1.7,0,2.5c0,0.1,0,0.2,0,0.2c0,0,0.1,0.1,0.1,0.1c0.1,0.1,0.2,0.1,0.2,0.2
				c0.1,0.1,0.1,0.2,0.1,0.4c0,0.2,0,0.4,0,0.6c-0.9,0-1.9,0-2.8,0c0-0.2,0-0.4,0-0.6c0-0.2,0-0.3,0.1-0.4c0.1-0.1,0.2-0.2,0.2-0.2
				c0,0,0.1-0.1,0.1-0.1c0,0,0-0.1,0.1-0.1c0-2.6,0-5.2,0-7.8c0-0.1,0-0.1,0-0.2c0,0,0,0-0.1-0.1c-0.1-0.1-0.2-0.1-0.2-0.3
				c0-0.1-0.1-0.3-0.1-0.5c0-0.2,0-0.4,0-0.5C163.8,140,165,140,166.2,140z M166.5,142.5c0-0.3-0.1-0.6-0.2-0.8
				c-0.1-0.2-0.3-0.3-0.7-0.3c-0.2,0-0.4,0-0.6,0c-0.1,0-0.2,0-0.2,0.1c0,0.1-0.1,0.1-0.1,0.2c0,1.1,0,2.2,0,3.3
				c0,0.1,0.1,0.2,0.2,0.2c0.2,0,0.4,0,0.6,0c0.3,0,0.5-0.1,0.7-0.3c0.1-0.2,0.2-0.5,0.2-0.8C166.5,143.5,166.5,143,166.5,142.5z"/>
			<path id="XMLID_54_" class="st1" d="M176.2,140.4C176.2,140.4,176.2,140.4,176.2,140.4c0,0.3-0.1,0.5-0.3,0.7
				c0,0-0.1,0.1-0.1,0.1c0,0,0,0.1-0.1,0.1c0,0,0,0,0,0c0.1,2.6,0.1,5.1,0.2,7.7c0,0.1,0,0.2,0.1,0.2c0,0,0.1,0.1,0.1,0.1
				c0.1,0.1,0.2,0.1,0.2,0.2c0.1,0.1,0.1,0.2,0.1,0.4c0,0.2,0,0.4,0,0.6c-0.9,0-1.9,0-2.8,0.1c0-0.2,0-0.4,0-0.6
				c0-0.2,0-0.3,0.1-0.4c0.1-0.1,0.2-0.2,0.2-0.3c0,0,0.1-0.1,0.1-0.1c0,0,0-0.1,0-0.2c0-1.1,0-2.1-0.1-3.2c0-0.1-0.1-0.2-0.2-0.2
				c-0.5,0-1,0-1.5,0c-0.1,0-0.1,0-0.2,0.1c0,0-0.1,0.1-0.1,0.1c0,1.1,0,2.1,0.1,3.2c0,0.1,0,0.2,0,0.2c0,0,0.1,0.1,0.1,0.1
				c0.1,0.1,0.2,0.1,0.2,0.2c0.1,0.1,0.1,0.2,0.1,0.4c0,0.2,0,0.4,0,0.6c-0.9,0-1.9,0-2.8,0c0-0.2,0-0.4,0-0.6c0-0.2,0-0.3,0.1-0.4
				c0.1-0.1,0.2-0.2,0.2-0.2c0,0,0.1-0.1,0.1-0.1c0,0,0-0.1,0-0.2c0-2.5-0.1-5.1-0.1-7.6c0-0.1,0-0.2,0-0.2c0,0-0.1-0.1-0.1-0.1
				c-0.2-0.1-0.4-0.4-0.4-0.6c0-0.2,0-0.4,0-0.6c0.9,0,1.8,0,2.7,0c0,0,0,0,0,0c0,0.2,0,0.4,0,0.6c0,0,0,0,0,0c0,0.1,0,0.2-0.1,0.4
				c-0.1,0.1-0.1,0.2-0.3,0.3c0,0-0.1,0.1-0.1,0.1c0,0,0,0.1,0,0.2c0,0.9,0,1.8,0,2.7c0,0.1,0,0.1,0.1,0.2c0.1,0,0.1,0,0.2,0
				c0.5,0,1,0,1.5,0c0.1,0,0.1,0,0.2-0.1c0,0,0-0.1,0-0.2c0-0.9,0-1.8-0.1-2.7c0-0.1,0-0.2,0-0.2c0,0-0.1-0.1-0.1-0.1
				c-0.2-0.2-0.3-0.4-0.4-0.6c0-0.2,0-0.4,0-0.6c0.9,0,1.8,0,2.8-0.1C176.2,140,176.2,140.2,176.2,140.4z"/>
			<path id="XMLID_52_" class="st1" d="M184.1,139.5c0,0.2,0,0.4,0,0.6c0,0.2,0,0.3-0.1,0.4c-0.1,0.1-0.1,0.2-0.2,0.3
				c0,0-0.1,0.1-0.1,0.1c-0.1,0-0.1,0.1-0.1,0.2c0,0,0,0.1-0.1,0.3c0,0.2-0.1,0.4-0.2,0.6c-0.1,0.2-0.1,0.5-0.2,0.8
				c-0.1,0.3-0.2,0.6-0.3,0.9c-0.2,0.7-0.4,1.6-0.7,2.5c0,0.9,0.1,1.8,0.1,2.8c0,0.1,0,0.1,0.1,0.2c0,0,0.1,0.1,0.1,0.1
				c0.1,0.1,0.2,0.1,0.3,0.2c0.1,0.1,0.1,0.2,0.1,0.4c0,0.2,0,0.4,0,0.6c-0.9,0-1.8,0.1-2.7,0.1c0-0.2,0-0.4,0-0.6
				c0-0.2,0-0.3,0.1-0.4c0.1-0.1,0.1-0.2,0.2-0.3c0,0,0.1-0.1,0.1-0.1c0,0,0-0.1,0-0.2c0-0.9-0.1-1.8-0.1-2.7
				c-0.3-0.8-0.6-1.6-0.9-2.5c-0.1-0.3-0.2-0.6-0.3-0.9c-0.1-0.3-0.2-0.6-0.3-0.8c-0.1-0.2-0.2-0.4-0.2-0.6
				c-0.1-0.1-0.1-0.2-0.1-0.3c0,0-0.1-0.1-0.1-0.1c0,0-0.1-0.1-0.1-0.1c-0.1-0.1-0.2-0.1-0.2-0.2c-0.1-0.1-0.1-0.2-0.1-0.4
				c0-0.2,0-0.4,0-0.6c0.8,0,1.7-0.1,2.5-0.1c0,0.2,0,0.5,0,0.7c0,0.2,0,0.3,0,0.4c0,0.1-0.1,0.2-0.2,0.2c0,0-0.1,0.1-0.1,0.1
				c0,0-0.1,0.1,0,0.2c0,0,0,0.1,0.1,0.2c0,0.1,0.1,0.2,0.1,0.4c0,0.2,0.1,0.3,0.2,0.5c0.1,0.2,0.1,0.4,0.2,0.6
				c0.1,0.5,0.3,1,0.5,1.5c0,0,0,0,0,0c0.1-0.6,0.3-1.1,0.4-1.6c0.1-0.4,0.2-0.8,0.3-1.1c0.1-0.3,0.1-0.5,0.1-0.6
				c0-0.1,0-0.1-0.1-0.2c-0.1,0-0.1-0.1-0.2-0.1c-0.1,0-0.1-0.1-0.2-0.2c0-0.1,0-0.2,0-0.4c0-0.2,0-0.4,0-0.6
				C182.4,139.6,183.2,139.6,184.1,139.5z"/>
			<path id="XMLID_50_" class="st1" d="M192.8,142.3c0,0.2,0.1,0.4,0.3,0.5c0.2,0.1,0.4,0.3,0.7,0.4c0.3,0.1,0.6,0.3,0.9,0.4
				c0.3,0.2,0.6,0.3,0.9,0.5c0.3,0.2,0.5,0.4,0.7,0.7c0.2,0.3,0.3,0.6,0.3,1c0,0.6,0.1,1.1,0.1,1.7c0,0.4,0,0.7-0.2,1
				c-0.1,0.3-0.3,0.5-0.6,0.7c-0.2,0.2-0.5,0.3-0.9,0.5c-0.3,0.1-0.7,0.2-1.1,0.2c-0.4,0-0.7,0-1.1-0.1c-0.3-0.1-0.6-0.2-0.9-0.3
				c-0.3-0.2-0.5-0.4-0.6-0.6c-0.2-0.3-0.3-0.6-0.3-0.9c0-0.5-0.1-0.9-0.1-1.4c0.3,0,0.6,0,0.9-0.1c0.3,0,0.5,0,0.6,0.2
				c0.1,0.1,0.2,0.3,0.2,0.6c0,0.2,0,0.5,0,0.7c0,0.2,0.1,0.3,0.3,0.4c0.2,0.1,0.4,0.1,0.7,0.1c0.1,0,0.3,0,0.4-0.1
				c0.1,0,0.2-0.1,0.3-0.2c0.1-0.1,0.2-0.1,0.2-0.2c0-0.1,0.1-0.1,0.1-0.2c0-0.5-0.1-1-0.1-1.6c0-0.3-0.1-0.6-0.3-0.8
				c-0.2-0.2-0.4-0.4-0.7-0.5c-0.3-0.1-0.6-0.3-0.9-0.4c-0.3-0.1-0.6-0.3-0.9-0.5c-0.3-0.2-0.5-0.4-0.7-0.7
				c-0.2-0.3-0.3-0.6-0.3-1.1c0-0.4,0-0.7-0.1-1.1c0-0.4,0-0.7,0.1-1c0.1-0.3,0.3-0.5,0.5-0.7c0.2-0.2,0.5-0.3,0.8-0.4
				c0.3-0.1,0.6-0.2,1-0.2c0.4,0,0.7,0,1,0.1c0.3,0.1,0.6,0.2,0.8,0.3c0.2,0.2,0.4,0.4,0.6,0.6c0.1,0.3,0.2,0.6,0.3,0.9
				c0,0.5,0.1,0.9,0.1,1.4c-0.3,0-0.6,0-0.9,0.1c-0.2,0-0.5-0.1-0.6-0.2c-0.2-0.2-0.3-0.4-0.3-0.6c0-0.1,0-0.3,0-0.4
				c0-0.2-0.1-0.4-0.3-0.5c-0.2-0.1-0.4-0.1-0.6-0.1c-0.2,0-0.4,0.1-0.5,0.2c-0.1,0.1-0.2,0.3-0.2,0.4
				C192.8,141.5,192.8,141.9,192.8,142.3z"/>
			<path id="XMLID_48_" class="st1" d="M203.6,138.3c0.1,0.1,0.2,0.3,0.2,0.5c0,0.2,0,0.4,0.1,0.6c0,0.2,0,0.5,0.1,0.7
				c-0.2,0-0.4,0-0.7,0.1c-0.3,0-0.5-0.1-0.7-0.3c-0.1-0.1-0.1-0.1-0.2-0.2c-0.1,0-0.1,0-0.2,0c-0.1,0-0.2,0-0.3,0
				c-0.1,0-0.1,0-0.2,0.1c0,0-0.1,0.1-0.1,0.2c0.2,2.5,0.4,5,0.7,7.6c0,0.1,0,0.2,0.1,0.2c0,0,0.1,0.1,0.1,0.1
				c0.1,0.1,0.2,0.1,0.3,0.2c0.1,0.1,0.1,0.2,0.1,0.4c0,0.2,0,0.4,0.1,0.6c-0.9,0.1-1.9,0.2-2.8,0.2c0-0.2,0-0.4-0.1-0.6
				c0-0.2,0-0.3,0.1-0.4c0.1-0.1,0.1-0.2,0.2-0.3c0,0,0.1-0.1,0.1-0.1c0,0,0-0.1,0-0.2c-0.2-2.5-0.4-5.1-0.6-7.6
				c0-0.1,0-0.1-0.1-0.2c-0.1,0-0.1,0-0.2,0c-0.1,0-0.2,0-0.3,0c0,0-0.1,0-0.2,0.1c-0.1,0-0.1,0.1-0.2,0.2c0,0.1-0.1,0.2-0.1,0.3
				c0,0.1-0.2,0.1-0.4,0.1c-0.2,0-0.4,0-0.7,0.1c0-0.3,0-0.5-0.1-0.8c0-0.2,0-0.4,0-0.6c0-0.2,0-0.4,0.1-0.5
				c0.1-0.1,0.2-0.2,0.5-0.2c1.6-0.1,3.1-0.3,4.7-0.4C203.3,138.2,203.5,138.3,203.6,138.3z"/>
			<path id="XMLID_46_" class="st1" d="M211.7,137.4c0,0.1,0,0.2,0,0.3c0,0.2,0,0.3,0,0.5c0,0.1-0.1,0.2-0.2,0.3
				c0,0-0.1,0.1-0.1,0.1c0,0,0,0.1,0,0.2c0.3,2.4,0.5,4.9,0.8,7.3c0,0.4,0,0.7-0.1,1c-0.1,0.3-0.3,0.5-0.5,0.7
				c-0.2,0.2-0.5,0.4-0.8,0.5c-0.3,0.1-0.7,0.2-1,0.2c-0.4,0-0.7,0-1.1,0c-0.3-0.1-0.6-0.2-0.9-0.3c-0.3-0.2-0.5-0.4-0.7-0.6
				c-0.2-0.3-0.3-0.6-0.3-0.9c-0.2-2.4-0.5-4.9-0.7-7.3c0-0.1,0-0.1-0.1-0.2c0,0-0.1-0.1-0.1-0.1c-0.1,0-0.2-0.1-0.3-0.2
				c-0.1-0.1-0.1-0.2-0.2-0.4c0-0.1,0-0.3,0-0.4c0.9-0.1,1.8-0.2,2.7-0.3c0,0.1,0,0.2,0,0.3c0,0.2,0,0.3-0.1,0.5
				c-0.1,0.1-0.1,0.2-0.2,0.3c0,0-0.1,0.1-0.1,0.1c0,0,0,0.1,0,0.2c0.2,2.4,0.5,4.7,0.7,7.1c0,0.4,0.2,0.6,0.4,0.7
				c0.2,0.1,0.4,0.2,0.7,0.2c0.3,0,0.5-0.1,0.7-0.3c0.2-0.2,0.2-0.4,0.2-0.8c-0.3-2.4-0.5-4.7-0.8-7.1c0-0.1,0-0.2-0.1-0.2
				c0,0-0.1-0.1-0.1-0.1c-0.1,0-0.2-0.1-0.2-0.2c-0.1-0.1-0.1-0.3-0.2-0.4c0-0.1,0-0.2,0-0.3C210,137.6,210.8,137.5,211.7,137.4z"/>
			<path id="XMLID_43_" class="st1" d="M216.6,136.8c0.8-0.1,1.5,0,1.9,0.4c0.4,0.4,0.7,0.9,0.8,1.6c0.3,2,0.5,4.1,0.8,6.1
				c0.1,0.7,0,1.3-0.4,1.8c-0.3,0.5-0.9,0.8-1.8,0.9c-1.1,0.1-2.2,0.3-3.3,0.4c0-0.2,0-0.4-0.1-0.6c0-0.2,0-0.4,0-0.5
				c0-0.1,0.1-0.2,0.2-0.3c0.1-0.1,0.2-0.2,0.1-0.3c-0.3-2.5-0.6-5-0.9-7.5c0-0.2-0.1-0.3-0.2-0.3c-0.2-0.1-0.3-0.3-0.4-0.6
				c0-0.2,0-0.4-0.1-0.6C214.4,137.1,215.5,136.9,216.6,136.8z M217.6,139c0-0.1,0-0.2-0.1-0.3c0-0.1-0.1-0.2-0.1-0.3
				c-0.1-0.1-0.1-0.1-0.2-0.2c-0.1,0-0.2,0-0.4,0c-0.3,0-0.5,0.1-0.8,0.1c-0.1,0-0.1,0-0.1,0.1c0,0,0,0.1,0,0.2
				c0.3,2.5,0.6,5,0.9,7.6c0,0.1,0.1,0.2,0.2,0.2c0.3,0,0.6-0.1,0.8-0.1c0.2,0,0.3-0.1,0.4-0.1c0.1-0.1,0.2-0.1,0.2-0.2
				c0-0.1,0.1-0.2,0.1-0.3c0-0.1,0-0.2,0-0.3C218.1,143.1,217.8,141.1,217.6,139z"/>
			<path id="XMLID_41_" class="st1" d="M224.3,145.1c0,0.1,0,0.2,0.1,0.2c0,0,0.1,0.1,0.1,0.1c0.1,0,0.2,0.1,0.3,0.2
				c0.1,0.1,0.2,0.2,0.2,0.4c0,0.2,0.1,0.4,0.1,0.6c-0.9,0.1-1.9,0.3-2.8,0.4c0-0.2-0.1-0.4-0.1-0.6c0-0.2,0-0.3,0.1-0.4
				c0.1-0.1,0.1-0.2,0.2-0.3c0,0,0.1-0.1,0.1-0.1c0,0,0-0.1,0-0.2c0,0,0,0,0,0c-0.3-2.5-0.7-5.1-1-7.6c0-0.1,0-0.2-0.1-0.2
				c0,0-0.1-0.1-0.1-0.1c-0.1,0-0.2-0.1-0.3-0.2c-0.1-0.1-0.1-0.2-0.2-0.4c0-0.2-0.1-0.4-0.1-0.6c0.9-0.1,1.8-0.2,2.7-0.4
				c0,0.2,0.1,0.4,0.1,0.6c0,0.2,0,0.3-0.1,0.4c-0.1,0.1-0.1,0.2-0.2,0.3c0,0-0.1,0.1-0.1,0.1c0,0,0,0.1,0,0.2
				C223.6,140.1,224,142.6,224.3,145.1z"/>
			<path id="XMLID_38_" class="st1" d="M229.6,146.1c-0.4,0.1-0.7,0.1-1.1,0c-0.3,0-0.6-0.1-0.9-0.3c-0.3-0.1-0.5-0.3-0.7-0.6
				c-0.2-0.3-0.3-0.6-0.4-0.9c-0.3-2.2-0.6-4.4-1-6.6c-0.1-0.4,0-0.7,0.1-1c0.1-0.3,0.3-0.5,0.5-0.8c0.2-0.2,0.5-0.4,0.8-0.5
				c0.3-0.1,0.6-0.2,1-0.3c0.4-0.1,0.7-0.1,1,0c0.3,0,0.6,0.1,0.9,0.3c0.3,0.1,0.5,0.3,0.7,0.6c0.2,0.2,0.3,0.6,0.4,0.9
				c0.3,2.2,0.7,4.4,1,6.6c0.1,0.4,0,0.7-0.1,1c-0.1,0.3-0.3,0.6-0.5,0.8c-0.2,0.2-0.5,0.4-0.8,0.5C230.4,145.9,230,146,229.6,146.1
				z M229.3,137.3c-0.1-0.4-0.2-0.6-0.4-0.7c-0.2-0.1-0.4-0.1-0.7-0.1c-0.3,0-0.5,0.1-0.6,0.3c-0.2,0.2-0.2,0.4-0.2,0.8
				c0.3,2.1,0.6,4.2,0.9,6.3c0.1,0.4,0.2,0.6,0.4,0.7c0.2,0.1,0.4,0.1,0.7,0.1c0.3,0,0.5-0.2,0.7-0.3c0.2-0.2,0.2-0.5,0.1-0.8
				C229.9,141.4,229.6,139.4,229.3,137.3z"/>
		</g>
	</g>
</g>
<g id="XMLID_19_">
	<g id="XMLID_32_">
		
			<text id="XMLID_31_" transform="matrix(1 0 0 1 -215.7305 655.2949)" class="st0" style="font-family:'GearedSlab-Bold'; font-size:10.9398px;">E</text>
	</g>
	<g id="XMLID_27_">
		
			<text id="XMLID_26_" transform="matrix(1 0 0 1 -210.4683 655.2949)" class="st0" style="font-family:'GearedSlab-Bold'; font-size:10.9398px;">S</text>
	</g>
	<g id="XMLID_22_">
		<text id="XMLID_21_" transform="matrix(1 0 0 1 -205.1079 655.2949)"><tspan x="0" y="0" class="st0" style="font-family:'GearedSlab-Bold'; font-size:10.9398px;">TD</tspan><tspan x="11.2" y="0" class="st0" style="font-family:'GearedSlab-Bold'; font-size:10.9398px;">.</tspan></text>
	</g>
</g>
<g id="XMLID_3_">
	<g id="XMLID_16_">
		
			<text id="XMLID_15_" transform="matrix(1 0 0 1 -123.002 655.2949)" class="st0" style="font-family:'GearedSlab-Bold'; font-size:10.9398px;">1</text>
	</g>
	<g id="XMLID_11_">
		
			<text id="XMLID_10_" transform="matrix(1 0 0 1 -118.6919 655.2949)" class="st0" style="font-family:'GearedSlab-Bold'; font-size:10.9398px;">9</text>
	</g>
	<g id="XMLID_6_">
		<text id="XMLID_5_" transform="matrix(1 0 0 1 -113.3096 655.2949)"><tspan x="0" y="0" class="st0" style="font-family:'GearedSlab-Bold'; font-size:10.9398px;">5</tspan><tspan x="5.5" y="0" class="st0" style="font-family:'GearedSlab-Bold'; font-size:10.9398px;">9</tspan></text>
	</g>
</g>
</svg>
