<?xml version="1.0" encoding="utf-8"?>
<!-- Generator: Adobe Illustrator 19.0.0, SVG Export Plug-In . SVG Version: 6.00 Build 0)  -->
<svg version="1.1" id="Layer_1" xmlns="http://www.w3.org/2000/svg" xmlns:xlink="http://www.w3.org/1999/xlink" x="0px" y="0px"
	 viewBox="-145 302 320 190" style="enable-background:new -145 302 320 190;" xml:space="preserve">
<style type="text/css">
	.st0{fill:#333333;}
</style>
<g id="XMLID_85_">
	<g id="XMLID_86_">
		<g id="XMLID_195_">
			
				<text id="XMLID_194_" transform="matrix(1 0 0 1 -342.2578 1026.5078)" class="st0" style="font-family:'BebasNeueBold'; font-size:9.377px;">S</text>
		</g>
		<g id="XMLID_190_">
			
				<text id="XMLID_189_" transform="matrix(1 0 0 1 -336.7451 1026.5078)" class="st0" style="font-family:'BebasNeueBold'; font-size:9.377px;">A</text>
		</g>
		<g id="XMLID_134_">
			
				<text id="XMLID_133_" transform="matrix(1 0 0 1 -330.9092 1026.5078)" class="st0" style="font-family:'BebasNeueBold'; font-size:9.377px;">L</text>
		</g>
		<g id="XMLID_129_">
			<text transform="matrix(1 0 0 1 -326.0698 1026.5078)" class="st0" style="font-family:'BebasNeueBold'; font-size:9.377px;">T</text>
			<text transform="matrix(1 0 0 1 -320.8698 1026.5078)" class="st0" style="font-family:'BebasNeueBold'; font-size:9.377px;"> </text>
		</g>
		<g id="XMLID_124_">
			
				<text id="XMLID_123_" transform="matrix(1 0 0 1 -317.5274 1026.5078)" class="st0" style="font-family:'BebasNeueBold'; font-size:9.377px;">L</text>
		</g>
		<g id="XMLID_119_">
			
				<text transform="matrix(1 0 0 1 -312.1856 1026.5078)" class="st0" style="font-family:'BebasNeueBold'; font-size:9.377px; letter-spacing:1;">A</text>
			<text transform="matrix(1 0 0 1 -306.3856 1026.5078)" class="st0" style="font-family:'BebasNeueBold'; font-size:9.377px;">K</text>
		</g>
		<g id="XMLID_114_">
			
				<text id="XMLID_113_" transform="matrix(1 0 0 1 -300.4473 1026.5078)" class="st0" style="font-family:'BebasNeueBold'; font-size:9.377px;">E</text>
		</g>
		<g id="XMLID_109_">
			<text transform="matrix(1 0 0 1 -295.0537 1026.5078)" class="st0" style="font-family:'BebasNeueBold'; font-size:9.377px;">,</text>
			<text transform="matrix(1 0 0 1 -291.4537 1026.5078)" class="st0" style="font-family:'BebasNeueBold'; font-size:9.377px;"> </text>
		</g>
		<g id="XMLID_104_">
			
				<text id="XMLID_103_" transform="matrix(1 0 0 1 -288.1055 1026.5078)" class="st0" style="font-family:'BebasNeueBold'; font-size:9.377px;">U</text>
		</g>
		<g id="XMLID_99_">
			
				<text id="XMLID_98_" transform="matrix(1 0 0 1 -282.3184 1026.5078)" class="st0" style="font-family:'BebasNeueBold'; font-size:9.377px;">T</text>
		</g>
		<g id="XMLID_94_">
			
				<text id="XMLID_93_" transform="matrix(1 0 0 1 -277.2378 1026.5078)" class="st0" style="font-family:'BebasNeueBold'; font-size:9.377px;">A</text>
		</g>
		<g id="XMLID_89_">
			
				<text id="XMLID_88_" transform="matrix(1 0 0 1 -271.4014 1026.5078)" class="st0" style="font-family:'BebasNeueBold'; font-size:9.377px;">H</text>
		</g>
	</g>
</g>
<g id="XMLID_19_">
	<g id="XMLID_32_">
		
			<text id="XMLID_31_" transform="matrix(1 0 0 1 -360.7305 957.2949)" class="st0" style="font-family:'GearedSlab-Bold'; font-size:10.9398px;">E</text>
	</g>
	<g id="XMLID_27_">
		
			<text id="XMLID_26_" transform="matrix(1 0 0 1 -355.4683 957.2949)" class="st0" style="font-family:'GearedSlab-Bold'; font-size:10.9398px;">S</text>
	</g>
	<g id="XMLID_22_">
		<text transform="matrix(1 0 0 1 -350.1079 957.2949)" class="st0" style="font-family:'GearedSlab-Bold'; font-size:10.9398px;">TD</text>
		<text transform="matrix(1 0 0 1 -338.9079 957.2949)" class="st0" style="font-family:'GearedSlab-Bold'; font-size:10.9398px;">.</text>
	</g>
</g>
<g id="XMLID_3_">
	<g id="XMLID_16_">
		
			<text id="XMLID_15_" transform="matrix(1 0 0 1 -268.002 957.2949)" class="st0" style="font-family:'GearedSlab-Bold'; font-size:10.9398px;">1</text>
	</g>
	<g id="XMLID_11_">
		
			<text id="XMLID_10_" transform="matrix(1 0 0 1 -263.6919 957.2949)" class="st0" style="font-family:'GearedSlab-Bold'; font-size:10.9398px;">9</text>
	</g>
	<g id="XMLID_6_">
		<text transform="matrix(1 0 0 1 -258.3096 957.2949)" class="st0" style="font-family:'GearedSlab-Bold'; font-size:10.9398px;">5</text>
		<text transform="matrix(1 0 0 1 -252.8096 957.2949)" class="st0" style="font-family:'GearedSlab-Bold'; font-size:10.9398px;">9</text>
	</g>
</g>
<g>
	<g>
		<g>
			<path class="st0" d="M-27.9,343.6c-0.5,0.2-1,0.4-1.4,0.5c-0.5,0.1-0.9,0.1-1.4,0c-0.4-0.1-0.8-0.2-1.2-0.5
				c-0.4-0.3-0.7-0.6-0.9-1.1c-1.4-2.8-2.9-5.6-4.3-8.5c-0.2-0.5-0.3-0.9-0.3-1.4c0-0.5,0.2-0.9,0.4-1.3c0.2-0.4,0.6-0.8,1-1.1
				c0.4-0.3,0.9-0.7,1.5-0.9c0.6-0.3,1.1-0.4,1.6-0.5c0.5-0.1,1.1-0.1,1.5,0c0.5,0.1,0.9,0.2,1.3,0.5c0.4,0.3,0.7,0.6,0.9,1.1
				c1.2,2.9,2.5,5.8,3.7,8.7c0.2,0.5,0.3,0.9,0.2,1.4c0,0.4-0.2,0.8-0.4,1.2c-0.2,0.4-0.5,0.7-0.9,1
				C-27,343.1-27.4,343.4-27.9,343.6z M-31.7,331.8c-0.2-0.5-0.5-0.8-0.8-0.8c-0.3,0-0.7,0-1.1,0.2c-0.4,0.2-0.7,0.4-0.9,0.7
				c-0.2,0.3-0.2,0.7,0.1,1.2c1.3,2.7,2.6,5.4,3.9,8.1c0.2,0.5,0.5,0.7,0.8,0.8c0.3,0.1,0.7,0,1-0.2c0.4-0.2,0.6-0.4,0.8-0.7
				c0.2-0.3,0.1-0.7-0.1-1.2C-29.2,337.2-30.4,334.5-31.7,331.8z"/>
		</g>
		<g>
			<path class="st0" d="M-11,335.3c0.1,0,0.3,0.1,0.4,0.2c0.1,0.1,0.2,0.3,0.3,0.5c0.1,0.4,0.2,0.7,0.3,1.1c-0.7,0.2-1.3,0.4-2,0.5
				c-0.4,0.1-0.7,0.1-0.9-0.1c-0.2-0.2-0.4-0.4-0.5-0.7c-0.4-1.5-0.9-2.9-1.3-4.4c-0.1-0.4-0.3-0.6-0.5-0.8c-0.2-0.1-0.6-0.1-1,0
				c-0.3,0.1-0.6,0.2-0.9,0.3c-0.2,0.1-0.3,0.2-0.2,0.4c0.4,1.4,0.9,2.7,1.3,4.1c0,0.1,0.1,0.2,0.1,0.3c0.1,0,0.1,0.1,0.2,0.1
				c0.1,0,0.3,0.1,0.4,0.2c0.2,0.1,0.3,0.3,0.3,0.5c0.1,0.3,0.2,0.6,0.3,0.8c-1.3,0.4-2.5,0.8-3.7,1.2c-0.1-0.3-0.2-0.6-0.3-0.8
				c-0.1-0.2-0.1-0.4,0-0.6c0.1-0.2,0.1-0.3,0.2-0.4c0-0.1,0.1-0.1,0.1-0.2c0-0.1,0-0.2,0-0.3c-1.2-3.4-2.4-6.8-3.5-10.2
				c0-0.1-0.1-0.2-0.1-0.3c0-0.1-0.1-0.1-0.2-0.1c-0.1,0-0.3-0.1-0.5-0.2c-0.2-0.1-0.3-0.3-0.4-0.5c-0.1-0.3-0.2-0.6-0.3-0.8
				c1.6-0.6,3.2-1.1,4.9-1.6c0.6-0.2,1.1-0.3,1.6-0.2c0.5,0,1,0.1,1.4,0.3c0.4,0.2,0.8,0.5,1.1,0.8c0.3,0.4,0.5,0.8,0.6,1.3
				c0.2,0.6,0.3,1.2,0.5,1.8c0.1,0.4,0.2,0.8,0.1,1.2c0,0.4-0.2,0.7-0.4,1c-0.1,0.2-0.1,0.3,0.1,0.4c0.4,0.1,0.7,0.4,0.9,0.7
				c0.2,0.4,0.4,0.8,0.5,1.3c0.2,0.9,0.5,1.8,0.7,2.7c0,0.1,0.1,0.2,0.1,0.2C-11.2,335.2-11.1,335.2-11,335.3z M-16.5,326.3
				c-0.1-0.4-0.3-0.7-0.7-0.8c-0.3-0.1-0.7-0.1-1.1,0c-0.3,0.1-0.6,0.2-0.9,0.3c-0.2,0.1-0.2,0.2-0.2,0.4c0.4,1.3,0.8,2.6,1.2,3.8
				c0,0.1,0.1,0.2,0.1,0.2c0.1,0,0.1,0,0.2,0c0.4-0.1,0.7-0.2,1.1-0.4c0.5-0.1,0.7-0.3,0.8-0.6c0.1-0.3,0.1-0.6-0.1-1
				C-16.1,327.6-16.3,327-16.5,326.3z"/>
		</g>
		<g>
			<path class="st0" d="M-1.5,332.9c0,0.1,0.1,0.2,0.1,0.3c0,0,0.1,0.1,0.2,0.1c0.1,0.1,0.3,0.2,0.4,0.3c0.1,0.1,0.2,0.3,0.3,0.5
				c0,0.3,0.1,0.6,0.1,0.8c-1.3,0.2-2.6,0.5-3.9,0.7c-0.1-0.3-0.1-0.6-0.2-0.8c0-0.2,0-0.4,0.1-0.6c0.1-0.2,0.2-0.3,0.3-0.4
				c0-0.1,0.1-0.1,0.1-0.2c0-0.1,0-0.1,0-0.3c0,0,0,0,0,0c-0.7-3.5-1.4-7.1-2.1-10.6c0-0.1-0.1-0.2-0.1-0.3c-0.1,0-0.1-0.1-0.2-0.1
				c-0.1-0.1-0.3-0.1-0.4-0.3c-0.2-0.1-0.3-0.3-0.3-0.5c-0.1-0.3-0.1-0.6-0.2-0.9c1.5-0.3,2.9-0.6,4.4-0.8c0,0.3,0.1,0.6,0.1,0.9
				c0,0.2,0,0.4-0.1,0.6c-0.1,0.2-0.2,0.3-0.3,0.4c-0.1,0.1-0.1,0.1-0.1,0.2c0,0.1,0,0.2,0,0.3C-2.7,325.8-2.1,329.3-1.5,332.9z"/>
		</g>
		<g>
			<path class="st0" d="M13.4,333.3c0,0.2-0.1,0.2-0.2,0.2c-0.2,0-0.4,0-0.5,0c-0.1,0-0.1,0-0.2,0c0,0-0.1-0.1-0.1-0.1
				c-0.1-0.2-0.3-0.3-0.4-0.3c-0.1,0-0.2,0-0.3,0.1c-0.3,0.2-0.6,0.3-0.9,0.4c-0.3,0.1-0.7,0.2-1.1,0.2c-0.5,0-1,0-1.4-0.1
				c-0.5-0.1-0.9-0.3-1.3-0.5c-0.4-0.2-0.7-0.6-1-0.9c-0.3-0.4-0.4-0.8-0.5-1.3c-0.3-3-0.7-6-1-9c-0.1-0.5,0-1,0.2-1.4
				c0.2-0.4,0.4-0.8,0.8-1.1c0.4-0.3,0.8-0.6,1.3-0.8c0.5-0.2,1.1-0.3,1.7-0.4c0.6,0,1.2,0,1.7,0.1c0.5,0.1,1,0.3,1.4,0.6
				c0.4,0.3,0.7,0.6,1,1c0.2,0.4,0.4,0.9,0.4,1.4c0,0.5,0,1.1,0.1,1.6c-0.5,0-1,0-1.6,0.1c-0.3,0-0.5-0.1-0.8-0.2
				c-0.3-0.2-0.4-0.4-0.5-0.8c0-0.1,0-0.2,0-0.2c0-0.5-0.2-0.9-0.5-1.1c-0.3-0.2-0.6-0.3-1.1-0.3c-0.4,0-0.8,0.2-1,0.5
				c-0.2,0.3-0.3,0.7-0.3,1.2c0.2,2.9,0.5,5.7,0.7,8.6c0,0.5,0.2,0.9,0.5,1.1c0.3,0.2,0.6,0.3,1,0.3c0.4,0,0.7-0.2,1-0.4
				c0.3-0.3,0.4-0.7,0.3-1.2c0-0.7-0.1-1.5-0.1-2.2c0-0.3-0.1-0.4-0.4-0.5c-0.2,0-0.4-0.1-0.5-0.3c-0.1-0.1-0.2-0.4-0.2-0.8
				c0-0.3,0-0.5-0.1-0.8c1-0.1,1.9-0.1,2.9-0.2c0.2,0,0.4,0.1,0.5,0.2c0.1,0.2,0.2,0.3,0.2,0.5C13.2,328.6,13.3,331,13.4,333.3z"/>
		</g>
		<g>
			<path class="st0" d="M23.2,331.4c0,0.1,0,0.2,0,0.3c0,0.1,0.1,0.1,0.2,0.2c0.1,0.1,0.2,0.2,0.3,0.4c0.1,0.2,0.2,0.4,0.1,0.6
				c0,0.3,0,0.6-0.1,0.9c-1.3-0.1-2.6-0.1-3.9-0.2c0-0.3,0-0.6,0-0.9c0-0.2,0.1-0.4,0.2-0.6c0.1-0.1,0.2-0.3,0.4-0.3
				c0.1-0.1,0.1-0.1,0.1-0.2c0-0.1,0.1-0.1,0.1-0.2c0,0,0,0,0,0c0.1-3.6,0.2-7.2,0.3-10.8c0-0.1,0-0.2-0.1-0.3
				c0-0.1-0.1-0.1-0.2-0.2c-0.1-0.1-0.2-0.2-0.4-0.4c-0.1-0.2-0.2-0.3-0.2-0.6c0-0.3,0-0.6,0-0.9c1.5,0,3,0.1,4.5,0.2
				c0,0.3,0,0.6-0.1,0.9c0,0.2-0.1,0.4-0.2,0.6c-0.1,0.1-0.3,0.3-0.4,0.3c-0.1,0.1-0.1,0.1-0.2,0.2c0,0.1-0.1,0.1-0.1,0.3
				C23.6,324.2,23.4,327.8,23.2,331.4z"/>
		</g>
		<g>
			<path class="st0" d="M41.6,320.5c-0.1,0.3-0.1,0.6-0.2,0.8c0,0.2-0.1,0.4-0.2,0.5c-0.1,0.2-0.2,0.3-0.4,0.4
				c-0.1,0-0.1,0.1-0.2,0.1c0,0-0.1,0.1-0.1,0.2c-0.8,4.1-1.6,8.2-2.4,12.4c0,0.1-0.1,0.2-0.2,0.3c-0.1,0.1-0.2,0.1-0.4,0.1
				c-0.4-0.1-0.8-0.2-1.2-0.2c-0.2,0-0.3-0.1-0.4-0.3c-0.1-0.2-0.1-0.4-0.2-0.6c0-0.1-0.1-0.3-0.2-0.7c-0.1-0.4-0.2-0.9-0.3-1.4
				c-0.1-0.6-0.3-1.1-0.4-1.8c-0.2-0.6-0.3-1.2-0.4-1.7c-0.1-0.5-0.2-1-0.3-1.3c-0.1-0.4-0.1-0.5-0.1-0.5c0,0,0,0,0-0.1
				c0,0,0,0,0,0.1c-0.3,1.9-0.5,3.8-0.8,5.6c0,0.1,0,0.2,0,0.3c0,0.1,0.1,0.1,0.1,0.2c0.1,0.1,0.2,0.2,0.3,0.4
				c0.1,0.2,0.1,0.4,0.1,0.6c0,0.3-0.1,0.6-0.1,0.8c-1.3-0.2-2.6-0.4-3.9-0.5c0-0.3,0.1-0.6,0.1-0.9c0-0.2,0.1-0.4,0.2-0.5
				c0.1-0.2,0.3-0.3,0.4-0.4c0.1-0.1,0.1-0.1,0.2-0.2c0,0,0.1-0.1,0.1-0.2c0.4-3.6,0.9-7.3,1.3-10.9c-0.2-0.1-0.3-0.1-0.4-0.3
				c-0.1-0.1-0.2-0.2-0.2-0.4c-0.1-0.2-0.1-0.4-0.1-0.6c0-0.3,0.1-0.6,0.1-0.9c0.7,0.1,1.4,0.2,2.1,0.3c0.2,0,0.4,0.1,0.6,0.2
				c0.2,0.1,0.4,0.3,0.4,0.7c0,0,0.1,0.2,0.2,0.6c0.1,0.4,0.2,0.8,0.4,1.4c0.1,0.5,0.3,1.1,0.5,1.8c0.2,0.6,0.3,1.3,0.5,1.9
				c0.2,0.6,0.3,1.1,0.4,1.6c0.1,0.5,0.2,0.8,0.2,1c0,0,0,0,0,0c0,0,0-0.1,0-0.1c0.3-2,0.7-4,1-6c0-0.1,0-0.2,0-0.3
				c0-0.1-0.1-0.1-0.1-0.2c-0.1-0.1-0.2-0.2-0.3-0.4c-0.1-0.2-0.1-0.4-0.1-0.6c0-0.3,0.1-0.6,0.1-0.8
				C38.9,320,40.3,320.3,41.6,320.5z"/>
		</g>
		<g>
			<path class="st0" d="M53.7,337.9c0.1,0.1,0.2,0.2,0.2,0.4c0.1,0.2,0,0.4,0,0.6c-0.1,0.3-0.2,0.5-0.3,0.8
				c-1.2-0.4-2.5-0.9-3.7-1.3c0.1-0.2,0.1-0.5,0.2-0.7c0.1-0.2,0.1-0.4,0.2-0.5c0.1-0.1,0.2-0.2,0.3-0.2c0.1-0.1,0.2-0.1,0.2-0.2
				c0.1-0.1,0.1-0.1,0.2-0.3c0-0.4,0.1-0.7,0.1-0.9c0-0.2,0.1-0.4,0.1-0.6c0-0.1,0-0.3,0-0.3c0-0.1-0.1-0.1-0.2-0.2
				c-0.1,0-0.1,0-0.2-0.1c-0.6-0.2-1.2-0.4-1.8-0.5c-0.1,0-0.2-0.1-0.3,0c-0.1,0-0.1,0.1-0.2,0.2c0,0.1-0.1,0.2-0.1,0.3
				c-0.1,0.2-0.1,0.3-0.2,0.5c-0.1,0.2-0.2,0.4-0.3,0.7c0,0.1,0,0.3,0,0.3c0,0.1,0.1,0.2,0.1,0.3c0,0.1,0,0.2,0.1,0.3
				c0,0.1,0,0.3-0.1,0.5c-0.1,0.2-0.1,0.5-0.2,0.7c-1.2-0.4-2.5-0.7-3.7-1c0.1-0.3,0.1-0.5,0.2-0.8c0.1-0.2,0.1-0.3,0.2-0.4
				c0.1-0.1,0.2-0.2,0.3-0.2c0.1-0.1,0.2-0.1,0.3-0.2c0.1-0.1,0.2-0.1,0.3-0.2c0.8-1.6,1.7-3.3,2.6-4.9c0.3-0.6,0.7-1.2,1-1.8
				c0.3-0.6,0.6-1.1,0.9-1.6c0.3-0.5,0.5-0.8,0.6-1.1c0.2-0.3,0.2-0.4,0.3-0.4c0,0,0-0.1,0-0.1c0-0.1,0-0.2,0-0.3
				c-0.1-0.1-0.1-0.2-0.2-0.3c-0.1-0.1-0.1-0.2-0.1-0.4c0-0.2,0-0.4,0.1-0.6c0.1-0.2,0.1-0.5,0.2-0.7c0.8,0.2,1.5,0.4,2,0.6
				c0.5,0.1,0.9,0.3,1.2,0.4c0.3,0.1,0.5,0.3,0.6,0.5c0.1,0.2,0.2,0.4,0.2,0.7c0,0.1,0,0.3,0,0.7c0,0.4-0.1,0.9-0.1,1.5
				c0,0.6-0.1,1.3-0.2,2c-0.1,0.7-0.1,1.5-0.2,2.3c-0.2,1.8-0.4,3.8-0.7,6.1c0,0.1,0,0.2,0,0.3C53.6,337.7,53.7,337.8,53.7,337.9z
				 M51.4,332.7c0.2,0.1,0.3,0,0.3-0.1c0.1-1,0.2-1.9,0.3-2.9c0-0.4,0.1-0.7,0.1-1.1c0-0.3,0.1-0.7,0.1-0.9c0-0.3,0.1-0.5,0.1-0.7
				c0-0.2,0-0.3,0-0.3c0,0,0,0,0,0c0,0-0.1,0.1-0.2,0.4c-0.1,0.2-0.3,0.5-0.5,0.9c-0.2,0.4-0.4,0.8-0.6,1.2
				c-0.2,0.4-0.4,0.8-0.6,1.2c-0.2,0.4-0.4,0.7-0.5,1c-0.1,0.3-0.2,0.4-0.2,0.5c0,0.1,0,0.1,0,0.2c0,0,0.1,0.1,0.3,0.1
				c0.2,0.1,0.5,0.1,0.7,0.2C50.9,332.6,51.2,332.6,51.4,332.7z"/>
		</g>
		<g>
			<path class="st0" d="M67.7,342.6c-0.4,0.7-0.7,1.4-1.1,2.2c-0.1,0.1-0.2,0.2-0.3,0.3c-0.1,0-0.3,0-0.4,0
				c-2.2-1.1-4.4-2.1-6.6-3.1c0.1-0.3,0.2-0.5,0.3-0.8c0.1-0.3,0.2-0.5,0.4-0.6c0.1-0.1,0.3-0.2,0.5-0.2c0.1,0,0.2,0,0.2-0.1
				c0.1,0,0.1-0.1,0.2-0.2c1.4-3.3,2.8-6.6,4.3-9.9c0-0.1,0.1-0.2,0-0.3c0-0.1-0.1-0.1-0.1-0.2c-0.1-0.1-0.2-0.3-0.2-0.5
				c-0.1-0.2,0-0.4,0-0.6c0.1-0.3,0.2-0.5,0.3-0.8c1.4,0.6,2.8,1.2,4.2,1.8c-0.1,0.3-0.2,0.5-0.4,0.8c-0.1,0.2-0.2,0.4-0.4,0.4
				c-0.2,0.1-0.3,0.1-0.5,0.2c-0.1,0-0.2,0-0.2,0.1c-0.1,0-0.1,0.1-0.2,0.2c-1.5,3.3-3,6.6-4.5,9.9c-0.1,0.2,0,0.3,0.2,0.4
				c0.5,0.2,1,0.5,1.6,0.7c0.2,0.1,0.4,0.1,0.5,0c0.1-0.1,0.3-0.2,0.6-0.3c0.2-0.1,0.5-0.1,0.8,0.1
				C67.1,342.3,67.4,342.4,67.7,342.6z"/>
		</g>
	</g>
</g>
<g>
	<g>
		<g>
			<path class="st0" d="M-14.2,453.8c-0.1,0.3-0.2,0.5-0.3,0.8c-0.1,0.2-0.2,0.4-0.4,0.5c-0.2,0.1-0.3,0.2-0.4,0.2
				c-0.1,0-0.2,0-0.2,0.1c-0.1,0-0.1,0.1-0.2,0.2c-1.3,2-2.4,3.8-3.5,5.4c-0.5,0.7-0.9,1.3-1.3,2c-0.4,0.6-0.8,1.2-1.2,1.7
				c-0.3,0.5-0.6,0.9-0.8,1.2c-0.2,0.3-0.3,0.5-0.3,0.5c-0.1,0.1-0.2,0.1-0.3,0.2c-0.1,0.1-0.2,0-0.4,0c-0.9-0.4-1.8-0.8-2.7-1.2
				c-0.2-0.1-0.3-0.2-0.3-0.3c0-0.1-0.1-0.3,0-0.5c1-4.1,2-8.3,3.2-12.3c0-0.1,0-0.2,0-0.3c0-0.1-0.1-0.1-0.1-0.2
				c-0.1-0.1-0.1-0.3-0.2-0.4c0-0.2,0-0.4,0.1-0.6c0.1-0.3,0.3-0.5,0.4-0.8c1.2,0.6,2.4,1.2,3.5,1.7c-0.1,0.3-0.2,0.5-0.4,0.8
				c-0.1,0.2-0.2,0.4-0.4,0.5c-0.1,0.1-0.3,0.2-0.4,0.2c-0.1,0-0.2,0.1-0.3,0.3c-1,3.5-2,7-2.9,10.5c2-3,4-6.1,5.9-9.2
				c0.1-0.2,0.1-0.4,0-0.5c-0.1-0.1-0.1-0.3-0.2-0.4c0-0.2,0-0.4,0.1-0.6c0.1-0.3,0.2-0.5,0.3-0.8
				C-16.7,452.8-15.5,453.3-14.2,453.8z"/>
		</g>
		<g>
			<path class="st0" d="M-9.9,469c0,0.1,0,0.2,0,0.3c0,0.1,0.1,0.1,0.1,0.2c0.1,0.1,0.2,0.3,0.3,0.4c0.1,0.2,0.1,0.4,0,0.6
				c-0.1,0.3-0.1,0.6-0.2,0.8c-1.5-0.4-3-0.8-4.4-1.3c0.1-0.3,0.2-0.5,0.3-0.8c0.1-0.2,0.2-0.4,0.4-0.5c0.2-0.1,0.3-0.2,0.5-0.2
				c0.1,0,0.1-0.1,0.2-0.1c0.1,0,0.1-0.1,0.2-0.2c0,0,0,0,0,0c1.1-3.4,2.1-6.9,3.2-10.3c0-0.1,0-0.2,0-0.3c0-0.1-0.1-0.1-0.1-0.2
				c-0.1-0.1-0.2-0.3-0.2-0.4c-0.1-0.2-0.1-0.4,0-0.6c0.1-0.3,0.2-0.6,0.3-0.8c1.3,0.4,2.5,0.8,3.8,1.1c-0.1,0.3-0.2,0.6-0.2,0.8
				c-0.1,0.2-0.2,0.4-0.3,0.5c-0.2,0.1-0.3,0.2-0.4,0.2c-0.1,0-0.2,0.1-0.2,0.1c0,0-0.1,0.1-0.1,0.3C-8,462-8.9,465.5-9.9,469z"/>
		</g>
		<g>
			<path class="st0" d="M8,459.2c0,0.3-0.1,0.6-0.1,0.9c0,0.2-0.1,0.4-0.1,0.5c0,0.2-0.2,0.3-0.3,0.4c-0.1,0-0.1,0.1-0.2,0.1
				c0,0-0.1,0.1-0.1,0.2c-0.5,4.2-1,8.3-1.4,12.5c0,0.1-0.1,0.2-0.2,0.3c-0.1,0.1-0.2,0.1-0.4,0.1c-0.5-0.1-0.9-0.1-1.4-0.2
				c-0.2,0-0.4-0.1-0.5-0.3c-0.1-0.2-0.2-0.4-0.2-0.6c0-0.1-0.1-0.3-0.2-0.7c-0.1-0.4-0.3-0.9-0.4-1.4c-0.2-0.6-0.3-1.1-0.5-1.8
				c-0.2-0.6-0.3-1.2-0.5-1.7c-0.1-0.5-0.2-1-0.3-1.3c-0.1-0.4-0.1-0.5-0.1-0.6c0,0,0,0,0-0.1c0,0,0,0,0,0.1c-0.3,1.9-0.7,3.7-1,5.6
				c0,0.1,0,0.2,0,0.3c0,0.1,0.1,0.1,0.1,0.2c0.1,0.1,0.2,0.2,0.3,0.4c0.1,0.2,0.1,0.4,0.1,0.6c0,0.3-0.1,0.6-0.1,0.8
				c-1.5-0.3-3-0.5-4.5-0.8c0.1-0.3,0.1-0.6,0.2-0.8c0-0.2,0.1-0.3,0.3-0.5c0.1-0.1,0.3-0.2,0.5-0.3c0.1-0.1,0.2-0.1,0.2-0.1
				c0,0,0.1-0.1,0.1-0.2c0.7-3.6,1.5-7.2,2.2-10.8c-0.1-0.1-0.2-0.2-0.3-0.3c-0.1-0.1-0.1-0.2-0.2-0.4c0-0.2,0-0.4,0-0.6
				c0.1-0.3,0.1-0.6,0.2-0.9c0.6,0.1,1.2,0.2,1.8,0.4c0.2,0,0.3,0.1,0.5,0.2c0.2,0.1,0.3,0.3,0.4,0.7c0,0,0.1,0.2,0.1,0.6
				c0.1,0.4,0.2,0.8,0.3,1.4c0.1,0.5,0.3,1.1,0.4,1.8c0.2,0.6,0.3,1.3,0.5,1.9c0.2,0.6,0.3,1.1,0.4,1.6c0.1,0.5,0.2,0.8,0.2,1
				c0,0,0,0,0,0c0,0,0-0.1,0-0.1c0.3-2,0.6-4,0.9-6.1c0-0.1,0-0.2,0-0.3c0-0.1-0.1-0.1-0.1-0.2c-0.1-0.1-0.2-0.2-0.3-0.4
				c-0.1-0.2-0.1-0.4-0.1-0.6c0-0.3,0.1-0.6,0.1-0.8C5.5,458.9,6.8,459,8,459.2z"/>
		</g>
		<g>
			<path class="st0" d="M21.2,459.8c0.2,0.1,0.2,0.4,0.3,0.7c0,0.3,0,0.6,0,0.9c0,0.3,0,0.7,0,1c-0.3,0-0.6,0-1,0
				c-0.4,0-0.7-0.2-0.9-0.5c-0.1-0.1-0.2-0.2-0.3-0.2c-0.1,0-0.2,0-0.3,0c-0.1,0-0.3,0-0.4,0c-0.1,0-0.2,0-0.2,0.1
				c-0.1,0.1-0.1,0.1-0.1,0.3c0,3.6,0,7.2,0.1,10.7c0,0.1,0,0.2,0.1,0.3c0,0.1,0.1,0.1,0.2,0.1c0.1,0.1,0.3,0.2,0.4,0.3
				s0.2,0.3,0.2,0.6c0,0.3,0,0.6,0,0.9c-1.5,0-3,0-4.5,0c0-0.3,0-0.6,0-0.9c0-0.2,0.1-0.4,0.2-0.6c0.1-0.1,0.3-0.3,0.4-0.3
				c0.1,0,0.1-0.1,0.2-0.1c0-0.1,0.1-0.1,0.1-0.3c0.1-3.6,0.1-7.2,0.2-10.8c0-0.1,0-0.2-0.1-0.2c-0.1,0-0.1-0.1-0.2-0.1
				c-0.1,0-0.2,0-0.4,0c-0.1,0-0.1,0-0.3,0.1c-0.1,0-0.2,0.1-0.3,0.2c-0.1,0.2-0.2,0.3-0.3,0.4c-0.1,0.1-0.3,0.1-0.7,0.1
				c-0.3,0-0.7,0-1,0c0-0.4,0-0.7,0.1-1.1c0-0.3,0-0.5,0-0.8c0-0.3,0.1-0.5,0.2-0.7c0.1-0.2,0.4-0.2,0.7-0.2c2.2,0.1,4.5,0.1,6.7,0
				C20.8,459.6,21.1,459.7,21.2,459.8z"/>
		</g>
		<g>
			<path class="st0" d="M36.2,471.6c0.1,0,0.3,0.1,0.4,0.3c0.1,0.1,0.2,0.3,0.3,0.5c0,0.3,0.1,0.5,0.1,0.8c-1.5,0.3-3,0.5-4.5,0.7
				c0-0.2-0.1-0.5-0.1-0.7c0-0.2,0-0.4,0-0.5c0-0.1,0.1-0.2,0.2-0.3c0.1-0.1,0.1-0.2,0.2-0.3c0.1-0.1,0.1-0.2,0.1-0.3
				c-0.1-0.4-0.2-0.6-0.3-0.9c-0.1-0.2-0.1-0.4-0.2-0.6c-0.1-0.1-0.1-0.2-0.2-0.3c-0.1-0.1-0.2-0.1-0.3-0.1c-0.1,0-0.1,0-0.2,0
				c-0.7,0.1-1.3,0.2-2,0.3c-0.1,0-0.2,0-0.3,0.1c-0.1,0-0.1,0.1-0.1,0.2c0,0.1,0,0.2,0,0.4c0,0.2,0,0.4,0,0.6c0,0.2,0,0.5,0,0.7
				c0,0.1,0.1,0.3,0.1,0.3c0.1,0.1,0.1,0.1,0.2,0.2c0.1,0.1,0.1,0.2,0.2,0.3c0.1,0.1,0.1,0.3,0.1,0.5c0,0.2,0.1,0.5,0.1,0.7
				c-1.5,0.2-3,0.3-4.5,0.4c0-0.3,0-0.5-0.1-0.8c0-0.2,0-0.4,0.1-0.5c0.1-0.1,0.2-0.2,0.2-0.3c0.1-0.1,0.2-0.2,0.3-0.3
				c0.1-0.1,0.2-0.2,0.2-0.3c0.3-1.8,0.6-3.7,0.8-5.5c0.1-0.7,0.2-1.3,0.3-2c0.1-0.7,0.2-1.3,0.2-1.8c0.1-0.5,0.1-0.9,0.2-1.3
				c0-0.3,0.1-0.5,0.1-0.5c0,0,0-0.1,0-0.1c0-0.1-0.1-0.2-0.1-0.3c-0.1-0.1-0.2-0.1-0.2-0.2c-0.1-0.1-0.2-0.2-0.2-0.3
				c-0.1-0.1-0.1-0.3-0.2-0.6c0-0.2-0.1-0.5-0.1-0.7c0.7-0.1,1.3-0.2,1.8-0.2c0.5-0.1,0.8-0.1,1.1-0.1c0.3,0,0.5,0.1,0.7,0.2
				c0.2,0.1,0.3,0.3,0.4,0.5c0,0.1,0.1,0.3,0.2,0.6c0.1,0.4,0.3,0.8,0.5,1.4c0.2,0.6,0.5,1.2,0.7,1.9c0.3,0.7,0.6,1.4,0.8,2.1
				c0.7,1.7,1.5,3.6,2.4,5.7c0.1,0.1,0.1,0.2,0.2,0.2C36.1,471.5,36.1,471.6,36.2,471.6z M31.5,468.1c0.2,0,0.3-0.1,0.2-0.3
				c-0.3-0.9-0.6-1.8-0.9-2.7c-0.1-0.3-0.2-0.7-0.3-1c-0.1-0.3-0.2-0.6-0.3-0.9c-0.1-0.3-0.2-0.5-0.2-0.6c-0.1-0.2-0.1-0.3-0.1-0.3
				c0,0,0,0,0,0c0,0,0,0.2,0,0.4c0,0.3,0,0.6,0,1c0,0.4,0,0.9-0.1,1.4c0,0.5-0.1,1-0.1,1.4c0,0.4-0.1,0.8-0.1,1.1c0,0.3,0,0.5,0,0.5
				c0,0.1,0,0.2,0.1,0.2c0,0,0.1,0,0.3,0c0.3,0,0.5-0.1,0.8-0.1C30.9,468.2,31.2,468.2,31.5,468.1z"/>
		</g>
		<g>
			<path class="st0" d="M51.4,469.3c0,0.1,0,0.2-0.2,0.3c-0.2,0.1-0.4,0.1-0.6,0.2c-0.1,0-0.1,0-0.2,0c-0.1,0-0.1,0-0.1-0.1
				c-0.2-0.2-0.4-0.2-0.5-0.2c-0.1,0-0.2,0.1-0.3,0.2c-0.3,0.2-0.6,0.5-0.9,0.7c-0.4,0.2-0.8,0.4-1.2,0.5c-0.6,0.2-1.1,0.2-1.7,0.2
				c-0.6,0-1.1-0.1-1.6-0.3c-0.5-0.2-0.9-0.4-1.2-0.8c-0.3-0.3-0.6-0.8-0.7-1.3c-0.7-2.9-1.4-5.9-2.2-8.8c-0.1-0.5-0.1-1,0-1.4
				c0.1-0.4,0.3-0.8,0.6-1.2c0.3-0.4,0.6-0.7,1-0.9c0.4-0.3,0.9-0.5,1.4-0.6c0.5-0.1,1-0.2,1.5-0.2c0.5,0,1,0.1,1.4,0.2
				c0.4,0.2,0.8,0.4,1.1,0.7c0.3,0.3,0.6,0.7,0.7,1.2c0.2,0.5,0.3,1,0.5,1.5c-0.5,0.2-1,0.3-1.5,0.5c-0.2,0.1-0.5,0.1-0.8,0
				c-0.3-0.1-0.5-0.3-0.6-0.7c0-0.1,0-0.2-0.1-0.2c-0.2-0.5-0.4-0.8-0.7-1c-0.3-0.2-0.6-0.2-1-0.1c-0.4,0.1-0.7,0.3-0.8,0.6
				c-0.2,0.3-0.2,0.7,0,1.2c0.8,2.8,1.5,5.5,2.3,8.3c0.1,0.5,0.4,0.9,0.7,1c0.3,0.2,0.7,0.2,1.2,0.1c0.4-0.1,0.7-0.3,1-0.7
				c0.2-0.3,0.3-0.7,0.1-1.2c-0.2-0.7-0.4-1.4-0.7-2.2c-0.1-0.3-0.2-0.4-0.5-0.4c-0.2,0-0.4,0-0.5-0.1c-0.1-0.1-0.2-0.4-0.3-0.7
				c-0.1-0.2-0.1-0.5-0.2-0.7c0.9-0.3,1.9-0.6,2.8-0.9c0.2-0.1,0.4-0.1,0.6,0.1c0.2,0.1,0.3,0.3,0.3,0.4
				C49.9,464.8,50.7,467,51.4,469.3z"/>
		</g>
		<g>
			<path class="st0" d="M55.7,453.6c0,0.1,0,0.2,0,0.2c0.5,1.2,1.1,2.4,1.6,3.5c0.1,0.2,0.2,0.2,0.4,0.1c0.8-0.4,1.6-0.7,2.4-1.1
				c0.1,0,0.2,0,0.3,0c0.1,0,0.2,0.1,0.2,0.2c0.2,0.4,0.4,0.9,0.6,1.3c0.1,0.2,0,0.3-0.2,0.4c-0.8,0.4-1.7,0.8-2.5,1.2
				c-0.2,0.1-0.3,0.2-0.2,0.4c0.6,1.3,1.2,2.6,1.8,4c0,0.1,0.1,0.1,0.2,0.2c0.1,0,0.2,0,0.3,0c0.7-0.3,1.3-0.6,2-0.9
				c0.1-0.1,0.2-0.2,0.2-0.4c-0.1-0.3,0-0.6,0.2-0.8c0.2-0.2,0.4-0.4,0.8-0.6c0.3-0.1,0.5-0.3,0.8-0.4c0.4,0.7,0.7,1.4,1.1,2.2
				c0.1,0.1,0.1,0.3,0,0.4c-0.1,0.1-0.2,0.3-0.4,0.3c-0.5,0.2-0.9,0.5-1.4,0.7c-1.6,0.8-3.2,1.5-4.8,2.2c-0.5,0.2-0.9,0.4-1.4,0.6
				c-0.1-0.3-0.2-0.5-0.3-0.8c-0.1-0.3-0.2-0.5-0.1-0.7c0-0.2,0.1-0.3,0.2-0.5c0.1-0.1,0.1-0.1,0.1-0.2c0-0.1,0-0.2,0-0.3
				c-1.4-3.3-2.7-6.6-4.1-9.9c-0.1-0.2-0.2-0.3-0.5-0.3c-0.1,0-0.3-0.1-0.4-0.2c-0.1-0.1-0.2-0.3-0.3-0.5c-0.1-0.3-0.2-0.5-0.3-0.8
				c2.2-0.9,4.3-1.8,6.4-2.9c0.1-0.1,0.3-0.1,0.5-0.1c0.2,0,0.3,0.1,0.4,0.2c0.3,0.7,0.7,1.4,1,2.1c-0.3,0.1-0.5,0.3-0.8,0.4
				c-0.3,0.1-0.5,0.2-0.8,0.1c-0.2,0-0.4-0.1-0.5-0.2c-0.1-0.1-0.3-0.1-0.5,0c-0.6,0.3-1.1,0.5-1.7,0.8
				C55.8,453.5,55.7,453.6,55.7,453.6z"/>
		</g>
	</g>
</g>
<path class="st0" d="M39.2,347.7c-6.2-0.6-12-0.2-17.4,1.4c-1.4,0.4-2.1,0.4-3.6,0c-5.4-1.6-11.2-2-17.4-1.4
	c-2.5,0.3-3.1,1.5-2.1,3.8c0.4,0.9,0.9-0.1,1.4,2c0,0.2,0.8,2.8,1,3.9c0.8,3.2,3.5,5,7.6,5c6.1,0,7.6-2.3,9.4-6.8
	c0.6-1.5,1.2-2.8,1.9-2.9c0.8,0,1.3,1.3,2,2.9c1,2.4,2.1,5.3,5.2,6.2c4.9,1.4,10.6,0.6,11.9-4.4c0.3-1.1,1-3.8,1-3.9
	c0.4-2,1-1.1,1.4-2C42.3,349.1,41.7,347.9,39.2,347.7z M24.1,350.8c3.6-1.6,7.3-2.2,11.2-1.2c1.7,0.5,2.5,1.6,2.5,3.3
	c-0.3,7.6-3.2,7.7-8.4,7.4c-4.4-0.9-4.3-1.3-5.2-4.5C23,351.9,22.9,351.4,24.1,350.8z M15.3,357.5c-0.6,2-1.9,2.3-4.7,2.8
	c-5.7,0.5-8.2-0.1-8.4-7.3c-0.1-1.8,0.7-2.9,2.5-3.3c3.8-1,7.5-0.4,11.2,1.2C17.3,351.5,16.9,352.1,15.3,357.5z"/>
<g>
	<g>
		<path class="st0" d="M-9.1,430.4c0,0,0,0.1,0,0.1v2.1c0,0.1,0.1,0.2,0.2,0.2h1.3c0,0,0.1,0,0.1,0s0.1,0.1,0.1,0.1v0.8
			c0,0.1-0.1,0.2-0.2,0.2H-9c-0.1,0-0.2,0.1-0.2,0.2v2.3c0,0.1,0,0.1,0.1,0.1c0,0,0.1,0,0.1,0h0.9c0.1,0,0.1,0,0.1-0.1
			c0-0.2,0.1-0.3,0.2-0.3s0.2-0.1,0.4-0.1h0.4v1.3c0,0.1,0,0.1-0.1,0.2c-0.1,0.1-0.1,0.1-0.2,0.1h-0.7h-2.3h-0.7V437
			c0-0.2,0-0.3,0.1-0.4c0-0.1,0.1-0.1,0.2-0.2c0,0,0.1,0,0.1-0.1c0,0,0-0.1,0-0.1v-5.7c0-0.1-0.1-0.2-0.2-0.3
			c-0.1,0-0.1-0.1-0.2-0.2c0-0.1-0.1-0.2-0.1-0.3v-0.5h3.6c0.1,0,0.2,0,0.2,0.1c0.1,0.1,0.1,0.1,0.1,0.2v1.2h-0.4
			c-0.2,0-0.3,0-0.4-0.1c-0.1-0.1-0.1-0.1-0.2-0.2c0-0.1-0.1-0.1-0.2-0.1L-9.1,430.4C-9.1,430.3-9.1,430.4-9.1,430.4z"/>
	</g>
	<g>
		<path class="st0" d="M-2.7,431.7c0,0.1,0.1,0.3,0.2,0.4c0.1,0.1,0.3,0.2,0.5,0.4c0.2,0.1,0.4,0.2,0.6,0.4s0.4,0.3,0.6,0.4
			c0.2,0.2,0.3,0.4,0.5,0.6c0.1,0.2,0.2,0.5,0.2,0.8v1.3c0,0.3-0.1,0.5-0.2,0.7c-0.1,0.2-0.3,0.4-0.4,0.5c-0.2,0.1-0.4,0.2-0.6,0.3
			c-0.2,0.1-0.5,0.1-0.8,0.1s-0.5,0-0.8-0.1c-0.2-0.1-0.4-0.2-0.6-0.3s-0.3-0.3-0.4-0.5c-0.1-0.2-0.2-0.4-0.2-0.7v-1h0.7
			c0.2,0,0.3,0.1,0.4,0.2s0.1,0.3,0.1,0.4v0.5c0,0.1,0.1,0.2,0.2,0.3c0.1,0.1,0.3,0.1,0.5,0.1c0.1,0,0.2,0,0.3,0
			c0.1,0,0.2-0.1,0.2-0.1c0.1,0,0.1-0.1,0.2-0.2c0-0.1,0.1-0.1,0.1-0.2v-1.2c0-0.2-0.1-0.4-0.2-0.6s-0.3-0.3-0.5-0.4
			c-0.2-0.1-0.4-0.2-0.6-0.3c-0.2-0.1-0.4-0.2-0.6-0.4s-0.4-0.3-0.5-0.6c-0.1-0.2-0.2-0.5-0.2-0.8l0-0.8c0-0.3,0-0.5,0.1-0.7
			c0.1-0.2,0.2-0.4,0.4-0.5c0.2-0.1,0.4-0.2,0.6-0.3c0.2-0.1,0.5-0.1,0.7-0.1s0.5,0,0.7,0.1s0.4,0.2,0.6,0.3s0.3,0.3,0.4,0.5
			c0.1,0.2,0.1,0.4,0.1,0.7v1h-0.6c-0.2,0-0.3-0.1-0.5-0.2c-0.1-0.1-0.2-0.3-0.2-0.5v-0.3c0-0.2-0.1-0.3-0.2-0.4
			c-0.1-0.1-0.3-0.1-0.4-0.1c-0.2,0-0.3,0-0.4,0.1s-0.2,0.2-0.2,0.3V431.7z"/>
	</g>
	<g>
		<path class="st0" d="M6.8,429.4c0.1,0.1,0.1,0.2,0.1,0.4v0.5v0.5H6.4c-0.2,0-0.4-0.1-0.5-0.3c0-0.1-0.1-0.1-0.1-0.1
			c-0.1,0-0.1,0-0.1,0H5.5c0,0-0.1,0-0.1,0c0,0,0,0.1,0,0.1v5.7c0,0.1,0,0.1,0,0.2c0,0,0,0.1,0.1,0.1c0.1,0,0.1,0.1,0.2,0.2
			c0.1,0.1,0.1,0.2,0.1,0.3v0.5h-2V437c0-0.1,0-0.2,0.1-0.3s0.1-0.1,0.2-0.2c0,0,0.1,0,0.1-0.1s0-0.1,0-0.2v-5.7
			c0-0.1,0-0.1-0.1-0.1s-0.1,0-0.1,0H3.7c0,0-0.1,0-0.1,0c-0.1,0-0.1,0.1-0.1,0.1c0,0.1-0.1,0.2-0.1,0.2c0,0.1-0.2,0.1-0.3,0.1H2.5
			v-0.6v-0.4c0-0.2,0-0.3,0.1-0.4c0.1-0.1,0.2-0.1,0.4-0.1h3.5C6.6,429.3,6.7,429.3,6.8,429.4z"/>
		<path class="st0" d="M11.8,429.3c0.6,0,1.1,0.2,1.4,0.5c0.3,0.3,0.4,0.7,0.4,1.3v4.6c0,0.5-0.1,1-0.4,1.3
			c-0.3,0.3-0.7,0.5-1.4,0.5H9.4V437c0-0.2,0-0.3,0.1-0.4c0-0.1,0.1-0.1,0.2-0.2c0.1,0,0.1-0.1,0.1-0.2v-5.7c0-0.1,0-0.2-0.1-0.3
			c-0.2-0.1-0.2-0.2-0.2-0.5v-0.5H11.8z M12.4,431c0-0.1,0-0.2,0-0.3c0-0.1,0-0.2-0.1-0.2c0-0.1-0.1-0.1-0.2-0.1
			c-0.1,0-0.2-0.1-0.3-0.1h-0.6c-0.1,0-0.1,0-0.1,0c0,0,0,0.1,0,0.1v5.7c0,0.1,0.1,0.2,0.2,0.2h0.6c0.1,0,0.2,0,0.3-0.1
			c0.1,0,0.1-0.1,0.2-0.2c0-0.1,0.1-0.1,0.1-0.2c0-0.1,0-0.2,0-0.3V431z"/>
		<path class="st0" d="M17.8,436.4v0.9c0,0.1-0.1,0.1-0.2,0.1c-0.1,0-0.3,0-0.5,0c-0.2,0-0.3,0-0.5,0c-0.1,0-0.2-0.1-0.2-0.1v0v-0.9
			c0-0.1,0.1-0.1,0.2-0.1s0.3,0,0.5,0c0.2,0,0.3,0,0.5,0C17.7,436.3,17.8,436.3,17.8,436.4z"/>
		<path class="st0" d="M28,436.3c0.1,0,0.1,0.1,0.2,0.2s0.1,0.2,0.1,0.3v0.6h-0.4h-1.3h-0.3v-0.6c0-0.1,0-0.2,0.1-0.3
			c0.1-0.1,0.1-0.1,0.2-0.2c0,0,0.1-0.1,0.1-0.1c0,0,0-0.1,0-0.1v-4.8c0-0.1,0-0.1-0.1-0.1h-0.2c0,0-0.1,0-0.1,0s-0.1,0-0.1,0
			c-0.1,0-0.2-0.1-0.3-0.2c-0.1-0.1-0.2-0.3-0.2-0.6v-0.2c0.2,0,0.4-0.1,0.6-0.2c0.2-0.1,0.3-0.2,0.4-0.5c0,0,0.1-0.1,0.2-0.2
			s0.2-0.1,0.3-0.1h0.5h0.3v0.5v6.3c0,0,0,0.1,0,0.1C27.9,436.3,27.9,436.3,28,436.3L28,436.3z"/>
	</g>
	<g>
		<path class="st0" d="M33,429.2c0.3,0,0.5,0,0.7,0.1s0.4,0.2,0.6,0.3c0.2,0.2,0.3,0.3,0.4,0.6c0.1,0.2,0.1,0.5,0.1,0.7v4.8
			c0,0.6-0.2,1-0.5,1.3c-0.3,0.3-0.8,0.5-1.3,0.5c-0.5,0-1-0.1-1.3-0.4s-0.5-0.7-0.5-1.2v-0.1c0,0,0,0,0-0.1v-0.6h0h0.7
			c0.1,0,0.2,0,0.3,0.1c0.1,0.1,0.1,0.1,0.2,0.2s0.1,0.2,0.1,0.2s0,0.1,0,0.2c0,0.1,0,0.3,0.1,0.4c0.1,0.1,0.2,0.2,0.4,0.2
			c0.2,0,0.3-0.1,0.4-0.2c0.1-0.1,0.1-0.3,0.1-0.4v-1.6c0-0.1,0-0.1-0.1-0.1c-0.1,0-0.2,0.1-0.4,0.1c-0.1,0-0.2,0-0.3,0
			c-0.5,0-0.9-0.2-1.2-0.5c-0.3-0.3-0.4-0.7-0.4-1.3v-1.6c0-0.3,0-0.5,0.1-0.7c0.1-0.2,0.2-0.4,0.4-0.6c0.2-0.2,0.4-0.3,0.6-0.3
			C32.5,429.2,32.7,429.2,33,429.2z M33.6,431.1c0-0.3,0-0.5-0.1-0.6s-0.2-0.2-0.4-0.2c-0.2,0-0.3,0.1-0.4,0.2s-0.1,0.3-0.1,0.6v1.2
			c0,0.3,0,0.5,0.1,0.6c0.1,0.1,0.2,0.2,0.4,0.2c0.2,0,0.3-0.1,0.4-0.2c0.1-0.1,0.1-0.4,0.1-0.6V431.1z"/>
	</g>
	<g>
		<path class="st0" d="M40.5,432c0.2,0,0.5,0,0.6,0.1c0.2,0.1,0.3,0.2,0.4,0.4s0.2,0.3,0.2,0.5s0.1,0.4,0.1,0.6v2.1
			c0,0.3-0.1,0.5-0.2,0.8c-0.1,0.2-0.2,0.4-0.4,0.6c-0.2,0.1-0.4,0.3-0.6,0.3c-0.2,0.1-0.5,0.1-0.8,0.1c-0.3,0-0.5,0-0.8-0.1
			c-0.2-0.1-0.4-0.2-0.6-0.3c-0.2-0.1-0.3-0.3-0.4-0.6c-0.1-0.2-0.2-0.5-0.2-0.8v-0.3l0-0.7h0.2c0.1,0,0.1,0,0.2,0
			c0.1,0,0.2,0,0.3,0c0.1,0,0.2,0,0.3,0.1c0.1,0.1,0.1,0.1,0.2,0.2c0,0.1,0.1,0.1,0.1,0.2c0,0.1,0,0.1,0,0.1v0.1v0.3
			c0,0.2,0.1,0.4,0.2,0.4s0.3,0.1,0.4,0.1c0.1,0,0.1,0,0.2,0s0.1,0,0.2-0.1c0.1,0,0.1-0.1,0.2-0.2c0-0.1,0.1-0.2,0.1-0.3l0-2.1
			c0-0.1-0.1-0.3-0.2-0.4c-0.1-0.1-0.3-0.2-0.4-0.2s-0.3,0.1-0.5,0.2s-0.2,0.2-0.2,0.4v0c0,0,0,0,0,0h-0.1c0,0-0.1,0-0.1,0
			s-0.1,0-0.2,0s-0.1,0-0.2,0c0,0-0.1,0-0.1,0c0,0-0.1,0-0.2,0c-0.1,0-0.1,0-0.2-0.1c-0.1,0-0.1-0.1-0.2-0.2c0-0.1-0.1-0.2-0.1-0.3
			c0-0.1,0-0.2,0-0.4c0-0.2,0-0.4,0-0.6c0-0.2,0-0.4,0-0.7s0-0.5,0-0.7c0-0.2,0-0.4,0-0.6c0-0.2,0-0.3,0-0.3c0-0.2,0.1-0.3,0.2-0.4
			s0.3-0.2,0.4-0.2h1.8h0.3h0.6c0.1,0,0.2,0,0.3,0.1c0,0.1,0,0.2,0,0.3v1.3h-0.5c-0.2,0-0.3,0-0.4-0.1c-0.1-0.1-0.2-0.1-0.2-0.2
			c0,0,0-0.1-0.1-0.1c0,0-0.1,0-0.2,0h-0.6h-0.1c-0.1,0-0.2,0.1-0.2,0.2c0,0,0,0.1,0,0.2c0,0.1,0,0.2,0,0.3c0,0.1,0,0.2,0,0.4
			c0,0.1,0,0.3,0,0.4c0,0.1,0,0.1,0.1,0.1c0.1,0,0.1-0.1,0.2-0.1c0.1,0,0.2,0,0.3,0c0.1,0,0.2,0,0.3,0C40.2,432,40.3,432,40.5,432
			L40.5,432z"/>
		<path class="st0" d="M46.5,429.2c0.3,0,0.5,0,0.7,0.1s0.4,0.2,0.6,0.3s0.3,0.3,0.4,0.6c0.1,0.2,0.1,0.5,0.1,0.7v4.8
			c0,0.6-0.2,1-0.5,1.3c-0.3,0.3-0.8,0.5-1.3,0.5c-0.5,0-1-0.1-1.3-0.4c-0.3-0.3-0.5-0.7-0.5-1.2v-0.1c0,0,0,0,0-0.1v-0.6h0h0.7
			c0.1,0,0.2,0,0.3,0.1s0.1,0.1,0.2,0.2s0.1,0.2,0.1,0.2s0,0.1,0,0.2c0,0.1,0,0.3,0.1,0.4c0.1,0.1,0.2,0.2,0.4,0.2
			c0.2,0,0.3-0.1,0.4-0.2c0.1-0.1,0.1-0.3,0.1-0.4v-1.6c0-0.1,0-0.1-0.1-0.1c-0.1,0-0.2,0.1-0.4,0.1c-0.1,0-0.2,0-0.3,0
			c-0.5,0-0.9-0.2-1.2-0.5c-0.3-0.3-0.4-0.7-0.4-1.3v-1.6c0-0.3,0-0.5,0.1-0.7c0.1-0.2,0.2-0.4,0.4-0.6c0.2-0.2,0.4-0.3,0.6-0.3
			S46.3,429.2,46.5,429.2z M47.1,431.1c0-0.3,0-0.5-0.1-0.6s-0.2-0.2-0.4-0.2c-0.2,0-0.3,0.1-0.4,0.2s-0.1,0.3-0.1,0.6v1.2
			c0,0.3,0,0.5,0.1,0.6c0.1,0.1,0.2,0.2,0.4,0.2c0.2,0,0.3-0.1,0.4-0.2c0.1-0.1,0.1-0.4,0.1-0.6V431.1z"/>
	</g>
</g>
<g>
	<path class="st0" d="M138.6,433.6c0,0-5,0.1-12.5,0.3c-7.5,0.2-17.5,0.4-27.5,0.6c-5,0.1-10,0.3-14.7,0.3c-4.7,0-9.1-0.1-12.8-0.3
		c-7.5-0.3-12.5-1-12.5-1v-0.3c0,0,5-0.6,12.5-1c3.8-0.2,8.1-0.3,12.8-0.3c4.7,0,9.7,0.2,14.7,0.3c10,0.2,20,0.4,27.5,0.6
		c7.5,0.2,12.5,0.3,12.5,0.3V433.6z"/>
</g>
<g>
	<path class="st0" d="M-101.1,433.3c0,0,5-0.1,12.5-0.3c7.5-0.2,17.5-0.4,27.5-0.6c5-0.1,10-0.3,14.7-0.3c4.7,0,9.1,0.1,12.8,0.3
		c7.5,0.3,12.5,1,12.5,1v0.3c0,0-5,0.6-12.5,1c-3.8,0.2-8.1,0.3-12.8,0.3c-4.7,0-9.7-0.2-14.7-0.3c-10-0.2-20-0.4-27.5-0.6
		c-7.5-0.2-12.5-0.3-12.5-0.3V433.3z"/>
</g>
<path class="st0" d="M-114.6,419.4c-1.3,0-2.6-0.2-3.8-0.6c-1.2-0.4-2.2-1-3.1-1.7c-0.9-0.7-1.6-1.7-2.1-2.8
	c-0.5-1.1-0.8-2.3-0.8-3.7v-24.2c0-1.4,0.3-2.6,0.8-3.7c0.5-1.1,1.2-2,2.1-2.8c0.9-0.7,1.9-1.3,3.1-1.7c1.2-0.4,2.5-0.6,3.8-0.6
	c1.3,0,2.6,0.2,3.8,0.6c1.2,0.4,2.2,1,3.1,1.7c0.9,0.7,1.6,1.7,2.1,2.8c0.5,1.1,0.8,2.3,0.8,3.7v4.6h-3.3c-0.9,0-1.7-0.3-2.3-0.8
	c-0.6-0.6-1-1.3-1-2.2V386c0-0.7-0.3-1.4-1-2c-0.6-0.7-1.4-1-2.4-1c-1,0-1.8,0.3-2.4,1c-0.6,0.7-0.9,1.4-0.9,2v25.5
	c0,0.6,0.3,1.2,1,1.8c0.7,0.6,1.5,0.9,2.5,0.9c0.5,0,1-0.1,1.4-0.3c0.4-0.2,0.8-0.4,1.1-0.7c0.3-0.3,0.5-0.6,0.7-0.9
	c0.2-0.3,0.2-0.7,0.2-1v-2.2c0-0.8,0.2-1.6,0.7-2.2c0.5-0.6,1.2-0.9,2.2-0.9h3.4v4.6c0,1.4-0.3,2.6-0.8,3.7c-0.5,1.1-1.2,2-2.1,2.8
	c-0.9,0.7-1.9,1.3-3.1,1.7C-112,419.2-113.2,419.4-114.6,419.4z"/>
<path class="st0" d="M-71.4,414.4c0.3,0.2,0.6,0.5,0.8,0.9s0.4,0.9,0.4,1.5v2.2h-10.1v-2c0-0.6,0.1-1.1,0.2-1.4
	c0.1-0.3,0.3-0.6,0.4-0.8c0.2-0.2,0.3-0.4,0.5-0.6s0.2-0.5,0.2-0.8c-0.2-1-0.3-1.8-0.4-2.5c-0.1-0.7-0.1-1.2-0.2-1.6
	c-0.1-0.4-0.2-0.7-0.3-0.8c-0.1-0.2-0.3-0.2-0.6-0.2h-0.4h-4.6c-0.3,0-0.6,0-0.7,0.1c-0.1,0.1-0.2,0.3-0.3,0.6c0,0.2-0.1,0.5-0.1,1
	c0,0.5-0.1,1-0.1,1.5c-0.1,0.6-0.1,1.2-0.2,1.9c0,0.4,0.1,0.7,0.2,0.9c0.1,0.2,0.3,0.4,0.4,0.6c0.1,0.2,0.3,0.5,0.4,0.8
	c0.1,0.3,0.2,0.7,0.2,1.3v2h-9.9v-2.2c0-0.5,0.1-1,0.3-1.3c0.2-0.3,0.4-0.6,0.6-0.8c0.2-0.2,0.4-0.4,0.7-0.7
	c0.2-0.2,0.4-0.5,0.5-0.8l3.1-14.4c0.4-1.8,0.7-3.5,1.1-5.3c0.4-1.7,0.7-3.3,1-4.6c0.3-1.4,0.5-2.5,0.7-3.3c0.2-0.9,0.3-1.3,0.3-1.3
	V384c0-0.3-0.1-0.5-0.2-0.7c-0.2-0.2-0.3-0.4-0.5-0.6c-0.2-0.2-0.4-0.5-0.5-0.9c-0.2-0.4-0.2-0.9-0.2-1.6v-2c1.9,0,3.5,0,4.7,0
	c1.2,0,2.2,0,2.9,0.2c0.7,0.1,1.3,0.4,1.6,0.7c0.3,0.3,0.6,0.9,0.8,1.6c0,0.1,0.2,0.7,0.4,1.7c0.2,1,0.5,2.3,0.8,3.8
	c0.3,1.5,0.7,3.3,1.1,5.2c0.4,1.9,0.8,3.9,1.2,5.9c0.9,4.7,2,10,3.3,15.9c0.1,0.3,0.2,0.5,0.3,0.7
	C-71.8,414.1-71.6,414.3-71.4,414.4z M-80.9,403.2c0.5,0,0.7-0.2,0.6-0.6l-1.3-7.5c-0.2-0.9-0.3-1.9-0.5-2.8
	c-0.1-0.9-0.3-1.7-0.4-2.5c-0.1-0.7-0.2-1.3-0.3-1.8c-0.1-0.5-0.1-0.7-0.1-0.7H-83c0,0-0.1,0.4-0.2,1.1s-0.3,1.6-0.4,2.7
	c-0.2,1.1-0.4,2.3-0.6,3.6c-0.2,1.3-0.4,2.5-0.6,3.6c-0.2,1.1-0.4,2.1-0.5,2.9c-0.1,0.8-0.2,1.3-0.2,1.4c0,0.3,0,0.4,0.1,0.5
	c0.1,0.1,0.3,0.1,0.7,0.1h1.8H-80.9z"/>
<path class="st0" d="M-41.4,411.1v6.4c0,0.4-0.1,0.8-0.4,1c-0.3,0.3-0.6,0.4-0.9,0.4h-18.4v-2.3c0-0.8,0.1-1.4,0.3-1.8
	c0.2-0.4,0.5-0.7,0.9-0.9c0.2-0.1,0.3-0.2,0.5-0.4c0.1-0.2,0.2-0.4,0.2-0.7v-28.9c0-0.3-0.1-0.6-0.2-0.7c-0.1-0.1-0.2-0.3-0.4-0.4
	c-0.3-0.2-0.6-0.5-0.9-0.9c-0.3-0.4-0.4-0.9-0.4-1.5v-2.3H-51v2.3c0,0.6-0.1,1.1-0.4,1.5c-0.3,0.4-0.6,0.7-0.9,0.9
	c-0.2,0.1-0.3,0.2-0.4,0.4c-0.1,0.1-0.1,0.4-0.1,0.8v29c0,0.5,0.3,0.8,0.8,0.8h4.3c0.5,0,0.9-0.2,1.1-0.7c0.2-0.4,0.5-0.8,0.9-1.3
	c0.4-0.5,1.1-0.8,1.9-0.8H-41.4z"/>
<path class="st0" d="M-23.9,413.1c0,0.4,0,0.6,0.1,0.8c0.1,0.1,0.2,0.3,0.4,0.4c0.3,0.2,0.6,0.5,0.9,0.9c0.3,0.4,0.4,0.9,0.4,1.5
	v2.3h-10.1v-2.3c0-0.6,0.1-1.1,0.4-1.5c0.3-0.4,0.6-0.7,0.9-0.9c0.1-0.1,0.3-0.3,0.4-0.4c0.1-0.1,0.2-0.4,0.2-0.7v-0.1v-28.9
	c0-0.4-0.1-0.6-0.2-0.8c-0.1-0.1-0.2-0.3-0.4-0.4c-0.3-0.2-0.6-0.5-0.9-0.9c-0.3-0.4-0.4-0.9-0.4-1.5v-2.3h10.1v2.3
	c0,0.6-0.1,1.1-0.4,1.5c-0.3,0.4-0.6,0.7-0.9,0.9c-0.2,0.1-0.3,0.3-0.4,0.4c-0.1,0.1-0.1,0.4-0.1,0.8V413.1z"/>
<path class="st0" d="M5.4,378.6c0.3,0.3,0.5,0.7,0.5,1.1v5.9H3.7c-0.8,0-1.4-0.2-1.8-0.5c-0.4-0.4-0.7-0.7-0.9-1
	c-0.1-0.2-0.2-0.3-0.4-0.5c-0.2-0.1-0.4-0.2-0.8-0.2h-3.8c-0.3,0-0.5,0.1-0.6,0.2c-0.1,0.2-0.2,0.4-0.2,0.6v10.3
	c0,0.3,0.1,0.5,0.2,0.7c0.1,0.1,0.3,0.2,0.6,0.2h5.8c0.3,0,0.5,0.1,0.6,0.4c0.1,0.3,0.2,0.5,0.2,0.8v3.4c0,0.2-0.1,0.4-0.2,0.6
	c-0.1,0.2-0.3,0.2-0.5,0.2h-5.9c-0.2,0-0.4,0.1-0.5,0.2c-0.2,0.1-0.2,0.3-0.2,0.6v11.6c0,0.3,0,0.6,0.1,0.7c0.1,0.1,0.2,0.3,0.4,0.4
	c0.3,0.2,0.6,0.5,0.9,0.9c0.3,0.4,0.4,0.9,0.4,1.5v2.3h-10.1v-2.3c0-0.6,0.1-1.1,0.4-1.5c0.3-0.4,0.6-0.7,0.9-0.9
	c0.1-0.1,0.3-0.3,0.4-0.4c0.1-0.1,0.2-0.4,0.2-0.8v-28.8c0-0.5-0.2-0.9-0.7-1.1c-0.4-0.2-0.7-0.5-0.9-0.8c-0.2-0.4-0.3-1-0.3-1.8
	v-2.2H4.4C4.7,378.2,5,378.3,5.4,378.6z"/>
<path class="st0" d="M25.6,419.4c-1.3,0-2.6-0.2-3.8-0.5c-1.2-0.3-2.2-0.8-3.1-1.5c-0.9-0.7-1.6-1.6-2.1-2.6c-0.5-1-0.8-2.2-0.8-3.6
	v-25.3c0-1.4,0.3-2.6,0.8-3.6s1.2-1.9,2.1-2.6c0.9-0.7,1.9-1.2,3.1-1.5c1.2-0.3,2.4-0.5,3.8-0.5c1.3,0,2.6,0.2,3.8,0.5
	c1.2,0.3,2.2,0.9,3.1,1.5c0.9,0.7,1.6,1.5,2.1,2.6s0.8,2.2,0.8,3.6v25.3c0,1.4-0.3,2.6-0.8,3.6c-0.5,1-1.2,1.9-2.1,2.6
	c-0.9,0.7-1.9,1.2-3.1,1.5C28.2,419.3,27,419.4,25.6,419.4z M29.1,386.5c0-1.4-0.3-2.4-1-2.9c-0.7-0.5-1.5-0.7-2.5-0.7
	c-1,0-1.8,0.2-2.5,0.7c-0.7,0.5-1,1.4-1,2.9v24c0,1.4,0.3,2.4,1,2.9c0.7,0.5,1.5,0.8,2.5,0.8c1,0,1.9-0.3,2.5-0.8c0.7-0.6,1-1.6,1-3
	V386.5z"/>
<path class="st0" d="M66.3,413.8c0.3,0.2,0.5,0.4,0.8,0.8s0.3,0.8,0.3,1.4v2.9h-5.3c-0.9,0-1.7-0.3-2.1-0.9
	c-0.5-0.6-0.7-1.3-0.7-2.1v-12.1c0-1.1-0.2-1.8-0.6-2.3c-0.4-0.5-1.2-0.8-2.3-0.8h-2.3c-0.5,0-0.7,0.3-0.7,0.8v11.5
	c0,0.4,0,0.6,0.1,0.8c0.1,0.1,0.2,0.3,0.4,0.4c0.3,0.2,0.6,0.5,0.9,0.9c0.3,0.4,0.4,0.9,0.4,1.5v2.3H45.1v-2.3
	c0-0.6,0.1-1.1,0.4-1.5c0.3-0.4,0.6-0.7,0.9-0.9c0.1-0.1,0.3-0.2,0.4-0.4c0.1-0.1,0.2-0.4,0.2-0.7v-28.9c0-0.3,0-0.5,0-0.7
	c0-0.2-0.1-0.3-0.3-0.4c-0.3-0.2-0.6-0.5-1-0.9c-0.3-0.4-0.5-1-0.5-1.7v-2.3h11.5c1.3,0,2.6,0.2,3.7,0.7c1.1,0.5,2.1,1.1,2.8,1.9
	c0.8,0.8,1.4,1.8,1.8,2.9c0.4,1.1,0.6,2.3,0.6,3.7v5c0,1.2-0.2,2.2-0.5,3.2c-0.3,1-0.9,1.8-1.6,2.4c-0.4,0.4-0.4,0.7,0.1,1.1
	c0.8,0.6,1.4,1.5,1.6,2.6c0.3,1.1,0.4,2.3,0.4,3.7v7.5c0,0.3,0.1,0.6,0.2,0.7C66,413.6,66.2,413.7,66.3,413.8z M59.5,386.9
	c0-1.1-0.3-2-1-2.6c-0.6-0.6-1.4-0.9-2.3-0.9H54c-0.4,0-0.7,0.3-0.7,0.8V395c0,0.3,0.1,0.5,0.2,0.6c0.1,0.1,0.3,0.2,0.4,0.2h2.8
	c1.1,0,1.9-0.3,2.2-0.9c0.3-0.6,0.5-1.4,0.5-2.5V386.9z"/>
<path class="st0" d="M99.6,378.2v2.3c0,0.5,0,1-0.1,1.4c-0.1,0.4-0.3,0.8-0.7,1.1c-0.1,0.1-0.3,0.3-0.4,0.4
	c-0.1,0.1-0.1,0.4-0.1,0.7v33.6c0,0.4-0.1,0.7-0.3,0.9c-0.2,0.2-0.5,0.4-0.9,0.4h-3.2c-0.5,0-0.9-0.2-1.2-0.7
	c-0.3-0.4-0.5-0.9-0.7-1.5c-0.1-0.2-0.3-0.8-0.7-1.9c-0.4-1-0.9-2.2-1.4-3.6c-0.5-1.4-1.1-2.9-1.7-4.5c-0.6-1.6-1.2-3-1.7-4.4
	c-0.5-1.3-0.9-2.5-1.3-3.4s-0.5-1.4-0.5-1.4c0-0.1,0-0.1-0.1-0.1c0,0-0.1,0.1-0.1,0.2v15.2c0,0.4,0.1,0.6,0.2,0.8
	c0.1,0.1,0.2,0.3,0.4,0.4c0.3,0.2,0.6,0.5,0.9,0.9c0.3,0.4,0.4,0.9,0.4,1.5v2.3H76.4v-2.3c0-0.5,0.1-1,0.4-1.4
	c0.3-0.4,0.6-0.8,1-1.1c0.2-0.2,0.3-0.3,0.4-0.5c0.1-0.1,0.1-0.3,0.1-0.6v-29.3c-0.4-0.1-0.7-0.3-0.9-0.5c-0.3-0.2-0.5-0.5-0.7-0.9
	c-0.2-0.4-0.3-0.9-0.3-1.5v-2.5h4.7c0.4,0,0.9,0.1,1.4,0.3c0.5,0.2,0.9,0.7,1.2,1.6c0,0.1,0.2,0.6,0.6,1.5c0.4,0.9,0.8,2.1,1.3,3.4
	c0.5,1.4,1.1,2.9,1.7,4.5c0.6,1.6,1.2,3.2,1.8,4.7c0.6,1.5,1.1,2.9,1.5,4c0.4,1.2,0.7,2,0.9,2.5c0,0.1,0.1,0.1,0.1,0
	c0-0.1,0.1-0.2,0.1-0.3v-16.3c0-0.4-0.1-0.6-0.2-0.8c-0.1-0.1-0.2-0.3-0.4-0.4c-0.3-0.2-0.6-0.5-0.9-0.9c-0.3-0.4-0.4-0.9-0.4-1.5
	v-2.3H99.6z"/>
<path class="st0" d="M116.3,413.1c0,0.4,0,0.6,0.1,0.8c0.1,0.1,0.2,0.3,0.4,0.4c0.3,0.2,0.6,0.5,0.9,0.9c0.3,0.4,0.4,0.9,0.4,1.5
	v2.3H108v-2.3c0-0.6,0.1-1.1,0.4-1.5c0.3-0.4,0.6-0.7,0.9-0.9c0.1-0.1,0.3-0.3,0.4-0.4c0.1-0.1,0.2-0.4,0.2-0.7v-0.1v-28.9
	c0-0.4-0.1-0.6-0.2-0.8c-0.1-0.1-0.2-0.3-0.4-0.4c-0.3-0.2-0.6-0.5-0.9-0.9c-0.3-0.4-0.4-0.9-0.4-1.5v-2.3h10.1v2.3
	c0,0.6-0.1,1.1-0.4,1.5c-0.3,0.4-0.6,0.7-0.9,0.9c-0.2,0.1-0.3,0.3-0.4,0.4c-0.1,0.1-0.1,0.4-0.1,0.8V413.1z"/>
<path class="st0" d="M151.9,414.4c0.3,0.2,0.6,0.5,0.8,0.9s0.4,0.9,0.4,1.5v2.2H143v-2c0-0.6,0.1-1.1,0.2-1.4
	c0.1-0.3,0.3-0.6,0.4-0.8c0.2-0.2,0.3-0.4,0.5-0.6s0.2-0.5,0.2-0.8c-0.2-1-0.3-1.8-0.4-2.5c-0.1-0.7-0.1-1.2-0.2-1.6
	c-0.1-0.4-0.2-0.7-0.3-0.8c-0.1-0.2-0.3-0.2-0.6-0.2h-0.4h-4.6c-0.3,0-0.6,0-0.7,0.1c-0.1,0.1-0.2,0.3-0.3,0.6c0,0.2-0.1,0.5-0.1,1
	c0,0.5-0.1,1-0.1,1.5c-0.1,0.6-0.1,1.2-0.2,1.9c0,0.4,0.1,0.7,0.2,0.9c0.1,0.2,0.3,0.4,0.4,0.6c0.1,0.2,0.3,0.5,0.4,0.8
	c0.1,0.3,0.2,0.7,0.2,1.3v2h-9.9v-2.2c0-0.5,0.1-1,0.3-1.3c0.2-0.3,0.4-0.6,0.6-0.8c0.2-0.2,0.4-0.4,0.7-0.7
	c0.2-0.2,0.4-0.5,0.5-0.8l3.1-14.4c0.4-1.8,0.7-3.5,1.1-5.3c0.4-1.7,0.7-3.3,1-4.6c0.3-1.4,0.5-2.5,0.7-3.3c0.2-0.9,0.3-1.3,0.3-1.3
	V384c0-0.3-0.1-0.5-0.2-0.7c-0.2-0.2-0.3-0.4-0.5-0.6c-0.2-0.2-0.4-0.5-0.5-0.9c-0.2-0.4-0.2-0.9-0.2-1.6v-2c1.9,0,3.5,0,4.7,0
	c1.2,0,2.2,0,2.9,0.2c0.7,0.1,1.3,0.4,1.6,0.7c0.3,0.3,0.6,0.9,0.8,1.6c0,0.1,0.2,0.7,0.4,1.7c0.2,1,0.5,2.3,0.8,3.8
	c0.3,1.5,0.7,3.3,1.1,5.2c0.4,1.9,0.8,3.9,1.2,5.9c0.9,4.7,2,10,3.3,15.9c0.1,0.3,0.2,0.5,0.3,0.7
	C151.5,414.1,151.7,414.3,151.9,414.4z M142.4,403.2c0.5,0,0.7-0.2,0.6-0.6l-1.3-7.5c-0.2-0.9-0.3-1.9-0.5-2.8
	c-0.1-0.9-0.3-1.7-0.4-2.5c-0.1-0.7-0.2-1.3-0.3-1.8c-0.1-0.5-0.1-0.7-0.1-0.7h-0.1c0,0-0.1,0.4-0.2,1.1s-0.3,1.6-0.4,2.7
	c-0.2,1.1-0.4,2.3-0.6,3.6c-0.2,1.3-0.4,2.5-0.6,3.6c-0.2,1.1-0.4,2.1-0.5,2.9c-0.1,0.8-0.2,1.3-0.2,1.4c0,0.3,0,0.4,0.1,0.5
	c0.1,0.1,0.3,0.1,0.7,0.1h1.8H142.4z"/>
</svg>
