<?xml version="1.0" encoding="utf-8"?>
<!-- Generator: Adobe Illustrator 19.0.0, SVG Export Plug-In . SVG Version: 6.00 Build 0)  -->
<svg version="1.1" id="Layer_1" xmlns="http://www.w3.org/2000/svg" xmlns:xlink="http://www.w3.org/1999/xlink" x="0px" y="0px"
	 viewBox="-145 302 320 190" style="enable-background:new -145 302 320 190;" xml:space="preserve">
<style type="text/css">
	.st0{fill:#575757;}
	.st1{fill:#333333;}
	.st2{fill:#FFFFFF;}
</style>
<g id="XMLID_85_">
	<g id="XMLID_86_">
		<g id="XMLID_195_">
			
				<text id="XMLID_194_" transform="matrix(1 0 0 1 -487.2578 1328.5078)" class="st1" style="font-family:'BebasNeueBold'; font-size:9.377px;">S</text>
		</g>
		<g id="XMLID_190_">
			
				<text id="XMLID_189_" transform="matrix(1 0 0 1 -481.7451 1328.5078)" class="st1" style="font-family:'BebasNeueBold'; font-size:9.377px;">A</text>
		</g>
		<g id="XMLID_134_">
			
				<text id="XMLID_133_" transform="matrix(1 0 0 1 -475.9092 1328.5078)" class="st1" style="font-family:'BebasNeueBold'; font-size:9.377px;">L</text>
		</g>
		<g id="XMLID_129_">
			<text transform="matrix(1 0 0 1 -471.0698 1328.5078)" class="st1" style="font-family:'BebasNeueBold'; font-size:9.377px;">T</text>
			<text transform="matrix(1 0 0 1 -465.8698 1328.5078)" class="st1" style="font-family:'BebasNeueBold'; font-size:9.377px;"> </text>
		</g>
		<g id="XMLID_124_">
			
				<text id="XMLID_123_" transform="matrix(1 0 0 1 -462.5274 1328.5078)" class="st1" style="font-family:'BebasNeueBold'; font-size:9.377px;">L</text>
		</g>
		<g id="XMLID_119_">
			<text transform="matrix(1 0 0 1 -457.1856 1328.5078)" class="st1" style="font-family:'BebasNeueBold'; font-size:9.377px;">A</text>
			<text transform="matrix(1 0 0 1 -451.3856 1328.5078)" class="st1" style="font-family:'BebasNeueBold'; font-size:9.377px;">K</text>
		</g>
		<g id="XMLID_114_">
			
				<text id="XMLID_113_" transform="matrix(1 0 0 1 -445.4473 1328.5078)" class="st1" style="font-family:'BebasNeueBold'; font-size:9.377px;">E</text>
		</g>
		<g id="XMLID_109_">
			<text transform="matrix(1 0 0 1 -440.0537 1328.5078)" class="st1" style="font-family:'BebasNeueBold'; font-size:9.377px;">,</text>
			<text transform="matrix(1 0 0 1 -436.4537 1328.5078)" class="st1" style="font-family:'BebasNeueBold'; font-size:9.377px;"> </text>
		</g>
		<g id="XMLID_104_">
			
				<text id="XMLID_103_" transform="matrix(1 0 0 1 -433.1055 1328.5078)" class="st1" style="font-family:'BebasNeueBold'; font-size:9.377px;">U</text>
		</g>
		<g id="XMLID_99_">
			
				<text id="XMLID_98_" transform="matrix(1 0 0 1 -427.3184 1328.5078)" class="st1" style="font-family:'BebasNeueBold'; font-size:9.377px;">T</text>
		</g>
		<g id="XMLID_94_">
			
				<text id="XMLID_93_" transform="matrix(1 0 0 1 -422.2378 1328.5078)" class="st1" style="font-family:'BebasNeueBold'; font-size:9.377px;">A</text>
		</g>
		<g id="XMLID_89_">
			
				<text id="XMLID_88_" transform="matrix(1 0 0 1 -416.4014 1328.5078)" class="st1" style="font-family:'BebasNeueBold'; font-size:9.377px;">H</text>
		</g>
	</g>
</g>
<g id="XMLID_19_">
	<g id="XMLID_32_">
		
			<text id="XMLID_31_" transform="matrix(1 0 0 1 -505.7305 1259.2949)" class="st1" style="font-family:'GearedSlab-Bold'; font-size:10.9398px;">E</text>
	</g>
	<g id="XMLID_27_">
		
			<text id="XMLID_26_" transform="matrix(1 0 0 1 -500.4683 1259.2949)" class="st1" style="font-family:'GearedSlab-Bold'; font-size:10.9398px;">S</text>
	</g>
	<g id="XMLID_22_">
		<text transform="matrix(1 0 0 1 -495.1079 1259.2949)" class="st1" style="font-family:'GearedSlab-Bold'; font-size:10.9398px;">TD</text>
		<text transform="matrix(1 0 0 1 -483.9079 1259.2949)" class="st1" style="font-family:'GearedSlab-Bold'; font-size:10.9398px;">.</text>
	</g>
</g>
<g id="XMLID_3_">
	<g id="XMLID_16_">
		
			<text id="XMLID_15_" transform="matrix(1 0 0 1 -413.002 1259.2949)" class="st1" style="font-family:'GearedSlab-Bold'; font-size:10.9398px;">1</text>
	</g>
	<g id="XMLID_11_">
		
			<text id="XMLID_10_" transform="matrix(1 0 0 1 -408.6919 1259.2949)" class="st1" style="font-family:'GearedSlab-Bold'; font-size:10.9398px;">9</text>
	</g>
	<g id="XMLID_6_">
		<text transform="matrix(1 0 0 1 -403.3096 1259.2949)" class="st1" style="font-family:'GearedSlab-Bold'; font-size:10.9398px;">5</text>
		<text transform="matrix(1 0 0 1 -397.8096 1259.2949)" class="st1" style="font-family:'GearedSlab-Bold'; font-size:10.9398px;">9</text>
	</g>
</g>
<g>
	<path class="st0" d="M-60.9,343.1c-2.8,2.8-1.5,6.1,2.3,6.1c2.9,0,5.3-2.4,7.2-5.8l11.6-20.1c-1.8,1-4.1,1.5-6.3,1.5
		c-1.1,0-3.5-0.1-4.5-0.1c-3.4,0-5.9,2.1-5.9,4.3c0,1.3,0.5,2.4,1.9,3.2l-2,2.5c-2.1-1.2-3.2-3.2-3.2-5.3c0-4.5,4.1-7.7,10-7.7
		c0.9,0,3.2,0,4.1,0c4.3,0,7.9-2,7.9-2l2.1,3.5l0,0l-12.2,21.1c-3.4,5.9-7.2,8.3-11.3,8.3c-6.1,0-9.2-6.8-4.1-11.4L-60.9,343.1z"/>
	<path class="st0" d="M-21.8,340.4c0.5,0.2,1.3,0.9,1.5,1.4c-3.3,3.9-7.2,7.5-10.6,7.5c-3.3,0-4.5-2.8-2.8-5.8l5.3-9.2
		c1.7-3-1-4.1-7.3,3.9l-6.2,10.7H-46l16.2-28.1h4.1l-6.4,11.3c2-2.1,3.9-3.1,5.7-3.1c2.3,0,4,2.3,2.1,5.4l-5.9,10.3
		c-1,1.6-0.4,2.3,0.4,2.3c1.8,0,4.6-2.7,7.6-6.1L-21.8,340.4z"/>
	<path class="st0" d="M-18.3,341.3l-0.4,0.8c-1.8,3.3-0.4,4.8,2.1,4.8c2.9,0,6.6-2.7,9.5-6.1l0.3-0.3c0.5,0.2,1.3,0.9,1.5,1.4
		c-3.3,3.9-7.9,7.5-12.5,7.5c-4.8,0-7-4-4.5-8.4l4.3-7.3c1.7-3,4.3-4.7,7.6-4.7s5.5,2.8,3.2,6.5l-0.5,1
		C-10.8,341.8-15.6,342.4-18.3,341.3z M-17.1,339.3c1.5,0.5,4.2,0.6,6.1-2.7l0.5-1c2.5-4.2-1.7-4.9-4.1-0.9L-17.1,339.3z"/>
	<path class="st0" d="M18,323.5c1.8-3.2,4.5-4.7,6.8-4.7c12.8,0,5.8,19.3-8.7,19.3c-0.9,0-1.6-0.1-2.3-0.2l-1.2,2
		c-2.5,4.2-1.9,6.9,0.9,6.9c3.2,0,5.6-2.7,7.7-6.4l0.4-0.6h4.1l-5.1,8.8c3.2-1.4,6-3.9,9.4-7.7l0.3-0.3c0.5,0.2,1.3,0.9,1.5,1.4
		c-4.5,5.1-8.6,8-12.8,9.3l-3.1,5.4c-2.9,5-8.9,4.2-8.9,0.3c0-3,3.4-5.3,8.9-7l1.1-1.8c-1.3,0.8-2.7,1.3-4.4,1.3
		c-5.8,0-6.2-5.5-3.4-10.4l1.2-2.1c-3.3-1.7-5.1-4.8-5.1-8c0-2.7,1.3-5.5,4.2-7.6l1.3,2.4c-1.7,1.4-2.6,3.2-2.6,5.1
		c0,2.3,1.3,4.5,3.6,5.8L18,323.5z M12.5,355.9l1.8-3.3c-3.1,1.2-4.1,2.5-4.1,3.4C10.2,357.2,11.6,357.4,12.5,355.9z M16,335.4
		c10.6,0,15.1-13.1,8.7-13.1c-1.2,0-2.5,0.9-3.6,3l-5.8,10.1H16z"/>
	<path class="st0" d="M39.3,336.1c0.4-0.9,0.3-1.6-0.2-2.3l-0.5-0.6c-3.2,4.4-4.7,6.4-6.8,8.7c-0.5-0.4-1.2-0.9-1.5-1.4
		c2.7-3.1,5-6.5,6.9-9.1l-0.3-0.4c-1.4-1.8-1.3-4.2,1.1-6.2l2.1,2.3c-0.9,0.8-0.9,1.6-0.2,2.4L42,332c1.3,1.6,2,3,0.5,5.5l-4.1,7.1
		c-1,1.6-0.4,2.3,0.4,2.3c1.8,0,4.6-2.7,7.6-6.1l0.3-0.3c0.5,0.2,1.3,0.9,1.5,1.4c-3.3,3.9-7.2,7.5-10.6,7.5c-3.3,0-4.5-2.8-2.8-5.8
		L39.3,336.1z"/>
	<path class="st0" d="M50.4,341.3l-0.4,0.8c-1.8,3.3-0.4,4.8,2.1,4.8c2.9,0,6.6-2.7,9.5-6.1l0.3-0.3c0.5,0.2,1.3,0.9,1.5,1.4
		c-3.3,3.9-7.9,7.5-12.5,7.5c-4.8,0-7-4-4.5-8.4l4.3-7.3c1.7-3,4.3-4.7,7.6-4.7s5.5,2.8,3.2,6.5l-0.5,1
		C57.9,341.8,53,342.4,50.4,341.3z M51.6,339.3c1.5,0.5,4.2,0.6,6.1-2.7l0.5-1c2.5-4.2-1.7-4.9-4.1-0.9L51.6,339.3z"/>
	<path class="st0" d="M81,340.4c0.5,0.2,1.3,0.9,1.5,1.4c-3.3,3.9-7.2,7.5-10.6,7.5c-2,0-3.3-1.1-3.5-2.7c-1.9,1.6-4,2.7-5.6,2.7
		c-3.3,0-4.5-2.8-2.8-5.8l5.7-9.9c1.7-3,4.7-4.7,7-4.7c2.7,0,4.4,2.4,4.3,4.1h2.3l-6.5,11.5c-1,1.6-0.4,2.3,0.4,2.3
		c1.8,0,4.6-2.7,7.6-6.1L81,340.4z M63.6,344.6c-1,1.6-0.4,2.3,0.4,2.3c1.7,0,4.1-1.8,6.5-5.7l3.2-5.6c2-3.6-2.4-4.6-4.5-0.9
		L63.6,344.6z"/>
	<path class="st0" d="M84.9,327.5h3.6l3.9-6.6h4.1l-3.9,6.6h3.3l-1.2,1.9h-3.3l-8.7,15.2c-1,1.6-0.4,2.3,0.4,2.3
		c1.8,0,4.6-2.7,7.6-6.1l0.3-0.3c0.5,0.2,1.3,0.9,1.5,1.4c-3.3,3.9-7.2,7.5-10.6,7.5c-3.3,0-4.5-2.8-2.8-5.8l8.1-14.1h-3.8
		L84.9,327.5z"/>
</g>
<g>
	<g>
		<path class="st1" d="M-128.7,413.5c0-16.9,0-33.9,0-50.9c2.3,0,4.5,0,6.8,0c0,16.6,0,33.3,0,49.9
			C-124.2,412.9-126.5,413.2-128.7,413.5z"/>
		<path class="st1" d="M-101.5,385.6c0-7.6,0-15.2,0-22.9c2.3,0,4.5,0,6.8,0c0,15.5-0.1,31.1-0.1,46.6c-2.3,0.2-4.5,0.5-6.8,0.8
			c0-3.1,0-6.3,0-9.4c-2.5-7-4.8-14-7.3-21.3c0,10.5,0,21,0,31.6c-2.3,0.3-4.5,0.5-6.8,0.9c0-16.4,0-32.7,0.1-49.1
			c2.3,0,4.5,0,6.8,0C-106.4,370.4-103.9,378.1-101.5,385.6z"/>
		<path class="st1" d="M-88.4,408.6c0-15.3,0.1-30.6,0.1-46c4,0,7.9,0,11.8,0c6.4,0,9.5,2.8,9.5,8.5c0,9.8-0.1,19.4-0.1,29.1
			c0,4.3-2.8,6.5-8.1,7.1C-79.6,407.7-84,408.2-88.4,408.6z M-81.6,402.5c1.7-0.1,3.4-0.3,5.1-0.4c1.8-0.1,2.7-0.9,2.7-2.1
			c0-9.5,0.1-19.1,0.1-28.5c0-2.1-1-3.2-3-3.2c-1.6,0-3.2,0-4.7,0C-81.5,379.6-81.5,391-81.6,402.5z"/>
		<path class="st1" d="M-61,406.1c0-14.5,0.1-29,0.1-43.5c2.3,0,4.5,0,6.8,0c0,14.4-0.1,28.7-0.1,43.1
			C-56.4,405.8-58.7,406-61,406.1z"/>
		<path class="st1" d="M-41.3,404.9c-2.3,0.1-4.5,0.2-6.9,0.4c0-11.8,0.1-23.6,0.1-35.4c0-4.9,2.8-7.3,8.1-7.3c1.7,0,3.4,0,5.1,0
			c5.5,0,8.1,2.4,8.1,7.1c0,11.5,0,22.9-0.1,34.4c-2.3,0.1-4.5,0.2-6.9,0.3c0-5.1,0-10.2,0-15.3c-2.6,0.1-5.3,0.2-7.8,0.2
			C-41.3,394.6-41.3,399.7-41.3,404.9z M-33.5,384.1c0-4.6,0-9.3,0-13.9c0-1.6-1-2.5-3-2.5c-0.6,0-1.2,0-1.8,0c-2,0-3,0.9-3,2.5
			c0,4.7,0,9.4,0,14C-38.6,384.3-36.1,384.2-33.5,384.1z"/>
		<path class="st1" d="M-6.5,382.4c0-6.6,0-13.2,0-19.8c2.3,0,4.5,0,6.8,0c0,13.6,0,27.2,0,40.8c-2.3,0-4.5,0.1-6.9,0.1
			c0-2.7,0-5.5,0-8.1c-2.5-6.2-4.8-12.3-7.3-18.5c0,9,0,17.9,0,26.9c-2.3,0.1-4.5,0.1-6.9,0.2c0-13.8,0.1-27.5,0.1-41.4
			c2.3,0,4.5,0,6.8,0C-11.4,369.3-9,375.9-6.5,382.4z"/>
		<path class="st1" d="M38.4,394c0,0.9,0,1.7,0,2.7c0,4.6-2.7,6.9-8.1,6.9c-1.5,0-2.9,0-4.4-0.1c-5.5-0.1-8.1-2.4-8.1-7
			c0-9,0-17.9,0-26.9c0-4.6,2.7-7,8.1-7c1.5,0,2.9,0,4.4,0c5.5,0,8.1,2.4,8.1,7c0,1.5,0,3.1,0,4.6c-2.3,0-4.5,0-6.9,0
			c0-1.4,0-2.8,0-4.2c0-1.6-1.1-2.4-3-2.4c-0.4,0-0.9,0-1.4,0c-1.8,0-2.7,0.8-2.7,2.4c0,8.7,0,17.5,0,26.1c0,1.6,0.9,2.4,2.7,2.5
			c0.5,0,1.2,0,1.7,0c1.8,0,2.7-0.8,2.7-2.4c0-0.8,0-1.5,0-2.3C33.8,394,36.2,394,38.4,394z"/>
		<path class="st1" d="M43.8,403.8c0-13.7,0-27.4-0.1-41.1c2.3,0,4.5,0,6.8,0c0,13.8,0.1,27.5,0.1,41.4
			C48.3,404,46,403.9,43.8,403.8z"/>
		<path class="st1" d="M56.8,362.6c4.4,0,8.9,0,13.3,0c5.1,0,7.8,2.5,7.8,7.3c0,3.5,0,7.1,0,10.5c0,3.8-1.3,6-4.1,7
			c1.6,6,3.2,11.9,4.8,18c-2.1-0.1-4.3-0.2-6.4-0.4c-1.5-5.8-3-11.6-4.5-17.3c-1.4,0-2.8-0.1-4.1-0.1c0,5.7,0,11.3,0,16.9
			c-2.3-0.1-4.5-0.2-6.9-0.3C56.8,390.4,56.8,376.6,56.8,362.6z M63.7,382.9c1.5,0,3,0.1,4.5,0.1c2,0,3-1,3-3c0-3,0-6.1,0-9.1
			c0-2-1.1-3.1-3.1-3.1c-1.5,0-3,0-4.5,0C63.7,372.8,63.7,377.8,63.7,382.9z"/>
		<path class="st1" d="M104.1,396.9c0,1,0,1.9,0,2.9c0,5-2.7,7.4-8.1,6.9c-1.5-0.1-2.9-0.2-4.4-0.3c-5.5-0.4-8.1-3-8.1-7.9
			c0-9.4-0.1-19-0.1-28.4c0-4.8,2.7-7.3,8.1-7.3c1.5,0,2.9,0,4.4,0c5.5,0,8.1,2.6,8.1,7.6c0,1.7,0,3.3,0,5c-2.3-0.1-4.5-0.1-6.8-0.2
			c0-1.5,0-3,0-4.5c0-1.7-1.1-2.6-3.1-2.6c-0.4,0-0.9,0-1.4,0c-1.8,0-2.7,0.9-2.7,2.6c0,9.3,0.1,18.6,0.1,27.9
			c0,1.7,0.9,2.6,2.7,2.7c0.5,0,1.2,0.1,1.7,0.1c1.8,0.1,2.7-0.6,2.7-2.4c0-0.8,0-1.6,0-2.4C99.5,396.6,101.7,396.7,104.1,396.9z"/>
		<path class="st1" d="M131.3,362.6c0,12.9,0,25.7,0.1,38.5c0,6-2.7,8.7-8.1,8c-1.9-0.2-3.9-0.4-5.7-0.6c-5.5-0.5-8.1-3.6-8.1-9.4
			c0-12.2-0.1-24.3-0.1-36.5c2.3,0,4.5,0,6.8,0c0,12.4,0.1,24.9,0.1,37.3c0,2,1,3.1,3,3.2c1,0.1,1.8,0.2,2.8,0.2
			c1.8,0.2,2.8-0.8,2.8-2.8c0-12.6-0.1-25.3-0.1-38C126.8,362.6,129,362.6,131.3,362.6z"/>
		<path class="st1" d="M150.8,376c0-1.5,0-2.9,0-4.4c0-2-1-3-3-3c-0.3,0-0.8,0-1.1,0c-1.9,0-2.9,1-2.9,2.9c0,2.7,0,5.5,0,8.1
			c0,0.9,0.2,1.5,0.5,1.8c0.4,0.3,1,0.8,1.8,1.3c2.1,1.3,4.3,2.5,6.4,3.8c1.4,0.9,2.5,1.6,3,2c0.5,0.5,1.1,1.1,1.4,1.7
			c0.3,0.6,0.5,1.9,0.5,3.6c0,3.6,0,7.2,0,10.8c0,5.8-2.7,8.1-8.1,7.4c-1.4-0.2-2.8-0.3-4.2-0.5c-5.5-0.8-8.1-4-8.1-9.9
			c0-0.9,0-1.6,0-2.5c2.3,0.2,4.5,0.4,6.8,0.6c0,0.9,0,1.8,0,2.7c0,1.9,1,3,3,3.2c0.4,0,0.8,0.1,1.2,0.1c1.8,0.2,2.7-0.6,2.7-2.6
			c0-2.8,0-5.7,0-8.5c0-1-0.2-1.6-0.5-1.9c-0.4-0.3-1-0.9-1.8-1.4c-2.1-1.4-4.3-2.7-6.4-4c-1.4-0.9-2.5-1.5-3.1-2
			c-0.6-0.5-1.1-1.2-1.4-2c-0.3-0.8-0.4-1.8-0.4-3.1c0-3.3,0-6.5,0-9.9c0-5.5,2.7-8.3,8.1-8.3c1.4,0,2.8,0,4.3,0
			c5.5,0,8.1,2.9,8.1,8.7c0,1.6,0,3.3,0,4.9C155.3,376.2,153,376.1,150.8,376z"/>
	</g>
</g>
<g>
	<g>
		<g>
			<path class="st1" d="M-98.6,434.1c2.4,6.9,4.7,13.7,7.1,20.6c-6.1,2.1-12.2,4.4-18.2,7c2.3-5.9,4.6-11.9,7.2-17.8
				c-5.8-2.8-11.8-5.5-17.9-7.9c12-4.9,24.2-9.3,36.6-12.9C-88.9,426.6-93.8,430.2-98.6,434.1"/>
			<g>
				<path class="st1" d="M-78.3,434L-78.3,434c2,7,4,13.9,6,21c-5.1,1.5-10.2,3-15.2,4.7c-2-6-7-20.6-8.9-26.4
					c15.5-5,17.3-5.6,33.2-9.4C-68.4,427.1-73.5,430.6-78.3,434z"/>
			</g>
			<path class="st1" d="M-63.2,423.8C-63.2,423.9-63.2,423.9-63.2,423.8C-63.2,423.9-63.3,423.9-63.2,423.8
				C-63.3,423.9-63.2,423.9-63.2,423.8z"/>
			<path class="st1" d="M129.2,434.1c-4.8-3.9-9.8-7.5-14.9-11.1c12.4,3.6,24.6,7.9,36.6,12.9c-6.1,2.5-12.1,5.1-17.9,7.9
				c2.6,5.9,5,11.8,7.2,17.8c-6-2.5-12.1-4.8-18.2-7C124.4,447.8,126.8,440.9,129.2,434.1"/>
			<g>
				<path class="st1" d="M102.9,455c1.7-6.2,4.2-14.8,6-21c-4.9-3.4-9.9-6.9-15-10.1c16,4,17.7,4.4,33.2,9.4
					c-3.3,9.8-5.8,17-8.9,26.4C113.1,458,108,456.4,102.9,455z"/>
			</g>
			<g>
				<path class="st1" d="M-68.7,460.2c-1.5-5.5-5.9-21.3-7.4-26.9c5.3-1.8,49.6-13.5,93.3-12.3c43.7-0.8,86.8,11.4,89.7,12.3
					c-3.9,13.9-3.6,13.1-7.4,26.9C44.3,445-13.8,445-68.7,460.2z"/>
			</g>
			<path class="st1" d="M93.7,423.8C93.8,423.9,93.8,423.9,93.7,423.8C93.8,423.9,93.8,423.9,93.7,423.8
				C93.7,423.9,93.7,423.9,93.7,423.8z"/>
		</g>
		<g>
			<path class="st2" d="M-58.8,450.5c-0.5,0.1-1.2,0.3-1.7,0.4c-0.9-3.4-1.6-6.8-2.5-10.2c-0.3-1.4,0.2-2.3,1.6-2.6
				c0.4-0.1,0.9-0.2,1.4-0.3c1.4-0.3,2.4,0.2,2.7,1.6c0.8,3.4,1.5,6.9,2.3,10.2c-0.5,0.1-1.2,0.2-1.7,0.4c-0.3-1.5-0.6-3-1.1-4.5
				c-0.6,0.1-1.4,0.3-2,0.4C-59.5,447.5-59.1,449-58.8,450.5z M-58.2,444.1c-0.3-1.4-0.6-2.8-1-4.1c-0.1-0.4-0.4-0.6-1-0.5
				c-0.2,0-0.3,0.1-0.5,0.1c-0.5,0.1-0.8,0.4-0.6,0.9c0.3,1.4,0.6,2.7,1,4.1C-59.5,444.4-58.9,444.2-58.2,444.1z"/>
			<path class="st2" d="M-48.3,442.9c0.1-2.6,0.1-5,0.2-7.6c0.6-0.1,1.3-0.2,2-0.4c0.8,4.2,1.5,8.3,2.4,12.4
				c-0.5,0.1-1.2,0.2-1.7,0.3c-0.4-2.7-1-5.5-1.4-8.1c-0.1,2-0.1,4.1-0.2,6.1c-0.4,0.1-0.9,0.2-1.4,0.2c-0.9-1.8-1.7-3.8-2.5-5.6
				c0.6,2.7,1.2,5.4,1.8,8c-0.5,0.1-1.2,0.2-1.7,0.3c-0.9-4.2-1.7-8.3-2.6-12.4c0.6-0.1,1.3-0.3,2-0.4
				C-50.4,438.3-49.4,440.6-48.3,442.9z"/>
			<path class="st2" d="M-37.8,446.3c-0.5,0.1-1.2,0.2-1.7,0.3c-0.6-3.4-1.2-6.9-1.8-10.3c-0.2-1.4,0.3-2.3,1.8-2.5
				c0.4-0.1,0.9-0.1,1.4-0.2c1.5-0.2,2.3,0.3,2.5,1.8c0.5,3.4,1.1,6.9,1.6,10.4c-0.5,0.1-1.2,0.2-1.7,0.3c-0.2-1.5-0.5-3-0.8-4.6
				c-0.6,0.1-1.4,0.2-2,0.3C-38.3,443.2-38,444.7-37.8,446.3z M-36.7,439.9c-0.2-1.4-0.4-2.8-0.6-4.2c-0.1-0.5-0.4-0.6-0.9-0.6
				c-0.2,0-0.3,0-0.5,0.1c-0.5,0.1-0.8,0.4-0.6,0.9c0.2,1.4,0.4,2.8,0.6,4.2C-38.1,440.1-37.5,440-36.7,439.9z"/>
			<path class="st2" d="M-28.6,443.3c1-0.1,1.9-0.2,3-0.4c0.1,0.5,0.1,1,0.2,1.5c-1.6,0.2-3.2,0.4-4.8,0.6c-0.1-0.2-0.1-0.4-0.2-0.5
				c0.4-3.6,0.9-7.2,1.4-10.8c-0.9,0.1-1.7,0.2-2.6,0.3c-0.1-0.5-0.1-1.1-0.2-1.5c1.4-0.2,2.8-0.4,4.1-0.5c0.1,0.2,0.3,0.4,0.4,0.6
				C-27.7,436.2-28.1,439.8-28.6,443.3z"/>
			<path class="st2" d="M-21.7,443.9c-0.5-4.2-1-8.4-1.5-12.5c0.6-0.1,1.2-0.1,1.8-0.2c0.4,4.2,1,8.4,1.4,12.5
				C-20.5,443.8-21.1,443.9-21.7,443.9z"/>
			<path class="st2" d="M-12.4,436.4c-0.2-2-0.3-4.1-0.5-6.1c0.6,0,1.2-0.1,1.8-0.1c0.3,4.2,0.6,8.4,1,12.6c-0.5,0-1.2,0.1-1.7,0.1
				c-0.1-0.9-0.1-1.7-0.2-2.5c-0.8-1.8-1.6-3.8-2.5-5.6c0.2,2.8,0.5,5.5,0.8,8.3c-0.5,0-1.2,0.1-1.7,0.2c-0.4-4.2-0.9-8.4-1.2-12.6
				c0.6-0.1,1.2-0.1,1.8-0.2C-14.1,432.6-13.2,434.5-12.4,436.4z"/>
			<path class="st2" d="M-3.3,437.7c0-0.5-0.1-1.1-0.1-1.5c0.9,0,1.8-0.1,2.7-0.1c0.1,2,0.2,4.1,0.3,6.1c-1.2,0.1-2.3,0.1-3.4,0.2
				c-1.4,0.1-2-0.5-2.1-2c-0.2-2.8-0.3-5.6-0.5-8.4c-0.1-1.4,0.5-2.3,1.9-2.3c0.4,0,0.9,0,1.3-0.1c1.5-0.1,2.4,0.6,2.5,2
				c0,0.4,0,1,0.1,1.4c-0.6,0-1.2,0.1-1.8,0.1c0-0.4,0-0.8-0.1-1.2c0-0.6-0.3-0.9-0.9-0.9c-0.1,0-0.3,0-0.4,0c-0.5,0-0.8,0.3-0.8,1
				c0.1,2.6,0.3,5.1,0.4,7.7c0,0.6,0.3,0.9,0.9,0.9c0.4,0,0.8,0,1.2-0.1c-0.1-1.1-0.1-2-0.2-3.1C-2.6,437.7-3,437.7-3.3,437.7z"/>
			<path class="st2" d="M8.1,441.9c-1.4,0-2.8,0.1-4.2,0.1c-0.1-4.2-0.3-8.5-0.4-12.6c0.6,0,1.2,0,1.8-0.1c0.1,3.8,0.2,7.4,0.3,11.1
				c0.9,0,1.6,0,2.5-0.1C8,440.9,8.1,441.5,8.1,441.9z"/>
			<path class="st2" d="M14,441.9c-0.5,0-1.2,0-1.7,0c0-1.5,0-3.1,0-4.6c-0.8-2.7-1.5-5.4-2.4-7.9c0.6,0,1.2,0,1.8,0
				c0.4,1.8,1,3.6,1.4,5.5c0,0,0,0,0.1,0c0.4-1.8,0.8-3.6,1.2-5.5c0.6,0,1.2,0,1.8,0c-0.8,2.7-1.5,5.4-2.1,8
				C14,438.8,14,440.3,14,441.9z"/>
			<path class="st2" d="M27.3,442.1c-0.5,0-1.2,0-1.7-0.1c0.1-3.5,0.2-7,0.3-10.5c0-1.4,0.8-2.1,2.3-2c0.4,0,1,0,1.4,0.1
				c1.5,0.1,2.1,0.9,2,2.3c-0.2,3.5-0.3,7-0.5,10.5c-0.5,0-1.2-0.1-1.7-0.1c0.1-1.5,0.1-3.1,0.2-4.6c-0.6,0-1.4-0.1-2-0.1
				C27.4,439,27.3,440.5,27.3,442.1z M29.5,436c0.1-1.4,0.1-2.8,0.2-4.2c0-0.5-0.2-0.8-0.8-0.8c-0.2,0-0.3,0-0.5,0
				c-0.5,0-0.9,0.2-0.9,0.8c0,1.4-0.1,2.8-0.1,4.2C28.1,435.9,28.9,436,29.5,436z"/>
			<path class="st2" d="M45.5,430.6c-1.1,4.2-2,8.3-3.1,12.4c-0.6-0.1-1.3-0.1-1.9-0.1c-0.2-2.5-0.3-4.9-0.5-7.4
				c-0.5,2.4-1.1,4.8-1.6,7.2c-0.6,0-1.3-0.1-1.9-0.1c-0.3-4.3-0.8-8.5-1.2-12.8c0.6,0,1.2,0.1,1.8,0.1c0.2,3.2,0.4,6.3,0.6,9.5
				c0.6-3.1,1.3-6.2,1.9-9.3c0.4,0,1,0.1,1.4,0.1c0.2,3.2,0.3,6.3,0.5,9.5c0.6-3.1,1.4-6.2,2-9.3C44.3,430.4,44.9,430.6,45.5,430.6z
				"/>
			<path class="st2" d="M47.9,443.5c0.4-4.2,0.9-8.4,1.3-12.5c1.5,0.1,3,0.3,4.5,0.5c-0.1,0.5-0.1,1-0.2,1.5
				c-0.9-0.1-1.8-0.2-2.7-0.3c-0.1,1.3-0.3,2.6-0.4,3.9c0.8,0.1,1.6,0.2,2.4,0.2c-0.1,0.5-0.1,1-0.2,1.5c-0.8-0.1-1.6-0.2-2.4-0.2
				c-0.1,1.4-0.3,2.8-0.4,4.2c0.9,0.1,1.7,0.2,2.6,0.3c-0.1,0.5-0.1,1-0.2,1.5C50.8,443.8,49.3,443.6,47.9,443.5z"/>
			<path class="st2" d="M60.9,435.8c0-0.3,0.1-0.8,0.1-1.1c0.1-0.5-0.1-0.8-0.6-0.9c-0.1,0-0.2,0-0.3,0c-0.5-0.1-0.9,0.1-0.9,0.6
				c-0.1,0.6-0.2,1.4-0.3,2c0,0.2,0,0.4,0.1,0.5c0.1,0.1,0.2,0.2,0.4,0.4c0.5,0.3,1.1,0.8,1.6,1.1c0.3,0.2,0.5,0.4,0.8,0.5
				c0.1,0.1,0.2,0.3,0.3,0.4c0.1,0.2,0.1,0.4,0,1c-0.1,0.9-0.2,1.8-0.4,2.7c-0.2,1.4-1,2-2.5,1.8c-0.3,0-0.8-0.1-1.1-0.1
				c-1.4-0.2-2-1.1-1.8-2.6c0-0.2,0.1-0.4,0.1-0.6c0.6,0.1,1.2,0.1,1.7,0.2c0,0.2-0.1,0.4-0.1,0.6c-0.1,0.5,0.2,0.8,0.6,0.9
				c0.1,0,0.2,0,0.3,0c0.4,0.1,0.8-0.1,0.8-0.6c0.1-0.8,0.2-1.4,0.3-2.1c0-0.2,0-0.4-0.1-0.5c-0.1-0.1-0.2-0.2-0.4-0.4
				c-0.5-0.3-1.1-0.8-1.6-1.1c-0.3-0.2-0.6-0.4-0.8-0.5c-0.1-0.1-0.2-0.3-0.3-0.5c0-0.2,0-0.5,0-0.9c0.1-0.9,0.2-1.7,0.3-2.6
				c0.2-1.4,1-2,2.5-1.8c0.4,0,0.8,0.1,1.2,0.1c1.5,0.2,2,1.1,1.8,2.5c-0.1,0.4-0.1,0.9-0.2,1.2C62.1,435.9,61.5,435.9,60.9,435.8z"
				/>
			<path class="st2" d="M67.5,446.2c-1.4-0.2-2-1.1-1.8-2.5c0.4-2.8,0.9-5.5,1.3-8.3c0.2-1.4,1.1-2,2.5-1.8c0.5,0.1,1.2,0.2,1.7,0.3
				c1.5,0.2,2,1.1,1.8,2.5c-0.5,2.8-1,5.5-1.5,8.3c-0.2,1.4-1.1,2-2.5,1.7C68.7,446.3,68.1,446.2,67.5,446.2z M68.3,444.7
				c0.3,0,0.6,0.1,0.9,0.1c0.4,0.1,0.8-0.1,0.9-0.6c0.4-2.7,1-5.4,1.4-8c0.1-0.5-0.1-0.8-0.6-0.9c-0.3,0-0.5-0.1-0.9-0.1
				c-0.5-0.1-0.9,0.1-0.9,0.6c-0.4,2.7-0.9,5.4-1.3,8C67.5,444.4,67.8,444.6,68.3,444.7z"/>
			<path class="st2" d="M80.2,443.2c1.1-2.4,2-4.6,3.1-7c0.6,0.1,1.3,0.3,2,0.4c-0.9,4.1-1.7,8.3-2.7,12.3c-0.5-0.1-1.2-0.2-1.7-0.3
				c0.6-2.7,1.3-5.4,1.9-8c-0.9,1.8-1.7,3.8-2.6,5.6c-0.4-0.1-0.9-0.2-1.4-0.3c0-2-0.1-4.1-0.1-6.1c-0.4,2.7-1,5.5-1.4,8.1
				c-0.5-0.1-1.2-0.2-1.7-0.3c0.8-4.2,1.6-8.3,2.4-12.4c0.6,0.1,1.3,0.2,2,0.4C80.1,438.1,80.1,440.6,80.2,443.2z"/>
			<path class="st2" d="M86.9,449.9c1-4.1,1.9-8.3,2.8-12.3c1.5,0.3,3,0.6,4.5,1.1c-0.1,0.5-0.2,1-0.3,1.5c-0.9-0.2-1.7-0.4-2.7-0.6
				c-0.3,1.3-0.5,2.5-0.9,3.8c0.8,0.2,1.5,0.3,2.4,0.5c-0.1,0.5-0.2,1-0.3,1.5c-0.8-0.2-1.5-0.3-2.4-0.5c-0.3,1.4-0.6,2.8-1,4.1
				c0.9,0.2,1.7,0.4,2.6,0.6c-0.1,0.5-0.2,1-0.3,1.5C89.8,450.6,88.4,450.3,86.9,449.9z"/>
		</g>
	</g>
</g>
<g>
	<g>
		<path class="st1" d="M-18.4,466.3v-0.9c0-0.3-0.2-0.5-0.5-0.5h-0.2c-0.3,0-0.5,0.2-0.5,0.5v1.5c0,0.2,0,0.3,0.1,0.3
			c0.1,0,0.2,0.1,0.3,0.2l1.2,0.6c0.2,0.1,0.4,0.2,0.5,0.3c0.1,0.1,0.2,0.2,0.2,0.3c0,0.1,0.1,0.3,0.1,0.6v2c0,1.1-0.5,1.6-1.5,1.6
			h-0.8c-1,0-1.5-0.5-1.5-1.7v-0.4h1.3v0.5c0,0.3,0.2,0.5,0.5,0.5h0.2c0.3,0,0.5-0.2,0.5-0.5v-1.6c0-0.2,0-0.3-0.1-0.3
			c-0.1-0.1-0.2-0.1-0.3-0.2l-1.2-0.6c-0.2-0.1-0.4-0.2-0.5-0.3c-0.1-0.1-0.2-0.2-0.2-0.3c0-0.1-0.1-0.3-0.1-0.6v-1.9
			c0-1.1,0.5-1.6,1.5-1.6h0.8c1,0,1.5,0.5,1.5,1.6v0.9H-18.4z"/>
		<path class="st1" d="M-12.8,473.1v-9.3h1.3v9.3H-12.8z"/>
		<path class="st1" d="M-4.6,468.3v-4.5h1.3v9.3h-1.3v-1.8L-6,467v6.1h-1.3v-9.3H-6L-4.6,468.3z"/>
		<path class="st1" d="M4.9,470.9v0.6c0,1.1-0.5,1.6-1.5,1.6H2.5c-1,0-1.5-0.5-1.5-1.6v-6.2c0-1.1,0.5-1.6,1.5-1.6h0.9
			c1,0,1.5,0.5,1.5,1.6v1.1H3.6v-1c0-0.3-0.2-0.5-0.5-0.5H2.7c-0.3,0-0.5,0.2-0.5,0.5v6c0,0.3,0.2,0.5,0.5,0.5H3
			c0.3,0,0.5-0.2,0.5-0.5v-0.5L4.9,470.9L4.9,470.9z"/>
		<path class="st1" d="M9,473.1v-9.3h3.1v1.2h-1.8v2.8h1.6v1.2h-1.6v3.1h1.8v1.2H9V473.1z"/>
		<path class="st1" d="M21.6,465.8l-0.3-0.9c0.3-0.1,0.6-0.3,0.9-0.5c0.2-0.2,0.4-0.4,0.5-0.8h0.1l0.9,0.4v8.9h-1.3v-7.5L21.6,465.8
			z"/>
		<path class="st1" d="M29.4,470.9v0.4c0,0.4,0.2,0.6,0.5,0.6h0.2c0.3,0,0.5-0.2,0.5-0.5v-2.3l-0.8,0.5h-0.3c-1,0-1.5-0.5-1.5-1.7
			v-2.6c0-1.1,0.5-1.6,1.5-1.6h0.9c1,0,1.5,0.5,1.5,1.6v6c0,1.1-0.5,1.7-1.5,1.7h-0.8c-1,0-1.5-0.5-1.5-1.7v-0.5H29.4z M30.6,468.6
			v-3.1c0-0.3-0.2-0.5-0.6-0.5h-0.1c-0.3,0-0.5,0.2-0.5,0.5v2.5c0,0.4,0.2,0.6,0.5,0.6H30.6z"/>
		<path class="st1" d="M36.2,470.9h1.3v0.5c0,0.3,0.2,0.5,0.5,0.5h0.1c0.3,0,0.5-0.2,0.5-0.5v-2.1c0-0.4-0.2-0.6-0.5-0.6h-1.9v-4.9
			h3.5v1.2h-2.4v2.7h1c1,0,1.5,0.5,1.5,1.6v2.3c0,1.1-0.5,1.6-1.5,1.6h-0.8c-1,0-1.5-0.5-1.5-1.6v-0.5H36.2z"/>
		<path class="st1" d="M45.6,470.9v0.4c0,0.4,0.2,0.6,0.5,0.6h0.2c0.3,0,0.5-0.2,0.5-0.5v-2.3l-0.8,0.5h-0.3c-1,0-1.5-0.5-1.5-1.7
			v-2.6c0-1.1,0.5-1.6,1.5-1.6h0.9c1,0,1.5,0.5,1.5,1.6v6c0,1.1-0.5,1.7-1.5,1.7h-0.8c-1,0-1.5-0.5-1.5-1.7v-0.5H45.6z M46.9,468.6
			v-3.1c0-0.3-0.2-0.5-0.6-0.5h-0.1c-0.3,0-0.5,0.2-0.5,0.5v2.5c0,0.4,0.2,0.6,0.5,0.6H46.9z"/>
	</g>
</g>
</svg>
