<?xml version="1.0" encoding="utf-8"?>
<!-- Generator: Adobe Illustrator 19.0.0, SVG Export Plug-In . SVG Version: 6.00 Build 0)  -->
<svg version="1.1" id="Layer_1" xmlns="http://www.w3.org/2000/svg" xmlns:xlink="http://www.w3.org/1999/xlink" x="0px" y="0px"
	 viewBox="-145 302 320 190" style="enable-background:new -145 302 320 190;" xml:space="preserve">
<style type="text/css">
	.st0{fill:#333333;}
</style>
<g id="XMLID_85_">
	<g id="XMLID_86_">
		<g id="XMLID_195_">
			
				<text id="XMLID_194_" transform="matrix(1 0 0 1 -342.2578 1026.5078)" class="st0" style="font-family:'BebasNeueBold'; font-size:9.377px;">S</text>
		</g>
		<g id="XMLID_190_">
			
				<text id="XMLID_189_" transform="matrix(1 0 0 1 -336.7451 1026.5078)" class="st0" style="font-family:'BebasNeueBold'; font-size:9.377px;">A</text>
		</g>
		<g id="XMLID_134_">
			
				<text id="XMLID_133_" transform="matrix(1 0 0 1 -330.9092 1026.5078)" class="st0" style="font-family:'BebasNeueBold'; font-size:9.377px;">L</text>
		</g>
		<g id="XMLID_129_">
			<text transform="matrix(1 0 0 1 -326.0698 1026.5078)" class="st0" style="font-family:'BebasNeueBold'; font-size:9.377px;">T</text>
			<text transform="matrix(1 0 0 1 -320.8698 1026.5078)" class="st0" style="font-family:'BebasNeueBold'; font-size:9.377px;"> </text>
		</g>
		<g id="XMLID_124_">
			
				<text id="XMLID_123_" transform="matrix(1 0 0 1 -317.5274 1026.5078)" class="st0" style="font-family:'BebasNeueBold'; font-size:9.377px;">L</text>
		</g>
		<g id="XMLID_119_">
			
				<text transform="matrix(1 0 0 1 -312.1856 1026.5078)" class="st0" style="font-family:'BebasNeueBold'; font-size:9.377px; letter-spacing:1;">A</text>
			<text transform="matrix(1 0 0 1 -306.3856 1026.5078)" class="st0" style="font-family:'BebasNeueBold'; font-size:9.377px;">K</text>
		</g>
		<g id="XMLID_114_">
			
				<text id="XMLID_113_" transform="matrix(1 0 0 1 -300.4473 1026.5078)" class="st0" style="font-family:'BebasNeueBold'; font-size:9.377px;">E</text>
		</g>
		<g id="XMLID_109_">
			<text transform="matrix(1 0 0 1 -295.0537 1026.5078)" class="st0" style="font-family:'BebasNeueBold'; font-size:9.377px;">,</text>
			<text transform="matrix(1 0 0 1 -291.4537 1026.5078)" class="st0" style="font-family:'BebasNeueBold'; font-size:9.377px;"> </text>
		</g>
		<g id="XMLID_104_">
			
				<text id="XMLID_103_" transform="matrix(1 0 0 1 -288.1055 1026.5078)" class="st0" style="font-family:'BebasNeueBold'; font-size:9.377px;">U</text>
		</g>
		<g id="XMLID_99_">
			
				<text id="XMLID_98_" transform="matrix(1 0 0 1 -282.3184 1026.5078)" class="st0" style="font-family:'BebasNeueBold'; font-size:9.377px;">T</text>
		</g>
		<g id="XMLID_94_">
			
				<text id="XMLID_93_" transform="matrix(1 0 0 1 -277.2378 1026.5078)" class="st0" style="font-family:'BebasNeueBold'; font-size:9.377px;">A</text>
		</g>
		<g id="XMLID_89_">
			
				<text id="XMLID_88_" transform="matrix(1 0 0 1 -271.4014 1026.5078)" class="st0" style="font-family:'BebasNeueBold'; font-size:9.377px;">H</text>
		</g>
	</g>
</g>
<g id="XMLID_19_">
	<g id="XMLID_32_">
		
			<text id="XMLID_31_" transform="matrix(1 0 0 1 -360.7305 957.2949)" class="st0" style="font-family:'GearedSlab-Bold'; font-size:10.9398px;">E</text>
	</g>
	<g id="XMLID_27_">
		
			<text id="XMLID_26_" transform="matrix(1 0 0 1 -355.4683 957.2949)" class="st0" style="font-family:'GearedSlab-Bold'; font-size:10.9398px;">S</text>
	</g>
	<g id="XMLID_22_">
		<text transform="matrix(1 0 0 1 -350.1079 957.2949)" class="st0" style="font-family:'GearedSlab-Bold'; font-size:10.9398px;">TD</text>
		<text transform="matrix(1 0 0 1 -338.9079 957.2949)" class="st0" style="font-family:'GearedSlab-Bold'; font-size:10.9398px;">.</text>
	</g>
</g>
<g id="XMLID_3_">
	<g id="XMLID_16_">
		
			<text id="XMLID_15_" transform="matrix(1 0 0 1 -268.002 957.2949)" class="st0" style="font-family:'GearedSlab-Bold'; font-size:10.9398px;">1</text>
	</g>
	<g id="XMLID_11_">
		
			<text id="XMLID_10_" transform="matrix(1 0 0 1 -263.6919 957.2949)" class="st0" style="font-family:'GearedSlab-Bold'; font-size:10.9398px;">9</text>
	</g>
	<g id="XMLID_6_">
		<text transform="matrix(1 0 0 1 -258.3096 957.2949)" class="st0" style="font-family:'GearedSlab-Bold'; font-size:10.9398px;">5</text>
		<text transform="matrix(1 0 0 1 -252.8096 957.2949)" class="st0" style="font-family:'GearedSlab-Bold'; font-size:10.9398px;">9</text>
	</g>
</g>
<g>
	<path class="st0" d="M14.8,420.7c3.5,4.7,8.9,8.1,15.3,8.9c-8.5,7.2-21.4,5.1-27.1-4.5C7.3,424.9,11.5,423.3,14.8,420.7z"/>
	<path class="st0" d="M14.7,374.4l2.6-1.3c4.3,4.3,5.8,10.8,6.1,17c-0.9,0.3-1.8,0.6-2.7,1C19.5,380.1,14.7,374.4,14.7,374.4z"/>
	<path class="st0" d="M1.7,422.5c4.2,0.1,8.4-1.4,11.7-4c-4-7-4.3-16.7,0.9-22.8c-1.9-1.7-4-3-6.3-4.1c2.3-7.3,5.2-21.1-1.1-29.6
		L4.3,363c0,0,4.9,7.8,3.2,21.3l0,0c-0.1,1.5-2.1,10.3-2.4,11.8c0.2-1-0.2-3.4-0.2-5.8C-21.2,380.6-23.7,422.1,1.7,422.5z M0,393.7
		c2.7,3.1,7.5,4.5,10.9,4.4C5.2,401.9,1.3,398.3,0,393.7z"/>
	<path class="st0" d="M32.5,427.2c23.1,0.6,31.6-36,0.1-35.8c-1.4-8.4-5.3-23.5-15.8-28.9l-2.2,2.3c0,0,8.7,5.3,13.7,19.6l0,0
		c0.7,1.5,3,11.3,3.4,12.9c-0.3-1.1-2.1-3.3-3.2-5.7C2.6,394.4,11.1,426.6,32.5,427.2z M38.6,396.4c-3.5,6.3-9.1,5.2-13,1
		C30.2,399.3,35.7,397.9,38.6,396.4z"/>
</g>
<g>
	<g>
		<path class="st0" d="M-107.9,388.7c0.4,0.3,0.5,0.9,0.5,1.8v2.2v2.5h-2.2c-1,0-1.7-0.5-2.2-1.4c-0.2-0.3-0.4-0.5-0.6-0.6
			c-0.2-0.1-0.4-0.1-0.6-0.1h-1c-0.2,0-0.4,0.1-0.5,0.2c-0.2,0.2-0.2,0.4-0.2,0.6v26.4c0,0.3,0.1,0.6,0.2,0.7
			c0.1,0.1,0.2,0.3,0.4,0.4c0.3,0.2,0.5,0.5,0.8,0.9c0.3,0.4,0.4,0.8,0.4,1.4v2.2h-9.2v-2.2c0-0.6,0.1-1,0.4-1.4
			c0.3-0.4,0.5-0.7,0.8-0.9c0.2-0.1,0.3-0.2,0.4-0.4c0.1-0.1,0.1-0.4,0.1-0.7v-26.5c0-0.3-0.1-0.5-0.3-0.6c-0.2-0.1-0.3-0.2-0.5-0.2
			h-0.9c-0.1,0-0.3,0.1-0.6,0.2c-0.3,0.1-0.5,0.3-0.6,0.6c-0.2,0.5-0.4,0.8-0.6,1.1c-0.2,0.2-0.7,0.4-1.5,0.4h-2.3v-2.8v-2
			c0-0.8,0.1-1.3,0.4-1.7c0.3-0.4,0.8-0.6,1.7-0.6h16C-108.8,388.2-108.2,388.4-107.9,388.7z"/>
	</g>
	<g>
		<path class="st0" d="M-96.1,426.2c-1.2,0-2.4-0.2-3.5-0.5c-1.1-0.3-2-0.8-2.9-1.4c-0.8-0.6-1.5-1.4-2-2.4c-0.5-1-0.7-2.1-0.7-3.3
			v-23.3c0-1.3,0.2-2.4,0.7-3.3c0.5-1,1.1-1.7,2-2.4c0.8-0.6,1.8-1.1,2.9-1.4c1.1-0.3,2.3-0.5,3.5-0.5c1.2,0,2.4,0.2,3.5,0.5
			c1.1,0.3,2.1,0.8,2.9,1.4c0.8,0.6,1.5,1.4,2,2.4c0.5,1,0.7,2.1,0.7,3.3v23.3c0,1.3-0.2,2.4-0.7,3.3c-0.5,1-1.1,1.8-2,2.4
			c-0.8,0.6-1.8,1.1-2.9,1.4C-93.6,426-94.8,426.2-96.1,426.2z M-92.8,395.9c0-1.3-0.3-2.2-0.9-2.6c-0.6-0.5-1.4-0.7-2.3-0.7
			c-0.9,0-1.7,0.2-2.3,0.7c-0.6,0.5-0.9,1.3-0.9,2.6V418c0,1.3,0.3,2.2,0.9,2.7c0.6,0.5,1.4,0.7,2.3,0.7c0.9,0,1.7-0.3,2.3-0.8
			c0.6-0.5,0.9-1.4,0.9-2.8V395.9z"/>
	</g>
	<g>
		<path class="st0" d="M-53.6,391.9c-0.2,0.4-0.4,0.6-0.6,0.8c-0.3,0.2-0.6,0.4-0.9,0.5v27.2c0,0.3,0.1,0.6,0.2,0.7
			c0.1,0.1,0.2,0.3,0.4,0.4c0.3,0.2,0.5,0.5,0.8,0.9c0.3,0.4,0.4,0.8,0.4,1.4v2.2h-9.3v-2.2c0-0.6,0.1-1,0.4-1.4
			c0.3-0.4,0.5-0.7,0.8-0.9c0.2-0.1,0.3-0.2,0.4-0.4c0.1-0.1,0.1-0.4,0.1-0.7v-18.9c0,0,0-0.1,0-0.1c0,0-0.1,0-0.1,0.2
			c-1,2.2-2,4.3-2.8,6.1c-0.4,0.8-0.7,1.5-1.1,2.3c-0.4,0.8-0.7,1.4-1,2.1c-0.3,0.6-0.5,1.1-0.7,1.6c-0.2,0.4-0.3,0.7-0.4,0.8
			c-0.1,0.2-0.4,0.4-0.8,0.5c-0.4,0.1-0.9,0.2-1.4,0.2c-0.5,0-0.9,0-1.4-0.2c-0.4-0.1-0.7-0.3-0.8-0.5c-0.1-0.1-0.2-0.4-0.4-0.8
			c-0.2-0.4-0.4-0.9-0.7-1.5s-0.6-1.3-1-2c-0.4-0.7-0.7-1.5-1-2.3c-0.8-1.8-1.8-3.8-2.8-5.9c0-0.1-0.1-0.1-0.1-0.1s-0.1,0.1-0.1,0.3
			v18.3c0,0.3,0.1,0.6,0.2,0.7c0.1,0.1,0.2,0.3,0.4,0.4c0.3,0.2,0.5,0.5,0.8,0.9c0.3,0.4,0.4,0.8,0.4,1.4v2.2H-85v-2.2
			c0-0.6,0.1-1,0.4-1.4c0.3-0.4,0.5-0.7,0.8-0.9c0.1-0.1,0.2-0.2,0.3-0.4c0.1-0.1,0.1-0.3,0.2-0.6v-27.3c-0.3-0.1-0.6-0.2-0.9-0.5
			c-0.2-0.2-0.4-0.4-0.6-0.8c-0.2-0.4-0.3-0.8-0.3-1.4v-2.3h6.8c0.5,0,0.8,0.3,1.1,0.8l7.9,17.5l7.8-17.5c0.1-0.3,0.4-0.5,0.8-0.6
			c0.4-0.1,0.7-0.2,1-0.2h6.4v2.3C-53.3,391-53.4,391.5-53.6,391.9z"/>
	</g>
	<g>
		<path class="st0" d="M-45.1,388.5v4.1v1c0,0.6,0,1-0.1,1.4c-0.1,0.4-0.2,0.7-0.4,1.1c-0.2,0.3-0.4,0.7-0.8,1
			c-0.3,0.4-0.7,0.8-1.2,1.3c-0.3,0.3-0.5,0.4-0.6,0.3c-0.1,0-0.3-0.2-0.5-0.3c-0.2-0.2-0.3-0.4-0.3-0.5c0-0.1,0.2-0.3,0.5-0.7
			c0.5-0.5,0.9-1,1.1-1.5c0.2-0.5,0.3-0.9,0.2-1.3c-0.1-0.4-0.2-0.6-0.5-0.9c-0.3-0.2-0.6-0.3-1-0.3c-0.8,0-1.3-0.1-1.6-0.2
			c-0.3-0.1-0.5-0.3-0.5-0.6v-4c0-0.3,0.3-0.5,0.8-0.6c0.5-0.1,1.1-0.2,1.9-0.2c0.8,0,1.5,0.1,2.1,0.2
			C-45.5,388.1-45.1,388.3-45.1,388.5z"/>
	</g>
	<g>
		<path class="st0" d="M-36.1,399.5c0,0.7,0.3,1.3,0.9,1.8s1.3,1.1,2.2,1.7c0.9,0.6,1.8,1.1,2.9,1.7c1,0.6,2,1.3,2.9,2.1
			c0.9,0.8,1.6,1.7,2.2,2.6c0.6,1,0.9,2.2,0.9,3.5v5.8c0,1.3-0.3,2.4-0.8,3.3c-0.5,1-1.2,1.7-2,2.4c-0.8,0.6-1.8,1.1-2.9,1.4
			c-1.1,0.3-2.3,0.5-3.5,0.5c-1.2,0-2.4-0.2-3.5-0.5c-1.1-0.3-2.1-0.8-2.9-1.4c-0.8-0.6-1.5-1.4-2-2.4c-0.5-1-0.7-2.1-0.7-3.3v-4.8
			h3.1c0.9,0,1.6,0.3,2,0.8c0.5,0.6,0.7,1.2,0.7,2v2.5c0,0.5,0.3,1,1,1.4c0.7,0.4,1.4,0.6,2.3,0.6c0.4,0,0.9-0.1,1.3-0.2
			c0.4-0.1,0.8-0.3,1.1-0.5c0.3-0.2,0.5-0.5,0.7-0.7c0.2-0.3,0.3-0.5,0.3-0.7v-5.4c0-1.1-0.3-2-0.9-2.7c-0.6-0.7-1.3-1.4-2.2-1.9
			c-0.9-0.6-1.8-1.1-2.9-1.6c-1-0.5-2-1.1-2.9-1.8c-0.9-0.7-1.6-1.6-2.2-2.6c-0.6-1-0.9-2.3-0.9-3.9l0.1-3.7c0-1.3,0.2-2.5,0.7-3.4
			c0.4-1,1-1.7,1.8-2.4c0.8-0.6,1.7-1.1,2.7-1.4c1-0.3,2.2-0.4,3.4-0.4c1.2,0,2.4,0.2,3.4,0.5c1.1,0.3,2,0.8,2.8,1.4
			c0.8,0.6,1.4,1.4,1.8,2.4c0.4,1,0.7,2.1,0.7,3.3v4.7h-3c-0.8,0-1.5-0.3-2.1-1c-0.6-0.7-0.9-1.4-0.9-2.2v-1.6
			c0-0.7-0.3-1.2-0.9-1.6c-0.6-0.4-1.2-0.6-1.9-0.6c-0.7,0-1.3,0.2-1.8,0.6c-0.5,0.4-0.8,0.9-0.8,1.4V399.5z"/>
	</g>
</g>
<g>
	<g>
		<path class="st0" d="M77.5,388.3c0.3,0.3,0.5,0.6,0.5,1.1v5.5h-2c-0.7,0-1.2-0.2-1.6-0.5c-0.4-0.3-0.7-0.7-0.8-1
			c-0.1-0.2-0.2-0.3-0.4-0.5c-0.2-0.1-0.4-0.2-0.8-0.2h-3.5c-0.2,0-0.4,0.1-0.6,0.2c-0.1,0.2-0.2,0.3-0.2,0.5v9.4
			c0,0.3,0.1,0.5,0.2,0.6c0.1,0.1,0.3,0.2,0.6,0.2h5.4c0.3,0,0.5,0.1,0.6,0.4c0.1,0.2,0.2,0.5,0.2,0.8v3.1c0,0.2-0.1,0.4-0.2,0.5
			c-0.1,0.2-0.3,0.2-0.5,0.2h-5.5c-0.2,0-0.3,0.1-0.5,0.2c-0.2,0.1-0.2,0.3-0.2,0.5V420c0,0.3,0,0.5,0.1,0.7s0.2,0.3,0.4,0.4
			c0.3,0.2,0.5,0.5,0.8,0.9c0.3,0.4,0.4,0.8,0.4,1.4v2.2h-9.3v-2.2c0-0.6,0.1-1,0.4-1.4c0.3-0.4,0.5-0.7,0.8-0.9
			c0.1-0.1,0.3-0.3,0.4-0.4s0.2-0.4,0.2-0.7v-26.5c0-0.5-0.2-0.8-0.6-1.1c-0.3-0.2-0.6-0.4-0.8-0.8s-0.3-0.9-0.3-1.7v-2h16.2
			C76.9,387.9,77.2,388,77.5,388.3z"/>
	</g>
	<g>
		<path class="st0" d="M99.6,421.3c0.3,0.2,0.5,0.4,0.8,0.8c0.3,0.4,0.4,0.8,0.4,1.4v2h-9.3v-1.8c0-0.6,0.1-1,0.2-1.3
			c0.1-0.3,0.3-0.5,0.4-0.7c0.2-0.2,0.3-0.4,0.4-0.6c0.1-0.2,0.2-0.4,0.2-0.7c-0.2-0.9-0.3-1.7-0.4-2.3c-0.1-0.6-0.1-1.1-0.2-1.4
			c-0.1-0.4-0.2-0.6-0.3-0.8c-0.1-0.2-0.3-0.2-0.5-0.2h-0.4h-4.2c-0.3,0-0.5,0-0.7,0.1c-0.1,0.1-0.2,0.3-0.3,0.6
			c0,0.2-0.1,0.5-0.1,0.9c0,0.4-0.1,0.9-0.1,1.4c-0.1,0.5-0.1,1.1-0.2,1.8c0,0.4,0.1,0.6,0.2,0.8c0.1,0.2,0.2,0.4,0.4,0.6
			c0.1,0.2,0.2,0.4,0.4,0.7s0.2,0.7,0.2,1.2v1.8h-9.1v-2c0-0.5,0.1-0.9,0.3-1.2c0.2-0.3,0.4-0.5,0.6-0.7c0.2-0.2,0.4-0.4,0.6-0.6
			c0.2-0.2,0.4-0.5,0.5-0.8l2.8-13.3c0.3-1.6,0.7-3.3,1-4.8s0.7-3,0.9-4.3c0.3-1.3,0.5-2.3,0.7-3.1c0.2-0.8,0.3-1.2,0.3-1.2v-0.3
			c0-0.3-0.1-0.5-0.2-0.7c-0.2-0.2-0.3-0.4-0.5-0.6c-0.2-0.2-0.4-0.5-0.5-0.8c-0.2-0.3-0.2-0.8-0.2-1.5v-1.8c1.8,0,3.2,0,4.3,0
			c1.1,0,2,0,2.7,0.2c0.7,0.1,1.2,0.4,1.5,0.7c0.3,0.3,0.6,0.8,0.7,1.4c0,0.1,0.1,0.7,0.3,1.6c0.2,0.9,0.4,2.1,0.7,3.5
			c0.3,1.4,0.6,3,1,4.8c0.4,1.8,0.7,3.6,1.1,5.5c0.9,4.3,1.9,9.2,3,14.7c0.1,0.3,0.2,0.5,0.3,0.6C99.3,421,99.4,421.1,99.6,421.3z
			 M90.9,411c0.4,0,0.6-0.2,0.6-0.6l-1.2-6.9c-0.2-0.9-0.3-1.7-0.5-2.6c-0.1-0.8-0.3-1.6-0.4-2.3c-0.1-0.7-0.2-1.2-0.3-1.6
			c-0.1-0.4-0.1-0.6-0.1-0.7h-0.1c0,0,0,0.4-0.2,1c-0.1,0.7-0.2,1.5-0.4,2.5c-0.2,1-0.4,2.1-0.6,3.3c-0.2,1.2-0.4,2.3-0.6,3.3
			c-0.2,1-0.3,1.9-0.5,2.7c-0.1,0.7-0.2,1.2-0.2,1.3c0,0.2,0,0.4,0.1,0.5c0.1,0.1,0.3,0.1,0.7,0.1H89H90.9z"/>
	</g>
	<g>
		<path class="st0" d="M122.5,420.7c0.3,0.2,0.5,0.4,0.7,0.7c0.2,0.3,0.3,0.8,0.3,1.3v2.7h-4.9c-0.9,0-1.5-0.3-2-0.8
			c-0.4-0.5-0.7-1.2-0.7-1.9v-11.2c0-1-0.2-1.7-0.6-2.2s-1.1-0.7-2.1-0.7h-2.1c-0.4,0-0.7,0.2-0.7,0.7V420c0,0.3,0,0.6,0.1,0.7
			c0.1,0.1,0.2,0.3,0.4,0.4c0.3,0.2,0.5,0.5,0.8,0.9c0.3,0.4,0.4,0.8,0.4,1.4v2.2h-9.3v-2.2c0-0.6,0.1-1,0.4-1.4
			c0.3-0.4,0.5-0.7,0.8-0.9c0.1-0.1,0.3-0.2,0.4-0.4c0.1-0.1,0.2-0.4,0.2-0.7v-26.6c0-0.3,0-0.5,0-0.7c0-0.2-0.1-0.3-0.3-0.4
			c-0.3-0.2-0.6-0.4-0.9-0.8c-0.3-0.4-0.5-0.9-0.5-1.6v-2.2h10.6c1.2,0,2.4,0.2,3.4,0.6c1,0.4,1.9,1,2.6,1.7
			c0.7,0.7,1.3,1.6,1.7,2.6c0.4,1,0.6,2.2,0.6,3.4v4.6c0,1.1-0.2,2.1-0.5,2.9c-0.3,0.9-0.8,1.6-1.5,2.2c-0.4,0.3-0.4,0.7,0,1
			c0.8,0.6,1.3,1.4,1.5,2.4s0.4,2.1,0.4,3.4v6.9c0,0.3,0.1,0.5,0.2,0.7C122.2,420.5,122.3,420.6,122.5,420.7z M116.1,395.9
			c0-1-0.3-1.8-0.9-2.4c-0.6-0.5-1.3-0.8-2.1-0.8h-2c-0.4,0-0.6,0.2-0.6,0.7v9.9c0,0.3,0.1,0.5,0.2,0.6c0.1,0.1,0.2,0.2,0.4,0.2h2.6
			c1,0,1.7-0.3,2-0.8s0.5-1.3,0.5-2.3V395.9z"/>
	</g>
	<g>
		<path class="st0" d="M156.8,391.6c-0.2,0.4-0.4,0.6-0.6,0.8c-0.3,0.2-0.6,0.4-0.9,0.5V420c0,0.3,0,0.6,0.2,0.7
			c0.1,0.1,0.2,0.3,0.4,0.4c0.3,0.2,0.5,0.5,0.8,0.9c0.3,0.4,0.4,0.8,0.4,1.4v2.2h-9.3v-2.2c0-0.6,0.1-1,0.4-1.4
			c0.3-0.4,0.5-0.7,0.8-0.9c0.2-0.1,0.3-0.2,0.4-0.4c0.1-0.1,0.1-0.4,0.1-0.7v-18.9c0,0,0-0.1,0-0.1c0,0-0.1,0-0.1,0.2
			c-1,2.2-2,4.3-2.8,6.1c-0.4,0.8-0.7,1.5-1.1,2.3c-0.4,0.8-0.7,1.4-1,2.1c-0.3,0.6-0.5,1.1-0.7,1.6c-0.2,0.4-0.3,0.7-0.4,0.8
			c-0.1,0.2-0.4,0.4-0.8,0.5c-0.4,0.1-0.9,0.2-1.4,0.2c-0.5,0-0.9,0-1.4-0.2c-0.4-0.1-0.7-0.3-0.8-0.5c-0.1-0.1-0.2-0.4-0.4-0.8
			c-0.2-0.4-0.4-0.9-0.7-1.5c-0.3-0.6-0.6-1.3-1-2c-0.4-0.7-0.7-1.5-1-2.3c-0.8-1.8-1.8-3.8-2.8-5.9c0-0.1-0.1-0.1-0.1-0.1
			s-0.1,0.1-0.1,0.3V420c0,0.3,0,0.6,0.2,0.7s0.2,0.3,0.4,0.4c0.3,0.2,0.5,0.5,0.8,0.9c0.3,0.4,0.4,0.8,0.4,1.4v2.2h-9.3v-2.2
			c0-0.6,0.1-1,0.4-1.4c0.3-0.4,0.5-0.7,0.8-0.9c0.1-0.1,0.2-0.2,0.3-0.4c0.1-0.1,0.1-0.3,0.2-0.6v-27.3c-0.3-0.1-0.6-0.2-0.9-0.5
			c-0.2-0.2-0.4-0.4-0.6-0.8c-0.2-0.4-0.3-0.8-0.3-1.4v-2.3h6.8c0.5,0,0.8,0.3,1.1,0.8l7.9,17.5l7.8-17.5c0.1-0.3,0.4-0.5,0.8-0.6
			c0.4-0.1,0.7-0.2,1-0.2h6.4v2.3C157.1,390.7,157,391.2,156.8,391.6z"/>
	</g>
</g>
<g>
	<g>
		<g>
			<g>
				<path class="st0" d="M-87.1,340.9c1.7,6.3,3.4,12.5,5.1,18.8c0.1,0.3,0.2,0.5,0.2,0.8c0.3,0,0.6,0.1,0.9,0.1
					c3.1,0.3,6.2,0.7,9.2,1.1c-7.4,1.8-14.8,3.9-22.1,6.2c2-4.5,4.1-9.1,6.4-13.6c0.2-0.3,0.3-0.7,0.5-1c-0.3-0.2-0.6-0.4-0.9-0.6
					c-4.3-2.6-8.7-5.2-13.2-7.7C-96.3,343.6-91.7,342.2-87.1,340.9 M-86.1,339.4c-6.1,1.6-12.1,3.4-18.1,5.4
					c5.3,2.9,10.6,5.9,15.7,9c-2.6,5.4-5.1,10.7-7.5,16.1c10.3-3.3,20.7-6.2,31.2-8.6c-5.2-0.8-10.5-1.5-15.8-2
					C-82.5,352.7-84.3,346-86.1,339.4L-86.1,339.4z"/>
			</g>
			<g>
				<path class="st0" d="M126.7,345c-4.5,2.5-8.9,5.1-13.2,7.7c-0.3,0.2-0.6,0.4-0.9,0.6c0.2,0.3,0.3,0.7,0.5,1
					c2.2,4.5,4.4,9,6.4,13.6c-7.3-2.3-14.7-4.4-22.1-6.2c3-0.4,6.1-0.8,9.2-1.1c0.3,0,0.6-0.1,0.9-0.1c0.1-0.3,0.2-0.5,0.2-0.8
					c1.7-6.3,3.4-12.5,5.1-18.8C117.5,342.2,122.1,343.6,126.7,345 M130,344.8c-6-2-12.1-3.8-18.1-5.4c-1.8,6.7-3.6,13.3-5.4,20
					c-5.3,0.6-10.6,1.2-15.8,2c10.5,2.4,20.9,5.2,31.2,8.6c-2.3-5.4-4.8-10.8-7.5-16.1C119.4,350.7,124.6,347.7,130,344.8L130,344.8
					z"/>
			</g>
			<g>
				<path class="st0" d="M109.8,334.1c-1.9,7.3-3.8,14.5-5.7,21.8c-59.8-15.6-122.6-15.6-182.4,0c-1.9-7.3-3.8-14.5-5.7-21.8
					C-20.5,317.6,46.2,317.6,109.8,334.1 M111.4,333.3c-64.6-17.1-132.5-17.1-197.1,0c1.2,4.4,4.1,15.6,6.4,24.2
					c9.4-2.8,50.8-12.6,92.1-11.9c41.4-0.7,82.7,9.1,92.1,11.9C106.1,353.2,109.1,342.1,111.4,333.3L111.4,333.3z"/>
			</g>
		</g>
		<g>
			<path class="st0" d="M-64,345.2c-0.1-0.1-0.2-0.2-0.3-0.3c-2.5,2-7,1.6-7.9-2.3c-1.4-6,8.3-8.1,9.5-2.1c0.2,1,0.1,1.9-0.2,2.7
				c0.4,0.4,0.8,0.8,1.3,1.3c0,0.1,0,0.2,0.1,0.3C-62.4,344.9-63.2,345-64,345.2z M-65.2,341c-0.7-3.1-5.3-2.1-4.6,1
				C-69.1,345.1-64.5,344.1-65.2,341z"/>
			<path class="st0" d="M-52.9,340c-0.3-1.9-0.7-3.8-1-5.7c0.8-0.1,1.5-0.3,2.3-0.4c0.3,1.9,0.7,3.9,1,5.8c0.3,1.9-1.2,3.3-3.1,3.7
				c-1.9,0.3-3.9-0.4-4.2-2.3c-0.4-1.9-0.7-3.8-1.1-5.8c0.8-0.1,1.5-0.3,2.3-0.4c0.4,1.9,0.7,3.8,1.1,5.7c0.1,0.7,0.9,0.9,1.6,0.8
				C-53.4,341.2-52.8,340.7-52.9,340z"/>
			<path class="st0" d="M-40.4,339.8c-1.2,0.2-2.4,0.4-3.7,0.6c-0.1,0.4-0.2,0.8-0.4,1.2c-0.8,0.1-1.5,0.2-2.3,0.4
				c0-0.1,0-0.2-0.1-0.3c0.9-3.1,1.9-6.1,2.9-9.2c0.3-0.1,0.7-0.1,1-0.2c1.8,2.6,3.7,5.3,5.4,7.9c0,0.1,0,0.2,0,0.3
				c-0.8,0.1-1.5,0.2-2.3,0.3C-39.9,340.5-40.1,340.2-40.4,339.8z M-42.9,335.9c-0.2,0.8-0.5,1.6-0.7,2.4c0.7-0.1,1.4-0.2,2.1-0.3
				C-41.9,337.3-42.4,336.6-42.9,335.9z"/>
			<path class="st0" d="M-31.3,337.7c1.1-0.1,2.3-0.3,3.4-0.4c0.1,0.8,0.1,1.3,0.2,2c-1.9,0.2-3.9,0.4-5.7,0.7
				c-0.4-2.9-0.7-5.8-1.1-8.7c0.8-0.1,1.6-0.2,2.4-0.3C-31.6,335.5-31.8,334-31.3,337.7z"/>
			<path class="st0" d="M-19.5,336.5c0.1,0.7,0.1,1.3,0.2,2c-1.6,0.1-3.1,0.3-4.7,0.4c-0.1-0.7-0.1-1.3-0.2-2c0.4,0,0.8-0.1,1.2-0.1
				c-0.2-1.6-0.3-3.2-0.5-4.8c-0.4,0-0.7,0.1-1.1,0.1c-0.1-0.7-0.1-1.3-0.2-2c1.5-0.2,3.1-0.3,4.6-0.4c0.1,0.7,0.1,1.3,0.2,2
				c-0.4,0-0.7,0.1-1.1,0.1c0.1,1.6,0.3,3.2,0.4,4.9C-20.3,336.6-19.9,336.6-19.5,336.5z"/>
			<path class="st0" d="M-16.3,331.4c-0.1-0.7-0.1-1.3-0.2-2c2.4-0.2,4.7-0.3,7.1-0.5c0,0.7,0.1,1.3,0.1,2c-0.8,0-1.5,0.1-2.3,0.1
				c0.1,2.3,0.3,4.5,0.4,6.8c-0.8,0.1-1.6,0.1-2.4,0.2c-0.2-2.3-0.3-4.5-0.5-6.8C-14.7,331.3-15.5,331.4-16.3,331.4z"/>
			<path class="st0" d="M0.1,337.3c-0.8,0-1.6,0.1-2.4,0.1c-0.1-1.2-0.1-2.5-0.2-3.7c-1.1-1.5-2.2-3.1-3.4-4.6c0-0.1,0-0.2,0-0.3
				c0.9,0,1.8-0.1,2.6-0.1c0.6,1,1.2,1.9,1.8,2.9c0,0,0.1,0,0.1,0c0.5-1,1.1-2,1.6-3c0.9,0,1.8-0.1,2.6-0.1c0,0.1,0,0.2,0,0.3
				c-1,1.6-2,3.2-3,4.9C0,334.8,0.1,336.1,0.1,337.3z"/>
			<path class="st0" d="M13.5,337.1c0-2.9,0-5.9,0-8.8c1.4,0,2.8,0,4.2,0c4.6,0.1,4.4,6.6-0.1,6.6c-0.6,0-1.2,0-1.7,0
				c0,0.8,0,1.5,0,2.3C15.1,337.1,14.3,337.1,13.5,337.1z M17.7,330.3c-0.6,0-1.2,0-1.7,0c0,0.7,0,1.8,0,2.5c0.6,0,1.1,0,1.7,0
				C19,332.9,19.1,330.4,17.7,330.3z"/>
			<path class="st0" d="M33.1,337.3c0,0.1,0,0.2,0,0.3c-0.9,0-1.8-0.1-2.7-0.1c-0.5-0.9-1-1.8-1.5-2.7c-0.4,0-0.8,0-1.2-0.1
				c0,0.9-0.1,1.7-0.1,2.6c-0.8,0-1.6-0.1-2.4-0.1c0.1-2.9,0.2-5.9,0.3-8.8c1.4,0,2.8,0.1,4.2,0.2c3.8,0.2,4.2,4.4,1.7,5.8
				C32,335.4,32.5,336.4,33.1,337.3z M29.6,330.7c-0.6,0-1.2-0.1-1.7-0.1c0,0.7-0.1,1.5-0.1,2.2c0.6,0,1.1,0,1.7,0.1
				C30.8,332.9,31,330.7,29.6,330.7z"/>
			<path class="st0" d="M36.9,333.5c0.4-6.1,10.2-5.4,9.6,0.7C45.9,340.3,36.5,339.5,36.9,333.5z M44.1,334c0.3-3.2-4.5-3.5-4.7-0.4
				C39.1,336.8,43.8,337.2,44.1,334z"/>
			<path class="st0" d="M54.1,339.4c-1.2-0.1-2.3-0.3-3.5-0.4c0.3-2.9,0.6-5.8,0.9-8.8c1.2,0.1,2.4,0.3,3.6,0.4
				C61.3,331.4,60.1,340.1,54.1,339.4z M53.2,337.2c0.4,0,0.8,0.1,1.1,0.1c3,0.3,3.5-4.3,0.5-4.7c-0.4,0-0.8-0.1-1.1-0.1
				C53.5,334.1,53.3,335.7,53.2,337.2z"/>
			<path class="st0" d="M68.4,338.3c0.3-1.9,0.6-3.9,0.9-5.8c0.8,0.1,1.6,0.2,2.3,0.4c-0.3,1.9-0.6,3.9-0.9,5.8
				c-0.3,1.9-2.2,2.7-4.1,2.5c-1.9-0.3-3.5-1.6-3.3-3.6c0.3-1.9,0.5-3.9,0.8-5.8c0.8,0.1,1.6,0.2,2.3,0.3c-0.3,1.9-0.6,3.9-0.8,5.8
				c-0.1,0.7,0.6,1.2,1.3,1.3C67.5,339.2,68.2,339,68.4,338.3z"/>
			<path class="st0" d="M80.8,334.4c2,0.4,3.9,1.7,3.8,4.1c-0.8-0.2-1.5-0.3-2.3-0.5c-0.2-0.9-0.8-1.5-1.8-1.7
				c-1.4-0.3-2.5,0.6-2.8,2c-0.2,1.3,0.5,2.5,1.9,2.8c1,0.2,1.9-0.1,2.3-1c0.8,0.2,1.5,0.3,2.3,0.4c-0.8,2.4-3.1,2.9-5,2.6
				c-2.3-0.4-4.5-2.3-4-5.3C75.7,335,78.4,333.9,80.8,334.4z"/>
			<path class="st0" d="M95.2,339.4c-1.4-0.3-2.1-0.5-3.4-0.8c-0.1,0.4-0.2,0.8-0.3,1.2c1.1,0.2,2.1,0.5,3.2,0.7
				c-0.1,0.7-0.3,1.3-0.4,2c-1-0.2-2.1-0.5-3.1-0.7c-0.1,0.5-0.2,1-0.3,1.5c1.4,0.3,2.1,0.5,3.5,0.8c-0.1,0.6-0.3,1.3-0.4,2
				c-2.1-0.5-3.7-0.8-5.8-1.3c0.6-2.9,1.2-5.8,1.8-8.6c2.2,0.5,3.7,0.8,5.9,1.3C95.5,338.1,95.3,338.8,95.2,339.4z"/>
		</g>
	</g>
</g>
<path class="st0" d="M-12,371.4c0-0.7-9.5-2.9-21.2,2.1c-11.7,5-21.2-1.4-21.2-2.1c0,0.7,9.5,2.9,21.2-2.1
	C-21.5,364.4-12,370.7-12,371.4z"/>
<path class="st0" d="M79,371.4c0,0.7-9.5,2.9-21.2-2.1c-11.7-5-21.2,1.4-21.2,2.1c0-0.7,9.5-2.9,21.2,2.1
	C69.5,378.5,79,372.1,79,371.4z"/>
<g>
	<g>
		<path class="st0" d="M-62,447.3c1.4,0,2.9,0.7,3.2,2.5h-1.8c-0.3-0.6-0.8-0.8-1.5-0.8c-1.1,0-1.8,0.9-1.8,2c0,1.2,0.7,1.9,1.8,1.9
			c0.7,0,1.2-0.2,1.5-0.9H-62v-1.6h3.3c0,0.7,0,1.4-0.2,2.1c-0.5,1.5-1.8,2-3.1,2c-1.8,0-3.6-1.2-3.6-3.6
			C-65.6,448.5-63.8,447.3-62,447.3z"/>
	</g>
	<g>
		<path class="st0" d="M-50.3,452.1v-4.7c0.6,0,1.2,0,1.7,0v4.7c0,1.6-1.3,2.4-2.8,2.4c-1.4,0-2.8-0.9-2.8-2.4v-4.7
			c0.6,0,1.2,0,1.7,0v4.7c0,0.6,0.6,0.9,1.1,0.9S-50.3,452.6-50.3,452.1z"/>
	</g>
	<g>
		<path class="st0" d="M-39.9,453.6h-2.8l-0.4,0.9h-1.8v-0.3l3.2-6.9h0.8l3.2,6.9v0.3h-1.8L-39.9,453.6z M-41.3,450.2l-0.8,1.9h1.6
			L-41.3,450.2z"/>
	</g>
	<g>
		<path class="st0" d="M-27.7,454.2v0.3h-2l-1.2-2.1h-0.9v2.1c-0.6,0-1.2,0-1.8,0c0-2.3,0-4.7,0-7c1,0,2.1,0,3.1,0
			c2.8,0,3.3,3.3,1.5,4.6L-27.7,454.2z M-30.6,449c-0.4,0-0.9,0-1.3,0c0,0.6,0,1.2,0,1.8h1.3C-29.6,450.8-29.5,449-30.6,449z"/>
	</g>
	<g>
		<path class="st0" d="M-19,453.6h-2.8l-0.4,0.9H-24v-0.3l3.2-6.9h0.8l3.2,6.9v0.3h-1.8L-19,453.6z M-20.4,450.2l-0.8,1.9h1.6
			L-20.4,450.2z"/>
	</g>
	<g>
		<path class="st0" d="M-10.9,451v3.5c-0.6,0-1.2,0-1.9,0v-7.1h0.7l3.6,3.5v-3.5c0.6,0,1.2,0,1.8,0v7.1h-0.6L-10.9,451z"/>
	</g>
	<g>
		<path class="st0" d="M-2.6,449c0-0.5,0-1.1,0-1.6h5.2c0,0.5,0,1.1,0,1.6H0.9v5.4c-0.6,0-1.2,0-1.8,0V449H-2.6z"/>
	</g>
	<g>
		<path class="st0" d="M11.2,449c-1,0-1.6,0-2.6,0v1H11c0,0.5,0,1.1,0,1.6H8.6c0,0.4,0,0.8,0,1.2c1,0,1.6,0,2.7,0c0,0.5,0,1.1,0,1.6
			c-1.7,0-2.9,0-4.5,0c0-2.4,0-4.7,0-7c1.6,0,2.7,0,4.4,0C11.2,447.9,11.2,448.5,11.2,449z"/>
		<path class="st0" d="M20.3,449c-1,0-1.6,0-2.6,0v1h2.4c0,0.5,0,1.1,0,1.6h-2.4c0,0.4,0,0.8,0,1.2c1,0,1.6,0,2.7,0
			c0,0.5,0,1.1,0,1.6c-1.7,0-2.9,0-4.5,0c0-2.4,0-4.7,0-7c1.6,0,2.7,0,4.4,0C20.3,447.9,20.3,448.5,20.3,449z"/>
	</g>
	<g>
		<path class="st0" d="M27.9,454.4h-2.7v-7h2.7C32.5,447.4,32.5,454.4,27.9,454.4z M27,452.8h0.9c2.2,0,2.2-3.8,0-3.8H27V452.8z"/>
	</g>
	<g>
		<path class="st0" d="M46.6,454.4l-0.2-0.3c-2.1,1.1-5.4,0.1-5.4-3.2c0-4.9,7.2-4.9,7.2,0c0,0.8-0.2,1.5-0.6,2.1l0.7,1.2v0.2H46.6z
			 M46.5,450.9c0-2.5-3.5-2.5-3.5,0C42.9,453.5,46.5,453.5,46.5,450.9z"/>
	</g>
	<g>
		<path class="st0" d="M56.7,452.1v-4.7c0.6,0,1.2,0,1.7,0v4.7c0,1.6-1.3,2.4-2.8,2.4c-1.4,0-2.8-0.9-2.8-2.4v-4.7
			c0.6,0,1.2,0,1.7,0v4.7c0,0.6,0.6,0.9,1.1,0.9C56.1,452.9,56.7,452.6,56.7,452.1z"/>
	</g>
	<g>
		<path class="st0" d="M67.1,453.6h-2.8l-0.4,0.9h-1.8v-0.3l3.2-6.9h0.8l3.2,6.9v0.3h-1.8L67.1,453.6z M65.7,450.2l-0.8,1.9h1.6
			L65.7,450.2z"/>
	</g>
	<g>
		<path class="st0" d="M75.1,452.8h2.6c0,0.6,0,1,0,1.6c-1.5,0-2.9,0-4.4,0v-7c0.6,0,1.2,0,1.8,0C75.1,451,75.1,449.8,75.1,452.8z"
			/>
	</g>
	<g>
		<path class="st0" d="M85.2,452.9v1.6h-3.6v-1.6h0.9V449h-0.8v-1.6h3.4v1.6h-0.8v3.9H85.2z"/>
	</g>
	<g>
		<path class="st0" d="M89,449c0-0.5,0-1.1,0-1.6h5.2c0,0.5,0,1.1,0,1.6h-1.7v5.4c-0.6,0-1.2,0-1.8,0V449H89z"/>
	</g>
	<g>
		<path class="st0" d="M102.1,454.4h-1.8v-3l-2.4-3.8v-0.3h1.9l1.3,2.3h0.1l1.3-2.3h2v0.3l-2.4,3.8V454.4z"/>
	</g>
</g>
<g>
	<g>
		<path class="st0" d="M-16,464.5c-1,0-1.6,0-2.6,0v1h2.4c0,0.5,0,1.1,0,1.6h-2.4c0,0.4,0,0.8,0,1.2c1,0,1.6,0,2.7,0
			c0,0.5,0,1.1,0,1.6c-1.7,0-2.9,0-4.5,0c0-2.4,0-4.7,0-7c1.6,0,2.7,0,4.4,0C-16,463.4-16,464-16,464.5z"/>
	</g>
	<g>
		<path class="st0" d="M-7.7,467.9c0-0.5-0.6-0.6-1.3-0.6c-1.5-0.1-2.5-0.6-2.6-2.2c-0.1-3,5.4-3,5.4,0c-0.6,0-1.1,0-1.7,0
			c0-0.9-1.9-0.9-2,0c0,0.5,0.5,0.6,1.1,0.7c1.4,0.2,2.8,0.3,2.8,2.1c0,3-5.7,3-5.7-0.1c0.6,0,1.1,0,1.7,0
			C-9.9,468.7-7.7,468.7-7.7,467.9z"/>
	</g>
	<g>
		<path class="st0" d="M-2.1,464.5c0-0.5,0-1.1,0-1.6h5.2c0,0.5,0,1.1,0,1.6H1.4v5.4c-0.6,0-1.2,0-1.8,0v-5.4H-2.1z"/>
	</g>
	<g>
		<path class="st0" d="M9.9,470H7.3v-7h2.7C14.5,462.9,14.5,469.9,9.9,470z M9.1,468.3h0.9c2.2,0,2.2-3.8,0-3.8H9.1V468.3z"/>
	</g>
	<g>
		<path class="st0" d="M17.3,469.1c0-0.6,0.4-0.9,1-0.9c0.5,0,1,0.4,1,0.9c0,0.6-0.4,0.9-1,0.9C17.7,470,17.3,469.7,17.3,469.1z"/>
	</g>
	<g>
		<path class="st0" d="M28.8,464.4v-1.5h2.7v5.6h1.1v1.5h-3.9v-1.5h1v-4.1H28.8z"/>
	</g>
	<g>
		<path class="st0" d="M37.1,470l1.5-2.5c-1.5,0.1-2.5-0.9-2.5-2.3c0-1.7,1.1-2.4,2.7-2.4c1.5,0,2.7,0.8,2.7,2.4
			c0,0.5-0.1,1-0.4,1.4l-2.1,3.4H37.1z M38,465.2c0,0.5,0.4,0.9,0.9,0.9c0.6,0,0.9-0.3,0.9-0.9c0-0.5-0.3-0.9-0.9-0.9
			C38.3,464.4,38,464.7,38,465.2z"/>
	</g>
	<g>
		<path class="st0" d="M47.2,465.3c1.6-0.1,3.2,0.2,3.2,2.3c0,1.2-0.8,2.5-2.5,2.5c-1.3,0-2.3-0.9-2.4-2.3h1.6
			c0,0.5,0.3,0.7,0.8,0.7c0.5,0,0.8-0.3,0.8-0.9c0-0.4-0.2-0.6-0.6-0.8c-0.7-0.2-1.9-0.1-2.4-0.1v-3.9h4.4v1.5h-2.9V465.3z"/>
	</g>
	<g>
		<path class="st0" d="M55.3,470l1.5-2.5c-1.5,0.1-2.5-0.9-2.5-2.3c0-1.7,1.1-2.4,2.7-2.4c1.5,0,2.7,0.8,2.7,2.4
			c0,0.5-0.1,1-0.4,1.4l-2.1,3.4H55.3z M56.1,465.2c0,0.5,0.4,0.9,0.9,0.9c0.6,0,0.9-0.3,0.9-0.9c0-0.5-0.3-0.9-0.9-0.9
			C56.5,464.4,56.1,464.7,56.1,465.2z"/>
	</g>
</g>
</svg>
