<?xml version="1.0" encoding="utf-8"?>
<!-- Generator: Adobe Illustrator 19.0.0, SVG Export Plug-In . SVG Version: 6.00 Build 0)  -->
<svg version="1.1" id="Layer_1" xmlns="http://www.w3.org/2000/svg" xmlns:xlink="http://www.w3.org/1999/xlink" x="0px" y="0px"
	 viewBox="-145 302 320 190" style="enable-background:new -145 302 320 190;" xml:space="preserve">
<style type="text/css">
	.st0{fill:#333333;}
	.st1{fill:#FFFFFF;}
</style>
<g id="XMLID_85_">
	<g id="XMLID_86_">
		<g id="XMLID_195_">
			
				<text id="XMLID_194_" transform="matrix(1 0 0 1 -342.2578 1026.5078)" class="st0" style="font-family:'BebasNeueBold'; font-size:9.377px;">S</text>
		</g>
		<g id="XMLID_190_">
			
				<text id="XMLID_189_" transform="matrix(1 0 0 1 -336.7451 1026.5078)" class="st0" style="font-family:'BebasNeueBold'; font-size:9.377px;">A</text>
		</g>
		<g id="XMLID_134_">
			
				<text id="XMLID_133_" transform="matrix(1 0 0 1 -330.9092 1026.5078)" class="st0" style="font-family:'BebasNeueBold'; font-size:9.377px;">L</text>
		</g>
		<g id="XMLID_129_">
			<text transform="matrix(1 0 0 1 -326.0698 1026.5078)" class="st0" style="font-family:'BebasNeueBold'; font-size:9.377px;">T</text>
			<text transform="matrix(1 0 0 1 -320.8698 1026.5078)" class="st0" style="font-family:'BebasNeueBold'; font-size:9.377px;"> </text>
		</g>
		<g id="XMLID_124_">
			
				<text id="XMLID_123_" transform="matrix(1 0 0 1 -317.5274 1026.5078)" class="st0" style="font-family:'BebasNeueBold'; font-size:9.377px;">L</text>
		</g>
		<g id="XMLID_119_">
			
				<text transform="matrix(1 0 0 1 -312.1856 1026.5078)" class="st0" style="font-family:'BebasNeueBold'; font-size:9.377px; letter-spacing:1;">A</text>
			<text transform="matrix(1 0 0 1 -306.3856 1026.5078)" class="st0" style="font-family:'BebasNeueBold'; font-size:9.377px;">K</text>
		</g>
		<g id="XMLID_114_">
			
				<text id="XMLID_113_" transform="matrix(1 0 0 1 -300.4473 1026.5078)" class="st0" style="font-family:'BebasNeueBold'; font-size:9.377px;">E</text>
		</g>
		<g id="XMLID_109_">
			<text transform="matrix(1 0 0 1 -295.0537 1026.5078)" class="st0" style="font-family:'BebasNeueBold'; font-size:9.377px;">,</text>
			<text transform="matrix(1 0 0 1 -291.4537 1026.5078)" class="st0" style="font-family:'BebasNeueBold'; font-size:9.377px;"> </text>
		</g>
		<g id="XMLID_104_">
			
				<text id="XMLID_103_" transform="matrix(1 0 0 1 -288.1055 1026.5078)" class="st0" style="font-family:'BebasNeueBold'; font-size:9.377px;">U</text>
		</g>
		<g id="XMLID_99_">
			
				<text id="XMLID_98_" transform="matrix(1 0 0 1 -282.3184 1026.5078)" class="st0" style="font-family:'BebasNeueBold'; font-size:9.377px;">T</text>
		</g>
		<g id="XMLID_94_">
			
				<text id="XMLID_93_" transform="matrix(1 0 0 1 -277.2378 1026.5078)" class="st0" style="font-family:'BebasNeueBold'; font-size:9.377px;">A</text>
		</g>
		<g id="XMLID_89_">
			
				<text id="XMLID_88_" transform="matrix(1 0 0 1 -271.4014 1026.5078)" class="st0" style="font-family:'BebasNeueBold'; font-size:9.377px;">H</text>
		</g>
	</g>
</g>
<g id="XMLID_19_">
	<g id="XMLID_32_">
		
			<text id="XMLID_31_" transform="matrix(1 0 0 1 -360.7305 957.2949)" class="st0" style="font-family:'GearedSlab-Bold'; font-size:10.9398px;">E</text>
	</g>
	<g id="XMLID_27_">
		
			<text id="XMLID_26_" transform="matrix(1 0 0 1 -355.4683 957.2949)" class="st0" style="font-family:'GearedSlab-Bold'; font-size:10.9398px;">S</text>
	</g>
	<g id="XMLID_22_">
		<text transform="matrix(1 0 0 1 -350.1079 957.2949)" class="st0" style="font-family:'GearedSlab-Bold'; font-size:10.9398px;">TD</text>
		<text transform="matrix(1 0 0 1 -338.9079 957.2949)" class="st0" style="font-family:'GearedSlab-Bold'; font-size:10.9398px;">.</text>
	</g>
</g>
<g id="XMLID_3_">
	<g id="XMLID_16_">
		
			<text id="XMLID_15_" transform="matrix(1 0 0 1 -268.002 957.2949)" class="st0" style="font-family:'GearedSlab-Bold'; font-size:10.9398px;">1</text>
	</g>
	<g id="XMLID_11_">
		
			<text id="XMLID_10_" transform="matrix(1 0 0 1 -263.6919 957.2949)" class="st0" style="font-family:'GearedSlab-Bold'; font-size:10.9398px;">9</text>
	</g>
	<g id="XMLID_6_">
		<text transform="matrix(1 0 0 1 -258.3096 957.2949)" class="st0" style="font-family:'GearedSlab-Bold'; font-size:10.9398px;">5</text>
		<text transform="matrix(1 0 0 1 -252.8096 957.2949)" class="st0" style="font-family:'GearedSlab-Bold'; font-size:10.9398px;">9</text>
	</g>
</g>
<g>
	<g>
		<g>
			<g>
				<path class="st0" d="M-87.1,435.2c1.8,4.1,3.7,8.2,5.7,12.3c-3.9,2.3-7.9,4.6-11.9,6.8c4.9,1.6,9.8,3.1,14.7,4.4
					c1.8-6.4,3.6-12.9,5.4-19.3C-77.8,438.1-82.5,436.7-87.1,435.2z"/>
				<path class="st0" d="M112.2,447.5c2-4.1,3.9-8.2,5.7-12.3c-4.6,1.5-9.2,2.9-13.9,4.2c1.8,6.4,3.6,12.9,5.4,19.3
					c4.9-1.4,9.8-2.8,14.7-4.4C120,452.1,116.1,449.8,112.2,447.5z"/>
				<g>
					<path class="st0" d="M-70.1,435.8c-3.9,14.5-3.3,12.3-7.5,27.6c60.9,16.5,125.1,16.5,186,0c-3.9-14.5-3.3-12.3-7.5-27.6
						C44.9,451-14.1,451-70.1,435.8z"/>
				</g>
			</g>
		</g>
		<g>
			<path class="st1" d="M-54.1,458.3c-0.8-0.2-1.5-0.4-2-0.8c-0.6-0.4-1-0.8-1.3-1.3c-0.3-0.5-0.5-1.1-0.6-1.7c-0.1-0.6,0-1.3,0.1-2
				c0.2-0.7,0.4-1.3,0.7-1.8c0.3-0.5,0.7-1,1.2-1.3c0.5-0.3,1.1-0.5,1.7-0.7c0.6-0.1,1.3-0.1,2.1,0.1c0.5,0.1,0.9,0.2,1.3,0.4
				c0.4,0.1,0.6,0.3,0.9,0.5c0.2,0.2,0.4,0.4,0.5,0.6c0.1,0.2,0.1,0.4,0.1,0.6c0,0.1-0.1,0.3-0.2,0.4c-0.1,0.1-0.2,0.2-0.3,0.2
				c-0.1,0.1-0.3,0.1-0.4,0.1c-0.2,0-0.3,0-0.5,0c0-0.2,0-0.4,0-0.6c0-0.2-0.1-0.4-0.2-0.6c-0.1-0.2-0.3-0.4-0.5-0.5
				c-0.2-0.1-0.5-0.3-0.8-0.3c-0.6-0.1-1.1-0.1-1.5,0c-0.4,0.1-0.8,0.3-1.2,0.6c-0.3,0.3-0.6,0.7-0.8,1.1c-0.2,0.5-0.4,1-0.5,1.7
				c-0.1,0.6-0.2,1.2-0.2,1.8c0,0.5,0.1,1,0.3,1.4c0.2,0.4,0.5,0.7,0.9,1c0.4,0.3,0.9,0.5,1.5,0.6c0.3,0.1,0.5,0.1,0.8,0.1
				c0.3,0,0.5,0,0.7,0c0.1-0.7,0.3-1.4,0.4-2.1c0-0.2,0-0.3,0-0.5c0-0.1-0.1-0.2-0.2-0.3c-0.1-0.1-0.2-0.1-0.3-0.2
				c-0.1,0-0.3-0.1-0.4-0.1c0,0,0,0-0.1,0c0-0.2,0.1-0.4,0.1-0.5c1.2,0.2,2.4,0.5,3.6,0.7c0,0.2-0.1,0.4-0.1,0.5c0,0,0,0-0.1,0
				c-0.1,0-0.3,0-0.4,0c-0.1,0-0.2,0-0.3,0.1c-0.1,0-0.2,0.1-0.3,0.2c-0.1,0.1-0.1,0.3-0.2,0.5c-0.2,0.8-0.3,1.6-0.5,2.3
				c-0.5,0.1-1,0.2-1.5,0.2C-53,458.5-53.5,458.5-54.1,458.3z"/>
			<path class="st1" d="M-45,459.3c0.9,0.2,1.8,0.3,2.7,0.5c0.2,0,0.4,0,0.6,0c0.2,0,0.3-0.1,0.4-0.2c0.1-0.1,0.2-0.2,0.3-0.3
				c0.1-0.1,0.1-0.2,0.2-0.4c0.1-0.2,0.1-0.4,0.2-0.5c0.2,0,0.5,0.1,0.7,0.1c-0.2,0.8-0.3,1.5-0.5,2.3c-2.5-0.4-5-0.8-7.5-1.3
				c0-0.2,0.1-0.4,0.1-0.5c0.1,0,0.1,0,0.2,0c0.2,0,0.3,0,0.4,0.1c0.1,0,0.3,0,0.4-0.1c0.1,0,0.2-0.1,0.3-0.2
				c0.1-0.1,0.1-0.3,0.2-0.4c0.4-2.1,0.8-4.3,1.2-6.4c0-0.2,0-0.4,0-0.5c0-0.1-0.1-0.2-0.2-0.3c-0.1-0.1-0.2-0.1-0.3-0.2
				c-0.1,0-0.3-0.1-0.4-0.1c-0.1,0-0.1,0-0.2,0c0-0.2,0.1-0.4,0.1-0.5c2.3,0.4,4.6,0.8,6.8,1.2c-0.1,0.8-0.2,1.5-0.3,2.3
				c-0.2,0-0.5-0.1-0.7-0.1c0-0.2,0-0.4,0-0.6c0-0.1,0-0.3,0-0.4c0-0.1-0.1-0.3-0.2-0.4c-0.1-0.1-0.2-0.2-0.3-0.3
				c-0.1-0.1-0.3-0.1-0.5-0.2c-0.8-0.1-1.5-0.3-2.3-0.4c-0.2,1.2-0.4,2.3-0.6,3.5c1.1,0.2,2.2,0.4,3.3,0.6c0,0.2-0.1,0.4-0.1,0.6
				c-1.1-0.2-2.2-0.4-3.3-0.6C-44.5,456.7-44.7,458-45,459.3z"/>
			<path class="st1" d="M-30.3,462.2c-1.4-2.7-2.8-5.5-4.1-8.3c-0.3,2-0.6,4-0.9,6c0,0.2,0,0.4,0,0.5c0,0.1,0.1,0.2,0.2,0.3
				c0.1,0.1,0.2,0.1,0.3,0.2c0.1,0,0.3,0.1,0.4,0.1c0.1,0,0.1,0,0.2,0c0,0.2-0.1,0.4-0.1,0.5c-1.2-0.2-2.3-0.3-3.5-0.5
				c0-0.2,0.1-0.4,0.1-0.5c0.1,0,0.1,0,0.2,0c0.2,0,0.3,0,0.5,0c0.1,0,0.3,0,0.4-0.1c0.1,0,0.2-0.1,0.3-0.2c0.1-0.1,0.1-0.3,0.2-0.5
				c0.3-2.1,0.6-4.3,1-6.4c0-0.2,0-0.3,0-0.5c0-0.1-0.1-0.2-0.2-0.3c-0.1-0.1-0.2-0.1-0.3-0.2c-0.1,0-0.3-0.1-0.4-0.1
				c-0.1,0-0.1,0-0.2,0c0-0.2,0.1-0.4,0.1-0.5c0.8,0.1,1.7,0.3,2.5,0.4c1.3,2.6,2.6,5.3,3.9,7.9c0.3-1.9,0.5-3.9,0.8-5.8
				c0-0.2,0-0.4,0-0.5c0-0.1-0.1-0.2-0.2-0.3c-0.1-0.1-0.2-0.1-0.3-0.2c-0.1,0-0.3-0.1-0.4-0.1c-0.1,0-0.1,0-0.2,0
				c0-0.2,0.1-0.4,0.1-0.5c1.1,0.2,2.3,0.3,3.4,0.5c0,0.2,0,0.4-0.1,0.6c-0.1,0-0.1,0-0.2,0c-0.2,0-0.3,0-0.4,0
				c-0.1,0-0.3,0-0.4,0.1c-0.1,0.1-0.2,0.1-0.3,0.3c-0.1,0.1-0.1,0.3-0.2,0.5c-0.3,2.6-0.7,5.2-1,7.9
				C-29.6,462.3-29.9,462.3-30.3,462.2z"/>
			<path class="st1" d="M-21.1,463.5c-0.6-0.1-1-0.2-1.5-0.3c-0.4-0.2-0.8-0.4-1.1-0.6c-0.3-0.3-0.5-0.6-0.6-1
				c-0.1-0.4-0.1-0.9-0.1-1.4c0.2-1.7,0.4-3.4,0.6-5.1c0-0.2,0-0.4,0-0.5c0-0.1-0.1-0.2-0.2-0.3c-0.1-0.1-0.2-0.1-0.3-0.2
				c-0.1,0-0.3-0.1-0.4-0.1c-0.1,0-0.1,0-0.2,0c0-0.2,0-0.4,0.1-0.6c1.3,0.2,2.6,0.3,4,0.5c0,0.2,0,0.4-0.1,0.6c-0.1,0-0.1,0-0.2,0
				c-0.2,0-0.3,0-0.4,0c-0.1,0-0.3,0-0.4,0.1c-0.1,0.1-0.2,0.1-0.3,0.3c-0.1,0.1-0.1,0.3-0.1,0.5c-0.2,1.7-0.4,3.4-0.6,5.1
				c0,0.4,0,0.7,0.1,1c0.1,0.3,0.2,0.5,0.4,0.7c0.2,0.2,0.4,0.3,0.7,0.4c0.3,0.1,0.6,0.2,0.9,0.2c0.4,0,0.8,0,1.1,0
				c0.3-0.1,0.6-0.2,0.8-0.4c0.2-0.2,0.4-0.4,0.5-0.6c0.1-0.2,0.2-0.5,0.2-0.8c0.2-1.7,0.3-3.5,0.5-5.2c0-0.2,0-0.4,0-0.5
				c0-0.1-0.1-0.2-0.2-0.3c-0.1-0.1-0.2-0.1-0.3-0.2c-0.1,0-0.3-0.1-0.4-0.1c-0.1,0-0.1,0-0.2,0c0-0.2,0-0.4,0.1-0.6
				c1.1,0.1,2.3,0.2,3.4,0.3c0,0.2,0,0.4-0.1,0.6c-0.1,0-0.1,0-0.2,0c-0.2,0-0.3,0-0.4,0c-0.1,0-0.3,0-0.4,0.1
				c-0.1,0.1-0.2,0.1-0.3,0.3c-0.1,0.1-0.1,0.3-0.1,0.5c-0.2,1.7-0.3,3.5-0.5,5.2c0,0.4-0.2,0.8-0.3,1.2c-0.2,0.3-0.4,0.6-0.7,0.8
				c-0.3,0.2-0.7,0.4-1.1,0.4C-20,463.5-20.5,463.5-21.1,463.5z"/>
			<path class="st1" d="M-14.1,464c0-0.2,0-0.4,0-0.6c0.1,0,0.1,0,0.2,0c0.2,0,0.3,0,0.5,0c0.1,0,0.3,0,0.4-0.1
				c0.1-0.1,0.2-0.1,0.3-0.3c0.1-0.1,0.1-0.3,0.1-0.5c0.2-2.1,0.3-4.3,0.5-6.4c0-0.2,0-0.4,0-0.5c0-0.1-0.1-0.2-0.2-0.3
				c-0.1-0.1-0.2-0.1-0.3-0.2c-0.1,0-0.3-0.1-0.4-0.1c-0.1,0-0.1,0-0.2,0c0-0.2,0-0.4,0-0.6c1.3,0.1,2.7,0.2,4,0.3
				c0,0.2,0,0.4,0,0.6c-0.1,0-0.1,0-0.2,0c-0.2,0-0.3,0-0.4,0c-0.1,0-0.3,0-0.4,0.1c-0.1,0.1-0.2,0.1-0.3,0.3
				c-0.1,0.1-0.1,0.3-0.1,0.5c-0.2,2.1-0.3,4.3-0.5,6.4c0,0.2,0,0.4,0.1,0.5c0.1,0.1,0.1,0.2,0.2,0.3c0.1,0.1,0.2,0.1,0.4,0.2
				c0.1,0,0.3,0.1,0.4,0.1c0.1,0,0.1,0,0.2,0c0,0.2,0,0.4,0,0.6C-11.4,464.2-12.8,464.1-14.1,464z"/>
			<path class="st1" d="M-0.1,464.9c-1.6-2.6-3.3-5.2-4.8-7.9c-0.1,2-0.2,4.1-0.4,6.1c0,0.2,0,0.4,0.1,0.5c0.1,0.1,0.1,0.2,0.2,0.3
				c0.1,0.1,0.2,0.1,0.4,0.2c0.1,0,0.3,0,0.4,0.1c0.1,0,0.1,0,0.2,0c0,0.2,0,0.4,0,0.6c-1.2-0.1-2.4-0.1-3.5-0.2c0-0.2,0-0.4,0-0.6
				c0.1,0,0.1,0,0.2,0c0.2,0,0.3,0,0.5,0c0.1,0,0.3,0,0.4-0.1c0.1-0.1,0.2-0.1,0.3-0.3c0.1-0.1,0.1-0.3,0.1-0.5
				c0.1-2.2,0.3-4.3,0.4-6.5c0-0.2,0-0.4-0.1-0.5c-0.1-0.1-0.1-0.2-0.2-0.3c-0.1-0.1-0.2-0.1-0.4-0.1c-0.1,0-0.3,0-0.4-0.1
				c-0.1,0-0.1,0-0.2,0c0-0.2,0-0.4,0-0.6c0.8,0.1,1.7,0.1,2.5,0.2c1.5,2.5,3,5,4.6,7.5c0.1-1.9,0.2-3.9,0.3-5.8
				c0-0.2,0-0.4-0.1-0.5c-0.1-0.1-0.1-0.2-0.2-0.3c-0.1-0.1-0.2-0.1-0.4-0.1c-0.1,0-0.3,0-0.4,0c-0.1,0-0.1,0-0.2,0
				c0-0.2,0-0.4,0-0.6c1.1,0.1,2.3,0.1,3.4,0.1c0,0.2,0,0.4,0,0.6c-0.1,0-0.1,0-0.2,0c-0.2,0-0.3,0-0.4,0c-0.1,0-0.3,0.1-0.4,0.1
				c-0.1,0.1-0.2,0.2-0.3,0.3c-0.1,0.1-0.1,0.3-0.1,0.5c-0.1,2.6-0.2,5.3-0.3,7.9C0.6,465,0.3,464.9-0.1,464.9z"/>
			<path class="st1" d="M7.4,464.5c0.9,0,1.8,0,2.7,0.1c0.2,0,0.4,0,0.6-0.1c0.2-0.1,0.3-0.1,0.4-0.2c0.1-0.1,0.2-0.2,0.3-0.3
				c0.1-0.1,0.1-0.3,0.1-0.4c0-0.2,0.1-0.4,0.1-0.6c0.2,0,0.5,0,0.7,0c0,0.8-0.1,1.5-0.1,2.3c-2.5,0-5-0.1-7.6-0.2
				c0-0.2,0-0.4,0-0.6c0.1,0,0.1,0,0.2,0c0.2,0,0.3,0,0.4,0c0.1,0,0.3-0.1,0.4-0.1c0.1-0.1,0.2-0.1,0.3-0.3c0.1-0.1,0.1-0.3,0.1-0.5
				c0.1-2.2,0.1-4.3,0.2-6.5c0-0.2,0-0.4-0.1-0.5c-0.1-0.1-0.1-0.2-0.2-0.3c-0.1-0.1-0.2-0.1-0.4-0.1c-0.1,0-0.3,0-0.4,0
				c-0.1,0-0.1,0-0.2,0c0-0.2,0-0.4,0-0.6c2.3,0.1,4.6,0.1,6.9,0.1c0,0.8,0,1.5,0,2.3c-0.2,0-0.5,0-0.7,0c0-0.2,0-0.4-0.1-0.6
				c0-0.1,0-0.3-0.1-0.4c-0.1-0.1-0.1-0.2-0.2-0.3c-0.1-0.1-0.2-0.2-0.4-0.2c-0.1-0.1-0.3-0.1-0.5-0.1c-0.8,0-1.5,0-2.3,0
				c0,1.2-0.1,2.3-0.1,3.5c1.1,0,2.2,0,3.4,0.1c0,0.2,0,0.4,0,0.6c-1.1,0-2.2,0-3.4-0.1C7.4,461.9,7.4,463.2,7.4,464.5z"/>
			<path class="st1" d="M28.8,460.3c0,0.6,0,1.2-0.2,1.8c-0.1,0.5-0.3,1-0.6,1.5c-0.3,0.4-0.6,0.8-1.1,1.1c-0.4,0.3-0.9,0.5-1.5,0.6
				c0.1,0.4,0.1,0.8,0.3,1.1c0.1,0.3,0.3,0.5,0.5,0.7c0.2,0.2,0.4,0.3,0.6,0.4c0.2,0.1,0.5,0.1,0.8,0.1c0.1,0,0.2,0,0.2,0
				c0,0.2,0,0.4,0,0.6c-0.2,0-0.4,0-0.6,0c-0.4,0-0.8,0-1.1-0.1c-0.4-0.1-0.7-0.2-1-0.4c-0.3-0.2-0.6-0.5-0.8-0.9
				c-0.2-0.4-0.4-0.8-0.4-1.4c-0.6,0-1.2-0.2-1.7-0.4c-0.5-0.2-0.9-0.6-1.2-1c-0.3-0.4-0.6-0.9-0.7-1.5c-0.2-0.6-0.3-1.2-0.3-1.9
				c0-0.7,0.1-1.4,0.2-2c0.2-0.6,0.4-1.1,0.8-1.5c0.4-0.4,0.8-0.8,1.3-1c0.5-0.2,1.2-0.4,1.9-0.4c0.7,0,1.3,0.1,1.8,0.3
				c0.5,0.2,1,0.5,1.4,0.9c0.4,0.4,0.7,0.9,0.9,1.5C28.7,458.9,28.8,459.6,28.8,460.3z M21.6,460.5c0,0.7,0.1,1.2,0.2,1.7
				c0.1,0.5,0.3,0.9,0.5,1.3c0.2,0.3,0.5,0.6,0.9,0.8c0.4,0.2,0.8,0.3,1.3,0.2c0.5,0,1-0.1,1.3-0.3c0.4-0.2,0.6-0.5,0.9-0.8
				c0.2-0.4,0.4-0.8,0.4-1.3c0.1-0.5,0.1-1.1,0.1-1.8c0-0.7-0.1-1.2-0.2-1.7c-0.1-0.5-0.3-0.9-0.5-1.3c-0.2-0.3-0.5-0.6-0.9-0.8
				c-0.4-0.2-0.8-0.3-1.3-0.2c-0.5,0-0.9,0.1-1.3,0.3c-0.4,0.2-0.6,0.5-0.9,0.8c-0.2,0.4-0.4,0.8-0.5,1.3
				C21.6,459.3,21.6,459.8,21.6,460.5z"/>
			<path class="st1" d="M36.3,464.8c-0.6,0-1.1,0-1.5-0.1c-0.4-0.1-0.8-0.2-1.1-0.5c-0.3-0.2-0.6-0.5-0.7-0.9
				c-0.2-0.4-0.3-0.8-0.3-1.4c-0.1-1.7-0.2-3.4-0.3-5.1c0-0.2,0-0.3-0.1-0.5c-0.1-0.1-0.2-0.2-0.3-0.3c-0.1-0.1-0.2-0.1-0.4-0.1
				c-0.1,0-0.3,0-0.4,0c-0.1,0-0.1,0-0.2,0c0-0.2,0-0.4,0-0.6c1.3-0.1,2.7-0.1,4-0.2c0,0.2,0,0.4,0,0.6c-0.1,0-0.1,0-0.2,0
				c-0.2,0-0.3,0-0.4,0.1c-0.1,0-0.3,0.1-0.4,0.2c-0.1,0.1-0.2,0.2-0.2,0.3c-0.1,0.1-0.1,0.3-0.1,0.5c0.1,1.7,0.2,3.4,0.3,5.1
				c0,0.4,0.1,0.7,0.2,1c0.1,0.3,0.3,0.5,0.5,0.6c0.2,0.2,0.5,0.3,0.8,0.3c0.3,0.1,0.6,0.1,1,0.1c0.4,0,0.8-0.1,1-0.2
				c0.3-0.1,0.5-0.3,0.7-0.5c0.2-0.2,0.3-0.4,0.4-0.7c0.1-0.3,0.1-0.5,0.1-0.8c-0.1-1.7-0.2-3.5-0.4-5.2c0-0.2-0.1-0.3-0.1-0.5
				c-0.1-0.1-0.2-0.2-0.3-0.3c-0.1-0.1-0.2-0.1-0.4-0.1c-0.1,0-0.3,0-0.4,0c-0.1,0-0.1,0-0.2,0c0-0.2,0-0.4,0-0.6
				c1.1-0.1,2.3-0.2,3.4-0.2c0,0.2,0,0.4,0,0.6c-0.1,0-0.1,0-0.2,0c-0.2,0-0.3,0-0.4,0.1c-0.1,0-0.3,0.1-0.3,0.2
				c-0.1,0.1-0.2,0.2-0.2,0.3c-0.1,0.1-0.1,0.3-0.1,0.5c0.1,1.7,0.2,3.5,0.4,5.2c0,0.4,0,0.8-0.1,1.2c-0.1,0.4-0.3,0.7-0.6,0.9
				c-0.3,0.3-0.6,0.5-1,0.6C37.4,464.6,36.9,464.7,36.3,464.8z"/>
			<path class="st1" d="M45,460.8c-0.1,0.5-0.3,1-0.4,1.4c0,0.1-0.1,0.2-0.1,0.3c0,0.1,0,0.2,0,0.3c0,0.2,0.1,0.4,0.3,0.5
				c0.2,0.1,0.4,0.1,0.7,0.1c0.1,0,0.2,0,0.3,0c0,0.2,0,0.4,0,0.6c-1.1,0.1-2.3,0.2-3.4,0.3c0-0.2,0-0.4,0-0.6c0.1,0,0.2,0,0.3,0
				c0.1,0,0.3,0,0.3-0.1c0.1,0,0.2-0.1,0.2-0.2c0.1-0.1,0.1-0.2,0.2-0.3c0.1-0.1,0.1-0.3,0.2-0.5c0.8-2.7,1.6-5.4,2.4-8.1
				c0.4,0,0.7-0.1,1.1-0.1c1.3,2.6,2.6,5.2,3.9,7.8c0.1,0.1,0.1,0.2,0.2,0.3c0.1,0.1,0.1,0.1,0.2,0.2c0.1,0,0.2,0.1,0.3,0.1
				c0.1,0,0.2,0,0.4,0c0.1,0,0.1,0,0.2,0c0,0.2,0,0.4,0.1,0.6c-1.3,0.1-2.6,0.3-3.9,0.4c0-0.2,0-0.4-0.1-0.6c0.1,0,0.2,0,0.3,0
				c0.6-0.1,0.8-0.3,0.8-0.7c0-0.1,0-0.1-0.1-0.2c0-0.1-0.1-0.2-0.1-0.3c-0.2-0.5-0.5-0.9-0.7-1.4C47.5,460.6,46.3,460.7,45,460.8z
				 M47.3,457.7c-0.2-0.4-0.3-0.7-0.5-1.1c-0.2-0.3-0.3-0.6-0.4-1c0,0.2,0,0.3-0.1,0.5c0,0.2-0.1,0.3-0.1,0.5c0,0.2-0.1,0.3-0.1,0.5
				c0,0.2-0.1,0.4-0.2,0.6c-0.2,0.8-0.5,1.7-0.7,2.5c1-0.1,2.1-0.2,3.1-0.3C48,459.1,47.7,458.4,47.3,457.7z"/>
			<path class="st1" d="M54.3,463.1c0-0.2,0-0.4-0.1-0.6c0.1,0,0.1,0,0.2,0c0.2,0,0.3,0,0.4-0.1c0.1,0,0.3-0.1,0.4-0.2
				c0.1-0.1,0.2-0.2,0.2-0.3c0-0.1,0.1-0.3,0-0.5c-0.2-2.1-0.5-4.3-0.7-6.4c0-0.2-0.1-0.4-0.1-0.5c-0.1-0.1-0.2-0.2-0.3-0.3
				c-0.1-0.1-0.2-0.1-0.4-0.1c-0.1,0-0.3,0-0.4,0c-0.1,0-0.1,0-0.2,0c0-0.2,0-0.4-0.1-0.6c1.3-0.2,2.6-0.3,4-0.5
				c0,0.2,0,0.4,0.1,0.6c-0.1,0-0.1,0-0.2,0c-0.2,0-0.3,0-0.4,0.1c-0.1,0-0.2,0.1-0.3,0.2c-0.1,0.1-0.2,0.2-0.2,0.3
				c0,0.1-0.1,0.3,0,0.5c0.3,2.4,0.6,4.8,0.9,7.3c0.9-0.1,1.8-0.2,2.8-0.3c0.2,0,0.4-0.1,0.5-0.2c0.1-0.1,0.2-0.2,0.3-0.3
				c0.1-0.1,0.1-0.3,0.2-0.4c0-0.1,0-0.3,0-0.4c0-0.3,0-0.7,0-1c0.2,0,0.5-0.1,0.7-0.1c0.1,0.9,0.2,1.9,0.3,2.8
				C59.3,462.5,56.8,462.8,54.3,463.1z"/>
			<path class="st1" d="M64.5,461.8c0-0.2-0.1-0.4-0.1-0.5c0.1,0,0.1,0,0.2,0c0.2,0,0.3-0.1,0.4-0.1c0.1,0,0.3-0.1,0.3-0.2
				c0.1-0.1,0.2-0.2,0.2-0.3c0-0.1,0-0.3,0-0.5c-0.3-2.1-0.6-4.2-0.9-6.4c0-0.2-0.1-0.4-0.2-0.5c-0.1-0.1-0.2-0.2-0.3-0.2
				c-0.1-0.1-0.2-0.1-0.4-0.1c-0.1,0-0.3,0-0.4,0c-0.1,0-0.1,0-0.2,0c0-0.2-0.1-0.4-0.1-0.5c1.3-0.2,2.6-0.4,4-0.6
				c0,0.2,0.1,0.4,0.1,0.5c-0.1,0-0.1,0-0.2,0c-0.2,0-0.3,0.1-0.4,0.1c-0.1,0-0.2,0.1-0.3,0.2c-0.1,0.1-0.2,0.2-0.2,0.3
				c0,0.1,0,0.3,0,0.5c0.3,2.1,0.6,4.2,1,6.3c0,0.2,0.1,0.4,0.2,0.5c0.1,0.1,0.2,0.2,0.3,0.2c0.1,0,0.2,0.1,0.4,0.1
				c0.1,0,0.3,0,0.4,0c0.1,0,0.1,0,0.2,0c0,0.2,0.1,0.4,0.1,0.5C67.2,461.4,65.8,461.6,64.5,461.8z"/>
			<path class="st1" d="M75.2,458.6c0,0.2,0.1,0.4,0.2,0.5c0.1,0.1,0.2,0.2,0.3,0.2c0.1,0,0.2,0.1,0.4,0.1c0.1,0,0.3,0,0.4,0
				c0.1,0,0.2,0,0.3-0.1c0,0.2,0.1,0.4,0.1,0.5c-1.4,0.3-2.9,0.5-4.3,0.8c0-0.2-0.1-0.4-0.1-0.5c0.1,0,0.2,0,0.3-0.1
				c0.2,0,0.3-0.1,0.4-0.1c0.1,0,0.2-0.1,0.3-0.2c0.1-0.1,0.2-0.2,0.2-0.3c0-0.1,0-0.3,0-0.5c-0.4-2.4-0.8-4.8-1.2-7.2
				c-0.4,0.1-0.9,0.1-1.3,0.2c-0.2,0-0.4,0.1-0.5,0.2c-0.1,0.1-0.2,0.2-0.3,0.3c-0.1,0.1-0.1,0.2-0.1,0.4c0,0.1,0,0.3,0,0.4
				c0,0.2,0,0.4,0,0.6c-0.2,0-0.5,0.1-0.7,0.1c-0.1-0.8-0.2-1.5-0.3-2.3c2.6-0.4,5.1-0.9,7.6-1.3c0.2,0.8,0.3,1.5,0.5,2.3
				c-0.2,0-0.5,0.1-0.7,0.1c-0.1-0.2-0.1-0.4-0.2-0.5c0-0.1-0.1-0.3-0.2-0.4c-0.1-0.1-0.2-0.2-0.3-0.3c-0.1-0.1-0.2-0.1-0.4-0.2
				c-0.1,0-0.3,0-0.5,0c-0.4,0.1-0.9,0.2-1.3,0.2C74.3,453.8,74.7,456.2,75.2,458.6z"/>
			<path class="st1" d="M82.6,458.7c0-0.2-0.1-0.4-0.1-0.5c0.1,0,0.2,0,0.3-0.1c0.2,0,0.3-0.1,0.4-0.1c0.1,0,0.2-0.1,0.3-0.2
				c0.1-0.1,0.2-0.2,0.2-0.3c0-0.1,0-0.3,0-0.5c-0.2-0.8-0.3-1.6-0.5-2.4c-1.1-1.2-2.2-2.4-3.4-3.7c-0.1-0.1-0.2-0.2-0.3-0.3
				c-0.1-0.1-0.2-0.1-0.2-0.2c-0.1,0-0.2-0.1-0.3-0.1c-0.1,0-0.2,0-0.3,0c-0.1,0-0.1,0-0.2,0c0-0.2-0.1-0.4-0.1-0.5
				c1.2-0.2,2.5-0.5,3.7-0.7c0,0.2,0.1,0.4,0.1,0.5c-0.2,0-0.3,0.1-0.5,0.1c-0.1,0-0.2,0.1-0.3,0.1c-0.1,0-0.1,0.1-0.2,0.1
				c0,0-0.1,0.1-0.1,0.1c0,0.1,0,0.1,0,0.2c0,0.1,0.1,0.2,0.2,0.4c0.1,0.1,0.2,0.2,0.2,0.3c0.4,0.5,0.9,1,1.4,1.5
				c0.2,0.2,0.4,0.5,0.6,0.7c0.2,0.2,0.3,0.4,0.4,0.6c0-0.1,0-0.2,0.1-0.3c0-0.1,0.1-0.3,0.1-0.4c0-0.1,0.1-0.3,0.1-0.4
				c0.1-0.2,0.1-0.3,0.2-0.5c0.2-0.6,0.4-1.1,0.6-1.7c0.1-0.2,0.1-0.3,0.1-0.5c0-0.1,0-0.3,0-0.4c0-0.2-0.1-0.3-0.3-0.4
				c-0.2-0.1-0.4-0.1-0.6,0c-0.1,0-0.3,0.1-0.4,0.1c0-0.2-0.1-0.4-0.1-0.5c1.1-0.2,2.2-0.5,3.3-0.7c0,0.2,0.1,0.4,0.1,0.5
				c-0.1,0-0.1,0-0.2,0c-0.1,0-0.2,0.1-0.3,0.1c-0.1,0-0.2,0.1-0.2,0.2c-0.1,0.1-0.1,0.2-0.2,0.4c-0.1,0.1-0.1,0.3-0.2,0.5
				c-0.5,1.4-1,2.9-1.5,4.3c0.2,0.8,0.3,1.6,0.5,2.4c0,0.2,0.1,0.4,0.2,0.5c0.1,0.1,0.2,0.2,0.3,0.2c0.1,0,0.2,0.1,0.4,0.1
				c0.1,0,0.3,0,0.4-0.1c0.1,0,0.2,0,0.3-0.1c0,0.2,0.1,0.4,0.1,0.5C85.5,458.1,84.1,458.4,82.6,458.7z"/>
		</g>
	</g>
</g>
<g>
	<g>
		<path class="st0" d="M-101.2,379.8c4.2-0.1,6.6,1.3,7.3,4c1.1,4.1,2.2,8.1,3.3,12.2c1.3,4.8-0.6,7.9-5.6,9.3
			c-4.4,1.3-8.9,2.6-13.3,4.1c-5.2-16-10.4-32-15.6-48c4.2-1.4,8.4-2.7,12.7-3.9c6.6-1.9,10.8,0.2,12.3,6c0.8,3.1,1.7,6.2,2.5,9.4
			c0.8,2.8-0.5,5-3.7,6.6C-101.3,379.6-101.2,379.7-101.2,379.8z M-111.5,379.4c1.1-0.3,2.2-0.7,3.3-1c2.7-0.8,3.7-2.4,3.1-4.7
			c-0.7-2.5-1.4-5-2.2-7.6c-0.7-2.3-2.1-3.2-4.3-2.6c-1.5,0.4-2.9,0.9-4.4,1.3C-114.4,369.8-112.9,374.6-111.5,379.4z M-104.7,401.5
			c1.7-0.5,3.4-1,5-1.5c1.8-0.5,2.5-1.5,2.1-2.9c-1-3.6-2-7.2-3.1-10.7c-0.7-2.3-2.4-3.1-5.1-2.2c-1.3,0.4-2.6,0.8-3.9,1.2
			C-108,390.7-106.4,396.1-104.7,401.5z"/>
		<path class="st0" d="M-93.9,352.5c4.9-1.2,9.8-2.3,14.7-3.4c5.8-1.2,9.2,1.1,10.3,6.7c0.8,4.1,1.6,8.1,2.3,12.2
			c0.8,4.3-0.1,7.3-2.6,9c3,6.5,6,13.1,8.9,19.7c-2.1,0.4-4.3,0.8-6.4,1.3c-2.8-6.3-5.8-12.7-8.8-19c-1.4,0.3-2.8,0.6-4.3,1
			c1.5,6.6,3,13.2,4.6,19.8c-2.2,0.5-4.5,1-6.7,1.6C-85.8,385.1-89.9,368.8-93.9,352.5z M-80.9,374.4c1.6-0.4,3.1-0.7,4.7-1
			c2.1-0.5,2.9-1.9,2.5-4.3c-0.7-3.6-1.5-7.1-2.2-10.7c-0.5-2.4-1.9-3.3-4.1-2.9c-1.6,0.4-3.3,0.7-4.9,1.1
			C-83.7,362.6-82.3,368.5-80.9,374.4z"/>
		<path class="st0" d="M-47.5,394.5c-2.3,0.4-4.5,0.7-6.8,1.1c-2.4-13.7-4.8-27.4-7.2-41.2c-1-5.7,1.5-9.1,7.6-10
			c1.9-0.3,3.8-0.6,5.7-0.8c6.1-0.9,9.5,1.7,10.2,7.4c1.7,13.8,3.3,27.7,5,41.5c-2.3,0.3-4.5,0.6-6.8,0.9
			c-0.8-6.1-1.7-12.2-2.5-18.3c-2.7,0.4-5.4,0.8-8.1,1.2C-49.5,382.4-48.5,388.5-47.5,394.5z M-43.1,369c-0.8-5.5-1.5-11.1-2.3-16.6
			c-0.3-1.9-1.5-2.8-3.7-2.5c-0.7,0.1-1.4,0.2-2,0.3c-2.2,0.3-3.1,1.5-2.8,3.4c0.9,5.5,1.7,11.1,2.6,16.6
			C-48.6,369.8-45.9,369.4-43.1,369z"/>
		<path class="st0" d="M-13.2,364.5c-0.5-8.1-1.1-16.2-1.6-24.3c2.6-0.2,5.1-0.3,7.7-0.4c0.8,16.8,1.7,33.6,2.5,50.4
			c-2.3,0.1-4.5,0.2-6.8,0.4c-0.2-3.3-0.4-6.7-0.7-10c-3-7.5-6.2-14.9-9.4-22.3c0.9,11,1.9,21.9,2.8,32.9c-2.3,0.2-4.5,0.4-6.8,0.6
			c-1.7-16.7-3.4-33.4-5.1-50.2c2.5-0.3,5.1-0.5,7.7-0.7C-19.6,348.7-16.3,356.6-13.2,364.5z"/>
		<path class="st0" d="M3.2,389.8c-0.5-16.8-1-33.6-1.5-50.4c4.5-0.1,8.9-0.2,13.4-0.2c7.2,0,10.7,3.4,10.6,9.8
			c-0.3,11.1-0.5,22.3-0.8,33.4c-0.1,4.9-2.9,7.2-8.3,7.2C12,389.6,7.6,389.7,3.2,389.8z M9.9,383.5c1.7,0,3.5,0,5.2,0
			c1.8,0,2.7-0.7,2.8-2.2c0.1-10.8,0.1-21.5,0.2-32.3c0-2.4-1.1-3.7-3.4-3.7c-1.8,0-3.5,0-5.3,0C9.6,358.1,9.8,370.8,9.9,383.5z"/>
		<path class="st0" d="M48.2,364.8c0.6-8.1,1.2-16.2,1.9-24.3c2.6,0.2,5.1,0.4,7.7,0.6c-1.6,16.7-3.1,33.5-4.7,50.2
			c-2.3-0.2-4.5-0.4-6.8-0.6c0.3-3.3,0.5-6.7,0.8-10c-1.9-7.8-4-15.6-6.2-23.4c-0.6,11-1.3,22-1.9,33c-2.3-0.1-4.5-0.2-6.8-0.3
			c0.7-16.8,1.4-33.6,2.1-50.4c2.6,0.1,5.1,0.2,7.7,0.4C44.1,348.2,46.3,356.5,48.2,364.8z"/>
		<path class="st0" d="M67.3,392.9c-2.3-0.3-4.5-0.6-6.8-0.8c1.6-13.8,3.1-27.7,4.7-41.5c0.6-5.7,4-8.3,10.1-7.5
			c1.9,0.3,3.8,0.5,5.7,0.8c6.1,0.9,8.7,4.3,7.7,9.9c-2.3,13.7-4.6,27.5-6.9,41.2c-2.3-0.4-4.5-0.7-6.8-1.1
			c0.9-6.1,1.8-12.2,2.7-18.3c-2.7-0.4-5.4-0.8-8.1-1.1C68.9,380.7,68.1,386.8,67.3,392.9z M78.7,369.7c0.8-5.5,1.6-11.1,2.5-16.6
			c0.3-1.9-0.7-3.1-2.9-3.4c-0.7-0.1-1.4-0.2-2-0.3c-2.2-0.3-3.4,0.5-3.7,2.5c-0.7,5.5-1.4,11.1-2.2,16.6
			C73.2,368.9,75.9,369.3,78.7,369.7z"/>
		<path class="st0" d="M107.3,378.9c4.3-9.2,8.8-18.3,13.4-27.3c2.8,0.7,5.5,1.3,8.3,2.1c-4.2,16.3-8.4,32.6-12.6,48.8
			c-2.2-0.6-4.4-1.1-6.7-1.7c2.8-10.6,5.6-21.3,8.4-31.9c-3.7,7.3-7.3,14.6-10.7,22c-1.8-0.4-3.5-0.8-5.3-1.2
			c0-8.2-0.2-16.3-0.4-24.5c-1.9,10.8-3.9,21.7-5.8,32.5c-2.2-0.5-4.5-0.9-6.7-1.3c3.1-16.5,6.1-33.1,9.2-49.6
			c2.8,0.5,5.6,1.1,8.4,1.6C107.1,358.6,107.3,368.7,107.3,378.9z"/>
		<path class="st0" d="M124,404.5c4.5-16.2,9-32.4,13.5-48.6c6.2,1.7,12.3,3.6,18.4,5.6c-0.6,1.9-1.3,3.9-1.9,5.8
			c-3.6-1.2-7.2-2.3-10.8-3.4c-1.5,4.9-2.9,9.8-4.4,14.7c3.1,0.9,6.2,1.9,9.3,2.9c-0.6,1.9-1.2,3.9-1.9,5.8c-3-1-6.1-1.9-9.1-2.8
			c-1.6,5.4-3.2,10.7-4.8,16.1c3.3,1,6.6,2,9.9,3.1c-0.6,1.9-1.3,3.9-1.9,5.8C135,407.6,129.5,406,124,404.5z"/>
	</g>
</g>
<g>
	<g>
		<path class="st0" d="M-7.6,330.5v-11.6h3.9v1.4h-2.3v3.5h2v1.4h-2v3.9h2.3v1.4H-7.6z"/>
		<path class="st0" d="M1.9,322v-1c0-0.5-0.2-0.7-0.7-0.7H1c-0.4,0-0.7,0.2-0.7,0.7v1.9c0,0.2,0,0.4,0.1,0.4
			c0.1,0.1,0.2,0.2,0.4,0.3l1.5,0.8c0.3,0.2,0.6,0.3,0.7,0.4c0.1,0.1,0.2,0.2,0.3,0.4c0.1,0.1,0.1,0.4,0.1,0.8v2.5
			c0,1.3-0.6,2-1.9,2h-1c-1.2,0-1.9-0.7-1.9-2.1v-0.6h1.6v0.6c0,0.5,0.2,0.7,0.7,0.7h0.3c0.4,0,0.6-0.2,0.6-0.7v-2
			c0-0.2,0-0.4-0.1-0.4s-0.2-0.2-0.4-0.3l-1.5-0.8c-0.3-0.2-0.6-0.3-0.7-0.4c-0.1-0.1-0.3-0.3-0.3-0.5s-0.1-0.4-0.1-0.7v-2.4
			c0-1.3,0.6-2,1.9-2h1c1.2,0,1.9,0.7,1.9,2v1.1H1.9z"/>
		<path class="st0" d="M8.9,320.3v10.2H7.3v-10.2H5.8v-1.4h4.5v1.4H8.9z"/>
		<path class="st0" d="M12.9,330.5v-11.6h2.7c1.5,0,2.2,0.7,2.2,2.2v7.7c0,1.1-0.6,1.7-1.9,1.7H12.9z M14.5,329.1h1.2
			c0.4,0,0.6-0.2,0.6-0.5v-7.5c0-0.6-0.2-0.8-0.7-0.8h-1.1V329.1z"/>
		<path class="st0" d="M22.2,328.5v2h-1.7v-2H22.2z"/>
		<path class="st0" d="M29.1,321.5l-0.4-1.1c0.4-0.2,0.7-0.4,1-0.6c0.3-0.3,0.5-0.6,0.7-0.9h0.2l1,0.6v11.1h-1.5v-9.4L29.1,321.5z"
			/>
		<path class="st0" d="M36.4,327.8v0.5c0,0.6,0.2,0.8,0.7,0.8h0.2c0.4,0,0.6-0.2,0.6-0.7v-2.8l-1,0.6h-0.4c-1.2,0-1.9-0.7-1.9-2.1
			v-3.3c0-1.4,0.6-2,1.9-2h1c1.2,0,1.9,0.7,1.9,2v7.5c0,1.4-0.6,2.1-1.9,2.1h-0.9c-1.2,0-1.9-0.7-1.9-2.1v-0.6H36.4z M38,324.9V321
			c0-0.5-0.3-0.7-0.8-0.7H37c-0.5,0-0.7,0.2-0.7,0.7v3c0,0.6,0.2,0.8,0.7,0.8H38z"/>
		<path class="st0" d="M42.5,327.8h1.6v0.6c0,0.5,0.2,0.7,0.6,0.7h0.2c0.5,0,0.7-0.2,0.7-0.7v-2.7c0-0.5-0.2-0.8-0.6-0.8h-2.3v-6.1
			H47v1.4H44v3.3h1.2c1.2,0,1.9,0.7,1.9,2.1v2.8c0,1.4-0.6,2.1-1.9,2.1h-0.9c-1.2,0-1.9-0.7-1.9-2V327.8z"/>
		<path class="st0" d="M51.8,327.8v0.5c0,0.6,0.2,0.8,0.7,0.8h0.2c0.4,0,0.6-0.2,0.6-0.7v-2.8l-1,0.6H52c-1.2,0-1.9-0.7-1.9-2.1
			v-3.3c0-1.4,0.6-2,1.9-2h1c1.2,0,1.9,0.7,1.9,2v7.5c0,1.4-0.6,2.1-1.9,2.1h-0.9c-1.2,0-1.9-0.7-1.9-2.1v-0.6H51.8z M53.3,324.9
			V321c0-0.5-0.3-0.7-0.8-0.7h-0.2c-0.5,0-0.7,0.2-0.7,0.7v3c0,0.6,0.2,0.8,0.7,0.8H53.3z"/>
	</g>
</g>
<g>
	<g>
		<path class="st0" d="M24.8,428.5c-6.5,0-12.9,0-19.4,0c-0.4,0-0.8,0-1.3,0.1c0,0.9,0,1.7,0,2.5c7.6,0,15,0,22.5,0
			C27.1,428.6,27.1,428.5,24.8,428.5z"/>
		<path class="st0" d="M31.8,408.1c0-1-0.8-1.8-1.8-1.8c-1,0-1.8,0.8-1.8,1.8c0,0.4,0.2,0.8,0.4,1.1c0,0,0,0.1,0,0.1
			c-2.1,1.8-4.2,3.6-6.4,5.6c-2-3.4-4-6.6-5.9-9.9c0.5-0.3,0.9-0.9,0.9-1.5c0-1-0.8-1.8-1.8-1.8s-1.8,0.8-1.8,1.8
			c0,0.7,0.4,1.2,0.9,1.6c-2,3.2-3.9,6.5-5.9,9.9c-1.9-1.7-3.6-3.3-5.4-4.9c-0.4-0.3-0.7-0.6-0.7-1.1c0.2-0.3,0.3-0.6,0.3-1
			c0-1-0.8-1.8-1.8-1.8c-1,0-1.8,0.8-1.8,1.8c0,1,0.8,1.8,1.8,1.8c0.1,0,0.2,0,0.4,0c0.9,5.3,1.8,10.5,2.6,15.7
			c0.1,0.8,0.4,1.1,1.3,1.1c6.9,0,13.8,0,20.7,0c0.7,0,1.1-0.2,1.2-1c0.8-4.7,1.7-9.5,2.5-14.2c0.1-0.6,0.2-1.1,0.6-1.5
			C31,409.8,31.8,409,31.8,408.1z"/>
	</g>
	<g>
		<g>
			<g>
				<rect x="37.8" y="413.7" class="st0" width="51.2" height="3.1"/>
			</g>
		</g>
		<g>
			<g>
				<rect x="37.8" y="420.4" class="st0" width="37.1" height="3.1"/>
			</g>
		</g>
		<g>
			<g>
				<rect x="37.8" y="427" class="st0" width="23.5" height="3.1"/>
			</g>
		</g>
	</g>
	<g>
		<g>
			<g>
				<rect x="-58.1" y="413.7" class="st0" width="51.2" height="3.1"/>
			</g>
		</g>
		<g>
			<g>
				<rect x="-44" y="420.4" class="st0" width="37.1" height="3.1"/>
			</g>
		</g>
		<g>
			<g>
				<rect x="-30.5" y="427" class="st0" width="23.5" height="3.1"/>
			</g>
		</g>
	</g>
</g>
</svg>
