<?xml version="1.0" encoding="utf-8"?>
<!-- Generator: Adobe Illustrator 19.0.0, SVG Export Plug-In . SVG Version: 6.00 Build 0)  -->
<svg version="1.1" id="Layer_1" xmlns="http://www.w3.org/2000/svg" xmlns:xlink="http://www.w3.org/1999/xlink" x="0px" y="0px"
	 viewBox="-145 302 320 190" style="enable-background:new -145 302 320 190;" xml:space="preserve">
<style type="text/css">
	.st0{fill:#333333;}
	.st1{fill:#FFFFFF;}
</style>
<g id="XMLID_85_">
	<g id="XMLID_86_">
		<g id="XMLID_195_">
			
				<text id="XMLID_194_" transform="matrix(1 0 0 1 -342.2578 1026.5078)" class="st0" style="font-family:'BebasNeueBold'; font-size:9.377px;">S</text>
		</g>
		<g id="XMLID_190_">
			
				<text id="XMLID_189_" transform="matrix(1 0 0 1 -336.7451 1026.5078)" class="st0" style="font-family:'BebasNeueBold'; font-size:9.377px;">A</text>
		</g>
		<g id="XMLID_134_">
			
				<text id="XMLID_133_" transform="matrix(1 0 0 1 -330.9092 1026.5078)" class="st0" style="font-family:'BebasNeueBold'; font-size:9.377px;">L</text>
		</g>
		<g id="XMLID_129_">
			<text transform="matrix(1 0 0 1 -326.0698 1026.5078)" class="st0" style="font-family:'BebasNeueBold'; font-size:9.377px;">T</text>
			<text transform="matrix(1 0 0 1 -320.8698 1026.5078)" class="st0" style="font-family:'BebasNeueBold'; font-size:9.377px;"> </text>
		</g>
		<g id="XMLID_124_">
			
				<text id="XMLID_123_" transform="matrix(1 0 0 1 -317.5274 1026.5078)" class="st0" style="font-family:'BebasNeueBold'; font-size:9.377px;">L</text>
		</g>
		<g id="XMLID_119_">
			
				<text transform="matrix(1 0 0 1 -312.1856 1026.5078)" class="st0" style="font-family:'BebasNeueBold'; font-size:9.377px; letter-spacing:1;">A</text>
			<text transform="matrix(1 0 0 1 -306.3856 1026.5078)" class="st0" style="font-family:'BebasNeueBold'; font-size:9.377px;">K</text>
		</g>
		<g id="XMLID_114_">
			
				<text id="XMLID_113_" transform="matrix(1 0 0 1 -300.4473 1026.5078)" class="st0" style="font-family:'BebasNeueBold'; font-size:9.377px;">E</text>
		</g>
		<g id="XMLID_109_">
			<text transform="matrix(1 0 0 1 -295.0537 1026.5078)" class="st0" style="font-family:'BebasNeueBold'; font-size:9.377px;">,</text>
			<text transform="matrix(1 0 0 1 -291.4537 1026.5078)" class="st0" style="font-family:'BebasNeueBold'; font-size:9.377px;"> </text>
		</g>
		<g id="XMLID_104_">
			
				<text id="XMLID_103_" transform="matrix(1 0 0 1 -288.1055 1026.5078)" class="st0" style="font-family:'BebasNeueBold'; font-size:9.377px;">U</text>
		</g>
		<g id="XMLID_99_">
			
				<text id="XMLID_98_" transform="matrix(1 0 0 1 -282.3184 1026.5078)" class="st0" style="font-family:'BebasNeueBold'; font-size:9.377px;">T</text>
		</g>
		<g id="XMLID_94_">
			
				<text id="XMLID_93_" transform="matrix(1 0 0 1 -277.2378 1026.5078)" class="st0" style="font-family:'BebasNeueBold'; font-size:9.377px;">A</text>
		</g>
		<g id="XMLID_89_">
			
				<text id="XMLID_88_" transform="matrix(1 0 0 1 -271.4014 1026.5078)" class="st0" style="font-family:'BebasNeueBold'; font-size:9.377px;">H</text>
		</g>
	</g>
</g>
<g id="XMLID_19_">
	<g id="XMLID_32_">
		
			<text id="XMLID_31_" transform="matrix(1 0 0 1 -360.7305 957.2949)" class="st0" style="font-family:'GearedSlab-Bold'; font-size:10.9398px;">E</text>
	</g>
	<g id="XMLID_27_">
		
			<text id="XMLID_26_" transform="matrix(1 0 0 1 -355.4683 957.2949)" class="st0" style="font-family:'GearedSlab-Bold'; font-size:10.9398px;">S</text>
	</g>
	<g id="XMLID_22_">
		<text transform="matrix(1 0 0 1 -350.1079 957.2949)" class="st0" style="font-family:'GearedSlab-Bold'; font-size:10.9398px;">TD</text>
		<text transform="matrix(1 0 0 1 -338.9079 957.2949)" class="st0" style="font-family:'GearedSlab-Bold'; font-size:10.9398px;">.</text>
	</g>
</g>
<g id="XMLID_3_">
	<g id="XMLID_16_">
		
			<text id="XMLID_15_" transform="matrix(1 0 0 1 -268.002 957.2949)" class="st0" style="font-family:'GearedSlab-Bold'; font-size:10.9398px;">1</text>
	</g>
	<g id="XMLID_11_">
		
			<text id="XMLID_10_" transform="matrix(1 0 0 1 -263.6919 957.2949)" class="st0" style="font-family:'GearedSlab-Bold'; font-size:10.9398px;">9</text>
	</g>
	<g id="XMLID_6_">
		<text transform="matrix(1 0 0 1 -258.3096 957.2949)" class="st0" style="font-family:'GearedSlab-Bold'; font-size:10.9398px;">5</text>
		<text transform="matrix(1 0 0 1 -252.8096 957.2949)" class="st0" style="font-family:'GearedSlab-Bold'; font-size:10.9398px;">9</text>
	</g>
</g>
<g>
	<g>
		<path class="st0" d="M-93.8,383c4.9,1.1,5.5,5.5,5.5,5.5c1.7,8.8-7.4,11.1-9.5,11.6c-3.3,0.7-6.6,1.5-9.9,2.3
			c-0.6,0.1-1-0.2-1.1-0.5c-2.3-9.8-4.7-19.5-7-29.3c-0.1-0.4,0.2-0.9,0.8-1c3.5-0.8,7-1.6,10.5-2.4c0,0,11.5-2.6,13.3,6.7
			C-90.7,379.2-91.8,381.5-93.8,383z M-106.1,382.3c1.4-0.3,2.8-0.6,4.2-0.9c0,0,4.1-0.9,3.5-3.8c-0.7-3.2-4.8-2.3-4.8-2.3
			c-1.4,0.3-2.8,0.6-4.3,0.9C-107.1,378.3-106.6,380.3-106.1,382.3z M-95.4,389.8c-0.6-3.1-5.1-1.9-5.1-1.9
			c-1.4,0.3-2.8,0.6-4.2,0.9c0.4,1.9,0.9,3.9,1.3,5.8c1.4-0.3,2.7-0.6,4.1-0.9C-97.5,393.4-94.9,392.4-95.4,389.8z"/>
		<path class="st0" d="M-67.8,390.8c-3,0.5-6.1,1-9.1,1.5c-0.2,1.1-0.4,2.2-0.6,3.3c0,0,0,0,0,0c0,0.3-0.4,0.6-0.9,0.7
			c-1.8,0.3-3.6,0.6-5.4,1c-0.8,0.1-1.2-0.3-1.1-0.9c2-10.5,4.4-22,6.9-32.5c0.2-0.7,1.4-0.9,1.9-0.3c5.9,9.4,11.6,19,17,28.6
			c0.3,0.5,0,1.1-0.7,1.2c-1.8,0.3-3.7,0.5-5.5,0.8c-0.4,0.1-0.8-0.1-0.9-0.4c0,0,0,0,0,0C-66.6,392.7-67.2,391.8-67.8,390.8z
			 M-76,386.6c1.8-0.3,3.7-0.6,5.5-0.9c-0.8-1.5-1.6-2.9-2.4-4.4c-0.7-1.4-1.3-2.6-1.8-4.2c-0.1,1.7-0.2,3.1-0.4,4.5
			C-75.4,383.3-75.7,385-76,386.6z"/>
		<path class="st0" d="M-48.2,379.1c-0.8,0.1-1.6,0.2-2.4,0.3c0.5,3.9,1,7.8,1.4,11.7c0,0.4-0.3,0.8-0.9,0.9
			c-1.6,0.2-3.3,0.4-4.9,0.6c-0.5,0.1-1-0.3-1-0.6c-1.3-9.8-2.7-19.7-4-29.5c-0.1-0.4,0.3-0.8,0.9-0.9c3.5-0.5,6.9-0.9,10.4-1.3
			c2-0.3,11.6-1.1,12.4,8.2c0.4,4.7-1.9,7.4-4.9,9c1.2,1.9,2.5,4.1,3.6,6c1.1,1.9,2.3,3.8,3.4,5.7c0.3,0.5,0,1.1-0.7,1.2
			c-1.8,0.2-3.6,0.4-5.5,0.5c-0.3,0-0.8-0.2-0.9-0.4C-43.5,386.7-45.8,382.9-48.2,379.1z M-51.3,373.4c1.3-0.2,2.7-0.3,4-0.5
			c1.2-0.1,4.2-0.7,3.8-3.6c-0.3-2.9-3.7-2.8-4.6-2.7c-1.4,0.2-2.7,0.3-4.1,0.5C-51.8,369.2-51.5,371.3-51.3,373.4z"/>
		<path class="st0" d="M-22,363.7c0.4,6.4,0.9,12.9,1.3,19.3c0.9-0.1,1.8-0.1,2.6-0.2c0.6,0,1,0.3,1,0.7c0.1,1.5,0.2,3.1,0.3,4.6
			c0,0.4-0.4,0.8-0.9,0.8c-4.1,0.3-8.1,0.6-12.2,0.9c-0.5,0-1-0.3-1-0.7c-0.1-1.5-0.3-3.1-0.4-4.6c0-0.4,0.3-0.8,0.9-0.9
			c0.9-0.1,1.8-0.1,2.7-0.2c-0.5-6.4-1-12.9-1.6-19.3c-0.9,0.1-1.7,0.1-2.6,0.2c-0.6,0-1-0.3-1.1-0.7c-0.1-1.5-0.3-3-0.4-4.6
			c0-0.4,0.4-0.9,0.9-0.9c4.2-0.4,8.4-0.7,12.5-0.9c0.6,0,1,0.3,1.1,0.8c0.1,1.5,0.2,3,0.3,4.6c0,0.4-0.3,0.8-1,0.8
			C-20.4,363.5-21.2,363.6-22,363.7z"/>
		<path class="st0" d="M-14.9,368.6c-0.4-6.5,5.2-12.2,12.4-12.5c7.1-0.2,13,5.1,13.1,11.7c0,6.6-5.5,11.9-12.3,12.1
			C-8.6,380.1-14.5,375.2-14.9,368.6z M9.3,387.2c0,0.4-0.4,0.8-1,0.8c-6.7,0.1-13.3,0.3-20,0.6c-0.6,0-1-0.4-1-0.7
			c-0.1-1.7-0.2-3.3-0.3-5c0-0.4,0.3-0.8,0.9-0.9c6.7-0.3,13.5-0.6,20.2-0.6c0.6,0,1,0.4,1,0.8C9.3,383.9,9.3,385.6,9.3,387.2z
			 M-7.6,368.3c0.1,3,2.7,5.1,5.7,5.1c3-0.1,5.3-2.4,5.3-5.4c-0.1-3-2.5-5.3-5.6-5.2C-5.4,362.8-7.8,365.3-7.6,368.3z"/>
		<path class="st0" d="M43.6,387.9c0,0.4-0.4,0.7-1,0.7c-1.7-0.1-3.4-0.2-5.1-0.2c-0.2,0-0.6-0.1-0.8-0.3c-4.4-6.8-8.3-12.6-13-19.3
			c-0.1,6.2-0.2,12.3-0.3,18.5c0,0.4-0.4,0.8-1,0.8c-1.7,0-3.4,0-5.1,0c-0.5,0-1-0.4-1-0.8c0-10,0-20.1,0.1-30.1
			c0-0.4,0.4-0.8,1-0.8c1.8,0,3.6,0,5.5,0c0.2,0,0.6,0.1,0.8,0.3c4.7,6.6,8.9,12.5,13.4,19.3c0.2-6.1,0.5-12.3,0.7-18.4
			c0-0.4,0.4-0.8,1-0.8c1.8,0.1,3.5,0.2,5.3,0.2c0.6,0,1,0.5,1,0.9C44.7,367.9,44.1,377.9,43.6,387.9z"/>
		<path class="st0" d="M59.1,364.5c-0.2,2-0.3,4-0.5,6.1c4,0.3,8,0.7,12.1,1.1c0.6,0.1,0.9,0.5,0.9,0.9c-0.2,1.6-0.3,3.2-0.5,4.9
			c0,0.4-0.5,0.7-1,0.7c-4-0.4-7.9-0.8-11.9-1.1c-0.2,2-0.3,4-0.5,6.1c4.8,0.4,9.5,0.8,14.3,1.3c0.6,0.1,1,0.5,0.9,0.9
			c-0.2,1.7-0.4,3.3-0.5,5c0,0.4-0.5,0.7-1.1,0.7c-6.7-0.7-13.4-1.3-20.2-1.8c-0.6,0-0.9-0.5-0.9-0.8c0.7-10,1.3-20,2-30.1
			c0-0.4,0.4-0.8,1.1-0.7c7,0.5,14,1.1,21,1.8c0.6,0.1,1,0.5,0.9,0.9c-0.2,1.6-0.3,3.2-0.5,4.8c0,0.4-0.5,0.8-1.1,0.7
			C68.8,365.3,63.9,364.8,59.1,364.5z"/>
		<path class="st0" d="M97.8,367.8c-0.1,0.4-0.5,0.7-1.2,0.6c-1.9-0.3-3.7-0.5-5.6-0.8c-1.1,8.2-2.2,16.4-3.4,24.5
			c-0.1,0.4-0.5,0.7-1.1,0.6c-1.7-0.2-3.3-0.4-5-0.7c-0.5-0.1-0.9-0.5-0.9-0.9c1-8.2,2-16.4,3-24.6c-1.9-0.2-3.8-0.5-5.7-0.7
			c-0.6-0.1-1-0.5-0.9-0.9c0.2-1.5,0.3-3,0.5-4.5c0-0.4,0.5-0.8,1.1-0.7c6.3,0.7,12.5,1.5,18.7,2.4c0.6,0.1,1,0.6,0.9,1
			C98.2,364.8,98,366.3,97.8,367.8z"/>
		<path class="st0" d="M119,371.4c-0.1,0.4-0.6,0.7-1.2,0.6c-1.9-0.3-3.7-0.7-5.6-1c-1.4,8.1-2.9,16.3-4.3,24.4
			c-0.1,0.4-0.5,0.7-1.1,0.6c-1.7-0.3-3.3-0.6-5-0.8c-0.5-0.1-0.9-0.6-0.8-0.9c1.3-8.2,2.7-16.3,4-24.5c-1.9-0.3-3.8-0.6-5.6-0.9
			c-0.6-0.1-0.9-0.6-0.9-0.9c0.2-1.5,0.5-3,0.7-4.5c0.1-0.4,0.6-0.7,1.1-0.7c6.2,1,12.4,2,18.7,3.2c0.6,0.1,1,0.6,0.9,1
			C119.5,368.4,119.3,369.9,119,371.4z"/>
		<path class="st0" d="M129.5,374.6c-0.4,2-0.8,4-1.2,5.9c4,0.8,7.9,1.7,11.9,2.6c0.6,0.1,0.8,0.6,0.7,1c-0.4,1.6-0.7,3.2-1.1,4.8
			c-0.1,0.4-0.5,0.7-1.1,0.5c-3.9-0.9-7.8-1.8-11.7-2.6c-0.4,2-0.8,4-1.2,5.9c4.7,1,9.4,2,14.1,3.2c0.6,0.1,0.9,0.6,0.8,1
			c-0.4,1.6-0.8,3.3-1.2,4.9c-0.1,0.4-0.6,0.7-1.2,0.5c-6.6-1.6-13.2-3-19.9-4.3c-0.6-0.1-0.9-0.6-0.8-0.9
			c1.9-9.9,3.9-19.7,5.8-29.6c0.1-0.4,0.5-0.7,1.2-0.6c6.9,1.4,13.8,2.9,20.7,4.5c0.6,0.1,0.9,0.6,0.8,1c-0.4,1.6-0.8,3.1-1.1,4.7
			c-0.1,0.4-0.6,0.7-1.2,0.6C139,376.6,134.2,375.6,129.5,374.6z"/>
	</g>
</g>
<g>
	<g>
		<g>
			<path class="st0" d="M-84.2,350.6c2.8-5.2,5.7-10.4,8.7-15.6c-4.9-3.5-9.8-6.9-14.9-10.3c11.3-2.7,22.6-5,34-6.8
				c-4.9,2.7-9.7,5.6-14.5,8.4c1.3,6.8,2.7,13.6,4,20.4C-72.7,348-78.5,349.3-84.2,350.6z"/>
			<path class="st0" d="M111.6,350.6c-5.8-1.4-11.5-2.6-17.3-3.8c1.3-6.8,2.7-13.6,4-20.4c-4.7-2.9-9.6-5.7-14.5-8.4
				c11.4,1.8,22.7,4.1,34,6.8c-5.1,3.3-10.1,6.8-14.9,10.3C105.9,340.2,108.8,345.4,111.6,350.6z"/>
			<g>
				<path class="st0" d="M91.4,352.2c-51.4-9.8-104.1-9.8-155.5,0c-0.8-4.4-3-15.9-4.7-24.7c10.1-2.1,46.3-8.2,82.5-7.7
					c36.2-0.4,72.4,5.7,82.4,7.7C95.3,331.9,93.1,343.2,91.4,352.2z"/>
			</g>
		</g>
		<g>
			<path class="st1" d="M-51.5,339.6c-0.8,0.1-1.5,0.2-2.3,0.4c-0.1,0.3-0.1,0.5-0.2,0.8c0,0,0,0,0,0c0,0.1-0.1,0.2-0.2,0.2
				c-0.5,0.1-0.9,0.1-1.4,0.2c-0.2,0-0.3-0.1-0.3-0.2c0.6-2.6,1.2-5.4,1.8-8c0.1-0.2,0.3-0.2,0.5-0.1c1.4,2.3,2.8,4.7,4.2,7
				c0.1,0.1,0,0.3-0.2,0.3c-0.5,0.1-0.9,0.1-1.4,0.2c-0.1,0-0.2,0-0.2-0.1c0,0,0,0,0,0C-51.2,340.1-51.3,339.8-51.5,339.6z
				 M-53.5,338.6c0.5-0.1,0.9-0.1,1.4-0.2c-0.2-0.4-0.4-0.7-0.6-1.1c-0.2-0.3-0.3-0.6-0.4-1c0,0.4-0.1,0.8-0.1,1.1
				C-53.4,337.7-53.4,338.2-53.5,338.6z"/>
			<path class="st1" d="M-47.1,337.3c-0.2-1.6-0.5-3.3-0.7-4.9c0-0.1,0.1-0.2,0.2-0.2c0.4-0.1,0.8-0.1,1.3-0.2
				c0.1,0,0.3,0.1,0.3,0.2c0.2,1.6,0.5,3.2,0.7,4.9c0.2,0.6,0.8,0.9,1.5,0.9c0.7-0.1,1.3-0.5,1.2-1.2c-0.2-1.6-0.4-3.3-0.7-4.9
				c0-0.1,0.1-0.2,0.2-0.2c0.4-0.1,0.9-0.1,1.3-0.2c0.1,0,0.2,0.1,0.3,0.2c0.2,1.6,0.4,3.3,0.6,4.9c0.2,1.6-1,2.8-2.7,3
				C-45.4,339.7-46.9,338.9-47.1,337.3z"/>
			<path class="st1" d="M-33.7,331.6c0,0.1-0.1,0.2-0.2,0.2c-0.5,0.1-0.9,0.1-1.4,0.2c0.2,2,0.5,4,0.7,6.1c0,0.1-0.1,0.2-0.2,0.2
				c-0.4,0-0.8,0.1-1.3,0.1c-0.1,0-0.3-0.1-0.3-0.2c-0.2-2-0.5-4-0.7-6.1c-0.5,0.1-0.9,0.1-1.4,0.2c-0.1,0-0.3-0.1-0.3-0.2
				c0-0.4-0.1-0.7-0.1-1.1c0-0.1,0.1-0.2,0.2-0.2c1.5-0.2,3-0.4,4.5-0.5c0.2,0,0.3,0.1,0.3,0.2C-33.8,330.9-33.7,331.2-33.7,331.6z"
				/>
			<path class="st1" d="M-25.1,329.4c0.2,0,0.3,0.1,0.3,0.2c0.2,2.5,0.4,4.9,0.7,7.4c0,0.1-0.1,0.2-0.2,0.2c-0.4,0-0.8,0.1-1.3,0.1
				c-0.1,0-0.3-0.1-0.3-0.2c-0.1-1-0.2-1.9-0.3-2.9c-0.9,0.1-1.8,0.2-2.7,0.3c0.1,1,0.2,1.9,0.3,2.9c0,0.1-0.1,0.2-0.2,0.2
				c-0.4,0-0.8,0.1-1.3,0.1c-0.1,0-0.3-0.1-0.3-0.2c-0.3-2.5-0.5-4.9-0.8-7.4c0-0.1,0.1-0.2,0.2-0.2c0.4,0,0.9-0.1,1.3-0.1
				c0.2,0,0.3,0.1,0.3,0.2c0.1,1,0.2,1.9,0.3,2.9c0.9-0.1,1.8-0.2,2.7-0.3c-0.1-1-0.2-1.9-0.3-2.9c0-0.1,0.1-0.2,0.2-0.2
				C-26,329.5-25.6,329.4-25.1,329.4z"/>
			<path class="st1" d="M-19.6,330.5c0,0.5,0.1,1,0.1,1.5c1-0.1,2-0.2,3-0.2c0.1,0,0.2,0.1,0.2,0.2c0,0.4,0.1,0.8,0.1,1.2
				c0,0.1-0.1,0.2-0.2,0.2c-1,0.1-2,0.1-3,0.2c0,0.5,0.1,1,0.1,1.5c1.2-0.1,2.4-0.2,3.6-0.3c0.2,0,0.3,0.1,0.3,0.2
				c0,0.4,0.1,0.8,0.1,1.2c0,0.1-0.1,0.2-0.2,0.2c-1.7,0.1-3.4,0.2-5.1,0.4c-0.1,0-0.2-0.1-0.3-0.2c-0.2-2.5-0.4-4.9-0.6-7.4
				c0-0.1,0.1-0.2,0.2-0.2c1.7-0.1,3.4-0.3,5.1-0.4c0.1,0,0.3,0.1,0.3,0.2c0,0.4,0.1,0.8,0.1,1.2c0,0.1-0.1,0.2-0.2,0.2
				C-17.2,330.4-18.4,330.4-19.6,330.5z"/>
			<path class="st1" d="M-5.5,335.7c0,0.1-0.1,0.2-0.2,0.2c-0.4,0-0.9,0-1.3,0.1c0,0-0.2,0-0.2-0.1c-1.3-1.6-2.3-2.9-3.6-4.5
				c0.1,1.5,0.2,3,0.3,4.5c0,0.1-0.1,0.2-0.2,0.2c-0.4,0-0.9,0.1-1.3,0.1c-0.1,0-0.2-0.1-0.3-0.2c-0.2-2.5-0.3-4.9-0.5-7.4
				c0-0.1,0.1-0.2,0.2-0.2c0.4,0,0.9-0.1,1.3-0.1c0,0,0.2,0,0.2,0.1c1.3,1.5,2.4,2.9,3.7,4.5c-0.1-1.5-0.1-3-0.2-4.5
				c0-0.1,0.1-0.2,0.2-0.2c0.4,0,0.9,0,1.3-0.1c0.2,0,0.3,0.1,0.3,0.2C-5.8,330.8-5.6,333.2-5.5,335.7z"/>
			<path class="st1" d="M2,329.1c0,0.1-0.1,0.2-0.3,0.2c-0.5,0-0.9,0-1.4,0c0.1,2,0.1,4.1,0.2,6.1c0,0.1-0.1,0.2-0.2,0.2
				c-0.4,0-0.8,0-1.3,0c-0.1,0-0.2-0.1-0.2-0.2c-0.1-2-0.1-4.1-0.2-6.1c-0.5,0-0.9,0-1.4,0.1c-0.1,0-0.2-0.1-0.3-0.2
				c0-0.4,0-0.8,0-1.1c0-0.1,0.1-0.2,0.2-0.2c1.5-0.1,3-0.1,4.6-0.2c0.2,0,0.3,0.1,0.3,0.2C2,328.4,2,328.8,2,329.1z"/>
			<path class="st1" d="M6.8,329.2c0,1.6,0.1,3.2,0.1,4.8c0.2,0,0.4,0,0.7,0c0.1,0,0.2,0.1,0.2,0.2c0,0.4,0,0.8,0,1.1
				c0,0.1-0.1,0.2-0.2,0.2c-1,0-2.1,0-3.1,0.1c-0.1,0-0.2-0.1-0.2-0.2c0-0.4,0-0.8,0-1.1c0-0.1,0.1-0.2,0.2-0.2c0.2,0,0.4,0,0.7,0
				c0-1.6-0.1-3.2-0.1-4.8c-0.2,0-0.4,0-0.6,0c-0.1,0-0.2-0.1-0.2-0.2c0-0.4,0-0.8,0-1.1c0-0.1,0.1-0.2,0.2-0.2c1,0,2,0,3-0.1
				c0.2,0,0.2,0.1,0.2,0.2c0,0.4,0,0.8,0,1.1c0,0.1-0.1,0.2-0.2,0.2C7.2,329.2,7,329.2,6.8,329.2z"/>
			<path class="st1" d="M16,333.3c0.1-0.1,0.2-0.1,0.4,0c0.3,0.3,0.6,0.6,0.9,0.9c0,0.1,0.1,0.2,0,0.3c-0.7,0.7-1.8,1.1-2.9,1.1
				c-2.2,0-4.1-1.5-4.1-4c0-2.4,1.7-4,4.1-4c1.1,0,2.2,0.5,2.9,1.2c0,0.1,0,0.2,0,0.3c-0.3,0.3-0.6,0.6-0.9,0.9
				c-0.1,0.1-0.2,0.1-0.3,0c-0.4-0.4-1-0.7-1.7-0.7c-1.5,0-2.3,1-2.3,2.4c0,1.5,1,2.4,2.3,2.4C14.9,333.9,15.5,333.7,16,333.3z"/>
			<path class="st1" d="M31.7,328.1c0.2,0,0.3,0.1,0.2,0.3c-1.1,2.5-2.2,4.9-3.3,7.4c-0.1,0.1-0.4,0.1-0.4,0
				c-0.9-2.5-1.8-5.1-2.8-7.6c-0.1-0.1,0-0.3,0.2-0.3c0.5,0,0.9,0,1.4,0c0.1,0,0.2,0.1,0.2,0.1c0.5,1.4,0.9,2.5,1.3,3.9
				c0.5-1.3,1.1-2.5,1.6-3.8c0-0.1,0.1-0.1,0.2-0.1C30.8,328.1,31.2,328.1,31.7,328.1z"/>
			<path class="st1" d="M36.6,329.8c-0.1,1.6-0.2,3.2-0.3,4.8c0.2,0,0.4,0,0.7,0c0.1,0,0.2,0.1,0.2,0.2c0,0.4,0,0.8-0.1,1.1
				c0,0.1-0.1,0.2-0.3,0.2c-1-0.1-2.1-0.1-3.1-0.2c-0.1,0-0.2-0.1-0.2-0.2c0-0.4,0-0.8,0.1-1.1c0-0.1,0.1-0.2,0.3-0.2
				c0.2,0,0.4,0,0.7,0c0.1-1.6,0.2-3.2,0.2-4.8c-0.2,0-0.4,0-0.6,0c-0.1,0-0.2-0.1-0.2-0.2c0-0.4,0-0.8,0.1-1.1
				c0-0.1,0.1-0.2,0.3-0.2c1,0,2,0.1,3,0.2c0.2,0,0.2,0.1,0.2,0.2c0,0.4,0,0.7-0.1,1.1c0,0.1-0.1,0.2-0.3,0.2
				C37,329.8,36.8,329.8,36.6,329.8z"/>
			<path class="st1" d="M46.8,336.6c0,0.1-0.1,0.2-0.3,0.2c-0.4,0-0.9-0.1-1.3-0.1c0,0-0.1,0-0.2-0.1c-1-1.7-2-3.2-3-4.9
				c-0.1,1.5-0.2,3-0.3,4.5c0,0.1-0.1,0.2-0.3,0.2c-0.4,0-0.9-0.1-1.3-0.1c-0.1,0-0.2-0.1-0.2-0.2c0.2-2.5,0.3-4.9,0.5-7.4
				c0-0.1,0.1-0.2,0.3-0.2c0.4,0,0.9,0.1,1.3,0.1c0,0,0.2,0,0.2,0.1c1.1,1.7,2,3.2,3.1,4.9c0.1-1.5,0.2-3,0.3-4.5
				c0-0.1,0.1-0.2,0.3-0.2c0.4,0,0.9,0.1,1.3,0.1c0.2,0,0.2,0.1,0.2,0.2C47.1,331.6,46.9,334.1,46.8,336.6z"/>
			<path class="st1" d="M55,331c0,0.1-0.1,0.2-0.3,0.2c-0.5,0-0.9-0.1-1.4-0.1c-0.2,2-0.4,4-0.6,6.1c0,0.1-0.1,0.2-0.3,0.2
				c-0.4,0-0.8-0.1-1.3-0.1c-0.1,0-0.2-0.1-0.2-0.2c0.2-2,0.4-4.1,0.5-6.1c-0.5,0-0.9-0.1-1.4-0.1c-0.1,0-0.2-0.1-0.2-0.2
				c0-0.4,0.1-0.7,0.1-1.1c0-0.1,0.1-0.2,0.3-0.2c1.5,0.1,3,0.3,4.5,0.4c0.2,0,0.2,0.1,0.2,0.2C55.1,330.2,55.1,330.6,55,331z"/>
			<path class="st1" d="M60.7,337.2c-0.8-0.1-1.5-0.2-2.3-0.2c-0.1,0.2-0.2,0.5-0.4,0.7c0,0,0,0,0,0c0,0.1-0.1,0.1-0.3,0.1
				c-0.5,0-0.9-0.1-1.4-0.1c-0.2,0-0.3-0.2-0.2-0.3c1.2-2.3,2.6-4.9,3.9-7.2c0.1-0.2,0.4-0.1,0.5,0c0.8,2.6,1.5,5.3,2.2,7.9
				c0,0.1-0.1,0.3-0.2,0.2c-0.5-0.1-0.9-0.1-1.4-0.2c-0.1,0-0.2-0.1-0.2-0.2c0,0,0,0,0,0C60.9,337.7,60.8,337.5,60.7,337.2z
				 M59,335.6c0.5,0,0.9,0.1,1.4,0.2c-0.1-0.4-0.2-0.8-0.3-1.2c-0.1-0.4-0.1-0.7-0.2-1.1c-0.1,0.4-0.3,0.7-0.4,1
				C59.4,334.9,59.2,335.3,59,335.6z"/>
			<path class="st1" d="M72.8,335c0.1,0,0.2,0.1,0.2,0.2c-0.2,1.4-0.4,2.8-0.6,4.2c0,0.1-0.1,0.2-0.3,0.2c-0.4-0.1-0.7-0.1-1.1-0.2
				c-0.1,0-0.2-0.1-0.2-0.2c0-0.2,0-0.2,0-0.4c-0.6,0.4-1.3,0.5-2.1,0.4c-2.2-0.3-3.7-2-3.4-4.5c0.3-2.3,2.3-3.8,4.6-3.5
				c1.1,0.1,2.1,0.8,2.7,1.5c0,0.1,0,0.2-0.1,0.3c-0.3,0.2-0.7,0.5-1,0.7c-0.1,0.1-0.3,0-0.3-0.1c-0.4-0.5-0.9-0.8-1.6-0.9
				c-1.3-0.2-2.4,0.6-2.6,2.1c-0.2,1.7,0.7,2.5,2,2.7c0.6,0.1,1.3-0.1,1.8-0.5c0-0.3,0.1-0.6,0.1-0.8c-0.4-0.1-0.8-0.1-1.1-0.2
				c-0.1,0-0.2-0.1-0.2-0.2c0.1-0.4,0.1-0.8,0.2-1.1c0-0.1,0.1-0.2,0.3-0.2C71.1,334.7,72,334.8,72.8,335z"/>
			<path class="st1" d="M78.4,334.2c-0.1,0.5-0.2,1-0.2,1.5c1,0.1,2,0.3,2.9,0.5c0.1,0,0.2,0.1,0.2,0.2c-0.1,0.4-0.1,0.8-0.2,1.2
				c0,0.1-0.1,0.2-0.3,0.1c-1-0.2-2-0.3-2.9-0.5c-0.1,0.5-0.2,1-0.2,1.5c1.2,0.2,2.4,0.4,3.6,0.6c0.1,0,0.2,0.1,0.2,0.2
				c-0.1,0.4-0.1,0.8-0.2,1.2c0,0.1-0.1,0.2-0.3,0.1c-1.7-0.3-3.4-0.5-5-0.8c-0.1,0-0.2-0.1-0.2-0.2c0.4-2.4,0.7-4.9,1.1-7.3
				c0-0.1,0.1-0.2,0.3-0.2c1.7,0.3,3.4,0.5,5,0.8c0.1,0,0.2,0.1,0.2,0.2c-0.1,0.4-0.1,0.8-0.2,1.2c0,0.1-0.1,0.2-0.3,0.2
				C80.8,334.5,79.6,334.3,78.4,334.2z"/>
		</g>
	</g>
</g>
<g>
	<path class="st0" d="M-12,415.4H1.2c0,0,3.2,11.4,11.7,6.3c8.5-5.1,19.9-15.4,41-14.5l-0.5,6.6c0,0-19.1-4.3-44.2,22.2
		c0,0-3.9,4.8-11.7,4.8c0,0-13.2,1.4-13.2-11.7C-15.7,429.1-16.5,423.1-12,415.4z"/>
	<path class="st0" d="M55.9,413.3l-1.9-0.1l0.4-5.3l1.8,0.1c0.9,0,1.6,0.8,1.6,1.8l-0.2,2C57.5,412.7,56.8,413.4,55.9,413.3z"/>
	<path class="st0" d="M-0.1,412.5h-10.6c-0.7,0-1.2,0.5-1.2,1.2v1.1h13v-1.1C1.1,413,0.6,412.5-0.1,412.5z"/>
</g>
<g>
	<g>
		<path class="st0" d="M-67.6,462.4c4.6-3.9,9.1-8,13.4-12.1c0.8,0.2,1.5,0.4,2.3,0.6c-2,1.9-4,3.9-6,5.8c1,2.1,4.5,2.8,7.1,0.2
			c5.7-5.8-2.2-11.4-7.2-6.6c-1.2,1.2-1.8,2.3-1.8,2.3c-0.5-0.2-1-0.5-1.5-0.7c0,0,0.6-1.6,2-2.8c6.6-6.2,17,2,10.2,9
			c-3.7,3.7-8.3,2.1-9.7-0.6c-2.1,1.9-4.2,3.8-6.4,5.7C-65.9,462.9-66.7,462.6-67.6,462.4z"/>
		<path class="st0" d="M-44.6,461c0.4-0.4,0.4-0.9,0.1-1.3c-0.1-0.2-0.2-0.3-0.2-0.5c-3.3,2.7-7.7,6-9.2,7c-0.3-0.3-0.6-0.7-0.7-1
			c2.2-1.4,7-5.2,9.3-7.1c0-0.1-0.1-0.2-0.1-0.3c-0.6-1.2-0.2-2.5,1.4-3.3c0.3,0.5,0.6,1,0.9,1.5c-0.6,0.3-0.7,0.8-0.4,1.3
			c0.3,0.6,0.6,1.2,1,1.8c0.6,1,0.8,1.9-0.3,3.1c-1.1,1.1-2.2,2.3-3.3,3.4c-0.8,0.8-0.5,1.2,0,1.3c1.1,0.2,3.1-0.9,5.2-2.4
			c0.1,0,0.1-0.1,0.2-0.1c0.3,0.2,0.6,0.6,0.7,1c-2.4,1.8-5.2,3.2-7.2,2.8c-2-0.4-2.3-2.1-0.9-3.6C-46.9,463.3-45.7,462.2-44.6,461z
			"/>
		<path class="st0" d="M-38.6,465.2c-0.1,0.1-0.2,0.2-0.3,0.3c-1.5,1.6-0.8,2.6,0.7,2.9c1.7,0.3,4.2-0.7,6.3-2.3
			c0.1,0,0.1-0.1,0.2-0.1c0.3,0.2,0.7,0.6,0.8,0.9c-2.4,1.8-5.5,3.3-8.3,2.8c-2.9-0.6-3.7-3.1-1.7-5.1c1.1-1.2,2.2-2.3,3.3-3.5
			c1.3-1.4,3-2.1,4.9-1.8c1.9,0.3,2.9,2.1,1.2,4c-0.1,0.2-0.3,0.3-0.4,0.5C-34.2,466.4-37.2,466.1-38.6,465.2z M-37.7,464.3
			c0.8,0.5,2.4,0.8,3.9-0.8c0.1-0.2,0.3-0.3,0.4-0.5c1.8-2.1-0.5-2.9-2.3-0.9C-36.3,462.8-37,463.5-37.7,464.3z"/>
		<path class="st0" d="M-14.2,468.5c0.3,0.2,0.7,0.6,0.8,0.9c-2.2,2-4.8,3.7-6.9,3.5c-2-0.3-2.5-1.9-1.3-3.4
			c1.3-1.6,2.5-3.1,3.8-4.7c1.3-1.8-0.6-2.4-6,3c-1.1,1.4-2.3,2.7-3.4,4c-0.8-0.1-1.7-0.3-2.5-0.4c2.1-2.4,4.2-4.9,6.2-7.3
			c1.4-1.7-0.6-2.4-6,2.7c-1.2,1.4-2.4,2.7-3.6,4.1c-0.8-0.1-1.6-0.3-2.5-0.4c2.9-3.2,5.8-6.4,8.5-9.7c0.8,0.1,1.6,0.2,2.4,0.4
			c-0.6,0.7-1.2,1.4-1.8,2.1c1.8-1.6,3.2-2.1,4.5-2c1.2,0.2,2.1,1.5,1,2.9c1.8-1.7,3.3-2.4,4.6-2.2c1.3,0.2,2.2,1.5,0.9,3.1
			c-1.4,1.8-2.8,3.6-4.2,5.3c-0.7,0.8-0.4,1.2,0.1,1.3c1.1,0.1,3-1.2,4.9-2.9C-14.4,468.6-14.3,468.5-14.2,468.5z"/>
		<path class="st0" d="M-8.2,469c0.3,0.2,0.7,0.5,0.8,0.9c-2.2,2-4.7,3.8-6.8,3.6c-2-0.2-2.6-1.9-1.3-3.4c1.9-2.5,3.8-4.9,5.6-7.4
			c0.8,0.1,1.6,0.1,2.4,0.2c-1.9,2.7-3.9,5.4-6,8c-0.7,0.8-0.4,1.2,0.2,1.3c1.1,0.1,3-1.2,4.9-3C-8.4,469.1-8.3,469.1-8.2,469z
			 M-6.9,459.1c0.8,0.1,1.3,0.7,1.3,1.4c-0.1,0.7-0.7,1.3-1.5,1.2c-0.8-0.1-1.3-0.7-1.2-1.4C-8.3,459.6-7.6,459-6.9,459.1z"/>
		<path class="st0" d="M3.2,469.8c0.3,0.1,0.7,0.5,0.9,0.8c-2.1,2.1-4.6,4-6.6,3.9c-1.6-0.1-2.3-1.1-2-2.3c-1.3,1-2.9,2-4.2,1.9
			c-1.6-0.1-2.1-1.6-0.6-3.5c1.8-2.4,3.6-4.9,5.3-7.4c0.8,0.1,1.6,0.1,2.4,0.2c-1.7,2.5-3.5,5-5.3,7.4c-0.3,0.5-1,1.3-0.4,1.6
			c0.5,0.2,2-0.5,3.9-2c1.6-2.3,3.2-4.5,4.7-6.8c0.8,0,1.6,0.1,2.4,0.1c-1.8,2.8-3.7,5.5-5.6,8.3c-0.6,0.9-0.3,1.2,0.2,1.3
			c1.1,0.1,2.9-1.4,4.8-3.2C3.1,469.9,3.2,469.8,3.2,469.8z"/>
		<path class="st0" d="M20.8,470c0.3,0.1,0.8,0.5,0.9,0.8c-2,2.2-4.3,4.3-6.4,4.3c-2,0-2.7-1.6-1.7-3.3c1.1-1.7,2.1-3.4,3.2-5.2
			c1.1-1.9-0.9-2.3-5.6,3.7c-0.9,1.5-1.9,3-2.9,4.4c-0.8,0-1.7,0-2.5-0.1c1.8-2.7,3.5-5.4,5.2-8.1c1.1-1.9-0.9-2.3-5.6,3.4
			c-1,1.5-2,3-3,4.5c-0.8,0-1.7-0.1-2.5-0.1c2.5-3.5,4.9-7.1,7.2-10.7c0.8,0,1.6,0,2.4,0.1c-0.5,0.8-1,1.6-1.5,2.3
			c1.6-1.8,2.9-2.5,4.2-2.5c1.3,0,2.2,1.2,1.4,2.8c1.6-1.9,3-2.8,4.3-2.8c1.3,0,2.3,1.2,1.3,3c-1.1,1.9-2.3,3.9-3.5,5.8
			c-0.6,0.9-0.3,1.3,0.3,1.3c1.1,0,2.8-1.5,4.5-3.5C20.7,470.1,20.8,470,20.8,470z"/>
		<path class="st0" d="M33.3,469.9c-4.1-0.1-4.8-4.5-3.1-7.7c5.1-9.9,17.3-5.7,12.4,5.1c-1.1,2.3-3,4.5-5.2,6c2.6,1.9,5.3,4,7.9,3.7
			c1.2-0.1,2.3-0.5,3.3-1.6c0.5,0.3,0.9,0.7,1.4,1c0,0-1.2,2-4.5,2.4c-3.5,0.4-6.8-2.5-9.7-4.6c-1.2,0.6-2.6,1-3.9,1.1
			c-2.3,0.1-3.6-1-3.6-2.1c-0.1-1.2,1-2.4,3.2-2.5c1.4-0.1,2.7,0.5,4.2,1.4c2-1.3,3.8-3.5,4.8-5.6c4.3-9.1-4.5-10.8-7.8-4.2
			c-2.1,4-0.7,5.7,1,6C33.5,468.8,33.4,469.4,33.3,469.9z M33.8,473c-0.9-0.5-1.8-0.8-2.6-0.8c-0.9,0-1.3,0.4-1.2,0.7
			c0,0.4,0.5,0.7,1.4,0.6C32.2,473.5,33,473.3,33.8,473z"/>
		<path class="st0" d="M56.2,467c0.3,0.1,0.8,0.4,1,0.6c-1.7,2.5-3.7,4.8-5.8,5.1c-1.6,0.2-2.5-0.7-2.4-1.9c-1,1.2-2.4,2.5-3.8,2.6
			c-1.6,0.2-2.3-1.2-1.3-3.3c1.3-2.7,2.6-5.5,3.9-8.2c0.8-0.1,1.6-0.2,2.4-0.3c-1.2,2.8-2.5,5.5-3.8,8.3c-0.3,0.5-0.8,1.4-0.1,1.6
			c0.5,0.1,1.8-0.9,3.5-2.7c1.1-2.5,2.3-5.1,3.3-7.6c0.8-0.1,1.6-0.2,2.4-0.3c-1.3,3.1-2.6,6.1-3.9,9.2c-0.4,1-0.1,1.3,0.4,1.2
			c1.1-0.1,2.6-1.9,4.1-4C56.1,467.1,56.1,467.1,56.2,467z"/>
		<path class="st0" d="M67.6,465.1c0.3,0.1,0.8,0.3,1.1,0.6c-1.6,2.5-3.5,5-5.6,5.3c-1.3,0.2-2.1-0.3-2.4-1.1c-1,1.1-2.2,1.9-3.2,2
			c-2,0.3-2.9-1.1-2.1-3c0.9-2,1.7-4,2.5-6c0.7-1.8,2.4-3.1,3.6-3.3c1.5-0.3,2.8,0.9,2.9,1.8c0.4-0.1,0.9-0.2,1.3-0.2
			c-0.9,2.4-1.8,4.7-2.7,7.1c-0.4,1,0,1.3,0.5,1.2c1.1-0.2,2.5-2,3.9-4.2C67.5,465.2,67.5,465.1,67.6,465.1z M57.6,469.2
			c-0.4,1-0.1,1.3,0.5,1.2c1-0.2,2.3-1.4,3.4-3.8c0.5-1.1,0.9-2.3,1.3-3.4c0.8-2.2-1.8-2.3-2.7,0C59.2,465.2,58.4,467.2,57.6,469.2z
			"/>
		<path class="st0" d="M73.5,463.8c0.3,0.1,0.8,0.3,1.1,0.6c-1.5,2.6-3.4,5-5.5,5.4c-2,0.4-3-1-2.3-2.9c1.8-4.7,3.5-9.4,5.1-14.1
			c0.8-0.2,1.5-0.3,2.3-0.5c-1.6,4.9-3.3,9.9-5.2,14.8c-0.4,1,0,1.3,0.5,1.2c1.1-0.2,2.5-2,3.8-4.3C73.4,464,73.5,463.9,73.5,463.8z
			"/>
		<path class="st0" d="M79.4,462.5c0.4,0.1,0.8,0.3,1.1,0.6c-1.5,2.6-3.3,5.1-5.3,5.6c-2,0.4-3-1-2.3-2.8c1.1-2.9,2.1-5.9,3.1-8.8
			c0.8-0.2,1.6-0.4,2.3-0.5c-1,3.2-2.1,6.3-3.2,9.5c-0.4,1,0,1.3,0.5,1.2c1.1-0.2,2.4-2.1,3.7-4.4C79.3,462.7,79.4,462.6,79.4,462.5
			z M77.6,452.6c0.8-0.2,1.5,0.2,1.7,1c0.2,0.7-0.3,1.4-1,1.6c-0.8,0.2-1.5-0.2-1.6-1C76.4,453.5,76.8,452.8,77.6,452.6z"/>
		<path class="st0" d="M79.9,454.9c0.7-0.2,1.4-0.3,2.1-0.5c0.4-1.4,0.8-2.8,1.2-4.2c0.8-0.2,1.5-0.4,2.3-0.6
			c-0.4,1.4-0.8,2.8-1.2,4.2c0.6-0.2,1.3-0.3,1.9-0.5c-0.1,0.4-0.3,0.8-0.4,1.2c-0.6,0.2-1.3,0.3-1.9,0.5c-0.9,3.2-1.9,6.4-3,9.6
			c-0.3,1,0,1.3,0.6,1.1c1.1-0.3,2.4-2.2,3.6-4.5c0-0.1,0.1-0.1,0.1-0.2c0.4,0,0.9,0.3,1.1,0.5c-1.4,2.6-3.2,5.2-5.2,5.7
			c-2,0.5-3-0.9-2.4-2.8c1-3,2-5.9,2.9-8.9c-0.7,0.2-1.4,0.4-2.1,0.5C79.6,455.7,79.8,455.3,79.9,454.9z"/>
		<path class="st0" d="M90.4,460.5c0.8-2.7,1.5-5.3,2.2-8c0.8-0.2,1.5-0.5,2.3-0.7c-1.1,4.1-2.2,8.1-3.4,12.2c1.7-1.3,3-3.1,4.3-5.8
			c0-0.1,0.1-0.1,0.1-0.2c0.4,0,0.9,0.2,1.1,0.5c-1.7,3.6-3.7,5.9-6.1,7.3c-0.4,1.1-0.7,2.3-1.1,3.4c-1,3.2-4.8,3.7-5.3,1.5
			c-0.4-1.7,1.4-3.4,4.4-5.2c0.3-0.8,0.5-1.6,0.8-2.4c-0.8,1.2-1.9,2.4-3.1,2.7c-1.6,0.4-2.5-0.8-1.8-3.1c0.9-2.9,1.8-5.8,2.6-8.7
			c0.8-0.2,1.5-0.4,2.3-0.7c-0.8,2.9-1.6,5.8-2.5,8.8c-0.2,0.5-0.6,1.5,0.1,1.6C87.8,463.9,89,462.6,90.4,460.5z M87.7,469.4
			c0.2-0.7,0.4-1.4,0.7-2.1c-1.7,1.2-2.1,2-2,2.5C86.5,470.5,87.4,470.4,87.7,469.4z"/>
	</g>
</g>
<polygon class="st0" points="-88.8,424.5 -87.3,429.3 -82.2,429.3 -86.3,432.3 -84.7,437.1 -88.8,434.1 -92.9,437.1 -91.3,432.3 
	-95.4,429.3 -90.4,429.3 "/>
<polygon class="st0" points="117.8,424.5 119.4,429.3 124.4,429.3 120.4,432.3 121.9,437.1 117.8,434.1 113.8,437.1 115.3,432.3 
	111.2,429.3 116.3,429.3 "/>
<g>
	<g>
		<path class="st0" d="M-52.1,422.1v1.2h2.4c0.1,0,0.2,0.1,0.2,0.2v1c0,0.1-0.1,0.2-0.2,0.2h-2.4v1.2h2.9c0.1,0,0.2,0.1,0.2,0.2v1
			c0,0.1-0.1,0.2-0.2,0.2h-4.1c-0.1,0-0.2-0.1-0.2-0.2v-6.1c0-0.1,0.1-0.2,0.2-0.2h4c0.1,0,0.2,0.1,0.2,0.2v1c0,0.1-0.1,0.2-0.2,0.2
			H-52.1z"/>
		<path class="st0" d="M-47,425.4c0-0.1,0.1-0.2,0.2-0.2h1c0.1,0,0.2,0.1,0.2,0.2c0,0.4,0.3,0.6,0.7,0.6c0.4,0,0.7-0.2,0.7-0.6
			c0-0.4-0.4-0.7-0.7-0.7c-0.1,0-0.5,0-1-0.2c-0.7-0.3-1.1-0.9-1.1-1.7c0-1.3,1-2,2.1-2c1.2,0,2.1,0.8,2.1,1.9
			c0,0.1-0.1,0.2-0.2,0.2h-1c-0.1,0-0.2-0.1-0.2-0.2c0-0.4-0.3-0.6-0.7-0.6c-0.4,0-0.7,0.2-0.7,0.7c0,0.4,0.3,0.6,0.7,0.6
			c0,0,0.5,0,1,0.2c0.7,0.3,1.1,1,1.1,1.8c0,1.3-1,2-2.1,2C-46,427.3-47,426.6-47,425.4z"/>
		<path class="st0" d="M-36.9,421.9c0,0.1-0.1,0.2-0.2,0.2h-1.1v5c0,0.1-0.1,0.2-0.2,0.2h-1c-0.1,0-0.2-0.1-0.2-0.2v-5h-1.1
			c-0.1,0-0.2-0.1-0.2-0.2v-0.9c0-0.1,0.1-0.2,0.2-0.2h3.6c0.1,0,0.2,0.1,0.2,0.2V421.9z"/>
		<path class="st0" d="M-33.6,420.8c1.6,0,3.8,0.4,3.8,3.2c0,2.8-2.2,3.2-3.8,3.2h-1c-0.1,0-0.2-0.1-0.2-0.2v-6.1
			c0-0.1,0.1-0.2,0.2-0.2H-33.6z M-33.4,425.9c0.7,0,2.2-0.1,2.2-1.9c0-1.4-0.9-1.9-2.2-1.9V425.9z"/>
		<path class="st0" d="M-26.3,426.6c0,0.4-0.3,0.7-0.7,0.7c-0.4,0-0.7-0.3-0.7-0.7c0-0.4,0.3-0.7,0.7-0.7
			C-26.7,425.9-26.3,426.2-26.3,426.6z"/>
	</g>
</g>
<g>
	<g>
		<path class="st0" d="M62.5,427.1c0,0.1-0.1,0.2-0.2,0.2h-1c-0.1,0-0.2-0.1-0.2-0.2v-4.7c-0.1,0-0.3,0.1-0.5,0.2h0l-0.2,0.1
			c-0.1,0-0.2,0-0.2-0.1l-0.3-0.7c0-0.1,0-0.2,0.1-0.2h0c0.5-0.3,1-0.5,1.4-0.8h0.9c0.1,0,0.2,0.1,0.2,0.2V427.1z"/>
		<path class="st0" d="M68.5,422.7c0,0.2,0,0.4-0.1,0.7l-1.3,3.8c0,0.1-0.1,0.1-0.2,0.1h-1.1c-0.1,0-0.2-0.1-0.2-0.2l0.9-2.4h-0.2
			c-1.1,0-1.8-1-1.8-1.9c0-1.1,0.9-1.9,2-1.9C67.8,420.7,68.5,421.6,68.5,422.7z M67.2,422.6c0-0.4-0.3-0.7-0.6-0.7
			c-0.3,0-0.6,0.3-0.6,0.7c0,0.4,0.3,0.7,0.6,0.7C66.9,423.3,67.2,423,67.2,422.6z"/>
		<path class="st0" d="M70.6,425.4c0-0.1,0.1-0.2,0.2-0.2h1c0.1,0,0.2,0.1,0.2,0.2c0,0.4,0.3,0.6,0.6,0.6c0.4,0,0.7-0.4,0.7-0.8
			c0-0.5-0.2-0.9-0.7-0.9h-1.7c-0.1,0-0.2-0.1-0.2-0.2v-3.2c0-0.1,0.1-0.2,0.2-0.2h3.3c0.1,0,0.2,0.1,0.2,0.2v1
			c0,0.1-0.1,0.2-0.2,0.2H72v1h0.5c1.4,0,2.1,0.9,2.1,2.2c0,1.3-1,2-2.1,2C71.4,427.3,70.6,426.6,70.6,425.4z"/>
		<path class="st0" d="M80.4,422.7c0,0.2,0,0.4-0.1,0.7l-1.3,3.8c0,0.1-0.1,0.1-0.2,0.1h-1.1c-0.1,0-0.2-0.1-0.2-0.2l0.9-2.4h-0.2
			c-1.1,0-1.8-1-1.8-1.9c0-1.1,0.9-1.9,2-1.9C79.6,420.7,80.4,421.6,80.4,422.7z M79.1,422.6c0-0.4-0.3-0.7-0.6-0.7
			c-0.3,0-0.6,0.3-0.6,0.7c0,0.4,0.3,0.7,0.6,0.7C78.8,423.3,79.1,423,79.1,422.6z"/>
	</g>
</g>
</svg>
